<?xml version="1.0" encoding="utf-8"?>
<!-- Generator: Adobe Illustrator 16.0.0, SVG Export Plug-In . SVG Version: 6.00 Build 0)  -->
<!DOCTYPE svg PUBLIC "-//W3C//DTD SVG 1.1//EN" "http://www.w3.org/Graphics/SVG/1.1/DTD/svg11.dtd">
<svg version="1.1" id="Layer_1" xmlns="http://www.w3.org/2000/svg" xmlns:xlink="http://www.w3.org/1999/xlink" x="0px" y="0px"
	 width="958.252px" height="478.036px" viewBox="0.005 -0.001 958.252 478.036"
	 enable-background="new 0.005 -0.001 958.252 478.036" xml:space="preserve">
<g>
	<g>
		<circle fill="#F9B800" cx="349.417" cy="6.729" r="1.45"/>
		<circle fill="#F9B800" cx="338.86" cy="6.729" r="1.45"/>
		<circle fill="#F9B800" cx="328.302" cy="6.729" r="1.451"/>
		<circle fill="#F9B800" cx="317.745" cy="6.729" r="1.45"/>
		<circle fill="#F9B800" cx="307.186" cy="6.729" r="1.45"/>
		<circle fill="#F9B800" cx="296.629" cy="6.729" r="1.451"/>
		<circle fill="#F9B800" cx="286.071" cy="6.729" r="1.45"/>
		<circle fill="#F9B800" cx="354.696" cy="1.45" r="1.45"/>
		<circle fill="#F9B800" cx="344.139" cy="1.45" r="1.45"/>
		<circle fill="#F9B800" cx="333.58" cy="1.45" r="1.451"/>
		<circle fill="#F9B800" cx="323.023" cy="1.45" r="1.45"/>
		<circle fill="#F9B800" cx="312.466" cy="1.45" r="1.45"/>
		<circle fill="#F9B800" cx="301.907" cy="1.45" r="1.45"/>
		<circle fill="#F9B800" cx="291.349" cy="1.45" r="1.45"/>
		<circle fill="#F9B800" cx="280.792" cy="1.45" r="1.45"/>
		<circle fill="#F9B800" cx="349.417" cy="17.286" r="1.45"/>
		<circle fill="#F9B800" cx="338.86" cy="17.286" r="1.45"/>
		<circle fill="#F9B800" cx="328.302" cy="17.286" r="1.451"/>
		<circle fill="#F9B800" cx="317.745" cy="17.286" r="1.45"/>
		<circle fill="#F9B800" cx="307.186" cy="17.286" r="1.45"/>
		<circle fill="#F9B800" cx="296.629" cy="17.286" r="1.451"/>
		<circle fill="#F9B800" cx="286.071" cy="17.286" r="1.45"/>
		<circle fill="#F9B800" cx="354.696" cy="12.008" r="1.45"/>
		<circle fill="#F9B800" cx="344.139" cy="12.008" r="1.45"/>
		<circle fill="#F9B800" cx="333.58" cy="12.008" r="1.451"/>
		<circle fill="#F9B800" cx="323.023" cy="12.008" r="1.45"/>
		<circle fill="#F9B800" cx="312.466" cy="12.008" r="1.45"/>
		<circle fill="#F9B800" cx="301.907" cy="12.008" r="1.45"/>
		<circle fill="#F9B800" cx="291.349" cy="12.008" r="1.45"/>
		<circle fill="#F9B800" cx="280.792" cy="12.008" r="1.45"/>
		<circle fill="#F9B800" cx="349.417" cy="27.845" r="1.45"/>
		<circle fill="#F9B800" cx="338.86" cy="27.845" r="1.45"/>
		<circle fill="#F9B800" cx="328.302" cy="27.845" r="1.451"/>
		<circle fill="#F9B800" cx="317.745" cy="27.845" r="1.45"/>
		<circle fill="#F9B800" cx="307.186" cy="27.845" r="1.45"/>
		<circle fill="#F9B800" cx="296.629" cy="27.845" r="1.451"/>
		<circle fill="#F9B800" cx="286.071" cy="27.845" r="1.45"/>
		<circle fill="#F9B800" cx="354.696" cy="22.566" r="1.45"/>
		<circle fill="#F9B800" cx="344.139" cy="22.566" r="1.45"/>
		<circle fill="#F9B800" cx="333.58" cy="22.566" r="1.451"/>
		<circle fill="#F9B800" cx="323.023" cy="22.566" r="1.45"/>
		<circle fill="#F9B800" cx="312.466" cy="22.566" r="1.45"/>
		<circle fill="#F9B800" cx="301.907" cy="22.566" r="1.45"/>
		<circle fill="#F9B800" cx="291.349" cy="22.566" r="1.45"/>
		<circle fill="#F9B800" cx="280.792" cy="22.566" r="1.45"/>
		<circle fill="#F9B800" cx="349.417" cy="38.403" r="1.45"/>
		<circle fill="#F9B800" cx="338.86" cy="38.403" r="1.45"/>
		<circle fill="#F9B800" cx="328.302" cy="38.403" r="1.451"/>
		<circle fill="#F9B800" cx="317.745" cy="38.403" r="1.45"/>
		<circle fill="#F9B800" cx="307.186" cy="38.403" r="1.45"/>
		<circle fill="#F9B800" cx="296.629" cy="38.403" r="1.451"/>
		<circle fill="#F9B800" cx="286.071" cy="38.403" r="1.45"/>
		<circle fill="#F9B800" cx="354.696" cy="33.124" r="1.45"/>
		<circle fill="#F9B800" cx="344.139" cy="33.124" r="1.45"/>
		<circle fill="#F9B800" cx="333.58" cy="33.124" r="1.451"/>
		<circle fill="#F9B800" cx="323.023" cy="33.124" r="1.45"/>
		<circle fill="#F9B800" cx="312.466" cy="33.124" r="1.45"/>
		<circle fill="#F9B800" cx="301.907" cy="33.124" r="1.45"/>
		<circle fill="#F9B800" cx="291.349" cy="33.124" r="1.45"/>
		<circle fill="#F9B800" cx="280.792" cy="33.124" r="1.45"/>
		<circle fill="#F9B800" cx="349.417" cy="48.961" r="1.45"/>
		<circle fill="#F9B800" cx="338.86" cy="48.961" r="1.45"/>
		<circle fill="#F9B800" cx="328.302" cy="48.961" r="1.451"/>
		<circle fill="#F9B800" cx="317.745" cy="48.961" r="1.45"/>
		<circle fill="#F9B800" cx="307.186" cy="48.961" r="1.45"/>
		<circle fill="#F9B800" cx="296.629" cy="48.961" r="1.451"/>
		<circle fill="#F9B800" cx="286.071" cy="48.961" r="1.45"/>
		<circle fill="#F9B800" cx="354.696" cy="43.683" r="1.45"/>
		<circle fill="#F9B800" cx="344.139" cy="43.683" r="1.45"/>
		<circle fill="#F9B800" cx="333.58" cy="43.683" r="1.451"/>
		<circle fill="#F9B800" cx="323.023" cy="43.683" r="1.45"/>
		<circle fill="#F9B800" cx="312.466" cy="43.683" r="1.45"/>
		<circle fill="#F9B800" cx="301.907" cy="43.683" r="1.45"/>
		<circle fill="#F9B800" cx="291.349" cy="43.683" r="1.45"/>
		<circle fill="#F9B800" cx="280.792" cy="43.683" r="1.45"/>
		<circle fill="#F9B800" cx="349.417" cy="59.52" r="1.45"/>
		<circle fill="#F9B800" cx="338.86" cy="59.52" r="1.45"/>
		<circle fill="#F9B800" cx="328.302" cy="59.52" r="1.451"/>
		<circle fill="#F9B800" cx="317.745" cy="59.52" r="1.45"/>
		<circle fill="#F9B800" cx="307.186" cy="59.52" r="1.45"/>
		<circle fill="#F9B800" cx="296.629" cy="59.52" r="1.451"/>
		<circle fill="#F9B800" cx="286.071" cy="59.52" r="1.45"/>
		<circle fill="#F9B800" cx="354.696" cy="54.24" r="1.45"/>
		<circle fill="#F9B800" cx="344.139" cy="54.24" r="1.45"/>
		<circle fill="#F9B800" cx="333.58" cy="54.24" r="1.451"/>
		<circle fill="#F9B800" cx="323.023" cy="54.24" r="1.45"/>
		<circle fill="#F9B800" cx="312.466" cy="54.24" r="1.45"/>
		<circle fill="#F9B800" cx="301.907" cy="54.24" r="1.45"/>
		<circle fill="#F9B800" cx="291.349" cy="54.24" r="1.45"/>
		<circle fill="#F9B800" cx="280.792" cy="54.24" r="1.45"/>
		<circle fill="#F9B800" cx="349.417" cy="70.077" r="1.45"/>
		<circle fill="#F9B800" cx="338.86" cy="70.077" r="1.45"/>
		<circle fill="#F9B800" cx="328.302" cy="70.077" r="1.451"/>
		<circle fill="#F9B800" cx="317.745" cy="70.077" r="1.45"/>
		<circle fill="#F9B800" cx="307.186" cy="70.077" r="1.45"/>
		<circle fill="#F9B800" cx="296.629" cy="70.077" r="1.451"/>
		<circle fill="#F9B800" cx="286.071" cy="70.077" r="1.45"/>
		<circle fill="#F9B800" cx="354.696" cy="64.798" r="1.45"/>
		<circle fill="#F9B800" cx="344.139" cy="64.798" r="1.45"/>
		<circle fill="#F9B800" cx="333.58" cy="64.798" r="1.451"/>
		<circle fill="#F9B800" cx="323.023" cy="64.798" r="1.45"/>
		<circle fill="#F9B800" cx="312.466" cy="64.798" r="1.45"/>
		<circle fill="#F9B800" cx="301.907" cy="64.798" r="1.45"/>
		<circle fill="#F9B800" cx="291.349" cy="64.798" r="1.45"/>
		<circle fill="#F9B800" cx="280.792" cy="64.798" r="1.45"/>
		<circle fill="#F9B800" cx="349.417" cy="80.636" r="1.45"/>
		<circle fill="#F9B800" cx="338.86" cy="80.636" r="1.45"/>
		<circle fill="#F9B800" cx="328.302" cy="80.636" r="1.451"/>
		<circle fill="#F9B800" cx="317.745" cy="80.636" r="1.45"/>
		<circle fill="#F9B800" cx="307.186" cy="80.636" r="1.45"/>
		<circle fill="#F9B800" cx="296.629" cy="80.636" r="1.451"/>
		<circle fill="#F9B800" cx="286.071" cy="80.636" r="1.45"/>
		<circle fill="#F9B800" cx="354.696" cy="75.356" r="1.45"/>
		<circle fill="#F9B800" cx="344.139" cy="75.356" r="1.45"/>
		<circle fill="#F9B800" cx="333.58" cy="75.356" r="1.451"/>
		<circle fill="#F9B800" cx="323.023" cy="75.356" r="1.45"/>
		<circle fill="#F9B800" cx="312.466" cy="75.356" r="1.45"/>
		<circle fill="#F9B800" cx="301.907" cy="75.356" r="1.45"/>
		<circle fill="#F9B800" cx="291.349" cy="75.356" r="1.45"/>
		<circle fill="#F9B800" cx="280.792" cy="75.356" r="1.45"/>
		<circle fill="#F9B800" cx="349.417" cy="91.193" r="1.45"/>
		<circle fill="#F9B800" cx="338.86" cy="91.193" r="1.45"/>
		<circle fill="#F9B800" cx="328.302" cy="91.193" r="1.451"/>
		<circle fill="#F9B800" cx="317.745" cy="91.193" r="1.45"/>
		<circle fill="#F9B800" cx="307.186" cy="91.193" r="1.45"/>
		<circle fill="#F9B800" cx="296.629" cy="91.193" r="1.451"/>
		<circle fill="#F9B800" cx="286.071" cy="91.193" r="1.45"/>
		<circle fill="#F9B800" cx="354.696" cy="85.915" r="1.45"/>
		<circle fill="#F9B800" cx="344.139" cy="85.915" r="1.45"/>
		<circle fill="#F9B800" cx="333.58" cy="85.915" r="1.451"/>
		<circle fill="#F9B800" cx="323.023" cy="85.915" r="1.45"/>
		<circle fill="#F9B800" cx="312.466" cy="85.915" r="1.45"/>
		<circle fill="#F9B800" cx="301.907" cy="85.915" r="1.45"/>
		<circle fill="#F9B800" cx="291.349" cy="85.915" r="1.45"/>
		<circle fill="#F9B800" cx="280.792" cy="85.915" r="1.45"/>
		<circle fill="#F9B800" cx="349.417" cy="101.752" r="1.45"/>
		<circle fill="#F9B800" cx="338.86" cy="101.752" r="1.45"/>
		<circle fill="#F9B800" cx="328.302" cy="101.752" r="1.451"/>
		<circle fill="#F9B800" cx="317.745" cy="101.752" r="1.45"/>
		<circle fill="#F9B800" cx="307.186" cy="101.752" r="1.45"/>
		<circle fill="#F9B800" cx="296.629" cy="101.752" r="1.451"/>
		<circle fill="#F9B800" cx="286.071" cy="101.752" r="1.45"/>
		<circle fill="#F9B800" cx="354.696" cy="96.474" r="1.45"/>
		<circle fill="#F9B800" cx="344.139" cy="96.474" r="1.45"/>
		<circle fill="#F9B800" cx="333.58" cy="96.474" r="1.451"/>
		<circle fill="#F9B800" cx="323.023" cy="96.474" r="1.45"/>
		<circle fill="#F9B800" cx="312.466" cy="96.474" r="1.45"/>
		<circle fill="#F9B800" cx="301.907" cy="96.474" r="1.45"/>
		<circle fill="#F9B800" cx="291.349" cy="96.474" r="1.45"/>
		<circle fill="#F9B800" cx="280.792" cy="96.474" r="1.45"/>
		<circle fill="#F9B800" cx="349.417" cy="112.31" r="1.45"/>
		<circle fill="#F9B800" cx="338.86" cy="112.31" r="1.45"/>
		<circle fill="#F9B800" cx="328.302" cy="112.31" r="1.451"/>
		<circle fill="#F9B800" cx="317.745" cy="112.31" r="1.45"/>
		<circle fill="#F9B800" cx="307.186" cy="112.31" r="1.45"/>
		<circle fill="#F9B800" cx="296.629" cy="112.31" r="1.451"/>
		<circle fill="#F9B800" cx="286.071" cy="112.31" r="1.45"/>
		<circle fill="#F9B800" cx="354.696" cy="107.031" r="1.45"/>
		<circle fill="#F9B800" cx="344.139" cy="107.031" r="1.45"/>
		<circle fill="#F9B800" cx="333.58" cy="107.031" r="1.451"/>
		<circle fill="#F9B800" cx="323.023" cy="107.031" r="1.45"/>
		<circle fill="#F9B800" cx="312.466" cy="107.031" r="1.45"/>
		<circle fill="#F9B800" cx="301.907" cy="107.031" r="1.45"/>
		<circle fill="#F9B800" cx="291.349" cy="107.031" r="1.45"/>
		<circle fill="#F9B800" cx="280.792" cy="107.031" r="1.45"/>
		<circle fill="#F9B800" cx="349.417" cy="122.868" r="1.45"/>
		<circle fill="#F9B800" cx="338.86" cy="122.868" r="1.45"/>
		<circle fill="#F9B800" cx="328.302" cy="122.868" r="1.451"/>
		<circle fill="#F9B800" cx="317.745" cy="122.868" r="1.45"/>
		<circle fill="#F9B800" cx="307.186" cy="122.868" r="1.45"/>
		<circle fill="#F9B800" cx="296.629" cy="122.868" r="1.451"/>
		<circle fill="#F9B800" cx="286.071" cy="122.868" r="1.45"/>
		<circle fill="#F9B800" cx="354.696" cy="117.589" r="1.45"/>
		<circle fill="#F9B800" cx="344.139" cy="117.589" r="1.45"/>
		<circle fill="#F9B800" cx="333.58" cy="117.589" r="1.451"/>
		<circle fill="#F9B800" cx="323.023" cy="117.589" r="1.45"/>
		<circle fill="#F9B800" cx="312.466" cy="117.589" r="1.45"/>
		<circle fill="#F9B800" cx="301.907" cy="117.589" r="1.45"/>
		<circle fill="#F9B800" cx="291.349" cy="117.589" r="1.45"/>
		<circle fill="#F9B800" cx="280.792" cy="117.589" r="1.45"/>
		<circle fill="#F9B800" cx="349.417" cy="133.426" r="1.45"/>
		<circle fill="#F9B800" cx="338.86" cy="133.426" r="1.45"/>
		<circle fill="#F9B800" cx="328.302" cy="133.426" r="1.451"/>
		<circle fill="#F9B800" cx="317.745" cy="133.426" r="1.45"/>
		<circle fill="#F9B800" cx="307.186" cy="133.426" r="1.45"/>
		<circle fill="#F9B800" cx="296.629" cy="133.426" r="1.451"/>
		<circle fill="#F9B800" cx="286.071" cy="133.426" r="1.45"/>
		<circle fill="#F9B800" cx="354.696" cy="128.147" r="1.45"/>
		<circle fill="#F9B800" cx="344.139" cy="128.147" r="1.45"/>
		<circle fill="#F9B800" cx="333.58" cy="128.147" r="1.451"/>
		<circle fill="#F9B800" cx="323.023" cy="128.147" r="1.45"/>
		<circle fill="#F9B800" cx="312.466" cy="128.147" r="1.45"/>
		<circle fill="#F9B800" cx="301.907" cy="128.147" r="1.45"/>
		<circle fill="#F9B800" cx="291.349" cy="128.147" r="1.45"/>
		<circle fill="#F9B800" cx="280.792" cy="128.147" r="1.45"/>
		<circle fill="#F9B800" cx="349.417" cy="143.983" r="1.45"/>
		<circle fill="#F9B800" cx="338.86" cy="143.983" r="1.45"/>
		<circle fill="#F9B800" cx="328.302" cy="143.983" r="1.451"/>
		<circle fill="#F9B800" cx="317.745" cy="143.983" r="1.45"/>
		<circle fill="#F9B800" cx="307.186" cy="143.983" r="1.45"/>
		<circle fill="#F9B800" cx="296.629" cy="143.983" r="1.451"/>
		<circle fill="#F9B800" cx="286.071" cy="143.983" r="1.45"/>
		<circle fill="#F9B800" cx="354.696" cy="138.706" r="1.45"/>
		<circle fill="#F9B800" cx="344.139" cy="138.706" r="1.45"/>
		<circle fill="#F9B800" cx="333.58" cy="138.706" r="1.451"/>
		<circle fill="#F9B800" cx="323.023" cy="138.706" r="1.45"/>
		<circle fill="#F9B800" cx="312.466" cy="138.706" r="1.45"/>
		<circle fill="#F9B800" cx="301.907" cy="138.706" r="1.45"/>
		<circle fill="#F9B800" cx="291.349" cy="138.706" r="1.45"/>
		<circle fill="#F9B800" cx="280.792" cy="138.706" r="1.45"/>
		<circle fill="#F9B800" cx="349.417" cy="154.542" r="1.45"/>
		<circle fill="#F9B800" cx="338.86" cy="154.542" r="1.45"/>
		<circle fill="#F9B800" cx="328.302" cy="154.542" r="1.451"/>
		<circle fill="#F9B800" cx="317.745" cy="154.542" r="1.45"/>
		<circle fill="#F9B800" cx="307.186" cy="154.542" r="1.45"/>
		<circle fill="#F9B800" cx="296.629" cy="154.542" r="1.451"/>
		<circle fill="#F9B800" cx="286.071" cy="154.542" r="1.45"/>
		<circle fill="#F9B800" cx="354.696" cy="149.264" r="1.45"/>
		<circle fill="#F9B800" cx="344.139" cy="149.264" r="1.45"/>
		<circle fill="#F9B800" cx="333.58" cy="149.264" r="1.451"/>
		<circle fill="#F9B800" cx="323.023" cy="149.264" r="1.45"/>
		<circle fill="#F9B800" cx="312.466" cy="149.264" r="1.45"/>
		<circle fill="#F9B800" cx="301.907" cy="149.264" r="1.45"/>
		<circle fill="#F9B800" cx="291.349" cy="149.264" r="1.45"/>
		<circle fill="#F9B800" cx="280.792" cy="149.264" r="1.45"/>
		<circle fill="#F9B800" cx="349.417" cy="165.101" r="1.45"/>
		<circle fill="#F9B800" cx="338.86" cy="165.101" r="1.45"/>
		<circle fill="#F9B800" cx="328.302" cy="165.101" r="1.451"/>
		<circle fill="#F9B800" cx="317.744" cy="165.101" r="1.45"/>
		<circle fill="#F9B800" cx="307.186" cy="165.101" r="1.45"/>
		<circle fill="#F9B800" cx="296.629" cy="165.101" r="1.451"/>
		<circle fill="#F9B800" cx="286.07" cy="165.101" r="1.451"/>
		<circle fill="#F9B800" cx="354.696" cy="159.821" r="1.45"/>
		<circle fill="#F9B800" cx="344.139" cy="159.821" r="1.45"/>
		<circle fill="#F9B800" cx="333.58" cy="159.821" r="1.451"/>
		<circle fill="#F9B800" cx="323.023" cy="159.821" r="1.45"/>
		<circle fill="#F9B800" cx="312.465" cy="159.821" r="1.449"/>
		<circle fill="#F9B800" cx="301.907" cy="159.821" r="1.45"/>
		<circle fill="#F9B800" cx="291.349" cy="159.821" r="1.45"/>
		<circle fill="#F9B800" cx="280.792" cy="159.821" r="1.45"/>
		<circle fill="#F9B800" cx="349.417" cy="175.659" r="1.45"/>
		<circle fill="#F9B800" cx="338.86" cy="175.659" r="1.45"/>
		<circle fill="#F9B800" cx="328.302" cy="175.659" r="1.451"/>
		<circle fill="#F9B800" cx="317.744" cy="175.659" r="1.45"/>
		<circle fill="#F9B800" cx="307.186" cy="175.659" r="1.45"/>
		<circle fill="#F9B800" cx="296.629" cy="175.659" r="1.451"/>
		<circle fill="#F9B800" cx="286.07" cy="175.659" r="1.451"/>
		<circle fill="#F9B800" cx="354.696" cy="170.379" r="1.45"/>
		<circle fill="#F9B800" cx="344.139" cy="170.379" r="1.45"/>
		<circle fill="#F9B800" cx="333.58" cy="170.379" r="1.451"/>
		<circle fill="#F9B800" cx="323.023" cy="170.379" r="1.45"/>
		<circle fill="#F9B800" cx="312.465" cy="170.379" r="1.449"/>
		<circle fill="#F9B800" cx="301.907" cy="170.379" r="1.45"/>
		<circle fill="#F9B800" cx="291.349" cy="170.379" r="1.45"/>
		<circle fill="#F9B800" cx="280.792" cy="170.379" r="1.45"/>
		<circle fill="#F9B800" cx="349.417" cy="186.216" r="1.45"/>
		<circle fill="#F9B800" cx="338.86" cy="186.216" r="1.45"/>
		<circle fill="#F9B800" cx="328.302" cy="186.216" r="1.451"/>
		<circle fill="#F9B800" cx="317.744" cy="186.216" r="1.45"/>
		<circle fill="#F9B800" cx="307.186" cy="186.216" r="1.45"/>
		<circle fill="#F9B800" cx="296.629" cy="186.216" r="1.451"/>
		<circle fill="#F9B800" cx="286.07" cy="186.216" r="1.451"/>
		<circle fill="#F9B800" cx="354.696" cy="180.938" r="1.45"/>
		<circle fill="#F9B800" cx="344.139" cy="180.938" r="1.45"/>
		<circle fill="#F9B800" cx="333.58" cy="180.938" r="1.451"/>
		<circle fill="#F9B800" cx="323.023" cy="180.938" r="1.45"/>
		<circle fill="#F9B800" cx="312.465" cy="180.938" r="1.449"/>
		<circle fill="#F9B800" cx="301.907" cy="180.938" r="1.45"/>
		<circle fill="#F9B800" cx="291.349" cy="180.938" r="1.45"/>
		<circle fill="#F9B800" cx="280.792" cy="180.938" r="1.45"/>
		<circle fill="#F9B800" cx="349.417" cy="196.774" r="1.45"/>
		<circle fill="#F9B800" cx="338.86" cy="196.774" r="1.45"/>
		<circle fill="#F9B800" cx="328.302" cy="196.774" r="1.451"/>
		<circle fill="#F9B800" cx="317.744" cy="196.774" r="1.45"/>
		<circle fill="#F9B800" cx="307.186" cy="196.774" r="1.45"/>
		<circle fill="#F9B800" cx="296.629" cy="196.774" r="1.451"/>
		<circle fill="#F9B800" cx="286.07" cy="196.774" r="1.451"/>
		<circle fill="#F9B800" cx="354.696" cy="191.496" r="1.45"/>
		<circle fill="#F9B800" cx="344.139" cy="191.496" r="1.45"/>
		<circle fill="#F9B800" cx="333.58" cy="191.496" r="1.451"/>
		<circle fill="#F9B800" cx="323.023" cy="191.496" r="1.45"/>
		<circle fill="#F9B800" cx="312.465" cy="191.496" r="1.449"/>
		<circle fill="#F9B800" cx="301.907" cy="191.496" r="1.45"/>
		<circle fill="#F9B800" cx="291.349" cy="191.496" r="1.45"/>
		<circle fill="#F9B800" cx="280.792" cy="191.496" r="1.45"/>
		<circle fill="#F9B800" cx="349.417" cy="207.333" r="1.45"/>
		<circle fill="#F9B800" cx="338.86" cy="207.333" r="1.45"/>
		<circle fill="#F9B800" cx="328.302" cy="207.333" r="1.451"/>
		<circle fill="#F9B800" cx="317.744" cy="207.333" r="1.45"/>
		<circle fill="#F9B800" cx="307.186" cy="207.333" r="1.45"/>
		<circle fill="#F9B800" cx="296.629" cy="207.333" r="1.451"/>
		<circle fill="#F9B800" cx="286.07" cy="207.333" r="1.451"/>
		<circle fill="#F9B800" cx="354.696" cy="202.054" r="1.45"/>
		<circle fill="#F9B800" cx="344.139" cy="202.054" r="1.45"/>
		<circle fill="#F9B800" cx="333.58" cy="202.054" r="1.451"/>
		<circle fill="#F9B800" cx="323.023" cy="202.054" r="1.45"/>
		<circle fill="#F9B800" cx="312.465" cy="202.054" r="1.449"/>
		<circle fill="#F9B800" cx="301.907" cy="202.054" r="1.45"/>
		<circle fill="#F9B800" cx="291.349" cy="202.054" r="1.45"/>
		<circle fill="#F9B800" cx="280.792" cy="202.054" r="1.45"/>
		<circle fill="#F9B800" cx="349.417" cy="217.891" r="1.45"/>
		<circle fill="#F9B800" cx="338.86" cy="217.891" r="1.45"/>
		<circle fill="#F9B800" cx="328.302" cy="217.891" r="1.451"/>
		<circle fill="#F9B800" cx="317.744" cy="217.891" r="1.45"/>
		<circle fill="#F9B800" cx="307.186" cy="217.891" r="1.45"/>
		<circle fill="#F9B800" cx="296.629" cy="217.891" r="1.451"/>
		<circle fill="#F9B800" cx="286.07" cy="217.891" r="1.451"/>
		<circle fill="#F9B800" cx="354.696" cy="212.612" r="1.45"/>
		<circle fill="#F9B800" cx="344.139" cy="212.612" r="1.45"/>
		<circle fill="#F9B800" cx="333.58" cy="212.612" r="1.451"/>
		<circle fill="#F9B800" cx="323.023" cy="212.612" r="1.45"/>
		<circle fill="#F9B800" cx="312.465" cy="212.612" r="1.449"/>
		<circle fill="#F9B800" cx="301.907" cy="212.612" r="1.45"/>
		<circle fill="#F9B800" cx="291.349" cy="212.612" r="1.45"/>
		<circle fill="#F9B800" cx="280.792" cy="212.612" r="1.45"/>
		<circle fill="#F9B800" cx="349.417" cy="228.448" r="1.45"/>
		<circle fill="#F9B800" cx="338.86" cy="228.448" r="1.45"/>
		<circle fill="#F9B800" cx="328.302" cy="228.448" r="1.451"/>
		<circle fill="#F9B800" cx="317.744" cy="228.448" r="1.45"/>
		<circle fill="#F9B800" cx="307.186" cy="228.448" r="1.45"/>
		<circle fill="#F9B800" cx="296.629" cy="228.448" r="1.451"/>
		<circle fill="#F9B800" cx="286.07" cy="228.448" r="1.451"/>
		<circle fill="#F9B800" cx="354.696" cy="223.17" r="1.45"/>
		<circle fill="#F9B800" cx="344.139" cy="223.17" r="1.45"/>
		<circle fill="#F9B800" cx="333.58" cy="223.17" r="1.451"/>
		<circle fill="#F9B800" cx="323.023" cy="223.17" r="1.45"/>
		<circle fill="#F9B800" cx="312.465" cy="223.17" r="1.449"/>
		<circle fill="#F9B800" cx="301.907" cy="223.17" r="1.45"/>
		<circle fill="#F9B800" cx="291.349" cy="223.17" r="1.45"/>
		<circle fill="#F9B800" cx="280.792" cy="223.17" r="1.45"/>
		<circle fill="#F9B800" cx="349.417" cy="239.008" r="1.45"/>
		<circle fill="#F9B800" cx="338.86" cy="239.008" r="1.45"/>
		<circle fill="#F9B800" cx="328.302" cy="239.008" r="1.451"/>
		<circle fill="#F9B800" cx="317.744" cy="239.008" r="1.45"/>
		<circle fill="#F9B800" cx="307.186" cy="239.008" r="1.45"/>
		<circle fill="#F9B800" cx="296.629" cy="239.008" r="1.451"/>
		<circle fill="#F9B800" cx="286.07" cy="239.008" r="1.451"/>
		<circle fill="#F9B800" cx="354.696" cy="233.728" r="1.45"/>
		<circle fill="#F9B800" cx="344.139" cy="233.728" r="1.45"/>
		<circle fill="#F9B800" cx="333.58" cy="233.728" r="1.451"/>
		<circle fill="#F9B800" cx="323.023" cy="233.728" r="1.45"/>
		<circle fill="#F9B800" cx="312.465" cy="233.728" r="1.449"/>
		<circle fill="#F9B800" cx="301.907" cy="233.728" r="1.45"/>
		<circle fill="#F9B800" cx="291.349" cy="233.728" r="1.45"/>
		<circle fill="#F9B800" cx="280.792" cy="233.728" r="1.45"/>
		<circle fill="#F9B800" cx="349.417" cy="249.565" r="1.45"/>
		<circle fill="#F9B800" cx="338.86" cy="249.565" r="1.45"/>
		<circle fill="#F9B800" cx="328.302" cy="249.565" r="1.451"/>
		<circle fill="#F9B800" cx="317.744" cy="249.565" r="1.45"/>
		<circle fill="#F9B800" cx="307.186" cy="249.565" r="1.45"/>
		<circle fill="#F9B800" cx="296.629" cy="249.565" r="1.451"/>
		<circle fill="#F9B800" cx="286.07" cy="249.565" r="1.451"/>
		<circle fill="#F9B800" cx="354.696" cy="244.286" r="1.45"/>
		<circle fill="#F9B800" cx="344.139" cy="244.286" r="1.45"/>
		<circle fill="#F9B800" cx="333.58" cy="244.286" r="1.451"/>
		<circle fill="#F9B800" cx="323.023" cy="244.286" r="1.45"/>
		<circle fill="#F9B800" cx="312.465" cy="244.286" r="1.449"/>
		<circle fill="#F9B800" cx="301.907" cy="244.286" r="1.45"/>
		<circle fill="#F9B800" cx="291.349" cy="244.286" r="1.45"/>
		<circle fill="#F9B800" cx="280.792" cy="244.286" r="1.45"/>
		<circle fill="#F9B800" cx="349.417" cy="260.124" r="1.45"/>
		<circle fill="#F9B800" cx="338.86" cy="260.124" r="1.45"/>
		<circle fill="#F9B800" cx="328.302" cy="260.123" r="1.451"/>
		<circle fill="#F9B800" cx="317.744" cy="260.124" r="1.45"/>
		<circle fill="#F9B800" cx="307.186" cy="260.124" r="1.45"/>
		<circle fill="#F9B800" cx="296.629" cy="260.123" r="1.451"/>
		<circle fill="#F9B800" cx="286.07" cy="260.123" r="1.451"/>
		<circle fill="#F9B800" cx="354.696" cy="254.845" r="1.45"/>
		<circle fill="#F9B800" cx="344.139" cy="254.845" r="1.45"/>
		<circle fill="#F9B800" cx="333.58" cy="254.845" r="1.451"/>
		<circle fill="#F9B800" cx="323.023" cy="254.845" r="1.45"/>
		<circle fill="#F9B800" cx="312.465" cy="254.845" r="1.449"/>
		<circle fill="#F9B800" cx="301.907" cy="254.845" r="1.45"/>
		<circle fill="#F9B800" cx="291.349" cy="254.845" r="1.45"/>
		<circle fill="#F9B800" cx="280.792" cy="254.845" r="1.45"/>
		<circle fill="#F9B800" cx="349.417" cy="270.682" r="1.45"/>
		<circle fill="#F9B800" cx="338.86" cy="270.682" r="1.45"/>
		<circle fill="#F9B800" cx="328.302" cy="270.682" r="1.451"/>
		<circle fill="#F9B800" cx="317.744" cy="270.682" r="1.45"/>
		<circle fill="#F9B800" cx="307.186" cy="270.682" r="1.45"/>
		<circle fill="#F9B800" cx="296.629" cy="270.682" r="1.451"/>
		<circle fill="#F9B800" cx="286.07" cy="270.682" r="1.451"/>
		<circle fill="#F9B800" cx="354.696" cy="265.403" r="1.45"/>
		<circle fill="#F9B800" cx="344.139" cy="265.403" r="1.45"/>
		<circle fill="#F9B800" cx="333.58" cy="265.403" r="1.451"/>
		<circle fill="#F9B800" cx="323.023" cy="265.403" r="1.45"/>
		<circle fill="#F9B800" cx="312.465" cy="265.403" r="1.449"/>
		<circle fill="#F9B800" cx="301.907" cy="265.403" r="1.45"/>
		<circle fill="#F9B800" cx="291.349" cy="265.403" r="1.45"/>
		<circle fill="#F9B800" cx="280.792" cy="265.403" r="1.45"/>
		<circle fill="#F9B800" cx="349.417" cy="281.239" r="1.45"/>
		<circle fill="#F9B800" cx="338.86" cy="281.239" r="1.45"/>
		<circle fill="#F9B800" cx="328.302" cy="281.239" r="1.451"/>
		<circle fill="#F9B800" cx="317.744" cy="281.239" r="1.45"/>
		<circle fill="#F9B800" cx="307.186" cy="281.239" r="1.45"/>
		<circle fill="#F9B800" cx="296.629" cy="281.239" r="1.451"/>
		<circle fill="#F9B800" cx="286.07" cy="281.239" r="1.451"/>
		<circle fill="#F9B800" cx="354.696" cy="275.962" r="1.45"/>
		<circle fill="#F9B800" cx="344.139" cy="275.962" r="1.45"/>
		<circle fill="#F9B800" cx="333.58" cy="275.962" r="1.451"/>
		<circle fill="#F9B800" cx="323.023" cy="275.962" r="1.45"/>
		<circle fill="#F9B800" cx="312.465" cy="275.962" r="1.449"/>
		<circle fill="#F9B800" cx="301.907" cy="275.962" r="1.45"/>
		<circle fill="#F9B800" cx="291.349" cy="275.962" r="1.45"/>
		<circle fill="#F9B800" cx="280.792" cy="275.962" r="1.45"/>
		<circle fill="#F9B800" cx="349.417" cy="291.798" r="1.45"/>
		<circle fill="#F9B800" cx="338.86" cy="291.798" r="1.45"/>
		<circle fill="#F9B800" cx="328.302" cy="291.798" r="1.451"/>
		<circle fill="#F9B800" cx="317.744" cy="291.798" r="1.45"/>
		<circle fill="#F9B800" cx="307.186" cy="291.798" r="1.45"/>
		<circle fill="#F9B800" cx="296.629" cy="291.798" r="1.451"/>
		<circle fill="#F9B800" cx="286.07" cy="291.798" r="1.451"/>
		<circle fill="#F9B800" cx="354.696" cy="286.519" r="1.45"/>
		<circle fill="#F9B800" cx="344.139" cy="286.519" r="1.45"/>
		<circle fill="#F9B800" cx="333.58" cy="286.519" r="1.451"/>
		<circle fill="#F9B800" cx="323.023" cy="286.519" r="1.45"/>
		<circle fill="#F9B800" cx="312.465" cy="286.519" r="1.449"/>
		<circle fill="#F9B800" cx="301.907" cy="286.519" r="1.45"/>
		<circle fill="#F9B800" cx="291.349" cy="286.519" r="1.45"/>
		<circle fill="#F9B800" cx="280.792" cy="286.519" r="1.45"/>
		<circle fill="#F9B800" cx="349.417" cy="302.356" r="1.45"/>
		<circle fill="#F9B800" cx="338.86" cy="302.356" r="1.45"/>
		<circle fill="#F9B800" cx="328.302" cy="302.356" r="1.451"/>
		<circle fill="#F9B800" cx="317.744" cy="302.356" r="1.45"/>
		<circle fill="#F9B800" cx="307.186" cy="302.356" r="1.45"/>
		<circle fill="#F9B800" cx="296.629" cy="302.356" r="1.451"/>
		<circle fill="#F9B800" cx="286.07" cy="302.356" r="1.451"/>
		<circle fill="#F9B800" cx="354.696" cy="297.077" r="1.45"/>
		<circle fill="#F9B800" cx="344.139" cy="297.077" r="1.45"/>
		<circle fill="#F9B800" cx="333.58" cy="297.077" r="1.451"/>
		<circle fill="#F9B800" cx="323.023" cy="297.077" r="1.45"/>
		<circle fill="#F9B800" cx="312.465" cy="297.077" r="1.449"/>
		<circle fill="#F9B800" cx="301.907" cy="297.077" r="1.45"/>
		<circle fill="#F9B800" cx="291.349" cy="297.077" r="1.45"/>
		<circle fill="#F9B800" cx="280.792" cy="297.077" r="1.45"/>
		<circle fill="#F9B800" cx="349.417" cy="312.913" r="1.45"/>
		<circle fill="#F9B800" cx="338.86" cy="312.913" r="1.45"/>
		<circle fill="#F9B800" cx="328.302" cy="312.914" r="1.451"/>
		<circle fill="#F9B800" cx="317.744" cy="312.913" r="1.45"/>
		<circle fill="#F9B800" cx="307.186" cy="312.913" r="1.45"/>
		<circle fill="#F9B800" cx="296.629" cy="312.914" r="1.451"/>
		<circle fill="#F9B800" cx="286.07" cy="312.914" r="1.451"/>
		<circle fill="#F9B800" cx="354.696" cy="307.635" r="1.45"/>
		<circle fill="#F9B800" cx="344.139" cy="307.635" r="1.45"/>
		<circle fill="#F9B800" cx="333.58" cy="307.636" r="1.451"/>
		<circle fill="#F9B800" cx="323.023" cy="307.635" r="1.45"/>
		<circle fill="#F9B800" cx="312.465" cy="307.636" r="1.449"/>
		<circle fill="#F9B800" cx="301.907" cy="307.635" r="1.45"/>
		<circle fill="#F9B800" cx="291.349" cy="307.635" r="1.45"/>
		<circle fill="#F9B800" cx="280.792" cy="307.635" r="1.45"/>
		<circle fill="#F9B800" cx="349.417" cy="323.471" r="1.45"/>
		<circle fill="#F9B800" cx="338.86" cy="323.471" r="1.45"/>
		<circle fill="#F9B800" cx="328.302" cy="323.472" r="1.451"/>
		<circle fill="#F9B800" cx="317.744" cy="323.471" r="1.45"/>
		<circle fill="#F9B800" cx="307.186" cy="323.471" r="1.45"/>
		<circle fill="#F9B800" cx="296.629" cy="323.472" r="1.451"/>
		<circle fill="#F9B800" cx="286.07" cy="323.472" r="1.451"/>
		<circle fill="#F9B800" cx="354.696" cy="318.194" r="1.45"/>
		<circle fill="#F9B800" cx="344.139" cy="318.194" r="1.45"/>
		<circle fill="#F9B800" cx="333.58" cy="318.194" r="1.45"/>
		<circle fill="#F9B800" cx="323.023" cy="318.194" r="1.45"/>
		<circle fill="#F9B800" cx="312.465" cy="318.194" r="1.448"/>
		<circle fill="#F9B800" cx="301.907" cy="318.194" r="1.45"/>
		<circle fill="#F9B800" cx="291.349" cy="318.194" r="1.45"/>
		<circle fill="#F9B800" cx="280.792" cy="318.194" r="1.45"/>
		<circle fill="#F9B800" cx="349.417" cy="334.03" r="1.45"/>
		<circle fill="#F9B800" cx="338.86" cy="334.03" r="1.45"/>
		<circle fill="#F9B800" cx="328.302" cy="334.031" r="1.451"/>
		<circle fill="#F9B800" cx="317.744" cy="334.03" r="1.45"/>
		<circle fill="#F9B800" cx="307.186" cy="334.03" r="1.45"/>
		<circle fill="#F9B800" cx="296.629" cy="334.031" r="1.451"/>
		<circle fill="#F9B800" cx="286.07" cy="334.031" r="1.451"/>
		<circle fill="#F9B800" cx="354.696" cy="328.75" r="1.45"/>
		<circle fill="#F9B800" cx="344.139" cy="328.75" r="1.45"/>
		<circle fill="#F9B800" cx="333.58" cy="328.751" r="1.451"/>
		<circle fill="#F9B800" cx="323.023" cy="328.75" r="1.45"/>
		<circle fill="#F9B800" cx="312.465" cy="328.751" r="1.449"/>
		<circle fill="#F9B800" cx="301.907" cy="328.75" r="1.45"/>
		<circle fill="#F9B800" cx="291.349" cy="328.75" r="1.45"/>
		<circle fill="#F9B800" cx="280.792" cy="328.75" r="1.45"/>
		<circle fill="#F9B800" cx="349.417" cy="344.588" r="1.45"/>
		<circle fill="#F9B800" cx="338.86" cy="344.588" r="1.45"/>
		<circle fill="#F9B800" cx="328.302" cy="344.589" r="1.451"/>
		<circle fill="#F9B800" cx="317.744" cy="344.588" r="1.45"/>
		<circle fill="#F9B800" cx="307.186" cy="344.588" r="1.45"/>
		<circle fill="#F9B800" cx="296.629" cy="344.589" r="1.451"/>
		<circle fill="#F9B800" cx="286.07" cy="344.589" r="1.451"/>
		<circle fill="#F9B800" cx="354.696" cy="339.31" r="1.449"/>
		<circle fill="#F9B800" cx="344.139" cy="339.31" r="1.449"/>
		<circle fill="#F9B800" cx="333.58" cy="339.31" r="1.451"/>
		<circle fill="#F9B800" cx="323.023" cy="339.31" r="1.449"/>
		<circle fill="#F9B800" cx="312.465" cy="339.31" r="1.449"/>
		<circle fill="#F9B800" cx="301.907" cy="339.31" r="1.449"/>
		<circle fill="#F9B800" cx="291.349" cy="339.31" r="1.449"/>
		<circle fill="#F9B800" cx="280.792" cy="339.31" r="1.449"/>
		<circle fill="#F9B800" cx="349.417" cy="355.147" r="1.45"/>
		<circle fill="#F9B800" cx="338.86" cy="355.147" r="1.45"/>
		<circle fill="#F9B800" cx="328.302" cy="355.147" r="1.45"/>
		<circle fill="#F9B800" cx="317.744" cy="355.147" r="1.45"/>
		<circle fill="#F9B800" cx="307.186" cy="355.147" r="1.45"/>
		<circle fill="#F9B800" cx="296.629" cy="355.147" r="1.45"/>
		<circle fill="#F9B800" cx="286.07" cy="355.147" r="1.45"/>
		<circle fill="#F9B800" cx="354.696" cy="349.866" r="1.45"/>
		<circle fill="#F9B800" cx="344.139" cy="349.866" r="1.45"/>
		<circle fill="#F9B800" cx="333.58" cy="349.867" r="1.451"/>
		<circle fill="#F9B800" cx="323.023" cy="349.866" r="1.45"/>
		<circle fill="#F9B800" cx="312.465" cy="349.867" r="1.449"/>
		<circle fill="#F9B800" cx="301.907" cy="349.866" r="1.45"/>
		<circle fill="#F9B800" cx="291.349" cy="349.866" r="1.45"/>
		<circle fill="#F9B800" cx="280.792" cy="349.866" r="1.45"/>
		<circle fill="#F9B800" cx="349.417" cy="365.704" r="1.45"/>
		<circle fill="#F9B800" cx="338.86" cy="365.704" r="1.45"/>
		<circle fill="#F9B800" cx="328.302" cy="365.705" r="1.451"/>
		<circle fill="#F9B800" cx="317.744" cy="365.704" r="1.45"/>
		<circle fill="#F9B800" cx="307.186" cy="365.704" r="1.45"/>
		<circle fill="#F9B800" cx="296.629" cy="365.705" r="1.451"/>
		<circle fill="#F9B800" cx="286.07" cy="365.705" r="1.451"/>
		<circle fill="#F9B800" cx="354.696" cy="360.426" r="1.45"/>
		<circle fill="#F9B800" cx="344.139" cy="360.426" r="1.45"/>
		<circle fill="#F9B800" cx="333.58" cy="360.427" r="1.451"/>
		<circle fill="#F9B800" cx="323.023" cy="360.426" r="1.45"/>
		<circle fill="#F9B800" cx="312.465" cy="360.427" r="1.449"/>
		<circle fill="#F9B800" cx="301.907" cy="360.426" r="1.45"/>
		<circle fill="#F9B800" cx="291.349" cy="360.426" r="1.45"/>
		<circle fill="#F9B800" cx="280.792" cy="360.426" r="1.45"/>
		<circle fill="#F9B800" cx="349.417" cy="376.262" r="1.45"/>
		<circle fill="#F9B800" cx="338.86" cy="376.262" r="1.45"/>
		<circle fill="#F9B800" cx="328.302" cy="376.263" r="1.451"/>
		<circle fill="#F9B800" cx="317.744" cy="376.262" r="1.45"/>
		<circle fill="#F9B800" cx="307.186" cy="376.262" r="1.45"/>
		<circle fill="#F9B800" cx="296.629" cy="376.263" r="1.451"/>
		<circle fill="#F9B800" cx="286.07" cy="376.263" r="1.451"/>
		<circle fill="#F9B800" cx="354.696" cy="370.983" r="1.45"/>
		<circle fill="#F9B800" cx="344.139" cy="370.983" r="1.45"/>
		<circle fill="#F9B800" cx="333.58" cy="370.983" r="1.45"/>
		<circle fill="#F9B800" cx="323.023" cy="370.983" r="1.45"/>
		<circle fill="#F9B800" cx="312.465" cy="370.983" r="1.448"/>
		<circle fill="#F9B800" cx="301.907" cy="370.983" r="1.45"/>
		<circle fill="#F9B800" cx="291.349" cy="370.983" r="1.45"/>
		<circle fill="#F9B800" cx="280.792" cy="370.983" r="1.45"/>
		<circle fill="#F9B800" cx="349.417" cy="386.821" r="1.45"/>
		<circle fill="#F9B800" cx="338.86" cy="386.821" r="1.45"/>
		<circle fill="#F9B800" cx="328.302" cy="386.822" r="1.451"/>
		<circle fill="#F9B800" cx="317.744" cy="386.821" r="1.45"/>
		<circle fill="#F9B800" cx="307.186" cy="386.821" r="1.45"/>
		<circle fill="#F9B800" cx="296.629" cy="386.822" r="1.451"/>
		<circle fill="#F9B800" cx="286.07" cy="386.822" r="1.451"/>
		<circle fill="#F9B800" cx="354.696" cy="381.542" r="1.45"/>
		<circle fill="#F9B800" cx="344.139" cy="381.542" r="1.45"/>
		<circle fill="#F9B800" cx="333.58" cy="381.542" r="1.451"/>
		<circle fill="#F9B800" cx="323.023" cy="381.542" r="1.45"/>
		<circle fill="#F9B800" cx="312.465" cy="381.542" r="1.449"/>
		<circle fill="#F9B800" cx="301.907" cy="381.542" r="1.45"/>
		<circle fill="#F9B800" cx="291.349" cy="381.542" r="1.45"/>
		<circle fill="#F9B800" cx="280.792" cy="381.542" r="1.45"/>
	</g>
	<g>
		<circle fill="#F9B800" cx="423.32" cy="6.729" r="1.45"/>
		<circle fill="#F9B800" cx="412.763" cy="6.729" r="1.45"/>
		<circle fill="#F9B800" cx="402.205" cy="6.729" r="1.451"/>
		<circle fill="#F9B800" cx="391.648" cy="6.729" r="1.45"/>
		<circle fill="#F9B800" cx="381.089" cy="6.729" r="1.45"/>
		<circle fill="#F9B800" cx="370.532" cy="6.729" r="1.45"/>
		<circle fill="#F9B800" cx="359.975" cy="6.729" r="1.45"/>
		<circle fill="#F9B800" cx="428.599" cy="1.45" r="1.45"/>
		<circle fill="#F9B800" cx="418.042" cy="1.45" r="1.45"/>
		<circle fill="#F9B800" cx="407.484" cy="1.45" r="1.45"/>
		<circle fill="#F9B800" cx="396.926" cy="1.45" r="1.45"/>
		<circle fill="#F9B800" cx="386.369" cy="1.45" r="1.45"/>
		<circle fill="#F9B800" cx="375.81" cy="1.45" r="1.45"/>
		<circle fill="#F9B800" cx="365.253" cy="1.45" r="1.45"/>
		<circle fill="#F9B800" cx="354.696" cy="1.45" r="1.45"/>
		<circle fill="#F9B800" cx="423.32" cy="17.286" r="1.45"/>
		<circle fill="#F9B800" cx="412.763" cy="17.286" r="1.45"/>
		<circle fill="#F9B800" cx="402.205" cy="17.286" r="1.451"/>
		<circle fill="#F9B800" cx="391.648" cy="17.286" r="1.45"/>
		<circle fill="#F9B800" cx="381.089" cy="17.286" r="1.45"/>
		<circle fill="#F9B800" cx="370.532" cy="17.286" r="1.45"/>
		<circle fill="#F9B800" cx="359.975" cy="17.286" r="1.45"/>
		<circle fill="#F9B800" cx="428.599" cy="12.008" r="1.45"/>
		<circle fill="#F9B800" cx="418.042" cy="12.008" r="1.45"/>
		<circle fill="#F9B800" cx="407.484" cy="12.008" r="1.45"/>
		<circle fill="#F9B800" cx="396.926" cy="12.008" r="1.45"/>
		<circle fill="#F9B800" cx="386.369" cy="12.008" r="1.45"/>
		<circle fill="#F9B800" cx="375.81" cy="12.008" r="1.45"/>
		<circle fill="#F9B800" cx="365.253" cy="12.008" r="1.45"/>
		<circle fill="#F9B800" cx="354.696" cy="12.008" r="1.45"/>
		<circle fill="#F9B800" cx="423.32" cy="27.845" r="1.45"/>
		<circle fill="#F9B800" cx="412.763" cy="27.845" r="1.45"/>
		<circle fill="#F9B800" cx="402.205" cy="27.845" r="1.451"/>
		<circle fill="#F9B800" cx="391.648" cy="27.845" r="1.45"/>
		<circle fill="#F9B800" cx="381.089" cy="27.845" r="1.45"/>
		<circle fill="#F9B800" cx="370.532" cy="27.845" r="1.45"/>
		<circle fill="#F9B800" cx="359.975" cy="27.845" r="1.45"/>
		<circle fill="#F9B800" cx="428.599" cy="22.566" r="1.45"/>
		<circle fill="#F9B800" cx="418.042" cy="22.566" r="1.45"/>
		<circle fill="#F9B800" cx="407.484" cy="22.566" r="1.45"/>
		<circle fill="#F9B800" cx="396.926" cy="22.566" r="1.45"/>
		<circle fill="#F9B800" cx="386.369" cy="22.566" r="1.45"/>
		<circle fill="#F9B800" cx="375.81" cy="22.566" r="1.45"/>
		<circle fill="#F9B800" cx="365.253" cy="22.566" r="1.45"/>
		<circle fill="#F9B800" cx="354.696" cy="22.566" r="1.45"/>
		<circle fill="#F9B800" cx="423.32" cy="38.403" r="1.45"/>
		<circle fill="#F9B800" cx="412.763" cy="38.403" r="1.45"/>
		<circle fill="#F9B800" cx="402.205" cy="38.403" r="1.451"/>
		<circle fill="#F9B800" cx="391.648" cy="38.403" r="1.45"/>
		<circle fill="#F9B800" cx="381.089" cy="38.403" r="1.45"/>
		<circle fill="#F9B800" cx="370.532" cy="38.403" r="1.45"/>
		<circle fill="#F9B800" cx="359.975" cy="38.403" r="1.45"/>
		<circle fill="#F9B800" cx="428.599" cy="33.124" r="1.45"/>
		<circle fill="#F9B800" cx="418.042" cy="33.124" r="1.45"/>
		<circle fill="#F9B800" cx="407.484" cy="33.124" r="1.45"/>
		<circle fill="#F9B800" cx="396.926" cy="33.124" r="1.45"/>
		<circle fill="#F9B800" cx="386.369" cy="33.124" r="1.45"/>
		<circle fill="#F9B800" cx="375.81" cy="33.124" r="1.45"/>
		<circle fill="#F9B800" cx="365.253" cy="33.124" r="1.45"/>
		<circle fill="#F9B800" cx="354.696" cy="33.124" r="1.45"/>
		<circle fill="#F9B800" cx="423.32" cy="48.961" r="1.45"/>
		<circle fill="#F9B800" cx="412.763" cy="48.961" r="1.45"/>
		<circle fill="#F9B800" cx="402.205" cy="48.961" r="1.451"/>
		<circle fill="#F9B800" cx="391.648" cy="48.961" r="1.45"/>
		<circle fill="#F9B800" cx="381.089" cy="48.961" r="1.45"/>
		<circle fill="#F9B800" cx="370.532" cy="48.961" r="1.45"/>
		<circle fill="#F9B800" cx="359.975" cy="48.961" r="1.45"/>
		<circle fill="#F9B800" cx="428.599" cy="43.683" r="1.45"/>
		<circle fill="#F9B800" cx="418.042" cy="43.683" r="1.45"/>
		<circle fill="#F9B800" cx="407.484" cy="43.683" r="1.45"/>
		<circle fill="#F9B800" cx="396.926" cy="43.683" r="1.45"/>
		<circle fill="#F9B800" cx="386.369" cy="43.683" r="1.45"/>
		<circle fill="#F9B800" cx="375.81" cy="43.683" r="1.45"/>
		<circle fill="#F9B800" cx="365.253" cy="43.683" r="1.45"/>
		<circle fill="#F9B800" cx="354.696" cy="43.683" r="1.45"/>
		<circle fill="#F9B800" cx="423.32" cy="59.52" r="1.45"/>
		<circle fill="#F9B800" cx="412.763" cy="59.52" r="1.45"/>
		<circle fill="#F9B800" cx="402.205" cy="59.52" r="1.451"/>
		<circle fill="#F9B800" cx="391.648" cy="59.52" r="1.45"/>
		<circle fill="#F9B800" cx="381.089" cy="59.52" r="1.45"/>
		<circle fill="#F9B800" cx="370.532" cy="59.52" r="1.45"/>
		<circle fill="#F9B800" cx="359.975" cy="59.52" r="1.45"/>
		<circle fill="#F9B800" cx="428.599" cy="54.24" r="1.45"/>
		<circle fill="#F9B800" cx="418.042" cy="54.24" r="1.45"/>
		<circle fill="#F9B800" cx="407.484" cy="54.24" r="1.45"/>
		<circle fill="#F9B800" cx="396.926" cy="54.24" r="1.45"/>
		<circle fill="#F9B800" cx="386.369" cy="54.24" r="1.45"/>
		<circle fill="#F9B800" cx="375.81" cy="54.24" r="1.45"/>
		<circle fill="#F9B800" cx="365.253" cy="54.24" r="1.45"/>
		<circle fill="#F9B800" cx="354.696" cy="54.24" r="1.45"/>
		<circle fill="#F9B800" cx="423.32" cy="70.077" r="1.45"/>
		<circle fill="#F9B800" cx="412.763" cy="70.077" r="1.45"/>
		<circle fill="#F9B800" cx="402.205" cy="70.077" r="1.451"/>
		<circle fill="#F9B800" cx="391.648" cy="70.077" r="1.45"/>
		<circle fill="#F9B800" cx="381.089" cy="70.077" r="1.45"/>
		<circle fill="#F9B800" cx="370.532" cy="70.077" r="1.45"/>
		<circle fill="#F9B800" cx="359.975" cy="70.077" r="1.45"/>
		<circle fill="#F9B800" cx="428.599" cy="64.798" r="1.45"/>
		<circle fill="#F9B800" cx="418.042" cy="64.798" r="1.45"/>
		<circle fill="#F9B800" cx="407.484" cy="64.798" r="1.45"/>
		<circle fill="#F9B800" cx="396.926" cy="64.798" r="1.45"/>
		<circle fill="#F9B800" cx="386.369" cy="64.798" r="1.45"/>
		<circle fill="#F9B800" cx="375.81" cy="64.798" r="1.45"/>
		<circle fill="#F9B800" cx="365.253" cy="64.798" r="1.45"/>
		<circle fill="#F9B800" cx="354.696" cy="64.798" r="1.45"/>
		<circle fill="#F9B800" cx="423.32" cy="80.636" r="1.45"/>
		<circle fill="#F9B800" cx="412.763" cy="80.636" r="1.45"/>
		<circle fill="#F9B800" cx="402.205" cy="80.636" r="1.451"/>
		<circle fill="#F9B800" cx="391.648" cy="80.636" r="1.45"/>
		<circle fill="#F9B800" cx="381.089" cy="80.636" r="1.45"/>
		<circle fill="#F9B800" cx="370.532" cy="80.636" r="1.45"/>
		<circle fill="#F9B800" cx="359.975" cy="80.636" r="1.45"/>
		<circle fill="#F9B800" cx="428.599" cy="75.356" r="1.45"/>
		<circle fill="#F9B800" cx="418.042" cy="75.356" r="1.45"/>
		<circle fill="#F9B800" cx="407.484" cy="75.356" r="1.45"/>
		<circle fill="#F9B800" cx="396.926" cy="75.356" r="1.45"/>
		<circle fill="#F9B800" cx="386.369" cy="75.356" r="1.45"/>
		<circle fill="#F9B800" cx="375.81" cy="75.356" r="1.45"/>
		<circle fill="#F9B800" cx="365.253" cy="75.356" r="1.45"/>
		<circle fill="#F9B800" cx="354.696" cy="75.356" r="1.45"/>
		<circle fill="#F9B800" cx="423.32" cy="91.193" r="1.45"/>
		<circle fill="#F9B800" cx="412.763" cy="91.193" r="1.45"/>
		<circle fill="#F9B800" cx="402.205" cy="91.193" r="1.451"/>
		<circle fill="#F9B800" cx="391.648" cy="91.193" r="1.45"/>
		<circle fill="#F9B800" cx="381.089" cy="91.193" r="1.45"/>
		<circle fill="#F9B800" cx="370.532" cy="91.193" r="1.45"/>
		<circle fill="#F9B800" cx="359.975" cy="91.193" r="1.45"/>
		<circle fill="#F9B800" cx="428.599" cy="85.915" r="1.45"/>
		<circle fill="#F9B800" cx="418.042" cy="85.915" r="1.45"/>
		<circle fill="#F9B800" cx="407.484" cy="85.915" r="1.45"/>
		<circle fill="#F9B800" cx="396.926" cy="85.915" r="1.45"/>
		<circle fill="#F9B800" cx="386.369" cy="85.915" r="1.45"/>
		<circle fill="#F9B800" cx="375.81" cy="85.915" r="1.45"/>
		<circle fill="#F9B800" cx="365.253" cy="85.915" r="1.45"/>
		<circle fill="#F9B800" cx="354.696" cy="85.915" r="1.45"/>
		<circle fill="#F9B800" cx="423.32" cy="101.752" r="1.45"/>
		<circle fill="#F9B800" cx="412.763" cy="101.752" r="1.45"/>
		<circle fill="#F9B800" cx="402.205" cy="101.752" r="1.451"/>
		<circle fill="#F9B800" cx="391.648" cy="101.752" r="1.45"/>
		<circle fill="#F9B800" cx="381.089" cy="101.752" r="1.45"/>
		<circle fill="#F9B800" cx="370.532" cy="101.752" r="1.45"/>
		<circle fill="#F9B800" cx="359.975" cy="101.752" r="1.45"/>
		<circle fill="#F9B800" cx="428.599" cy="96.474" r="1.45"/>
		<circle fill="#F9B800" cx="418.042" cy="96.474" r="1.45"/>
		<circle fill="#F9B800" cx="407.484" cy="96.474" r="1.45"/>
		<circle fill="#F9B800" cx="396.926" cy="96.474" r="1.45"/>
		<circle fill="#F9B800" cx="386.369" cy="96.474" r="1.45"/>
		<circle fill="#F9B800" cx="375.81" cy="96.474" r="1.45"/>
		<circle fill="#F9B800" cx="365.253" cy="96.474" r="1.45"/>
		<circle fill="#F9B800" cx="354.696" cy="96.474" r="1.45"/>
		<circle fill="#F9B800" cx="423.32" cy="112.31" r="1.45"/>
		<circle fill="#F9B800" cx="412.763" cy="112.31" r="1.45"/>
		<circle fill="#F9B800" cx="402.205" cy="112.31" r="1.451"/>
		<circle fill="#F9B800" cx="391.648" cy="112.31" r="1.45"/>
		<circle fill="#F9B800" cx="381.089" cy="112.31" r="1.45"/>
		<circle fill="#F9B800" cx="370.532" cy="112.31" r="1.45"/>
		<circle fill="#F9B800" cx="359.975" cy="112.31" r="1.45"/>
		<circle fill="#F9B800" cx="428.599" cy="107.031" r="1.45"/>
		<circle fill="#F9B800" cx="418.042" cy="107.031" r="1.45"/>
		<circle fill="#F9B800" cx="407.484" cy="107.031" r="1.45"/>
		<circle fill="#F9B800" cx="396.926" cy="107.031" r="1.45"/>
		<circle fill="#F9B800" cx="386.369" cy="107.031" r="1.45"/>
		<circle fill="#F9B800" cx="375.81" cy="107.031" r="1.45"/>
		<circle fill="#F9B800" cx="365.253" cy="107.031" r="1.45"/>
		<circle fill="#F9B800" cx="354.696" cy="107.031" r="1.45"/>
		<circle fill="#F9B800" cx="423.32" cy="122.868" r="1.45"/>
		<circle fill="#F9B800" cx="412.763" cy="122.868" r="1.45"/>
		<circle fill="#F9B800" cx="402.205" cy="122.868" r="1.451"/>
		<circle fill="#F9B800" cx="391.648" cy="122.868" r="1.45"/>
		<circle fill="#F9B800" cx="381.089" cy="122.868" r="1.45"/>
		<circle fill="#F9B800" cx="370.532" cy="122.868" r="1.45"/>
		<circle fill="#F9B800" cx="359.975" cy="122.868" r="1.45"/>
		<circle fill="#F9B800" cx="428.599" cy="117.589" r="1.45"/>
		<circle fill="#F9B800" cx="418.042" cy="117.589" r="1.45"/>
		<circle fill="#F9B800" cx="407.484" cy="117.589" r="1.45"/>
		<circle fill="#F9B800" cx="396.926" cy="117.589" r="1.45"/>
		<circle fill="#F9B800" cx="386.369" cy="117.589" r="1.45"/>
		<circle fill="#F9B800" cx="375.81" cy="117.589" r="1.45"/>
		<circle fill="#F9B800" cx="365.253" cy="117.589" r="1.45"/>
		<circle fill="#F9B800" cx="354.696" cy="117.589" r="1.45"/>
		<circle fill="#F9B800" cx="423.32" cy="133.426" r="1.45"/>
		<circle fill="#F9B800" cx="412.763" cy="133.426" r="1.45"/>
		<circle fill="#F9B800" cx="402.205" cy="133.426" r="1.451"/>
		<circle fill="#F9B800" cx="391.648" cy="133.426" r="1.45"/>
		<circle fill="#F9B800" cx="381.089" cy="133.426" r="1.45"/>
		<circle fill="#F9B800" cx="370.532" cy="133.426" r="1.45"/>
		<circle fill="#F9B800" cx="359.975" cy="133.426" r="1.45"/>
		<circle fill="#F9B800" cx="428.599" cy="128.147" r="1.45"/>
		<circle fill="#F9B800" cx="418.042" cy="128.147" r="1.45"/>
		<circle fill="#F9B800" cx="407.484" cy="128.147" r="1.45"/>
		<circle fill="#F9B800" cx="396.926" cy="128.147" r="1.45"/>
		<circle fill="#F9B800" cx="386.369" cy="128.147" r="1.45"/>
		<circle fill="#F9B800" cx="375.81" cy="128.147" r="1.45"/>
		<circle fill="#F9B800" cx="365.253" cy="128.147" r="1.45"/>
		<circle fill="#F9B800" cx="354.696" cy="128.147" r="1.45"/>
		<circle fill="#F9B800" cx="423.32" cy="143.983" r="1.45"/>
		<circle fill="#F9B800" cx="412.763" cy="143.983" r="1.45"/>
		<circle fill="#F9B800" cx="402.205" cy="143.983" r="1.451"/>
		<circle fill="#F9B800" cx="391.648" cy="143.983" r="1.45"/>
		<circle fill="#F9B800" cx="381.089" cy="143.983" r="1.45"/>
		<circle fill="#F9B800" cx="370.532" cy="143.983" r="1.45"/>
		<circle fill="#F9B800" cx="359.975" cy="143.983" r="1.45"/>
		<circle fill="#F9B800" cx="428.599" cy="138.706" r="1.45"/>
		<circle fill="#F9B800" cx="418.042" cy="138.706" r="1.45"/>
		<circle fill="#F9B800" cx="407.484" cy="138.706" r="1.45"/>
		<circle fill="#F9B800" cx="396.926" cy="138.706" r="1.45"/>
		<circle fill="#F9B800" cx="386.369" cy="138.706" r="1.45"/>
		<circle fill="#F9B800" cx="375.81" cy="138.706" r="1.45"/>
		<circle fill="#F9B800" cx="365.253" cy="138.706" r="1.45"/>
		<circle fill="#F9B800" cx="354.696" cy="138.706" r="1.45"/>
		<circle fill="#F9B800" cx="423.32" cy="154.542" r="1.45"/>
		<circle fill="#F9B800" cx="412.763" cy="154.542" r="1.45"/>
		<circle fill="#F9B800" cx="402.205" cy="154.542" r="1.451"/>
		<circle fill="#F9B800" cx="391.648" cy="154.542" r="1.45"/>
		<circle fill="#F9B800" cx="381.089" cy="154.542" r="1.45"/>
		<circle fill="#F9B800" cx="370.532" cy="154.542" r="1.45"/>
		<circle fill="#F9B800" cx="359.975" cy="154.542" r="1.45"/>
		<circle fill="#F9B800" cx="428.599" cy="149.264" r="1.45"/>
		<circle fill="#F9B800" cx="418.042" cy="149.264" r="1.45"/>
		<circle fill="#F9B800" cx="407.484" cy="149.264" r="1.45"/>
		<circle fill="#F9B800" cx="396.926" cy="149.264" r="1.45"/>
		<circle fill="#F9B800" cx="386.369" cy="149.264" r="1.45"/>
		<circle fill="#F9B800" cx="375.81" cy="149.264" r="1.45"/>
		<circle fill="#F9B800" cx="365.253" cy="149.264" r="1.45"/>
		<circle fill="#F9B800" cx="354.696" cy="149.264" r="1.45"/>
		<circle fill="#F9B800" cx="423.32" cy="165.101" r="1.45"/>
		<circle fill="#F9B800" cx="412.763" cy="165.101" r="1.45"/>
		<circle fill="#F9B800" cx="402.205" cy="165.101" r="1.451"/>
		<circle fill="#F9B800" cx="391.647" cy="165.101" r="1.45"/>
		<circle fill="#F9B800" cx="381.089" cy="165.101" r="1.45"/>
		<circle fill="#F9B800" cx="370.532" cy="165.101" r="1.45"/>
		<circle fill="#F9B800" cx="359.974" cy="165.101" r="1.45"/>
		<circle fill="#F9B800" cx="428.599" cy="159.821" r="1.45"/>
		<circle fill="#F9B800" cx="418.042" cy="159.821" r="1.45"/>
		<circle fill="#F9B800" cx="407.484" cy="159.821" r="1.45"/>
		<circle fill="#F9B800" cx="396.926" cy="159.821" r="1.45"/>
		<circle fill="#F9B800" cx="386.368" cy="159.821" r="1.45"/>
		<circle fill="#F9B800" cx="375.81" cy="159.821" r="1.45"/>
		<circle fill="#F9B800" cx="365.253" cy="159.821" r="1.45"/>
		<circle fill="#F9B800" cx="354.695" cy="159.821" r="1.45"/>
		<circle fill="#F9B800" cx="423.32" cy="175.659" r="1.45"/>
		<circle fill="#F9B800" cx="412.763" cy="175.659" r="1.45"/>
		<circle fill="#F9B800" cx="402.205" cy="175.659" r="1.451"/>
		<circle fill="#F9B800" cx="391.647" cy="175.659" r="1.45"/>
		<circle fill="#F9B800" cx="381.089" cy="175.659" r="1.45"/>
		<circle fill="#F9B800" cx="370.532" cy="175.659" r="1.45"/>
		<circle fill="#F9B800" cx="359.974" cy="175.659" r="1.45"/>
		<circle fill="#F9B800" cx="428.599" cy="170.379" r="1.45"/>
		<circle fill="#F9B800" cx="418.042" cy="170.379" r="1.45"/>
		<circle fill="#F9B800" cx="407.484" cy="170.379" r="1.45"/>
		<circle fill="#F9B800" cx="396.926" cy="170.379" r="1.45"/>
		<circle fill="#F9B800" cx="386.368" cy="170.379" r="1.45"/>
		<circle fill="#F9B800" cx="375.81" cy="170.379" r="1.45"/>
		<circle fill="#F9B800" cx="365.253" cy="170.379" r="1.45"/>
		<circle fill="#F9B800" cx="354.695" cy="170.379" r="1.45"/>
		<circle fill="#F9B800" cx="423.32" cy="186.216" r="1.45"/>
		<circle fill="#F9B800" cx="412.763" cy="186.216" r="1.45"/>
		<circle fill="#F9B800" cx="402.205" cy="186.216" r="1.451"/>
		<circle fill="#F9B800" cx="391.647" cy="186.216" r="1.45"/>
		<circle fill="#F9B800" cx="381.089" cy="186.216" r="1.45"/>
		<circle fill="#F9B800" cx="370.532" cy="186.216" r="1.45"/>
		<circle fill="#F9B800" cx="359.974" cy="186.216" r="1.45"/>
		<circle fill="#F9B800" cx="428.599" cy="180.938" r="1.45"/>
		<circle fill="#F9B800" cx="418.042" cy="180.938" r="1.45"/>
		<circle fill="#F9B800" cx="407.484" cy="180.938" r="1.45"/>
		<circle fill="#F9B800" cx="396.926" cy="180.938" r="1.45"/>
		<circle fill="#F9B800" cx="386.368" cy="180.938" r="1.45"/>
		<circle fill="#F9B800" cx="375.81" cy="180.938" r="1.45"/>
		<circle fill="#F9B800" cx="365.253" cy="180.938" r="1.45"/>
		<circle fill="#F9B800" cx="354.695" cy="180.938" r="1.45"/>
		<circle fill="#F9B800" cx="423.32" cy="196.774" r="1.45"/>
		<circle fill="#F9B800" cx="412.763" cy="196.774" r="1.45"/>
		<circle fill="#F9B800" cx="402.205" cy="196.774" r="1.451"/>
		<circle fill="#F9B800" cx="391.647" cy="196.774" r="1.45"/>
		<circle fill="#F9B800" cx="381.089" cy="196.774" r="1.45"/>
		<circle fill="#F9B800" cx="370.532" cy="196.774" r="1.45"/>
		<circle fill="#F9B800" cx="359.974" cy="196.774" r="1.45"/>
		<circle fill="#F9B800" cx="428.599" cy="191.496" r="1.45"/>
		<circle fill="#F9B800" cx="418.042" cy="191.496" r="1.45"/>
		<circle fill="#F9B800" cx="407.484" cy="191.496" r="1.45"/>
		<circle fill="#F9B800" cx="396.926" cy="191.496" r="1.45"/>
		<circle fill="#F9B800" cx="386.368" cy="191.496" r="1.45"/>
		<circle fill="#F9B800" cx="375.81" cy="191.496" r="1.45"/>
		<circle fill="#F9B800" cx="365.253" cy="191.496" r="1.45"/>
		<circle fill="#F9B800" cx="354.695" cy="191.496" r="1.45"/>
		<circle fill="#F9B800" cx="423.32" cy="207.333" r="1.45"/>
		<circle fill="#F9B800" cx="412.763" cy="207.333" r="1.45"/>
		<circle fill="#F9B800" cx="402.205" cy="207.333" r="1.451"/>
		<circle fill="#F9B800" cx="391.647" cy="207.333" r="1.45"/>
		<circle fill="#F9B800" cx="381.089" cy="207.333" r="1.45"/>
		<circle fill="#F9B800" cx="370.532" cy="207.333" r="1.45"/>
		<circle fill="#F9B800" cx="359.974" cy="207.333" r="1.45"/>
		<circle fill="#F9B800" cx="428.599" cy="202.054" r="1.45"/>
		<circle fill="#F9B800" cx="418.042" cy="202.054" r="1.45"/>
		<circle fill="#F9B800" cx="407.484" cy="202.054" r="1.45"/>
		<circle fill="#F9B800" cx="396.926" cy="202.054" r="1.45"/>
		<circle fill="#F9B800" cx="386.368" cy="202.054" r="1.45"/>
		<circle fill="#F9B800" cx="375.81" cy="202.054" r="1.45"/>
		<circle fill="#F9B800" cx="365.253" cy="202.054" r="1.45"/>
		<circle fill="#F9B800" cx="354.695" cy="202.054" r="1.45"/>
		<circle fill="#F9B800" cx="423.32" cy="217.891" r="1.45"/>
		<circle fill="#F9B800" cx="412.763" cy="217.891" r="1.45"/>
		<circle fill="#F9B800" cx="402.205" cy="217.891" r="1.451"/>
		<circle fill="#F9B800" cx="391.647" cy="217.891" r="1.45"/>
		<circle fill="#F9B800" cx="381.089" cy="217.891" r="1.45"/>
		<circle fill="#F9B800" cx="370.532" cy="217.891" r="1.45"/>
		<circle fill="#F9B800" cx="359.974" cy="217.891" r="1.45"/>
		<circle fill="#F9B800" cx="428.599" cy="212.612" r="1.45"/>
		<circle fill="#F9B800" cx="418.042" cy="212.612" r="1.45"/>
		<circle fill="#F9B800" cx="407.484" cy="212.612" r="1.45"/>
		<circle fill="#F9B800" cx="396.926" cy="212.612" r="1.45"/>
		<circle fill="#F9B800" cx="386.368" cy="212.612" r="1.45"/>
		<circle fill="#F9B800" cx="375.81" cy="212.612" r="1.45"/>
		<circle fill="#F9B800" cx="365.253" cy="212.612" r="1.45"/>
		<circle fill="#F9B800" cx="354.695" cy="212.612" r="1.45"/>
		<circle fill="#F9B800" cx="423.32" cy="228.448" r="1.45"/>
		<circle fill="#F9B800" cx="412.763" cy="228.448" r="1.45"/>
		<circle fill="#F9B800" cx="402.205" cy="228.448" r="1.451"/>
		<circle fill="#F9B800" cx="391.647" cy="228.448" r="1.45"/>
		<circle fill="#F9B800" cx="381.089" cy="228.448" r="1.45"/>
		<circle fill="#F9B800" cx="370.532" cy="228.448" r="1.45"/>
		<circle fill="#F9B800" cx="359.974" cy="228.448" r="1.45"/>
		<circle fill="#F9B800" cx="428.599" cy="223.17" r="1.45"/>
		<circle fill="#F9B800" cx="418.042" cy="223.17" r="1.45"/>
		<circle fill="#F9B800" cx="407.484" cy="223.17" r="1.45"/>
		<circle fill="#F9B800" cx="396.926" cy="223.17" r="1.45"/>
		<circle fill="#F9B800" cx="386.368" cy="223.17" r="1.45"/>
		<circle fill="#F9B800" cx="375.81" cy="223.17" r="1.45"/>
		<circle fill="#F9B800" cx="365.253" cy="223.17" r="1.45"/>
		<circle fill="#F9B800" cx="354.695" cy="223.17" r="1.45"/>
		<circle fill="#F9B800" cx="423.32" cy="239.008" r="1.45"/>
		<circle fill="#F9B800" cx="412.763" cy="239.008" r="1.45"/>
		<circle fill="#F9B800" cx="402.205" cy="239.008" r="1.451"/>
		<circle fill="#F9B800" cx="391.647" cy="239.008" r="1.45"/>
		<circle fill="#F9B800" cx="381.089" cy="239.008" r="1.45"/>
		<circle fill="#F9B800" cx="370.532" cy="239.008" r="1.45"/>
		<circle fill="#F9B800" cx="359.974" cy="239.008" r="1.45"/>
		<circle fill="#F9B800" cx="428.599" cy="233.728" r="1.45"/>
		<circle fill="#F9B800" cx="418.042" cy="233.728" r="1.45"/>
		<circle fill="#F9B800" cx="407.484" cy="233.728" r="1.45"/>
		<circle fill="#F9B800" cx="396.926" cy="233.728" r="1.45"/>
		<circle fill="#F9B800" cx="386.368" cy="233.728" r="1.45"/>
		<circle fill="#F9B800" cx="375.81" cy="233.728" r="1.45"/>
		<circle fill="#F9B800" cx="365.253" cy="233.728" r="1.45"/>
		<circle fill="#F9B800" cx="354.695" cy="233.728" r="1.45"/>
		<circle fill="#F9B800" cx="423.32" cy="249.565" r="1.45"/>
		<circle fill="#F9B800" cx="412.763" cy="249.565" r="1.45"/>
		<circle fill="#F9B800" cx="402.205" cy="249.565" r="1.451"/>
		<circle fill="#F9B800" cx="391.647" cy="249.565" r="1.45"/>
		<circle fill="#F9B800" cx="381.089" cy="249.565" r="1.45"/>
		<circle fill="#F9B800" cx="370.532" cy="249.565" r="1.45"/>
		<circle fill="#F9B800" cx="359.974" cy="249.565" r="1.45"/>
		<circle fill="#F9B800" cx="428.599" cy="244.286" r="1.45"/>
		<circle fill="#F9B800" cx="418.042" cy="244.286" r="1.45"/>
		<circle fill="#F9B800" cx="407.484" cy="244.286" r="1.45"/>
		<circle fill="#F9B800" cx="396.926" cy="244.286" r="1.45"/>
		<circle fill="#F9B800" cx="386.368" cy="244.286" r="1.45"/>
		<circle fill="#F9B800" cx="375.81" cy="244.286" r="1.45"/>
		<circle fill="#F9B800" cx="365.253" cy="244.286" r="1.45"/>
		<circle fill="#F9B800" cx="354.695" cy="244.286" r="1.45"/>
		<circle fill="#F9B800" cx="423.32" cy="260.124" r="1.45"/>
		<circle fill="#F9B800" cx="412.763" cy="260.124" r="1.45"/>
		<circle fill="#F9B800" cx="402.205" cy="260.123" r="1.451"/>
		<circle fill="#F9B800" cx="391.647" cy="260.124" r="1.45"/>
		<circle fill="#F9B800" cx="381.089" cy="260.124" r="1.45"/>
		<circle fill="#F9B800" cx="370.532" cy="260.124" r="1.45"/>
		<circle fill="#F9B800" cx="359.974" cy="260.124" r="1.45"/>
		<circle fill="#F9B800" cx="428.599" cy="254.845" r="1.45"/>
		<circle fill="#F9B800" cx="418.042" cy="254.845" r="1.45"/>
		<circle fill="#F9B800" cx="407.484" cy="254.845" r="1.45"/>
		<circle fill="#F9B800" cx="396.926" cy="254.845" r="1.45"/>
		<circle fill="#F9B800" cx="386.368" cy="254.845" r="1.45"/>
		<circle fill="#F9B800" cx="375.81" cy="254.845" r="1.45"/>
		<circle fill="#F9B800" cx="365.253" cy="254.845" r="1.45"/>
		<circle fill="#F9B800" cx="354.695" cy="254.845" r="1.45"/>
		<circle fill="#F9B800" cx="423.32" cy="270.682" r="1.45"/>
		<circle fill="#F9B800" cx="412.763" cy="270.682" r="1.45"/>
		<circle fill="#F9B800" cx="402.205" cy="270.682" r="1.451"/>
		<circle fill="#F9B800" cx="391.647" cy="270.682" r="1.45"/>
		<circle fill="#F9B800" cx="381.089" cy="270.682" r="1.45"/>
		<circle fill="#F9B800" cx="370.532" cy="270.682" r="1.45"/>
		<circle fill="#F9B800" cx="359.974" cy="270.682" r="1.45"/>
		<circle fill="#F9B800" cx="428.599" cy="265.403" r="1.45"/>
		<circle fill="#F9B800" cx="418.042" cy="265.403" r="1.45"/>
		<circle fill="#F9B800" cx="407.484" cy="265.403" r="1.45"/>
		<circle fill="#F9B800" cx="396.926" cy="265.403" r="1.45"/>
		<circle fill="#F9B800" cx="386.368" cy="265.403" r="1.45"/>
		<circle fill="#F9B800" cx="375.81" cy="265.403" r="1.45"/>
		<circle fill="#F9B800" cx="365.253" cy="265.403" r="1.45"/>
		<circle fill="#F9B800" cx="354.695" cy="265.403" r="1.45"/>
		<circle fill="#F9B800" cx="423.32" cy="281.239" r="1.45"/>
		<circle fill="#F9B800" cx="412.763" cy="281.239" r="1.45"/>
		<circle fill="#F9B800" cx="402.205" cy="281.239" r="1.451"/>
		<circle fill="#F9B800" cx="391.647" cy="281.239" r="1.45"/>
		<circle fill="#F9B800" cx="381.089" cy="281.239" r="1.45"/>
		<circle fill="#F9B800" cx="370.532" cy="281.239" r="1.45"/>
		<circle fill="#F9B800" cx="359.974" cy="281.239" r="1.45"/>
		<circle fill="#F9B800" cx="428.599" cy="275.962" r="1.45"/>
		<circle fill="#F9B800" cx="418.042" cy="275.962" r="1.45"/>
		<circle fill="#F9B800" cx="407.484" cy="275.962" r="1.45"/>
		<circle fill="#F9B800" cx="396.926" cy="275.962" r="1.45"/>
		<circle fill="#F9B800" cx="386.368" cy="275.962" r="1.45"/>
		<circle fill="#F9B800" cx="375.81" cy="275.962" r="1.45"/>
		<circle fill="#F9B800" cx="365.253" cy="275.962" r="1.45"/>
		<circle fill="#F9B800" cx="354.695" cy="275.962" r="1.45"/>
		<circle fill="#F9B800" cx="423.32" cy="291.798" r="1.45"/>
		<circle fill="#F9B800" cx="412.763" cy="291.798" r="1.45"/>
		<circle fill="#F9B800" cx="402.205" cy="291.798" r="1.451"/>
		<circle fill="#F9B800" cx="391.647" cy="291.798" r="1.45"/>
		<circle fill="#F9B800" cx="381.089" cy="291.798" r="1.45"/>
		<circle fill="#F9B800" cx="370.532" cy="291.798" r="1.45"/>
		<circle fill="#F9B800" cx="359.974" cy="291.798" r="1.45"/>
		<circle fill="#F9B800" cx="428.599" cy="286.519" r="1.45"/>
		<circle fill="#F9B800" cx="418.042" cy="286.519" r="1.45"/>
		<circle fill="#F9B800" cx="407.484" cy="286.519" r="1.45"/>
		<circle fill="#F9B800" cx="396.926" cy="286.519" r="1.45"/>
		<circle fill="#F9B800" cx="386.368" cy="286.519" r="1.45"/>
		<circle fill="#F9B800" cx="375.81" cy="286.519" r="1.45"/>
		<circle fill="#F9B800" cx="365.253" cy="286.519" r="1.45"/>
		<circle fill="#F9B800" cx="354.695" cy="286.519" r="1.45"/>
		<circle fill="#F9B800" cx="423.32" cy="302.356" r="1.45"/>
		<circle fill="#F9B800" cx="412.763" cy="302.356" r="1.45"/>
		<circle fill="#F9B800" cx="402.205" cy="302.356" r="1.451"/>
		<circle fill="#F9B800" cx="391.647" cy="302.356" r="1.45"/>
		<circle fill="#F9B800" cx="381.089" cy="302.356" r="1.45"/>
		<circle fill="#F9B800" cx="370.532" cy="302.356" r="1.45"/>
		<circle fill="#F9B800" cx="359.974" cy="302.356" r="1.45"/>
		<circle fill="#F9B800" cx="428.599" cy="297.077" r="1.45"/>
		<circle fill="#F9B800" cx="418.042" cy="297.077" r="1.45"/>
		<circle fill="#F9B800" cx="407.484" cy="297.077" r="1.45"/>
		<circle fill="#F9B800" cx="396.926" cy="297.077" r="1.45"/>
		<circle fill="#F9B800" cx="386.368" cy="297.077" r="1.45"/>
		<circle fill="#F9B800" cx="375.81" cy="297.077" r="1.45"/>
		<circle fill="#F9B800" cx="365.253" cy="297.077" r="1.45"/>
		<circle fill="#F9B800" cx="354.695" cy="297.077" r="1.45"/>
		<circle fill="#F9B800" cx="423.32" cy="312.913" r="1.45"/>
		<circle fill="#F9B800" cx="412.763" cy="312.913" r="1.45"/>
		<circle fill="#F9B800" cx="402.205" cy="312.914" r="1.451"/>
		<circle fill="#F9B800" cx="391.647" cy="312.913" r="1.45"/>
		<circle fill="#F9B800" cx="381.089" cy="312.913" r="1.45"/>
		<circle fill="#F9B800" cx="370.532" cy="312.913" r="1.45"/>
		<circle fill="#F9B800" cx="359.974" cy="312.913" r="1.45"/>
		<circle fill="#F9B800" cx="428.599" cy="307.635" r="1.45"/>
		<circle fill="#F9B800" cx="418.042" cy="307.635" r="1.45"/>
		<circle fill="#F9B800" cx="407.484" cy="307.635" r="1.45"/>
		<circle fill="#F9B800" cx="396.926" cy="307.635" r="1.45"/>
		<circle fill="#F9B800" cx="386.368" cy="307.635" r="1.45"/>
		<circle fill="#F9B800" cx="375.81" cy="307.635" r="1.45"/>
		<circle fill="#F9B800" cx="365.253" cy="307.635" r="1.45"/>
		<circle fill="#F9B800" cx="354.695" cy="307.635" r="1.45"/>
		<circle fill="#F9B800" cx="423.32" cy="323.471" r="1.45"/>
		<circle fill="#F9B800" cx="412.763" cy="323.471" r="1.45"/>
		<circle fill="#F9B800" cx="402.205" cy="323.472" r="1.451"/>
		<circle fill="#F9B800" cx="391.647" cy="323.471" r="1.45"/>
		<circle fill="#F9B800" cx="381.089" cy="323.471" r="1.45"/>
		<circle fill="#F9B800" cx="370.532" cy="323.471" r="1.45"/>
		<circle fill="#F9B800" cx="359.974" cy="323.471" r="1.45"/>
		<circle fill="#F9B800" cx="428.599" cy="318.194" r="1.45"/>
		<circle fill="#F9B800" cx="418.042" cy="318.194" r="1.45"/>
		<circle fill="#F9B800" cx="407.484" cy="318.194" r="1.45"/>
		<circle fill="#F9B800" cx="396.926" cy="318.194" r="1.45"/>
		<circle fill="#F9B800" cx="386.368" cy="318.194" r="1.45"/>
		<circle fill="#F9B800" cx="375.81" cy="318.194" r="1.45"/>
		<circle fill="#F9B800" cx="365.253" cy="318.194" r="1.45"/>
		<circle fill="#F9B800" cx="354.695" cy="318.194" r="1.45"/>
		<circle fill="#F9B800" cx="423.32" cy="334.03" r="1.45"/>
		<circle fill="#F9B800" cx="412.763" cy="334.03" r="1.45"/>
		<circle fill="#F9B800" cx="402.205" cy="334.031" r="1.451"/>
		<circle fill="#F9B800" cx="391.647" cy="334.03" r="1.45"/>
		<circle fill="#F9B800" cx="381.089" cy="334.03" r="1.45"/>
		<circle fill="#F9B800" cx="370.532" cy="334.03" r="1.45"/>
		<circle fill="#F9B800" cx="359.974" cy="334.03" r="1.45"/>
		<circle fill="#F9B800" cx="428.599" cy="328.75" r="1.45"/>
		<circle fill="#F9B800" cx="418.042" cy="328.75" r="1.45"/>
		<circle fill="#F9B800" cx="407.484" cy="328.75" r="1.45"/>
		<circle fill="#F9B800" cx="396.926" cy="328.75" r="1.45"/>
		<circle fill="#F9B800" cx="386.368" cy="328.75" r="1.45"/>
		<circle fill="#F9B800" cx="375.81" cy="328.75" r="1.45"/>
		<circle fill="#F9B800" cx="365.253" cy="328.75" r="1.45"/>
		<circle fill="#F9B800" cx="354.695" cy="328.75" r="1.45"/>
		<circle fill="#F9B800" cx="423.32" cy="344.588" r="1.45"/>
		<circle fill="#F9B800" cx="412.763" cy="344.588" r="1.45"/>
		<circle fill="#F9B800" cx="402.205" cy="344.589" r="1.451"/>
		<circle fill="#F9B800" cx="391.647" cy="344.588" r="1.45"/>
		<circle fill="#F9B800" cx="381.089" cy="344.588" r="1.45"/>
		<circle fill="#F9B800" cx="370.532" cy="344.588" r="1.45"/>
		<circle fill="#F9B800" cx="359.974" cy="344.588" r="1.45"/>
		<circle fill="#F9B800" cx="428.599" cy="339.31" r="1.449"/>
		<circle fill="#F9B800" cx="418.042" cy="339.31" r="1.449"/>
		<circle fill="#F9B800" cx="407.484" cy="339.31" r="1.449"/>
		<circle fill="#F9B800" cx="396.926" cy="339.31" r="1.449"/>
		<circle fill="#F9B800" cx="386.368" cy="339.31" r="1.449"/>
		<circle fill="#F9B800" cx="375.81" cy="339.31" r="1.449"/>
		<circle fill="#F9B800" cx="365.253" cy="339.31" r="1.449"/>
		<circle fill="#F9B800" cx="354.695" cy="339.31" r="1.449"/>
		<circle fill="#F9B800" cx="423.32" cy="355.147" r="1.45"/>
		<circle fill="#F9B800" cx="412.763" cy="355.147" r="1.45"/>
		<circle fill="#F9B800" cx="402.205" cy="355.147" r="1.45"/>
		<circle fill="#F9B800" cx="391.647" cy="355.147" r="1.45"/>
		<circle fill="#F9B800" cx="381.089" cy="355.147" r="1.45"/>
		<circle fill="#F9B800" cx="370.532" cy="355.147" r="1.45"/>
		<circle fill="#F9B800" cx="359.974" cy="355.147" r="1.45"/>
		<circle fill="#F9B800" cx="428.599" cy="349.866" r="1.45"/>
		<circle fill="#F9B800" cx="418.042" cy="349.866" r="1.45"/>
		<circle fill="#F9B800" cx="407.484" cy="349.866" r="1.45"/>
		<circle fill="#F9B800" cx="396.926" cy="349.866" r="1.45"/>
		<circle fill="#F9B800" cx="386.368" cy="349.866" r="1.45"/>
		<circle fill="#F9B800" cx="375.81" cy="349.866" r="1.45"/>
		<circle fill="#F9B800" cx="365.253" cy="349.866" r="1.45"/>
		<circle fill="#F9B800" cx="354.695" cy="349.866" r="1.45"/>
		<circle fill="#F9B800" cx="423.32" cy="365.704" r="1.45"/>
		<circle fill="#F9B800" cx="412.763" cy="365.704" r="1.45"/>
		<circle fill="#F9B800" cx="402.205" cy="365.705" r="1.451"/>
		<circle fill="#F9B800" cx="391.647" cy="365.704" r="1.45"/>
		<circle fill="#F9B800" cx="381.089" cy="365.704" r="1.45"/>
		<circle fill="#F9B800" cx="370.532" cy="365.704" r="1.45"/>
		<circle fill="#F9B800" cx="359.974" cy="365.704" r="1.45"/>
		<circle fill="#F9B800" cx="428.599" cy="360.426" r="1.45"/>
		<circle fill="#F9B800" cx="418.042" cy="360.426" r="1.45"/>
		<circle fill="#F9B800" cx="407.484" cy="360.426" r="1.45"/>
		<circle fill="#F9B800" cx="396.926" cy="360.426" r="1.45"/>
		<circle fill="#F9B800" cx="386.368" cy="360.426" r="1.45"/>
		<circle fill="#F9B800" cx="375.81" cy="360.426" r="1.45"/>
		<circle fill="#F9B800" cx="365.253" cy="360.426" r="1.45"/>
		<circle fill="#F9B800" cx="354.695" cy="360.426" r="1.45"/>
		<circle fill="#F9B800" cx="423.32" cy="376.262" r="1.45"/>
		<circle fill="#F9B800" cx="412.763" cy="376.262" r="1.45"/>
		<circle fill="#F9B800" cx="402.205" cy="376.263" r="1.451"/>
		<circle fill="#F9B800" cx="391.647" cy="376.262" r="1.45"/>
		<circle fill="#F9B800" cx="381.089" cy="376.262" r="1.45"/>
		<circle fill="#F9B800" cx="370.532" cy="376.262" r="1.45"/>
		<circle fill="#F9B800" cx="359.974" cy="376.262" r="1.45"/>
		<circle fill="#F9B800" cx="428.599" cy="370.983" r="1.45"/>
		<circle fill="#F9B800" cx="418.042" cy="370.983" r="1.45"/>
		<circle fill="#F9B800" cx="407.484" cy="370.983" r="1.45"/>
		<circle fill="#F9B800" cx="396.926" cy="370.983" r="1.45"/>
		<circle fill="#F9B800" cx="386.368" cy="370.983" r="1.45"/>
		<circle fill="#F9B800" cx="375.81" cy="370.983" r="1.45"/>
		<circle fill="#F9B800" cx="365.253" cy="370.983" r="1.45"/>
		<circle fill="#F9B800" cx="354.695" cy="370.983" r="1.45"/>
		<circle fill="#F9B800" cx="423.32" cy="386.821" r="1.45"/>
		<circle fill="#F9B800" cx="412.763" cy="386.821" r="1.45"/>
		<circle fill="#F9B800" cx="402.205" cy="386.822" r="1.451"/>
		<circle fill="#F9B800" cx="391.647" cy="386.821" r="1.45"/>
		<circle fill="#F9B800" cx="381.089" cy="386.821" r="1.45"/>
		<circle fill="#F9B800" cx="370.532" cy="386.821" r="1.45"/>
		<circle fill="#F9B800" cx="359.974" cy="386.821" r="1.45"/>
		<circle fill="#F9B800" cx="428.599" cy="381.542" r="1.45"/>
		<circle fill="#F9B800" cx="418.042" cy="381.542" r="1.45"/>
		<circle fill="#F9B800" cx="407.484" cy="381.542" r="1.45"/>
		<circle fill="#F9B800" cx="396.926" cy="381.542" r="1.45"/>
		<circle fill="#F9B800" cx="386.368" cy="381.542" r="1.45"/>
		<circle fill="#F9B800" cx="375.81" cy="381.542" r="1.45"/>
		<circle fill="#F9B800" cx="365.253" cy="381.542" r="1.45"/>
		<circle fill="#F9B800" cx="354.695" cy="381.542" r="1.45"/>
	</g>
</g>
<g>
	<g>
		<path fill="#EB7108" d="M149.018,460.164c-2.858-0.316-5.67-0.99-8.451-1.695c-1.28-0.326-3.146,1.574-4.126,2.193
			c-3.799,2.396-7.865,4.352-12.006,6.08c-16.733,6.979-35.559,8.678-53.519,8.486c-21.44-0.227-43.632-3.119-64.371-8.91
			c0.441-3.916,0.883-7.832,1.324-11.748c25.409,3.342,45.708-13.088,61.604-31.26c17.02-19.453,30.182-44.504,54.146-56.35
			c0.734,0.58,1.475,1.148,2.223,1.705c-7.773,2.291-13.354,10.043-13.289,19.799c0.06,9.02,4.074,17.871,9.518,25.811
			c11.145,17.752,29.535,31.49,48.025,40.34C164.649,460.132,156.838,461.027,149.018,460.164z"/>
		<g>
			<path fill="#00979E" d="M113.45,381.816c1.863-6.521,6.493-11.41,12.394-13.148c-0.748-0.557-1.488-1.127-2.223-1.707
				c-3.957,1.957-7.614,4.277-11.048,6.869c-0.004,0.213-0.021,0.42-0.019,0.633C112.571,376.931,112.892,379.386,113.45,381.816z"
				/>
			<path fill="#E75812" d="M149.018,446.16c-2.858-0.316-5.67-0.988-8.451-1.695c-1.28-0.324-3.146,1.576-4.126,2.193
				c-3.799,2.398-7.865,4.354-12.006,6.08c-16.733,6.98-35.559,8.678-53.519,8.486c-17.9-0.188-36.32-2.244-53.985-6.285
				c-2.946,0.146-5.965,0.037-9.062-0.369c-0.441,3.916-0.883,7.832-1.324,11.748c20.739,5.791,42.931,8.686,64.371,8.91
				c17.96,0.189,36.785-1.508,53.519-8.486c4.141-1.729,8.207-3.684,12.006-6.08c0.98-0.619,2.846-2.52,4.126-2.193
				c2.781,0.705,5.593,1.379,8.451,1.695c7.82,0.863,15.631-0.031,21.079-5.549c-4.978-2.383-9.942-5.131-14.766-8.205
				C153.258,446.492,151.139,446.394,149.018,446.16z"/>
		</g>
		<path fill="#F9D3C8" d="M170.581,384.507c0.131,1.451,0.707,2.881,1.102,4.477c0.726,2.938,1.322,5.9,1.832,8.883
			c0.784,4.59,1.084,9.301,0.229,13.863c-0.142-0.133-0.282-0.266-0.423-0.398c-3.827-3.889-7.07-8.199-9.915-12.834
			c-0.105-0.174-0.213-0.348-0.318-0.521c-1.196-1.979-2.329-4.012-3.407-6.092c-1.895-3.598-4.011-7.014-6.503-10.168
			C158.903,383.478,164.758,384.474,170.581,384.507z"/>
		<path fill="#F9D3C8" d="M173.224,377.789c-6.309-4.908-11.067-11.879-14.868-18.828c1.478-0.91,0.812-0.947,3.289-0.393
			c2.712,0.607,5.423,1.215,8.134,1.822c4.33,1.57,8.819,2.957,13.402,4.1C179.56,368.687,176.132,373.089,173.224,377.789z"/>
		<path fill="#F9D3C8" d="M230.199,286.843c1.787,9.482,6.584,16.014,15.041,20.441c0.149,8.389-0.62,16.861-2.068,25.107
			c-1.187,6.762-3.045,13.48-6.301,19.549c-3.174,5.918-7.584,8.982-14.053,10.396c-16.276,3.555-34.637-0.549-50.067-5.768
			c-4.557-1.541-8.995-3.41-13.345-5.459c-2.629-1.236-4.58-1.967-5.619-4.795c-0.938-2.559-1.665-5.186-2.331-7.824
			c-2.852-11.299-2.341-23.135,0.806-34.285c18.887-2.014,36.165-9.463,49.872-21.406c7.612-6.401,14.081-14.086,18.865-22.855
			C226.706,268.087,228.319,276.873,230.199,286.843z"/>
		<g>
			<path fill="#F6BBAC" d="M226.699,278.981c0.795,4.218,2.188,7.847,4.23,10.972c-0.281-1.002-0.527-2.033-0.73-3.109
				c-1.646-8.735-3.09-16.561-7.26-23.842C224.641,268.011,225.628,273.304,226.699,278.981z"/>
			<path fill="#F6BBAC" d="M245.24,307.285c-1.266-0.662-2.439-1.38-3.543-2.14c-0.198,6.503-0.906,13.013-2.025,19.388
				c-1.187,6.76-3.045,13.479-6.301,19.547c-3.174,5.918-7.584,8.982-14.053,10.396c-16.276,3.557-34.637-0.549-50.067-5.768
				c-4.557-1.541-8.995-3.41-13.345-5.459c-1.479-0.695-2.732-1.242-3.74-2.08c0.479,1.734,1.001,3.457,1.621,5.146
				c1.039,2.83,2.99,3.559,5.619,4.797c4.35,2.047,8.788,3.918,13.345,5.459c15.431,5.219,33.791,9.32,50.067,5.766
				c6.469-1.412,10.879-4.479,14.053-10.395c3.256-6.07,5.114-12.789,6.301-19.549C244.62,324.146,245.389,315.673,245.24,307.285z"
				/>
		</g>
		<path fill="#E1003B" d="M212.074,240.074c1.074,0.76,9.685,7.291,9.9,6.605c-0.708,2.248-1.826,4.826-3.083,7.38
			c-0.185,0.179-0.351,0.375-0.468,0.606c-12.875,25.488-36.611,41.545-64.651,45.092c4.685-11.452,12.712-20.557,20.218-30.516
			c5.793-7.687,13.605-18.832,14.721-29.674c0.862-4.666,0.49-9.436-1.511-13.441c4.064,1.569,7.989,3.49,11.827,5.607
			C203.546,234.229,207.865,237.093,212.074,240.074z"/>
		<path fill="#F9D3C8" d="M166.574,163.514c2.576-9.987,8.844-19.577,16.442-26.466c2.539-2.302,5.719-4.712,9.195-5.246
			c3.229-0.496,4.894,2.731,5.665,6.367c-5.666,2.868-10.281,7.519-12.675,13.823c-1.193,3.143-1.442,6.263-1.009,9.269
			c-1.322,2.855-3.196,5.26-7.461,6.283c-2.707,0.65-0.851,5.257,1.605,4.666c6.887-1.653,9.515-6.227,11.923-12.493
			c1.95-5.076,5.317-8.239,10.092-10.025c0.789,8.237-1.399,15.821-5.933,22.022c-3.823,5.061-9.211,9.139-15.682,11.879
			c-2.37,1.003,0.182,5.295,2.596,4.272c0.02-0.009,0.038-0.018,0.058-0.026c2.024,11.042,3.716,22.135,5.002,33.287
			c-1.685-0.548-3.385-1.051-5.112-1.474c-0.336-0.171-0.705-0.214-1.076-0.181c-0.964-0.461-1.937-0.984-2.932-1.089
			c-2.67-0.282-5.366-0.323-8.054-0.271c-0.425-11.787-1.315-23.553-2.792-35.256C165.566,176.026,164.792,170.423,166.574,163.514z
			"/>
		<path fill="#E1003B" d="M102.666,334.484c-8.53-20.566-7.072-44.588-0.08-65.355c5.848-17.362,17.968-31.532,34.441-39.557
			c8.782-4.277,19.068-7.002,29.244-7.728c0.521,0.252,1.086,0.387,1.563,0.368c3.253-0.129,6.515-0.192,9.762,0.105
			c0.06,0.404,0.293,0.765,0.781,1.006c0.014,0.01,0.022,0.021,0.036,0.029c7.008,4.492,6.654,13.338,4.56,20.448
			c-1.94,5.599-5.134,10.902-8.229,15.693c-7.569,11.707-17.621,21.295-23.555,34.078c-1.284,2.766-2.342,5.59-3.197,8.452
			c-0.004,0.013-0.011,0.024-0.015,0.037c-0.035,0.114-0.065,0.229-0.101,0.345c-0.06,0.205-0.121,0.409-0.18,0.614
			c-3.386,11.519-3.812,23.321-1.392,35.106c0.787,3.83,1.691,10.371,4.233,13.463c0.434,0.527,1.113,0.969,1.864,1.359
			c0.183,0.4,0.363,0.803,0.552,1.201c0.309,0.65,0.635,1.314,0.971,1.984c-0.095,0.129-0.095,0.344,0.034,0.664
			c0.075,0.293,0.248,0.611,0.476,0.922c4.741,8.723,10.721,17.129,18.774,23.072c-0.696,0.074-1.395,0.139-2.093,0.18
			c-7.671,0.141-15.071-1.465-22.297-4.02c-2.479-2.518-5.309-4.742-8.69-6.518c-2.607-1.365-5.188-2.129-7.668-2.377
			c-2.743-1.814-5.385-3.736-7.943-5.814c-0.608-0.494-1.454-0.568-2.149-0.242c-0.062,0.029-0.121,0.062-0.184,0.09
			C113.741,354.529,107.057,345.07,102.666,334.484z"/>
		<path fill="#F9D3C8" d="M209.031,460.953c-11.682-1.156-23.192-4.197-34.034-8.818c-0.211-0.184-0.441-0.35-0.714-0.471
			c-11.162-4.99-22.636-11.947-32.433-20.625c-2.088-1.877-4.264-3.955-6.419-6.201c-7.389-7.824-13.314-16.793-16.64-26.775
			c-0.091-0.305-0.174-0.613-0.254-0.926c-0.752-3.4-0.96-6.848-0.431-10.281c1.017-6.594,5.502-11.947,12.055-13.43
			c1.517-0.344,2.99-0.4,4.421-0.244c3.544,2.184,7.239,4.113,11.026,5.742c1.231,1.154,2.384,2.398,3.438,3.676
			c2.308,2.922,4.277,6.072,6.038,9.416c2.073,4.002,4.354,7.822,6.896,11.438c0.844,1.295,1.72,2.576,2.684,3.812
			c4.684,6.012,10.406,11.146,16.87,15.178c18.508,11.539,42.011,13.295,63.236,11.734c24.308-1.785,47.202-10.402,68.725-21.406
			c4.135,0.488,8.276,0.883,12.425,1.213C296.279,445.443,252.411,465.246,209.031,460.953z"/>
		<path fill="#F6BBAC" d="M212.031,449.953c-11.682-1.156-23.192-4.197-34.034-8.818c-0.211-0.184-0.441-0.35-0.714-0.471
			c-11.162-4.99-22.636-11.947-32.433-20.625c-2.088-1.877-4.264-3.955-6.419-6.201c-7.389-7.824-13.314-16.793-16.64-26.775
			c-0.091-0.305-0.174-0.613-0.254-0.926c-0.46-2.084-0.714-4.184-0.723-6.287c-1.375,2.041-2.311,4.428-2.708,7.006
			c-0.529,3.434-0.321,6.881,0.431,10.281c0.08,0.312,0.163,0.621,0.254,0.926c3.325,9.982,9.251,18.951,16.64,26.775
			c2.155,2.246,4.331,4.324,6.419,6.201c9.797,8.678,21.271,15.635,32.433,20.625c0.272,0.121,0.503,0.287,0.714,0.471
			c10.842,4.621,22.353,7.662,34.034,8.818c43.38,4.293,87.248-15.51,116.889-46.971c-2.568-0.203-5.135-0.443-7.697-0.705
			C289.257,438.644,250.457,453.755,212.031,449.953z"/>
		<path fill="#32B4B7" d="M223.346,306.585c0,0-2.365-20.246-11.989-22.461c-9.626-2.217-21.743,18.537-21.743,18.537
			S205.408,320.673,223.346,306.585z"/>
		<path fill="#E20041" d="M245.695,331.876c1.512-0.295-0.916-4.172,0.764-5.045c0,0,2.058-3.199-6.399-6.404
			c-4.812,5.48-16.634,1.494-16.634,1.494S227.933,335.343,245.695,331.876z"/>
		<path fill="#A4A5A7" d="M291.554,95.041c0.032,0.048,0.07,0.092,0.101,0.142c1.063,1.731,1.766,3.713,2.222,5.825
			c0.135,2.02,0.119,4.061,0.113,6.028c-0.069,26.967-6.308,54.477-12.653,80.529c-3.726,15.294-8.059,30.501-13.581,45.25
			c-1.978,5.281-4.162,10.513-6.889,15.454c-0.808,1.464-1.713,2.871-2.725,4.201c-0.309,0.404-0.871,0.855-1.317,1.244
			c-0.013,0.011-0.024,0.021-0.036,0.029c-0.131-0.229-0.256-0.457-0.324-0.641c-0.47-1.268-0.674-2.656-0.846-3.986
			c-0.536-4.145-0.406-8.391-0.246-12.553c0.48-12.438,2.328-24.843,4.396-37.1c4.808-28.49,11.577-57.145,21.723-84.238
			C284.003,108.52,286.707,100.583,291.554,95.041z"/>
		<path fill="#E2E3E4" d="M219.38,131.201c11.477-17.314,29.697-31.06,49.748-36.637c3.959-1.102,13.287-3.508,18.867-1.889
			c-1.225,1.089-2.268,2.492-3.103,3.781c-4.811,7.422-7.792,16.257-10.69,24.543c-10.106,28.885-16.853,59.302-21.237,89.556
			c-1.61,11.113-2.96,22.455-2.608,33.704c0.098,3.107,0.12,7.587,2.047,10.388c-22.112-6.146-36.922-30.571-43.383-51.014
			C201.25,179.05,205.199,152.596,219.38,131.201z"/>
		<g>
			<path fill="#A4A5A7" d="M250.54,232.839c-16.313-9.707-27.462-29.449-32.834-46.445c-5.733-18.141-5.079-37.297,1.352-54.689
				c-13.913,21.306-17.746,47.537-10.036,71.93c6.461,20.442,21.271,44.869,43.383,51.014c-1.927-2.801-1.949-7.278-2.047-10.387
				C250.238,240.46,250.326,236.647,250.54,232.839z"/>
			<path fill="#A4A5A7" d="M286.121,94.728c0.566-0.732,1.189-1.442,1.875-2.052c-0.315-0.092-0.646-0.167-0.984-0.233
				C286.709,93.203,286.409,93.963,286.121,94.728z"/>
		</g>
		<path fill="#E2E3E4" d="M431.953,397.451c-2.47,5.305-14.305,6.65-19.082,7.607c-28.37,5.688-58.564,5.686-87.31,3.559
			c-10.556-0.781-21.197-1.973-31.508-4.424c-2.76-0.656-12.759-2.354-13.035-6.424c0.328-5.057,11.803-6.869,15.331-7.721
			c12.495-3.012,25.584-4.072,38.379-4.811c27.709-1.598,57.201-1.619,84.361,4.842
			C421.167,390.576,433.956,393.148,431.953,397.451z"/>
	</g>
	<g>
		<g>
			<path fill="#1A171B" d="M224.781,297.236c-2.328,2.959-5.462,5.33-8.686,7.219c-9.551,5.59-19.373,2.371-27.113-4.721
				c-1.932-1.77-5.187-0.391-2.736,1.854c7.973,7.305,17.954,11.783,28.702,8.309c5.392-1.742,10.561-5.543,14.065-9.997
				C230.3,298.262,226.128,295.523,224.781,297.236L224.781,297.236z"/>
		</g>
	</g>
	<g>
		<g>
			<path fill="#1A171B" d="M161.26,325.603c33.583-11.375,60.454-42.675,62.888-78.841c0.085-1.272-2.936-3.505-2.913-3.847
				c-2.427,36.065-29.413,67.271-62.854,78.6C158.368,321.521,160.418,325.888,161.26,325.603L161.26,325.603z"/>
		</g>
	</g>
	<path fill="#1A171B" d="M437.276,393.978c-1.67-4.98-10.379-7.037-14.633-8.27c-10.75-3.117-22.109-4.373-33.22-5.367
		c-26.737-2.389-54.005-2.111-80.663,1.1c-9.131,1.1-18.433,2.586-27.156,5.588c-3.253,1.119-9.32,3.227-9.955,7.316
		c-0.049,0.121-0.071,0.252-0.062,0.396c-0.012,0.184,0.022,0.355,0.08,0.521c0.776,4.66,7.39,6.865,11.181,8.156
		c6.513,2.219,13.324,3.58,20.168,4.584c-22.105,10.785-45.306,18.406-70.167,19.268c-19.444,0.67-40.938-1.99-56.813-13.945
		c1.183-4.354,1.202-8.746,0.783-13.258c-0.275-2.953-0.875-5.877-1.479-8.777c-0.483-2.316-2.277-6.332-1.868-8.99
		c1.394-0.127,2.784-0.297,4.166-0.547c0.874-0.156-1.494-2.283-2.453-2.975c3.342-5.35,7.339-10.324,11.533-15.037
		c11.094,2.223,22.531,2.879,33.316,1.041c5.98-1.021,11.383-3.27,15.441-7.863c4.998-5.66,7.529-13.355,9.316-20.549
		c2.589-10.416,3.588-21.604,3.337-32.351c0.229-0.571,0.146-1.162-0.445-1.61c-0.234-0.259-0.546-0.425-0.899-0.515
		c-9.46-4.864-12.761-11.835-14.439-22.071c-1.646-10.045-4.444-18.884-10.878-26.818c1.253-2.776,2.35-5.646,3.257-8.611
		c0.14-0.455-0.045-1.122-0.419-1.424c-10.681-8.625-22.292-17.012-35.171-22.137c-1.404-12.406-3.307-24.739-5.617-37.009
		c3.629-2.011,6.841-4.482,9.562-7.322c1.705,1.376,3.507,2.589,5.333,3.597c0-0.004,0-0.008,0-0.013
		c0.04,0.717,0.077,1.433,0.137,2.151c2.441,29.453,21.971,65.049,52.75,72.471c0.178,0.043,0.347,0.076,0.506,0.102
		c0.049,0.012,0.098,0.025,0.146,0.033c0.601,0.105,1.175,0.145,1.729,0.137c0.111,0.025,0.222,0.047,0.333,0.062
		c0.028,0.004,0.052,0.012,0.081,0.016c3.869,0.555,6.339-2.365,8.225-5.393c0.392-0.5,0.771-1.016,1.139-1.537
		c5.753-8.141,9.059-18.228,12.191-27.583c9.391-28.05,15.864-57.685,19.803-86.982c1.316-9.787,2.532-20.082,1.463-29.972
		c-0.009-0.603-0.006-1.206-0.024-1.808c-0.124-3.951-0.074-10.331-4.234-12.374c-1.745-0.857-3.329-0.715-4.737-0.042
		c-6.112-1.76-13.661-1.043-19.62,0.101c-8.979,1.725-17.417,5.239-25.304,9.817c-14.039,8.149-25.493,19.833-33.301,33.524
		c-0.026,0-0.051-0.005-0.077-0.005c-3.464,0.078-6.866,0.689-10.048,1.796c-1.96-5.54-5.896-10.035-12.201-8.607
		c-10.083,2.283-17.809,13.369-22.49,21.778c-4.565,8.203-7.22,17.582-5.815,26.945c2.064,13.764,3.104,27.695,3.568,41.602
		c-17.895,0.787-36.145,7.965-48.831,20.086c-15.296,14.611-21.515,36.536-22.738,57.097c-1.118,18.777,3.898,37.4,14.732,52.795
		c3.561,5.061,7.967,9.988,12.968,14.504c-22.286,11.227-35.28,33.584-50.696,52.258c-16.059,19.453-36.975,39.021-64.23,34.475
		c-0.932-0.156-1.896,0.592-2.001,1.529c-0.604,5.363-1.209,10.727-1.813,16.09c-0.132,1.17,0.414,2.74,1.686,3.107
		c22.519,6.52,46.568,9.664,69.959,9.773c18.055,0.084,36.312-2.137,53.155-8.896c4.171-1.672,8.17-3.744,12.007-6.078
		c4.43-2.693,11.121,0.207,16.312,0.254c7.645,0.068,15.023-2.602,19.715-8.705c6.339,2.719,12.889,4.938,19.557,6.633
		c46.952,11.939,95.267-6.66,129.926-38.596c3.584-3.303,6.994-6.799,10.193-10.475c0.328-0.377,0.449-0.793,0.429-1.219
		c22.47,1.287,45.2,0.561,67.423-2.117C405.528,408.214,440.967,404.994,437.276,393.978z M289.554,93.041
		c0.032,0.048,0.07,0.092,0.101,0.142c1.063,1.731,1.766,3.713,2.222,5.825c0.135,2.02,0.119,4.061,0.113,6.028
		c-0.069,26.967-6.308,54.477-12.653,80.529c-3.726,15.294-8.059,30.501-13.581,45.25c-1.978,5.281-4.162,10.513-6.889,15.454
		c-0.808,1.464-1.713,2.871-2.725,4.201c-0.309,0.404-0.871,0.855-1.317,1.244c-0.013,0.011-0.024,0.021-0.036,0.029
		c-0.131-0.229-0.256-0.457-0.324-0.641c-0.47-1.268-0.674-2.656-0.846-3.986c-0.536-4.145-0.406-8.391-0.246-12.553
		c0.48-12.438,2.328-24.843,4.396-37.1c4.808-28.49,11.577-57.145,21.723-84.238C282.003,106.52,284.707,98.583,289.554,93.041z
		 M217.38,129.201c11.477-17.314,29.697-31.06,49.748-36.637c3.959-1.102,13.287-3.508,18.867-1.889
		c-1.225,1.089-2.268,2.492-3.103,3.781c-4.811,7.422-7.792,16.257-10.69,24.543c-10.106,28.885-16.853,59.302-21.237,89.556
		c-1.61,11.113-2.96,22.455-2.608,33.704c0.098,3.107,0.12,7.587,2.047,10.388c-22.112-6.146-36.922-30.571-43.383-51.014
		C199.25,177.05,203.199,150.596,217.38,129.201z M203.427,142.017c0.645-0.266,1.311-0.473,1.983-0.659
		c0.003-0.007,0.006-0.014,0.009-0.021c-0.92,2.116-1.761,4.266-2.512,6.45c-0.104-0.862-0.226-1.729-0.391-2.605
		c-0.004-0.033-0.01-0.065-0.017-0.099c-0.011-0.058-0.019-0.114-0.03-0.172c-0.06-0.304-0.209-0.588-0.409-0.849
		c-0.158-0.392-0.404-0.751-0.688-1.071C202.043,142.638,202.726,142.306,203.427,142.017z M168.581,382.507
		c0.131,1.451,0.707,2.881,1.102,4.477c0.726,2.938,1.322,5.9,1.832,8.883c0.784,4.59,1.084,9.301,0.229,13.863
		c-0.142-0.133-0.282-0.266-0.423-0.398c-3.827-3.889-7.07-8.199-9.915-12.834c-0.105-0.174-0.213-0.348-0.318-0.521
		c-1.196-1.979-2.329-4.012-3.407-6.092c-1.895-3.598-4.011-7.014-6.503-10.168C156.903,381.478,162.758,382.474,168.581,382.507z
		 M153.792,352.476c0.225,0.109,0.453,0.209,0.679,0.316c-0.146,0.045-0.298,0.104-0.451,0.166
		C153.946,352.796,153.864,352.638,153.792,352.476z M171.224,375.789c-6.309-4.908-11.067-11.879-14.868-18.828
		c1.478-0.91,0.812-0.947,3.289-0.393c2.712,0.607,5.423,1.215,8.134,1.822c4.33,1.57,8.819,2.957,13.402,4.1
		C177.56,366.687,174.132,371.089,171.224,375.789z M228.199,284.843c1.787,9.482,6.584,16.014,15.041,20.441
		c0.149,8.389-0.62,16.861-2.068,25.107c-1.187,6.762-3.045,13.48-6.301,19.549c-3.174,5.918-7.584,8.982-14.053,10.396
		c-16.276,3.555-34.637-0.549-50.067-5.768c-4.557-1.541-8.995-3.41-13.345-5.459c-2.629-1.236-4.58-1.967-5.619-4.795
		c-0.938-2.559-1.665-5.186-2.331-7.824c-2.852-11.299-2.341-23.135,0.806-34.285c18.887-2.014,36.165-9.463,49.872-21.406
		c7.612-6.401,14.081-14.086,18.865-22.855C224.706,266.087,226.319,274.873,228.199,284.843z M210.074,238.073
		c1.074,0.761,9.685,7.292,9.9,6.606c-0.708,2.248-1.826,4.826-3.083,7.38c-0.185,0.179-0.351,0.375-0.468,0.606
		c-12.875,25.488-36.611,41.545-64.651,45.092c4.685-11.452,12.712-20.557,20.218-30.516c5.793-7.687,13.605-18.832,14.721-29.674
		c0.862-4.666,0.49-9.436-1.511-13.441c4.064,1.569,7.989,3.49,11.827,5.607C201.546,232.229,205.865,235.093,210.074,238.073z
		 M198.417,170.438c0.001-0.014,0.001-0.028,0.002-0.042c-0.108-0.1-0.21-0.209-0.317-0.31c0.126-0.203,0.249-0.409,0.37-0.614
		C198.45,169.793,198.437,170.116,198.417,170.438z M164.574,161.514c2.576-9.987,8.844-19.577,16.442-26.466
		c2.539-2.302,5.719-4.712,9.195-5.246c3.229-0.496,4.894,2.731,5.665,6.367c-5.666,2.868-10.281,7.519-12.675,13.823
		c-1.193,3.143-1.442,6.264-1.009,9.269c-1.322,2.855-3.196,5.26-7.461,6.283c-2.707,0.65-0.851,5.257,1.605,4.666
		c6.887-1.653,9.515-6.227,11.923-12.493c1.95-5.076,5.317-8.239,10.092-10.025c0.789,8.237-1.399,15.821-5.933,22.022
		c-3.823,5.061-9.211,9.139-15.682,11.879c-2.37,1.003,0.182,5.295,2.596,4.272c0.02-0.009,0.038-0.018,0.058-0.026
		c2.024,11.042,3.716,22.135,5.002,33.287c-1.685-0.548-3.385-1.051-5.112-1.474c-0.336-0.171-0.705-0.214-1.076-0.181
		c-0.964-0.461-1.937-0.984-2.932-1.089c-2.67-0.282-5.366-0.323-8.054-0.271c-0.425-11.787-1.315-23.553-2.792-35.256
		C163.566,174.026,162.792,168.423,164.574,161.514z M100.666,332.484c-8.53-20.566-7.072-44.588-0.08-65.355
		c5.848-17.362,17.968-31.532,34.441-39.557c8.782-4.277,19.068-7.002,29.244-7.728c0.521,0.252,1.086,0.387,1.563,0.368
		c3.253-0.129,6.515-0.192,9.762,0.105c0.06,0.404,0.293,0.765,0.781,1.006c0.014,0.01,0.022,0.021,0.036,0.029
		c7.008,4.492,6.654,13.338,4.56,20.448c-1.94,5.599-5.134,10.902-8.229,15.693c-7.569,11.707-17.621,21.295-23.555,34.078
		c-1.284,2.766-2.342,5.59-3.197,8.452c-0.004,0.013-0.011,0.024-0.015,0.037c-0.035,0.114-0.065,0.229-0.101,0.345
		c-0.06,0.205-0.121,0.409-0.18,0.614c-3.386,11.519-3.812,23.321-1.392,35.106c0.787,3.83,1.691,10.371,4.233,13.463
		c0.434,0.527,1.113,0.969,1.864,1.359c0.183,0.4,0.363,0.803,0.552,1.201c0.309,0.65,0.635,1.314,0.971,1.984
		c-0.095,0.129-0.095,0.344,0.034,0.664c0.075,0.293,0.248,0.611,0.476,0.922c4.741,8.723,10.721,17.129,18.774,23.072
		c-0.696,0.074-1.395,0.139-2.093,0.18c-7.671,0.141-15.071-1.465-22.297-4.02c-2.479-2.518-5.309-4.742-8.69-6.518
		c-2.607-1.365-5.188-2.129-7.668-2.377c-2.743-1.814-5.385-3.736-7.943-5.814c-0.608-0.494-1.454-0.568-2.149-0.242
		c-0.062,0.029-0.121,0.062-0.184,0.09C111.741,352.529,105.057,343.07,100.666,332.484z M147.018,458.164
		c-2.858-0.316-5.67-0.99-8.451-1.695c-1.28-0.326-3.146,1.574-4.126,2.193c-3.799,2.396-7.865,4.352-12.006,6.08
		c-16.733,6.979-35.559,8.678-53.519,8.486c-21.44-0.227-43.632-3.119-64.371-8.91c0.441-3.916,0.883-7.832,1.324-11.748
		c25.409,3.342,45.708-13.088,61.604-31.26c17.02-19.453,30.182-44.504,54.146-56.35c0.734,0.58,1.475,1.148,2.223,1.705
		c-7.773,2.291-13.354,10.043-13.289,19.799c0.06,9.02,4.074,17.871,9.518,25.811c11.145,17.752,29.535,31.49,48.025,40.34
		C162.649,458.132,154.838,459.027,147.018,458.164z M207.031,458.953c-11.682-1.156-23.192-4.197-34.034-8.818
		c-0.211-0.184-0.441-0.35-0.714-0.471c-11.162-4.99-22.636-11.947-32.433-20.625c-2.088-1.877-4.264-3.955-6.419-6.201
		c-7.389-7.824-13.314-16.793-16.64-26.775c-0.091-0.305-0.174-0.613-0.254-0.926c-0.752-3.4-0.96-6.848-0.431-10.281
		c1.017-6.594,5.502-11.947,12.055-13.43c1.517-0.344,2.99-0.4,4.421-0.244c3.544,2.184,7.239,4.113,11.026,5.742
		c1.231,1.154,2.384,2.398,3.438,3.676c2.308,2.922,4.277,6.072,6.038,9.416c2.073,4.002,4.354,7.822,6.896,11.438
		c0.844,1.295,1.72,2.576,2.684,3.812c4.684,6.012,10.406,11.146,16.87,15.178c18.508,11.539,42.011,13.295,63.236,11.734
		c24.308-1.785,47.202-10.402,68.725-21.406c4.135,0.488,8.276,0.883,12.425,1.213C294.279,443.443,250.411,463.246,207.031,458.953
		z M429.953,395.451c-2.47,5.305-14.305,6.65-19.082,7.607c-28.37,5.688-58.564,5.686-87.31,3.559
		c-10.556-0.781-21.197-1.973-31.508-4.424c-2.76-0.656-12.759-2.354-13.035-6.424c0.328-5.057,11.803-6.869,15.331-7.721
		c12.495-3.012,25.584-4.072,38.379-4.811c27.709-1.598,57.201-1.619,84.361,4.842C419.167,388.576,431.956,391.148,429.953,395.451
		z"/>
	<g>
		<path fill="#1A171B" d="M167.178,246.583c7.046-8.643,8.592-21.823-0.19-29.92c-1.649-1.521-5.847,1.15-3.988,2.863
			c2.88,2.656,4.644,6.52,5.277,10.328c1.378,8.277-4.367,14.701-9.297,20.546c-7.79,9.234-14.852,19.086-20.347,29.869
			c-6.743,13.23-10.602,27.861-9.854,42.766c0.985,19.623,11.209,37.086,24.281,51.197c1.519,1.641,5.729-0.984,3.988-2.863
			c-13.796-14.896-23.381-32.82-23.623-53.451c-0.184-15.562,5.533-30.607,13.275-43.869
			C152.518,264.083,159.925,255.478,167.178,246.583z"/>
		<path fill="#1A171B" d="M109.172,284.819c3.868-18.397,15.082-34.879,29.389-46.817c2.181-1.819-1.296-5.351-3.285-3.69
			c-15.325,12.787-26.77,30.119-30.901,49.771c-5.745,27.324,5.281,53.928,21.54,75.486c1.792,2.375,5.313,0.176,3.365-2.408
			C113.564,336.324,103.653,311.072,109.172,284.819z"/>
		<path fill="#1A171B" d="M119.907,315.998c-1.375-13.15,1.79-26.207,7.715-37.908c4.415-8.721,10.439-16.457,16.765-23.855
			c7.113-8.318,14.284-20.949,10.887-32.428c-0.432-1.46-4.923-3.357-4.303-1.262c3.562,12.033-5.199,24.385-12.439,32.938
			c-6.792,8.023-12.861,16.605-17.188,26.225c-5.521,12.271-7.342,25.764-5.234,39.047c3.014,18.99,13.896,35.732,26.26,50.008
			c1.159,1.34,5.377,2.053,3.238-0.42C132.697,353.435,121.994,335.974,119.907,315.998z"/>
	</g>
	<path fill="#1A171B" d="M203.427,142.017c0.645-0.266,1.311-0.473,1.983-0.659c0.003-0.007,0.006-0.014,0.009-0.021
		c-0.92,2.116-1.761,4.266-2.512,6.45c-0.104-0.862-0.226-1.729-0.391-2.605c-0.004-0.033-0.01-0.065-0.017-0.099
		c-0.011-0.058-0.019-0.114-0.03-0.172c-0.06-0.304-0.209-0.588-0.409-0.849c-0.158-0.392-0.404-0.751-0.688-1.071
		C202.043,142.638,202.726,142.306,203.427,142.017z"/>
	<path fill="#1A171B" d="M153.792,352.476c0.225,0.109,0.453,0.209,0.679,0.316c-0.146,0.045-0.298,0.104-0.451,0.166
		C153.946,352.796,153.864,352.638,153.792,352.476z"/>
	<path fill="#1A171B" d="M198.417,170.438c0.001-0.014,0.001-0.028,0.002-0.042c-0.108-0.1-0.21-0.209-0.317-0.31
		c0.126-0.203,0.249-0.409,0.37-0.614C198.45,169.793,198.437,170.116,198.417,170.438z"/>
</g>
<path fill="#F9B800" d="M375.361,395.031h-50V188.039c0-25.296,20.579-45.875,45.875-45.875h587.021v50H375.361V395.031
	L375.361,395.031z"/>
</svg>
