<?xml version="1.0" encoding="utf-8"?>
<!-- Generator: Adobe Illustrator 16.0.0, SVG Export Plug-In . SVG Version: 6.00 Build 0)  -->
<!DOCTYPE svg PUBLIC "-//W3C//DTD SVG 1.1//EN" "http://www.w3.org/Graphics/SVG/1.1/DTD/svg11.dtd">
<svg version="1.1" id="Layer_1" xmlns="http://www.w3.org/2000/svg" xmlns:xlink="http://www.w3.org/1999/xlink" x="0px" y="0px"
	 width="454.986px" height="456.469px" viewBox="0 0 454.986 456.469" enable-background="new 0 0 454.986 456.469"
	 xml:space="preserve">
<g>
	<g>
		<path fill="#58585A" d="M164.435,205.26c0.068-1.22,0.008-2.52-0.18-3.831c-0.246-1.307-0.623-2.579-0.998-3.646
			c-0.324-0.92-0.664-1.861-1.057-2.779c-0.68-1.26-1.506-2.396-2.488-3.305c-0.369-0.34-0.646-0.769-0.812-1.211
			c-0.773,0.248-1.549,0.497-2.324,0.745c-4.791,1.536-3.049,7.627-1.949,11.421c0.732,2.082,1.533,4.288,2.928,6.041
			c0.828,1.041,1.396,1.192,1.113,1.354c0.881-0.282,1.762-0.564,2.645-0.848C163.304,208.563,164.181,207.061,164.435,205.26z"/>
	</g>
	<g>
		<path fill="#009797" d="M202.737,197.509c1.801-1.952,2.932-4.159,4.486-6.226c2.268-3.014,0.709-7.904-1.301-10.983
			c-1.416-2.167-6.375-3.533-8.879-3.972c-9.055-1.588-15.621,2.25-22.527,7.665c-3.236,2.538-6.584,5.106-10.264,7.009
			c2.146,2.838,3.623,6.352,4.252,9.929c0.246,1.016,0.467,2.134,0.562,3.236c6.619-0.515,13.338,0.961,19.809-0.299
			c1.434-0.278,2.828,1.005,3.145,2.196c4.912-1.052,8.607-3.356,11.268-5.747C202.358,199.626,201.864,198.455,202.737,197.509z"/>
	</g>
	<g>
		<path fill="#F7C3B6" d="M349.384,369.323c-0.27,0.015-0.557-0.053-0.848-0.167c-2.637,6.319-6.672,12.053-11.928,16.476
			c-7.039,5.921-14.99,9.384-23.387,11.059c-29.967,6.661-63.217-8.839-88.281-23.328c-0.746-0.432-0.963-1.228-0.824-2.029
			c1.227-7.094,1.682-18.345-5.281-22.944c-3.857-2.549-8.465-3.22-13.018-2.993c-4.496,0.222-9.049,1.032-13.4,2.358
			c0.441,0.249,0.881,0.499,1.322,0.748c1.188,0.671,2.375,1.345,3.564,2.017c0.895,0.506,1.525,0.38,0.354,0.432
			c2.965-0.132,6.918,0.52,8.965,2.897c5.443,6.33,0.207,16.095-7.395,17.249c-9.051,1.375-18.498-2.276-26.672-5.795
			c-0.562-0.243-1.123-0.5-1.686-0.749c2.611,6.753,9.416,10.903,16.598,11.455c2.646,0.204,2.666,4.351,0,4.146
			c-9.773-0.752-19.174-6.876-21.344-16.95c-0.064-0.306-0.062-0.588-0.018-0.848c-2.592-1.251-5.154-2.566-7.664-3.969
			c0.131,2.123,0.498,4.266,1.027,6.381c0.516,0.2,0.971,0.601,1.213,1.248c4.48,12.015,17.338,18.8,30.01,18.053
			c2.67-0.157,2.654,3.987,0,4.144c-7.391,0.438-14.705-1.412-20.799-5.169c10.312,10.108,27.129,16.35,40.17,9.503
			c0.748-0.394,1.553-0.282,2.178,0.28c8.938,8.052,19.441,14.578,30.076,20.125c14.92,7.783,30.977,13.868,47.646,16.55
			c20.113,3.237,41.328,1.466,59.508-8.298c15.801-8.487,29.311-21.68,37.656-37.624c-0.246-0.244-0.475-0.518-0.666-0.838
			C379.429,371.055,361.938,368.681,349.384,369.323z"/>
		<g>
			<path fill="#F2A090" d="M386.462,382.741c-3.93-6.527-11.121-10.148-18.893-11.963c-8.41,13.723-20.699,25.088-34.834,32.681
				c-18.18,9.764-39.395,11.535-59.508,8.298c-16.668-2.684-32.727-8.766-47.646-16.551c-10.633-5.547-21.139-12.072-30.076-20.124
				c-0.625-0.562-1.428-0.674-2.178-0.28c-1.461,0.768-2.975,1.362-4.52,1.813c1.182,1.194,0.75,3.698-1.34,3.538
				c-3.387-0.262-6.723-1.181-9.734-2.673c-4.234-0.474-8.463-1.781-12.428-3.686c6.09,7.077,15.789,10.839,25.387,10.273
				c2.67-0.157,2.654,3.987,0,4.144c-7.391,0.438-14.705-1.412-20.799-5.169c10.312,10.108,27.129,16.35,40.17,9.503
				c0.748-0.394,1.553-0.282,2.178,0.28c8.938,8.052,19.441,14.578,30.076,20.125c14.92,7.783,30.977,13.868,47.646,16.55
				c20.113,3.237,41.328,1.466,59.508-8.298c15.801-8.487,29.311-21.68,37.656-37.624
				C386.882,383.335,386.653,383.062,386.462,382.741z"/>
		</g>
		<path fill="#F7C3B6" d="M174.542,207.43c-0.418,8.409,3.164,16.943,8.826,23.135c0.885,0.967-0.564,4.242-0.795,5.363
			c-2.695,13.1-3.971,26.659-3.258,40.026c0.98,18.356,5.627,38.368,18.334,52.365c3.131,2.854,6.223,4.964,8.953,6.861
			c7.811,3.506,15.82,1.36,23.881-2.254c2.016-10.509,1.861-23.244-3.617-32.856c-3.045,2.257-6.104,3.581-9.082,3.446
			c-2.018,0.079-3.939-0.645-5.809-2.39c-0.502-0.414-0.998-0.866-1.488-1.398c-6.598-7.146-9.4-18.495-10.793-27.848
			c-1.424-9.563-1.727-19.296-1.105-28.941c0.35-5.441,0.545-10.82,3.768-15.491c5.121-7.42,15.045-13.97,6.453-23.001
			c-1.387-1.458-2.791-2.87-4.176-4.276c-2.479-2.406-5.072-5.013-7.271-8.09c-1.314-1.708-2.529-3.498-3.574-5.448
			c-3.844,6.77-2.023,14.714,3.043,20.588c0.455,0.526,1.389,2.749,0.268,3.152c-4.197,1.511-7.938,5.03-7.209,9.818
			c0.453,2.987-2.752,0.782-3.029-1.037c-0.812-5.349,1.854-9.834,6.475-12.153c-0.168-0.238-0.318-0.488-0.479-0.732
			c-1.623,0.04-5.633,0.152-10.109,0.369c-0.148,0.008-0.287,0.015-0.422,0.021c0.25-0.013,0.422-0.021,0.422-0.021
			s-1.754-3.719-10.24-1.941c-0.051,0.357-0.09,0.703-0.131,1.052C173.435,206.203,174.573,206.81,174.542,207.43z"/>
		<g>
			<path fill="#F2A090" d="M212.587,315.104c-2.73-1.896-5.822-4.006-8.955-6.859c-12.705-13.998-17.354-34.009-18.332-52.367
				c-0.627-11.742,0.283-23.632,2.342-35.229c-0.395-0.447-0.703-0.983-0.781-1.493c-0.52-3.422,0.391-6.488,2.318-8.862
				c-1.07-1.189-2.064-2.465-2.969-3.807c-1.098,0.045-2.262,0.095-3.463,0.152c-0.148,0.008-0.287,0.015-0.422,0.021
				c0.25-0.013,0.422-0.021,0.422-0.021s-1.754-3.719-10.24-1.941c-0.051,0.357-0.09,0.703-0.131,1.052
				c1.059,0.454,2.197,1.061,2.166,1.681c-0.418,8.409,3.164,16.943,8.826,23.135c0.885,0.967-0.564,4.242-0.795,5.363
				c-2.695,13.1-3.971,26.659-3.258,40.026c0.98,18.356,5.627,38.368,18.334,52.365c3.131,2.854,6.223,4.964,8.953,6.861
				c7.811,3.506,15.82,1.36,23.881-2.254c1.082-5.643,1.529-11.926,0.871-18.023C225.022,317.115,218.743,317.869,212.587,315.104z"
				/>
			<path fill="#F2A090" d="M204.573,222.864c-0.041,0.603-0.064,1.207-0.096,1.811c4.973-6.053,11.232-11.796,5.254-19.171
				c-0.488,0.618-0.957,1.24-1.393,1.868C205.118,212.042,204.923,217.422,204.573,222.864z"/>
			<path fill="#F2A090" d="M198.278,193.27c-0.309-0.396-0.623-0.777-0.916-1.188c-0.604-0.782-1.18-1.585-1.732-2.41
				c-2.252,2.441-3.346,5.719-2.785,9.408c0.275,1.818,3.482,4.023,3.029,1.036C195.456,197.369,196.513,195.041,198.278,193.27z"/>
		</g>
		<path fill="#F7C3B6" d="M382.958,191.243c0.617-30.691-13.186-52.15-40.064-60.837c-33.551-10.846-71.936,14.977-85.738,57.676
			s5.217,89.153,24.293,94.278c17.125,4.601,71.682-3.348,92.623-49.362c1.166,0.197,2.363,0.306,3.588,0.306
			c11.797,0,21.361-9.563,21.361-21.362C399.021,201.974,392.192,193.601,382.958,191.243z"/>
		<path fill="#F2A090" d="M399.021,211.941c0-9.968-6.828-18.341-16.062-20.698c0.617-30.691-13.186-52.15-40.064-60.837
			c-5.982-1.935-12.117-2.696-18.24-2.411c2.498,9.825,7.531,25.001,16.492,35.221c0,0,18.439,48.694-15.418,88.122
			c-14.182,16.514-27.99,26.205-39.256,31.894c20.963,2.139,68.402-8.053,87.6-50.233c1.166,0.197,2.363,0.306,3.588,0.306
			C389.456,233.304,399.021,223.741,399.021,211.941z"/>
	</g>
	<path fill="#F9B800" d="M82.405,148.438c-1.176,0.603-0.881,2.106-0.098,2.962c2.938,3.212,5.875,6.423,8.812,9.636
		c-0.695,0.727-1.391,1.453-2.086,2.18c-3.104-3.339-6.207-6.676-9.311-10.015c-0.59-0.636-2.324-1.789-2.928-0.463
		c-0.812,1.794-1.627,3.588-2.441,5.382c-1.844-6.52-3.689-13.038-5.535-19.557c5.768,2.657,11.535,5.315,17.303,7.972
		C84.884,147.17,83.646,147.805,82.405,148.438z"/>
	<path fill="#009797" d="M50.067,189.992c6.385-3.643,12.771-7.286,19.156-10.93c0.139,0.853,0.279,1.705,0.418,2.559
		c-3.984,2.088-7.967,4.177-11.951,6.266c-0.57,0.299-0.574,0.741-0.477,1.32c0.004,0.032,0.01,0.065,0.016,0.098
		c0.158,0.949,1.357,2.144,2.309,2.296c4.018,0.642,8.035,1.283,12.053,1.926c0.201,1.229,0.402,2.458,0.604,3.688
		c-7.215-1.418-14.428-2.835-21.639-4.252C50.394,191.973,50.231,190.982,50.067,189.992z"/>
	<path fill="#009797" d="M133.2,215.798c-0.006-0.032-0.012-0.064-0.016-0.097c-0.158-0.95-1.357-2.145-2.311-2.296
		c-4.018-0.641-8.033-1.283-12.051-1.924c-0.203-1.229-0.402-2.46-0.604-3.689c7.213,1.418,14.426,2.835,21.639,4.253
		c0.162,0.99,0.324,1.979,0.486,2.969c-6.385,3.644-12.77,7.287-19.154,10.93c-0.141-0.854-0.279-1.706-0.42-2.559
		c3.984-2.089,7.967-4.178,11.951-6.266C133.292,216.819,133.296,216.379,133.2,215.798z"/>
	<g>
		<path fill="#F9B800" d="M114.396,244.476c-1.504-1.646-3.48-2.802-4.896-4.521c-2.195-2.671-2.311-13.738-6.844-12.843
			c-6.754,1.337-7.08,9.561-4.695,14.709c2.598,5.6,7.537,8.798,13.59,9.501C116.419,251.607,117.507,247.881,114.396,244.476z"/>
	</g>
	<path fill="#58585A" d="M131.505,345.637c5.941-3.359,11.1-7.533,15.227-12.436c0.49-0.38,0.963-0.776,1.426-1.185
		c18.674,9.404,37.361,18.783,56.039,28.178c-0.055-0.508-0.17-1-0.352-1.461c0.918,2.336,0.164,5.465-1.637,7.502
		c-2.201,2.494-6.053,2.604-9.109,2.458c-6.326-0.305-12.803-2.244-19.039-4.9c-2.539-1.564-5.086-3.12-7.645-4.651
		c-5.635-3.369-11.369-6.701-17.771-8.345C142.741,349.282,137.118,348.073,131.505,345.637z"/>
	<g>
		<g>
			<path fill="#1A171B" d="M179.356,188.104c4.405-4.873,11.993-6.841,18.388-7.024c1.824-0.052,4.907-3.661,1.981-3.577
				c-8.559,0.244-17.912,3.204-23.823,9.742C173.705,189.677,177.981,189.626,179.356,188.104L179.356,188.104z"/>
		</g>
	</g>
	<g>
		<g>
			<path fill="#1A171B" d="M200.167,186.171c-4.405,4.875-11.992,6.843-18.388,7.026c-1.824,0.052-4.907,3.661-1.981,3.577
				c8.559-0.244,17.913-3.204,23.823-9.744C205.818,184.598,201.542,184.649,200.167,186.171L200.167,186.171z"/>
		</g>
	</g>
	<path fill="#1A171B" d="M211.796,180.879c-0.895-3.14-2.568-6.69-5.449-8.446c-0.383-0.234-2.973-1.117-1.818-0.457
		c-0.664-0.381-1.373-0.676-2.078-0.968c-6.662-2.769-14.088-2.607-20.75,0.007c-8.172,3.206-13.656,10.996-21.805,14.369
		c-0.332,0.138-0.562,0.325-0.744,0.533c-0.814-0.073-1.67-0.003-2.582,0.289c-1.842,0.59-4.137,0.94-5.83,1.87
		c-3.463,1.899-1.488,8.36-0.674,11.172c1.604,4.558,5.141,11.414,11.248,9.456c1.844-0.591,4.137-0.94,5.832-1.87
		c0.51-0.278,0.889-0.666,1.184-1.115c7.477-1.311,15.113,0.803,22.533-0.642c2.727-0.531,0.414-4.439-1.986-3.972
		c-6.471,1.261-13.189-0.215-19.809,0.3c-0.096-1.103-0.316-2.221-0.562-3.237c-0.629-3.577-2.105-7.09-4.252-9.929
		c3.68-1.903,7.027-4.47,10.264-7.009c6.906-5.414,13.473-9.252,22.527-7.665c2.504,0.439,7.463,1.806,8.879,3.973
		c2.01,3.078,3.568,7.97,1.301,10.982c-1.555,2.067-2.686,4.273-4.486,6.226c-1.736,1.882,1.936,4.659,3.68,2.77
		C211.343,192.177,213.966,188.489,211.796,180.879z M161.312,206.439c-0.883,0.282-1.764,0.564-2.645,0.848
		c0.283-0.163-0.285-0.314-1.113-1.355c-1.395-1.752-2.195-3.959-2.928-6.041c-1.1-3.793-2.842-9.885,1.949-11.421
		c0.775-0.248,1.551-0.496,2.324-0.745c0.166,0.443,0.443,0.871,0.812,1.212c0.982,0.908,1.809,2.044,2.488,3.306
		c0.393,0.917,0.732,1.857,1.057,2.777c0.375,1.067,0.752,2.339,0.998,3.646c0.188,1.312,0.248,2.611,0.18,3.832
		C164.181,204.297,163.304,205.8,161.312,206.439z"/>
	<g>
		<path fill="#F9D3C8" d="M173.298,220.485c1.504,2.995,3.281,5.199,4.613,6.605c0.057-0.184-0.029-0.176-0.414-0.634
			C175.927,224.587,174.515,222.586,173.298,220.485z"/>
	</g>
	<g>
		<g>
			<path fill="#009797" d="M282.86,282.689c-0.002,0-0.006,0-0.01-0.001c-1.609,5.825-2.441,11.955-2.92,17.525
				c-0.49,5.714-0.654,11.461-0.387,17.192c0.068,1.47-0.379,8.755,0.955,9.507c1.867,1.051,3.82,1.908,5.84,2.628
				c5.213,1.861,10.592,3.289,16.018,4.408c2.193-12.683,6.773-25.519,13.012-36.702c5.109-9.158,11.518-17.551,20.117-23.686
				c2.641-1.884,4.811-3.511,7.732-3.493c-0.686-0.222-1.381-0.434-2.074-0.646C319.21,282.582,294.44,285.084,282.86,282.689z"/>
		</g>
		<g>
			<path fill="#007A7A" d="M335.485,273.562c2.641-1.884,4.811-3.511,7.732-3.493c-0.686-0.222-1.381-0.434-2.074-0.646
				c-21.934,13.16-46.703,15.662-58.283,13.268c-0.002,0-0.006,0-0.01-0.001c-0.602,2.178-1.094,4.399-1.502,6.617
				c3.799,4.543,7.936,7.603,12.072,8.714c4.74,1.273,12.348,1.582,21.314,0.394c0.211-0.39,0.418-0.781,0.633-1.166
				C320.478,288.089,326.886,279.696,335.485,273.562z"/>
		</g>
		<g>
			<path fill="#009797" d="M255.519,321.655c0.033-0.009,0.072-0.007,0.107-0.01c0.158-0.102,0.332-0.182,0.535-0.217
				c1.492-0.247,2.98-0.495,4.473-0.744c-0.658-14.688,0.25-30.188,5.9-43.931c0.346-0.839,0.717-1.698,1.102-2.564
				c-1.064-1.198-2.104-2.515-3.115-3.935c-0.17,0.105-0.35,0.205-0.52,0.312c0.092,0.835-0.18,1.435-1.057,1.114
				c-0.016-0.007-0.033-0.013-0.051-0.017c-3.23-0.9-8.635,2.915-11.236,4.891c-7.953,6.046-13.932,14.234-21.404,20.769
				c6.217,9.454,6.879,22.224,5.139,33.259C242.114,327.225,248.851,323.442,255.519,321.655z"/>
		</g>
		<g>
			<path fill="#007A7A" d="M264.001,270.567c0.092,0.835-0.18,1.435-1.057,1.114c-0.016-0.007-0.033-0.013-0.051-0.017
				c-0.01-0.004-0.021-0.004-0.029-0.006c-2.354,10.481-2.705,21.505-2.23,32.107c-1.492,0.249-2.98,0.497-4.473,0.744
				c-0.203,0.034-0.377,0.115-0.535,0.216c-0.035,0.004-0.074,0.001-0.107,0.01c-6.527,1.751-13.123,5.409-19.703,8.714
				c0.711,5.727,0.441,11.645-0.424,17.133c6.723-3.358,13.459-7.141,20.127-8.928c0.033-0.009,0.072-0.007,0.107-0.01
				c0.158-0.102,0.332-0.182,0.535-0.217c1.492-0.247,2.98-0.495,4.473-0.744c-0.658-14.688,0.25-30.188,5.9-43.931
				c0.346-0.839,0.717-1.698,1.102-2.564c-1.064-1.198-2.104-2.515-3.115-3.935C264.351,270.36,264.171,270.46,264.001,270.567z"/>
		</g>
	</g>
	<g>
		<path fill="#009797" d="M341.812,287.115c-11.746,14.79-15.646,34.087-16.336,52.573c3.912,1.334,7.758,3.091,11.322,5.114
			c3.318,1.885,6.664,3.992,9.404,6.673c0.438,0.426,1.09,1.021,1.791,1.705c0.6-9.934-2.316-19.848-10.678-25.745
			c-1.875-1.325-0.084-4.441,1.814-3.103c7.355,5.189,11.289,13.677,12.252,22.475c0.389,3.533,0.324,7.06-0.143,10.513
			c0.229,0.539,0.336,1.06,0.258,1.533c-0.258,1.574-0.609,3.135-1.027,4.675c14.105,0.031,30.232,4.32,38.646,15.97
			c0.852-1.868,1.652-3.762,2.357-5.696c13.557-37.247,0.238-80.056-36.35-97.949c-0.08-0.039-0.145-0.087-0.213-0.132
			C349.763,278.23,345.245,282.791,341.812,287.115z"/>
	</g>
	<g>
		<path fill="#007A7A" d="M355.124,275.853c-0.08-0.039-0.145-0.087-0.213-0.132c-2.398,1.169-4.654,2.794-6.734,4.623
			c24.307,20.608,32.223,55.1,21.723,86.124c7.654,2.473,14.602,6.638,19.217,13.03c0.852-1.868,1.652-3.762,2.357-5.696
			C405.03,336.555,391.712,293.746,355.124,275.853z"/>
	</g>
	<path fill="#1A171B" d="M211.796,180.879c-0.895-3.14-2.568-6.69-5.449-8.446c-0.383-0.234-2.973-1.117-1.818-0.457
		c-0.664-0.381-1.373-0.676-2.078-0.968c-6.662-2.769-14.088-2.607-20.75,0.007c-8.172,3.206-13.656,10.996-21.805,14.369
		c-0.332,0.138-0.562,0.325-0.744,0.533c-0.814-0.073-1.67-0.003-2.582,0.289c-1.842,0.59-4.137,0.94-5.83,1.87
		c-3.463,1.899-1.488,8.36-0.674,11.172c1.604,4.558,5.141,11.414,11.248,9.456c1.844-0.591,4.137-0.94,5.832-1.87
		c0.51-0.278,0.889-0.666,1.184-1.115c7.477-1.311,15.113,0.803,22.533-0.642c2.727-0.531,0.414-4.439-1.986-3.972
		c-6.471,1.261-13.189-0.215-19.809,0.3c-0.096-1.103-0.316-2.221-0.562-3.237c-0.629-3.577-2.105-7.09-4.252-9.929
		c3.68-1.903,7.027-4.47,10.264-7.009c6.906-5.414,13.473-9.252,22.527-7.665c2.504,0.439,7.463,1.806,8.879,3.973
		c2.01,3.078,3.568,7.97,1.301,10.982c-1.555,2.067-2.686,4.273-4.486,6.226c-1.736,1.882,1.936,4.659,3.68,2.77
		C211.343,192.177,213.966,188.489,211.796,180.879z M161.312,206.439c-0.883,0.282-1.764,0.564-2.645,0.848
		c0.283-0.163-0.285-0.314-1.113-1.355c-1.395-1.752-2.195-3.959-2.928-6.041c-1.1-3.793-2.842-9.885,1.949-11.421
		c0.775-0.248,1.551-0.496,2.324-0.745c0.166,0.443,0.443,0.871,0.812,1.212c0.982,0.908,1.809,2.044,2.488,3.306
		c0.393,0.917,0.732,1.857,1.057,2.777c0.375,1.067,0.752,2.339,0.998,3.646c0.188,1.312,0.248,2.611,0.18,3.832
		C164.181,204.297,163.304,205.8,161.312,206.439z"/>
	<g>
		<g>
			<path fill="#58585A" d="M123.077,299.124c-16.682,7.308-37.863-2.429-52.246-10.99c-13.754-8.188-31.584-12.802-46.975-6.459
				c29.537,16.907,63.596,27.729,97.043,33.166c6.555,1.066,13.17,1.957,19.812,2.185c4.17,0.144,8.729,0.341,12.764-0.93
				c2.67-0.839,4.275-3.621,5.174-6.541c-4.605-5.123-14.336-11.235-27.424-17.354C129.138,295.198,126.38,297.677,123.077,299.124z
				"/>
			<path fill="#58585A" d="M41.3,267.78c-8.789-1.185-18.764-2.604-27.545-0.581c-4.797,1.104-7.299,3.275-3.447,7.514
				c2.043,2.245,4.389,4.228,6.9,6.021c0.18-0.363,0.496-0.7,0.986-0.965c13.066-7.044,30.643-6.568,44.027-1.009
				c10.318,4.286,19.301,11.011,29.938,14.732c8.527,2.984,20.096,6.408,28.768,2.069c1.75-0.875,3.273-1.984,4.568-3.271
				c-14.496-6.565-29.66-11.768-44.949-16.034C67.663,272.659,54.569,269.568,41.3,267.78z"/>
		</g>
		<path fill="#F9B800" d="M141.804,266.711c-1.057-0.99-10.047-9.127-11.664-6.076c-0.914,1.721,2.238,6.103,2.9,7.621
			c1.377,3.157,2.545,6.466,2.586,9.953c0.098,8.29-4.719,17.484-12.549,20.915c-16.682,7.308-37.863-2.429-52.246-10.99
			c-13.754-8.188-31.584-12.802-46.975-6.459c29.537,16.907,63.596,27.729,97.043,33.166c6.555,1.066,13.17,1.957,19.812,2.185
			c4.17,0.144,8.729,0.341,12.764-0.93c4.188-1.316,5.766-7.402,6.076-11.323c0.51-6.454-1.168-12.933-3.941-18.738
			C152.198,278.894,147.593,272.143,141.804,266.711z"/>
	</g>
	<g>
		<path fill="#FFFFFF" d="M356.837,275.47l-11.975-2.303c-30.857,15.659-38.686,64.479-38.686,64.479s-19.344-3.686-26.252-8.751
			c-2.115-19.729-0.035-34.296,2.51-43.847c-3.605-1.695-7.15-4.803-10.418-9.013c-4.119,8.603-8.598,23.742-7.291,47.793
			l-5.527,0.922c0.182,18.167-5.922,39.394-13.428,58.517c69.051,33.083,101.062,4.482,105.406-23.358
			c-6.256-11.657-26.117-17.658-26.117-17.658C326.44,286.983,356.837,275.47,356.837,275.47z"/>
		<path fill="#FFFFFF" d="M233.517,410.854c-7.912,16.063-14.584,26.969-14.584,26.969l31.516,18.646
			c14.496-5.969,29.168-13.958,42.717-23.108C270.354,429.929,249.112,420.267,233.517,410.854z"/>
	</g>
	<g>
		<path fill="#9A6A45" d="M358.821,222.825c-1.418-37.795,5.039-64.049,5.039-64.049c-21.494-6.472-52.963,8.274-68.623-4.528
			c-7.107-5.809-6.432-15.853-2.742-20.753c-16.34,0-21.27-23.146-4.68-34.052c27.32-17.963,46.027,20.653,88.408,28.035
			c9.617,1.675,19.723,8.868,19.385,21.792c0,0-10.633,17.781-15.223,43.915C354.63,191.768,358.821,222.825,358.821,222.825z"/>
	</g>
	<path fill="#1A171B" d="M262.901,216.783c-1.512,0.403-2.012,2.369-0.914,3.464c6.387,6.382,16.027,8.362,24.535,5.871
		c2.561-0.75,1.471-4.75-1.1-3.997c-6.018,1.762-12.691,0.924-17.852-2.617c13.574-6.067,19.203-23.953,20.475-37.756
		c0.244-2.662-3.902-2.638-4.146,0c-0.283,3.077-0.816,6.439-1.645,9.831c-0.475-3.747-3.668-6.646-7.543-6.646
		c-4.203,0-7.611,3.408-7.611,7.611c0,4.205,3.408,7.612,7.611,7.612c2.316,0,4.389-1.038,5.785-2.671
		C277.313,206.374,271.788,214.416,262.901,216.783z M285.015,253.187c-2.266-0.408-3.232,3.054-0.955,3.463
		c14.293,2.57,28.711,0.549,39.701-9.508c4.85-4.438,9.074-10.583,11.023-16.923c0.432-1.412-1.344-2.985-2.641-2.028
		c-15.982,11.791-38.945,12.932-56.523,5.238c-2.102-0.918-3.932,2.177-1.814,3.103c17.393,7.612,38.77,7.421,55.285-2.065
		c-1.703,3.141-3.926,6.055-6.287,8.571C312.995,253.491,298.608,255.63,285.015,253.187z M337.349,198.192
		c0-4.205-3.406-7.612-7.611-7.612c-4.203,0-7.611,3.407-7.611,7.612c0,4.204,3.408,7.611,7.611,7.611
		C333.942,205.803,337.349,202.396,337.349,198.192z M349.253,175.465c-8.082-8.418-20.889-12.855-32.154-8.176
		c-2.434,1.01-1.367,5.022,1.102,3.997c9.955-4.136,20.949-0.363,28.123,7.11C348.177,180.327,351.104,177.392,349.253,175.465z
		 M399.208,209.649c-0.303-10.447-7.908-18.924-17.463-21.776c2.113-11.382,5.447-22.464,10.043-33.094
		c1.186-2.739,2.479-5.431,3.893-8.059c1.266-2.357,1.363-3.953,1-6.824c-1.203-9.505-9.266-15.915-17.99-18.364
		c-4.953-1.39-9.992-2.117-14.902-3.773c-5.23-1.765-10.229-4.142-15.084-6.753c-13.795-7.417-27.15-20.392-43.182-22.517
		c-15.303-2.03-32.482,9.743-32.99,25.786c-0.281,8.864,5.816,15.759,14.09,17.153c-0.746,1.503-1.262,3.089-1.547,4.71
		c-7.783,5.344-14.484,12.186-20.021,20.005c-4.004-0.35-8.084,0.177-11.979,1.796c-2.434,1.01-1.367,5.021,1.102,3.996
		c2.672-1.11,5.418-1.634,8.146-1.686c-12.475,19.747-18.082,44.617-15.889,66.82c1.684,17.062,7.533,36.012,20.182,48.2
		c7.977,7.689,18.941,7.966,29.354,7.05c31.881-2.808,62.201-21.357,75.84-50.762c0.711-1.534-3.527-3.329-4.262-1.745
		c-14.445,31.145-49.824,51.774-84.186,49.887c-17.727-0.974-25.742-21.231-29.744-36.053c-6.648-24.63-3.482-51.119,8.314-73.652
		c1.656-3.161,3.529-6.269,5.598-9.274c5.551,1.128,10.758,4.147,14.77,8.326c1.854,1.931,4.781-1.004,2.932-2.931
		c-4.082-4.251-9.367-7.483-15.049-9.044c4.295-5.63,9.291-10.813,14.832-15.235c0.316,2.142,1.012,4.243,2.092,6.19
		c3.645,6.566,11.92,8.806,18.797,9.594c17.535,2.012,35.336-5.371,52.715-1.045c-4.164,17.794-5.268,36.638-5.014,54.97
		c-0.213,2.801-0.146,5.618,0.201,8.268c0.025,0.749,0.49,1.112,1.152,1.207c1.902,0.392,5.438-1.612,5.195-3.471
		c-0.088-2.485-0.15-4.985-0.191-7.496c0.127-1.766,0.361-3.519,0.709-5.221c1.814-8.892,7.102-13.786,16.361-13.445
		c0.463,0.017,1.037-0.088,1.621-0.286c9.773,1.417,16.717,9.439,16.422,19.694c-0.301,10.427-9.537,18.485-19.631,18.777
		c-2.883,0.083-1.533,4.09,0.744,4.024C389.351,233.216,399.595,222.992,399.208,209.649z M376.009,186.808
		c-0.129,0.013-0.256,0.036-0.385,0.05c-0.061-0.003-0.121-0.008-0.18-0.01c-0.363-0.01-0.658,0.045-0.895,0.147
		c-5.732,0.85-10.785,3.416-14.492,7.62c0.424-13.688,1.848-27.432,5.045-40.55c0.195-0.808-0.068-1.459-0.914-1.697
		c-14.855-4.186-30.537-0.136-45.568,0.704c-7.109,0.397-14.609,0.087-20.826-3.746c-4.648-2.865-7.096-8.304-6.627-13.532
		c0.379-0.845,0.822-1.625,1.328-2.299c-0.312,0-0.613-0.023-0.918-0.04c0.383-1.429,0.994-2.807,1.867-4.073
		c0.846-1.226,0.119-2.336-1.281-2.378c-8.717-0.264-13.512-7.791-13.254-15.948c0.295-9.328,8.51-16.395,17.238-17.918
		c7.215-1.26,14.543,2.272,20.646,5.688c7.691,4.304,14.875,9.473,22.473,13.944c8.289,4.881,17.078,8.883,26.379,11.396
		c4.912,1.328,9.867,1.737,14.438,4.142c4.959,2.608,8.613,7.162,10.008,12.583c0.734,2.845,1.031,3.866-0.211,6.176
		c-1.549,2.881-2.938,5.852-4.258,8.845C381.259,165.803,378.122,176.212,376.009,186.808z"/>
	<g>
		<path fill="#FFFFFF" d="M328.132,128.356l19.762-34.451c0,0-20.379-6.296-12.141-29.175c7.77-21.582,43.617-29.303,53.092,3.197
			c0,0,10.053-37.06,45.744-24.742c27.807,9.597,22.877,55.863-6.865,55.863c0,0,27.35,14.296,10.068,31.575
			c-14.188,14.185-25.625-5.033-25.625-5.033s-12.33,4.591-24.512,34.923C383.442,149.888,365.651,128.533,328.132,128.356z"/>
	</g>
	<g>
		<g>
			<path fill="#1A171B" d="M330.074,129.492c6.588-11.484,13.175-22.968,19.762-34.451c0.745-1.298,0.041-2.865-1.344-3.305
				c-15.984-5.085-14.725-25.211-4.634-35.477c5.879-5.98,14.849-8.995,23.124-7.681c10.428,1.655,16.768,10.444,19.692,19.948
				c0.647,2.102,3.735,2.192,4.34,0c1.544-5.597,4.651-11,8.381-15.4c8.948-10.557,21.963-11.946,34.595-7.771
				c24.84,8.211,21.027,50.93-6.267,51.443c-2.16,0.041-3.175,3.113-1.136,4.193c6.977,3.693,15.993,11.067,14.486,19.885
				c-1.359,7.951-10.925,15.201-18.671,11.543c-3.392-1.602-6.36-4.776-8.294-7.964c-0.483-0.798-1.602-1.397-2.541-1.034
				c-3.387,1.309-6.234,4.087-8.68,6.666c-7.953,8.382-13.086,19.261-17.403,29.829c1.446,0,2.894,0,4.34,0
				c-9.718-23.708-38.078-33.492-61.693-33.809c-2.903-0.039-2.899,4.461,0,4.5c21.278,0.286,48.462,8.812,57.354,30.505
				c0.873,2.128,3.469,2.132,4.34,0c4.052-9.917,8.947-19.877,16.245-27.843c1.494-1.63,3.137-3.163,4.951-4.432
				c0.424-0.296,2.633-1.419,1.744-1.076c-0.848-0.344-1.694-0.689-2.541-1.034c2.584,4.263,6.617,8.354,11.296,10.207
				c9.101,3.604,17.674-2.614,22.187-10.358c6.995-12.004-4.85-24.176-14.848-29.469c-0.379,1.397-0.757,2.795-1.136,4.193
				c30.526-0.574,36.784-44.704,11.794-58.422c-12.963-7.116-29.525-5.71-40.487,4.153c-5.767,5.189-10.289,12.808-12.355,20.3
				c1.446,0,2.894,0,4.34,0c-3.354-10.901-10.415-20.208-21.936-22.915c-9.882-2.321-20.351,1.406-27.733,8.023
				c-13.684,12.265-13.353,37.496,5.949,43.637c-0.447-1.102-0.896-2.203-1.344-3.305c-6.588,11.484-13.175,22.968-19.762,34.451
				C324.742,129.742,328.632,132.008,330.074,129.492z"/>
		</g>
	</g>
	<path fill="#1A171B" d="M313.431,152.597c-2.268-0.964-4.238-2.467-5.951-4.217c-4.686-4.79-2.807-11.25,0.316-16.297
		c0.77-1.241-0.15-2.817-1.273-3.435c-7.561-4.156-11.674-12.272-7.885-20.474c3.879-8.399,13.557-12.207,21.701-8.231
		c3.133,1.53,5.463-2.683,2.303-4.226c-11.156-5.446-23.102-0.923-28.857,9.812c-5.635,10.509,0.818,22.057,10.436,27.343
		c-0.426-1.145-0.85-2.289-1.275-3.435c-3.969,6.411-5.23,13.553-0.848,20.068c2.102,3.126,5.562,5.839,9.031,7.314
		C314.308,158.176,316.671,153.977,313.431,152.597L313.431,152.597z"/>
	<path fill="#1A171B" d="M331.968,151.16c0.748,0.088-1.256-0.27-1.795-0.412c-1.752-0.463-3.496-1.195-4.975-2.258
		c-5.877-4.224-4.113-11.778-1.627-17.464c0.578-1.329-0.006-2.753-1.277-3.435c-6.625-3.556-9.5-9.811-5.271-16.521
		c4.074-6.465,11.939-7.332,17.336-2.94c2.59,2.108,6.299-1.099,3.51-3.371c-7.725-6.29-18.049-5.875-24.467,1.979
		c-7.49,9.168-3.09,19.881,6.59,25.075c-0.422-1.144-0.85-2.289-1.271-3.434c-3.367,7.701-4.645,16.413,2.01,22.693
		c3.072,2.901,7.537,4.582,11.697,5.07C335.995,156.562,335.118,151.53,331.968,151.16L331.968,151.16z"/>
	<g>
		<path fill="#1A171B" d="M111.55,248.559c-6.053-0.703-10.992-3.902-13.59-9.502c-2.385-5.147-2.059-13.372,4.695-14.708
			c4.533-0.896,4.648,10.173,6.844,12.842c1.416,1.72,3.393,2.875,4.896,4.521C117.507,245.118,116.419,248.844,111.55,248.559
			c-2.166-0.129,1.844,1.94,2.744,1.994c3.408,0.201,7.055-0.573,6.066-4.764c-0.941-3.988-5.389-5.274-7.264-8.504
			c-2.113-3.645-1.564-8.332-4.359-11.639c-1.859-2.197-5.518-3.406-8.316-3.36c-9.906,0.165-9.156,12.114-5.32,18.262
			c3.949,6.33,12.143,9.187,19.193,10.005C116.413,250.799,112.431,248.661,111.55,248.559z"/>
	</g>
	<path fill="#1A171B" d="M355.097,270.908c-0.398-0.194-0.785-0.235-1.139-0.171c-0.367-0.221-0.713-0.375-0.924-0.416
		c-3.367-0.647-6.736-1.295-10.104-1.942c-3.758-0.723-6.197,1.138-9.287,3.342c-8.602,6.134-15.01,14.526-20.117,23.684
		c-6.238,11.185-10.818,24.021-13.012,36.702c-5.428-1.118-10.805-2.547-16.02-4.407c-2.018-0.72-3.971-1.578-5.838-2.628
		c-1.334-0.753-0.889-8.038-0.957-9.508c-0.268-5.731-0.104-11.479,0.387-17.191c0.48-5.571,1.312-11.701,2.922-17.526
		c-0.488-0.102-0.963-0.209-1.402-0.327c-1-0.269-1.996-0.655-2.99-1.145c-2.146,7.71-2.928,16.026-3.318,23.467
		c-0.355,6.738-0.057,13.497,0.553,20.21c0.361,3.981,4.34,5.071,7.688,6.476c6.674,2.798,13.979,4.532,21.072,5.898
		c0.535,0.103,1.914,0.121,2.045-0.678c1.91-11.76,6.021-23.448,11.275-34.098c4.488-9.101,10.441-17.526,18.211-24.109
		c2.098-1.776,4.381-3.304,6.748-4.688c1.184-0.693,0.695-0.852,0.744-0.842c0.75,0.144,1.5,0.289,2.25,0.433
		c1.34,0.258,2.68,0.516,4.021,0.774c-4.812,2.836-9,7.247-12.311,11.414c-12.113,15.255-15.857,35.533-16.434,54.521
		c-0.023,0.808,1.09,1.516,1.74,1.714c3.502,1.073,6.891,2.554,10.154,4.202c4.643,2.345,15.076,7.879,13.77,14.041
		c-0.311,1.462-0.707,2.897-1.17,4.306c-0.064,0.12-0.107,0.253-0.129,0.396c-2.461,7.246-6.887,13.714-12.682,18.767
		c-2.779,2.423-5.74,4.391-8.834,5.991c-16.539,7.611-37.922,5.204-55.035-0.008c-7.596-2.313-14.975-5.274-22.166-8.65
		c6.936-18.02,12.738-37.094,12.902-56.536c1.508-0.252,3.016-0.503,4.525-0.755c0.543-0.09,1.045-0.464,1.018-1.062
		c-0.73-14.861,0.229-30.109,5.766-44.07c0.271-0.688,0.564-1.391,0.869-2.098c-1.127-1.127-2.232-2.384-3.309-3.761
		c-0.689,1.44-1.316,2.892-1.889,4.284c-5.65,13.741-6.561,29.241-5.9,43.93c-1.49,0.248-2.982,0.497-4.473,0.745
		c-0.203,0.033-0.379,0.114-0.535,0.215c-0.037,0.004-0.074,0.002-0.105,0.01c-6.67,1.788-13.406,5.569-20.129,8.929
		c1.74-11.035,1.078-23.804-5.141-33.259c7.475-6.534,13.453-14.723,21.406-20.77c2.6-1.975,8.006-5.791,11.236-4.89
		c0.016,0.004,0.033,0.01,0.051,0.016c2.068,0.755,0.783-3.576-0.709-4.118c-2.334-0.854-5.408,0.591-7.428,1.572
		c-8.848,4.306-15.477,12.635-22.174,19.544c-4.572,4.717-13.674,15.27-20.627,8.674c-4.066-3.858-5.955-10.447-7.449-15.667
		c-1.629-5.687-2.381-11.671-2.826-17.555c-0.609-8.062-0.398-16.215,0.371-24.259c0.688-7.209,5.316-11.689,9.791-16.986
		c4.758-5.629,4.586-12.253,0.57-18.187c-5.32-7.858-13.914-12.396-17.547-21.601c-0.271-0.687-1.756-3.069-2.705-1.78
		c-5.848,7.935-4.131,18.097,1.121,25.683c-4.619,2.319-7.285,6.805-6.475,12.153c0.277,1.818,3.484,4.023,3.031,1.036
		c-0.729-4.787,3.01-8.307,7.207-9.817c1.123-0.404,0.188-2.626-0.266-3.153c-5.066-5.875-6.887-13.819-3.043-20.588
		c3.73,6.97,9.5,12.013,15.021,17.814c8.59,9.031-1.334,15.581-6.453,23.002c-3.223,4.67-3.418,10.049-3.768,15.49
		c-0.623,9.646-0.318,19.378,1.105,28.942c1.391,9.353,4.195,20.701,10.793,27.848c5.105,5.534,10.771,4.5,16.377,0.342
		c5.48,9.611,5.633,22.347,3.617,32.855c-10.984,4.926-21.875,7.138-32.295-3.991c-13.127-14.021-17.877-34.358-18.871-52.981
		c-0.713-13.367,0.561-26.926,3.258-40.026c0.23-1.121,1.68-4.396,0.793-5.362c-5.66-6.192-9.24-14.726-8.824-23.136
		c0.059-1.15-3.928-2.264-3.92-2.418c-0.43,8.655,3.225,16.746,8.717,23.288c0.648,0.771,0.459,0.21,0.146,1.49
		c-0.426,1.751-0.799,3.518-1.148,5.287c-3.016,15.216-3.965,30.975-2.307,46.407c2.061,19.163,9.326,39.499,25.066,51.624
		c6.9,5.314,15,7.619,23.582,5.866c9.406-1.921,17.703-7.703,26.262-11.749c1.361-0.645,2.742-1.229,4.148-1.75
		c-0.541,18.309-6.074,36.264-12.6,53.271c-4.982-2.471-9.873-5.124-14.684-7.885c0.064,0.039,0.133,0.075,0.199,0.114
		c1.268-1.993,1.77-4.029,0.256-5.477c0,0.002,0,0.003,0,0.006c0.285-11.217-3.93-21.707-16.713-23.452
		c-7.621-1.041-16.02,0.599-23.23,3.297c-12.002-6.027-24.004-12.055-35.998-18.1c-0.189-0.097-0.471-0.179-0.809-0.248
		c0.385-0.611,0.766-1.222,1.121-1.85c-14.369,1.579-41.449-2.555-71.424-11.628c-27.33-8.272-50.373-18.626-62.625-27.425
		c0.502,0.319,0.955,0.603,1.332,0.832c11.465,7.01,24.09,12.212,36.645,16.904c16.504,6.168,33.535,11.049,50.779,14.66
		c12.43,2.602,25.324,4.691,38.064,4.321c5.383-0.157,13.828-0.682,16.521-6.283c0.141-0.21,0.26-0.45,0.334-0.744
		c0.09-0.25,0.123-0.482,0.131-0.705c0.176-1.168,0.045-2.292-0.287-3.365c6.1-12.946-1.281-28.971-8.916-39.632
		c-3.959-5.53-17.023-22.154-25.604-15.773c-4.57,3.4-0.305,9.405,1.414,13.158c2.707,5.918,2.42,12.757-0.641,18.117
		c-22.111-10.201-45.896-17.379-69.635-22.349c-10.82-2.266-21.865-3.983-32.928-4.336c-6.039-0.193-13.498-0.259-18.828,3.063
		c-2.512,1.564-3.568,3.378-3.639,5.291c-8.035,31.157,17.23,67.945,58.934,80.568c23.643,7.157,47.176,5.649,65.061-2.512
		c4.662,1.643,9.506,2.768,14.365,3.881c4.631,1.059,8.957,3.414,13.102,5.855c0.107,8.613,3.629,17.721,8.809,24.371
		c10.281,13.199,31.004,22.297,47.098,14.799c5.756,5.059,12.068,9.527,18.65,13.535c-1.424,2.788-14.211,26.946-14.387,26.842
		c6.52,3.857,13.039,7.715,19.561,11.571c3.311,1.961,6.625,3.921,9.939,5.881c1.938,1.147,6.553,2.382,8.896,1.708
		c7.174-2.059,14.215-6.186,20.787-9.633c6.938-3.635,13.66-7.676,20.219-11.955c0.867,0.134-2.35-0.742-1.479-0.627
		c19.232,2.551,38.582,0.368,56.162-8.099c17.766-8.557,32.578-23.495,41.605-40.979c0.268-0.195,0.432-0.499,0.463-0.903
		c0.17-0.335,0.352-0.665,0.516-1.001C409.093,341.075,395.663,290.748,355.097,270.908z M226.267,366.358
		c0.002-0.02,0.004-0.039,0.006-0.06C226.271,366.319,226.269,366.339,226.267,366.358z M133.782,275.446
		c-0.041-3.487-1.209-6.797-2.584-9.952c-0.662-1.521-3.814-5.902-2.9-7.624c1.615-3.049,10.607,5.087,11.664,6.078
		c5.789,5.432,10.395,12.182,13.807,19.322c2.773,5.805,4.451,12.285,3.941,18.738c-0.311,3.921-1.891,10.006-6.076,11.324
		c-4.037,1.271-8.594,1.072-12.764,0.93c-6.643-0.228-13.258-1.119-19.812-2.185c-33.445-5.438-67.508-16.26-97.043-33.167
		c15.391-6.342,33.221-1.729,46.975,6.459c14.383,8.562,35.566,18.298,52.244,10.989
		C129.063,292.93,133.882,283.736,133.782,275.446z M15.366,277.971c-2.512-1.793-4.857-3.776-6.9-6.022
		c-3.852-4.236-1.35-6.408,3.447-7.513c8.781-2.021,18.756-0.604,27.545,0.582c13.268,1.788,26.363,4.879,39.246,8.474
		c15.289,4.269,30.451,9.471,44.949,16.035c-1.295,1.287-2.82,2.397-4.568,3.272c-8.674,4.338-20.24,0.913-28.768-2.069
		c-10.637-3.722-19.619-10.447-29.938-14.732c-13.387-5.561-30.963-6.035-44.027,1.009
		C15.862,277.271,15.544,277.606,15.366,277.971z M195.815,349.107c0.299-0.013,0.613-0.015,0.932-0.009
		C196.431,349.096,196.114,349.095,195.815,349.107z M130.585,342.873c5.941-3.359,11.1-7.532,15.225-12.435
		c0.49-0.382,0.963-0.777,1.426-1.185c18.674,9.403,37.361,18.781,56.041,28.177c-0.057-0.508-0.172-1-0.352-1.46
		c0.916,2.334,0.162,5.464-1.639,7.502c-2.201,2.493-6.053,2.604-9.109,2.458c-6.324-0.306-12.803-2.244-19.037-4.901
		c-2.541-1.564-5.086-3.12-7.645-4.65c-5.637-3.37-11.371-6.702-17.771-8.345C141.821,346.519,136.196,345.31,130.585,342.873z
		 M200.265,353.322c0.1,0.039,0.18,0.092,0.273,0.135C200.444,353.414,200.364,353.361,200.265,353.322z M201.019,353.695
		c0.127,0.077,0.234,0.168,0.35,0.253C201.253,353.863,201.146,353.772,201.019,353.695z M201.653,354.157
		c0.137,0.117,0.25,0.246,0.367,0.375C201.903,354.403,201.79,354.274,201.653,354.157z M202.183,354.698
		c0.131,0.16,0.244,0.333,0.352,0.508C202.427,355.031,202.313,354.858,202.183,354.698z M202.604,355.306
		c0.113,0.198,0.211,0.405,0.297,0.619C202.815,355.711,202.718,355.504,202.604,355.306z M172.923,360.933
		c-6.115-2.623-11.988-5.924-17.248-9.043C160.935,355.009,166.808,358.31,172.923,360.933z M285.901,431.08
		c-4.631,3.105-9.391,6.012-14.217,8.8c-7.611,4.396-15.494,8.338-23.561,11.828c-8.572-5.072-17.146-10.143-25.717-15.214
		c-1.51-0.892-3.016-1.785-4.523-2.677c-0.775-0.457,0.234-1.293,0.619-1.945c4.279-7.237,8.232-14.668,12.012-22.18
		c3.268,1.904,6.582,3.718,9.914,5.435c14.299,7.363,29.729,13.052,45.619,15.801C286.021,430.979,285.976,431.03,285.901,431.08z
		 M347.628,419.36c-18.178,9.764-39.395,11.535-59.508,8.299c-16.668-2.683-32.725-8.767-47.645-16.551
		c-10.635-5.547-21.139-12.072-30.078-20.125c-0.623-0.562-1.428-0.674-2.176-0.279c-13.041,6.846-29.857,0.605-40.17-9.503
		c6.094,3.756,13.41,5.606,20.797,5.17c2.658-0.157,2.674-4.303,0-4.146c-12.67,0.747-25.527-6.036-30.01-18.053
		c-0.24-0.646-0.693-1.048-1.211-1.248c-0.529-2.115-0.896-4.258-1.027-6.381c2.51,1.402,5.072,2.719,7.666,3.969
		c-0.047,0.261-0.049,0.543,0.016,0.848c2.168,10.075,11.57,16.199,21.344,16.95c2.666,0.206,2.646-3.941,0-4.145
		c-7.184-0.551-13.986-4.703-16.598-11.456c0.562,0.25,1.121,0.506,1.686,0.749c8.172,3.519,17.619,7.171,26.672,5.796
		c7.602-1.155,12.838-10.92,7.395-17.25c-1.641-1.906-4.504-2.691-7.105-2.865c-2.223-1.116-4.443-2.236-6.666-3.353
		c-0.145,0.044-0.291,0.081-0.434,0.125c4.352-1.326,8.904-2.138,13.4-2.359c4.553-0.226,9.16,0.444,13.018,2.993
		c6.963,4.6,6.508,15.851,5.281,22.945c-0.139,0.801,0.078,1.597,0.824,2.028c25.064,14.49,58.314,29.99,88.281,23.329
		c8.396-1.676,16.348-5.139,23.387-11.06c5.256-4.422,9.291-10.156,11.928-16.476c0.289,0.115,0.576,0.182,0.848,0.168
		c12.553-0.644,30.043,1.73,37.076,13.418c0.193,0.319,0.422,0.594,0.666,0.838C376.94,397.681,363.431,410.874,347.628,419.36z
		 M389.63,371.959c-0.703,1.935-1.504,3.828-2.355,5.697c-8.414-11.649-24.541-15.938-38.648-15.969
		c0.42-1.542,0.771-3.103,1.029-4.676c0.078-0.475-0.029-0.994-0.258-1.533c0.467-3.453,0.531-6.98,0.143-10.514
		c-0.965-8.797-4.896-17.284-12.252-22.474c-1.898-1.339-3.689,1.777-1.812,3.102c8.361,5.898,11.275,15.813,10.676,25.746
		c-0.701-0.684-1.355-1.279-1.791-1.705c-2.74-2.681-6.088-4.789-9.404-6.674c-3.566-2.023-7.41-3.779-11.322-5.114
		c0.689-18.485,4.59-37.783,16.334-52.573c3.436-4.323,7.953-8.885,13.1-11.395c0.07,0.045,0.135,0.093,0.215,0.133
		C389.87,291.904,403.188,334.712,389.63,371.959z"/>
	<g>
		<path fill="#FFFFFF" d="M81.892,230.621l-1.371-5.776l-6.664,0.03c-0.834-1.604-1.891-3.052-3.119-4.314l2.121-6.319l-5.055-3.115
			l-4.691,4.736c-1.68-0.532-3.449-0.825-5.256-0.849l-2.967-5.966l-5.777,1.371l0.029,6.663c-1.604,0.834-3.051,1.891-4.312,3.12
			l-6.32-2.122l-3.115,5.056l4.736,4.692c-0.531,1.68-0.824,3.447-0.848,5.254l-5.967,2.969l1.371,5.776l6.664-0.031
			c0.834,1.604,1.891,3.053,3.119,4.315l-2.121,6.317l5.055,3.115l4.691-4.734c1.682,0.531,3.447,0.823,5.256,0.848l2.969,5.966
			l5.775-1.371l-0.031-6.663c1.604-0.833,3.053-1.891,4.314-3.12l6.32,2.121l3.113-5.056l-4.734-4.69
			c0.531-1.679,0.824-3.447,0.848-5.257L81.892,230.621z M59.638,241.905c-4.732,1.124-9.482-1.803-10.605-6.534
			c-1.123-4.735,1.803-9.482,6.537-10.606c4.732-1.123,9.48,1.802,10.605,6.536C67.298,236.034,64.37,240.782,59.638,241.905z"/>
		<g>
			<path fill="#1A171B" d="M84.088,231.093c-0.457-1.925-0.914-3.851-1.371-5.776c-0.278-1.171-2.269-2.08-3.343-2.075
				c-2.221,0.01-4.442,0.02-6.664,0.03c1.039,0.557,2.078,1.113,3.116,1.67c-0.991-1.745-2.132-3.241-3.474-4.723
				c0.196,0.507,0.393,1.015,0.589,1.522c0.707-2.106,1.414-4.213,2.121-6.319c0.346-1.031-0.899-1.821-1.622-2.267
				c-1.685-1.038-3.37-2.077-5.055-3.115c-0.503-0.31-2.003-0.896-2.552-0.342c-1.013,1.023-2.026,2.046-3.04,3.069
				c-1.99,2.009-3.198,0.825-6.084,0.644c1.115,0.691,2.229,1.383,3.343,2.075c-0.989-1.989-1.978-3.978-2.967-5.966
				c-0.601-1.208-2.411-2.371-3.805-2.04c-1.926,0.457-3.852,0.914-5.777,1.371c-0.366,0.086-0.672,0.306-0.67,0.717
				c0.006,1.439,0.013,2.878,0.019,4.317c0.013,2.911-1.819,2.917-3.993,4.889c0.648,0.022,1.297,0.044,1.945,0.067
				c-2.107-0.708-4.213-1.415-6.32-2.122c-0.611-0.205-1.741-0.531-2.179,0.179c-1.038,1.686-2.077,3.371-3.115,5.056
				c-0.316,0.513,0.263,1.199,0.589,1.522c1.579,1.564,3.157,3.128,4.736,4.692c-0.196-0.508-0.393-1.015-0.589-1.522
				c-0.514,1.948-0.152,4.778-1.903,5.649c-1.56,0.775-3.119,1.552-4.678,2.327c-0.392,0.195-0.304,0.629-0.226,0.956
				c0.457,1.925,0.914,3.851,1.371,5.776c0.278,1.171,2.269,2.079,3.343,2.074c2.221-0.011,4.442-0.021,6.664-0.031
				c-1.039-0.557-2.078-1.113-3.116-1.67c0.991,1.745,2.132,3.241,3.474,4.724c-0.196-0.507-0.393-1.015-0.589-1.521
				c-0.707,2.105-1.414,4.211-2.121,6.317c-0.346,1.03,0.899,1.82,1.622,2.266c1.685,1.039,3.37,2.077,5.055,3.115
				c0.503,0.311,2.003,0.896,2.552,0.343c1.013-1.023,2.026-2.046,3.04-3.068c1.99-2.008,3.199-0.824,6.084-0.644
				c-1.115-0.691-2.229-1.383-3.343-2.074c0.99,1.988,1.979,3.977,2.969,5.966c0.601,1.207,2.41,2.37,3.805,2.039
				c1.925-0.457,3.851-0.914,5.775-1.371c0.366-0.087,0.672-0.306,0.67-0.717c-0.007-1.439-0.013-2.879-0.02-4.318
				c-0.014-2.911,1.819-2.917,3.994-4.888c-0.648-0.022-1.297-0.045-1.945-0.067c2.107,0.707,4.213,1.414,6.32,2.121
				c0.61,0.205,1.741,0.531,2.179-0.18c1.038-1.685,2.075-3.37,3.113-5.056c0.316-0.513-0.263-1.198-0.589-1.521
				c-1.578-1.563-3.156-3.127-4.734-4.69c0.196,0.507,0.393,1.015,0.589,1.521c0.514-1.947,0.152-4.78,1.903-5.65
				c1.56-0.775,3.119-1.551,4.678-2.325c1.513-0.752-2.422-3.609-3.94-2.855c-1.559,0.775-3.119,1.55-4.678,2.325
				c-2.567,1.276-1.608,3.26-2.37,6.145c-0.164,0.619,0.152,1.089,0.589,1.521c1.578,1.563,3.156,3.127,4.734,4.69
				c-0.196-0.507-0.393-1.015-0.589-1.521c-1.038,1.685-2.075,3.37-3.113,5.056c0.727-0.061,1.453-0.12,2.179-0.18
				c-2.107-0.707-4.213-1.414-6.32-2.121c-0.482-0.162-1.481-0.487-1.945-0.067c-1.351,1.225-2.729,2.22-4.314,3.12
				c-0.208,0.137-0.311,0.329-0.309,0.577c0.01,2.159,0.02,4.318,0.03,6.477c0.662-0.504,0.643-0.623-0.058-0.357
				c-0.56,0.133-1.12,0.266-1.68,0.398c-1.122,0.267-2.245,0.533-3.367,0.8c1.268,0.68,2.537,1.359,3.805,2.039
				c-0.962-1.933-1.924-3.865-2.886-5.799c-1.46-2.935-5.519-2.327-8.145-3.02c-0.32-0.084-1.08-0.178-1.36,0.105
				c-1.563,1.578-3.127,3.156-4.691,4.734c0.851,0.114,1.701,0.229,2.552,0.343c-1.685-1.039-3.37-2.077-5.055-3.115
				c0.541,0.755,1.082,1.511,1.622,2.266c0.707-2.105,1.414-4.211,2.121-6.317c0.208-0.62-0.194-1.086-0.589-1.521
				c-1.12-1.238-1.948-2.471-2.764-3.907c-0.532-0.936-2.068-1.675-3.116-1.67c-2.221,0.011-4.442,0.021-6.664,0.031
				c1.115,0.691,2.229,1.383,3.343,2.074c-0.267-1.122-0.533-2.245-0.799-3.367c-0.175-0.737-0.35-1.474-0.525-2.211
				c0.213,0.896-0.095,0.669,1.016,0.116c1.353-0.673,2.705-1.346,4.058-2.019c1.792-0.892,1.264-4.153,1.702-5.81
				c0.164-0.62-0.152-1.089-0.589-1.522c-1.579-1.564-3.157-3.128-4.736-4.692c0.196,0.507,0.393,1.015,0.589,1.522
				c1.038-1.686,2.077-3.371,3.115-5.056c-0.727,0.06-1.453,0.12-2.179,0.179c2.107,0.708,4.213,1.415,6.32,2.122
				c0.482,0.162,1.481,0.488,1.945,0.067c1.351-1.224,2.728-2.219,4.312-3.12c0.208-0.136,0.311-0.329,0.309-0.577
				c-0.009-2.159-0.019-4.317-0.028-6.477c-0.662,0.505-0.643,0.624,0.058,0.358c0.56-0.133,1.12-0.266,1.68-0.399
				c1.123-0.266,2.246-0.533,3.368-0.799c-1.268-0.68-2.537-1.359-3.805-2.04c0.961,1.933,1.922,3.866,2.884,5.799
				c1.46,2.936,5.52,2.328,8.145,3.021c0.32,0.084,1.08,0.177,1.36-0.106c1.563-1.579,3.127-3.158,4.691-4.736
				c-0.851-0.114-1.701-0.228-2.552-0.342c1.685,1.038,3.37,2.077,5.055,3.115c-0.541-0.755-1.082-1.511-1.622-2.267
				c-0.707,2.106-1.414,4.213-2.121,6.319c-0.208,0.62,0.194,1.086,0.589,1.522c1.12,1.237,1.948,2.47,2.764,3.906
				c0.532,0.936,2.068,1.675,3.116,1.67c2.221-0.01,4.442-0.02,6.664-0.03c-1.115-0.691-2.229-1.383-3.343-2.075
				c0.457,1.926,0.914,3.851,1.371,5.777C80.054,231.66,84.62,233.335,84.088,231.093z"/>
			<path fill="#1A171B" d="M58.029,240.338c-4.627,0.839-7.075-2.633-6.923-6.93c0.121-3.437,2.964-6.159,6.072-7.076
				c4.598-1.356,7.062,2.993,6.923,6.931C63.979,236.698,61.136,239.421,58.029,240.338c-2.17,0.64,1.725,3.575,3.218,3.135
				c6.016-1.774,8.919-7.66,6.49-13.491c-2.156-5.175-8.548-7.731-13.776-6.784c-6.242,1.13-8.724,8.131-6.49,13.493
				c2.155,5.174,8.55,7.73,13.776,6.782C63.385,243.085,59.553,240.062,58.029,240.338z"/>
		</g>
	</g>
	<path fill="#58585A" d="M69.483,246.997c0.428-0.388,1.35-0.089,1.791,0.061c1.582,0.53,3.162,1.062,4.744,1.592
		c0.785-1.274,1.57-2.548,2.355-3.823c-1.287-1.274-2.576-2.55-3.861-3.825c-0.4-0.395-0.701-0.835-0.545-1.401
		c0.473-1.706,0.691-3.21,0.779-4.953c-0.002-0.229,0.092-0.406,0.285-0.531c1.863-0.927,3.729-1.854,5.592-2.782
		c-0.25-1.052-0.498-2.105-0.75-3.159c-1.348,0.007-2.693,0.013-4.041,0.019c-0.965,0.004-2.379-0.676-2.869-1.538
		c-0.824-1.45-1.66-2.688-2.791-3.939c-0.365-0.4-0.736-0.831-0.543-1.4c0.598-1.786,1.197-3.568,1.795-5.353
		c-0.527-0.325-1.055-0.65-1.582-0.977c-1.332,1.345-2.664,2.689-3.994,4.033c-0.256,0.259-0.961,0.179-1.254,0.097
		c-1.58-0.438-3.123-0.702-4.762-0.784c-1.209-0.06-2.533-0.812-3.078-1.91c-0.588-1.18-1.176-2.36-1.764-3.543
		c-0.195,0.048-0.391,0.094-0.588,0.141c-0.756,0.179-1.514,0.36-2.268,0.538c0.008,2.05,0.018,4.101,0.027,6.149
		c0.002,0.23-0.092,0.406-0.285,0.532c-1.584,0.901-2.963,1.896-4.314,3.121c-0.426,0.388-1.348,0.088-1.791-0.062
		c-1.58-0.53-3.16-1.062-4.74-1.592c-0.787,1.273-1.57,2.549-2.357,3.824c1.289,1.274,2.576,2.549,3.861,3.824
		c0.4,0.396,0.701,0.834,0.545,1.402c-0.473,1.705-0.691,3.21-0.777,4.951c0,0.229-0.094,0.406-0.287,0.531
		c-1.859,0.926-3.719,1.852-5.58,2.776c0.023,0.132,0.059,0.311,0.119,0.56c0.131,0.547,0.26,1.093,0.391,1.641
		c0.076,0.322,0.152,0.643,0.229,0.965c1.348-0.006,2.693-0.013,4.041-0.018c0.965-0.006,2.381,0.675,2.871,1.537
		c0.822,1.449,1.658,2.688,2.791,3.94c0.363,0.399,0.734,0.828,0.541,1.4c-0.598,1.784-1.197,3.567-1.795,5.351
		c0.527,0.325,1.055,0.651,1.582,0.977c1.332-1.344,2.662-2.688,3.994-4.031c0.256-0.258,0.961-0.18,1.252-0.098
		c1.582,0.438,3.125,0.701,4.764,0.784c1.209,0.062,2.533,0.812,3.08,1.91c0.586,1.181,1.174,2.362,1.762,3.542
		c0.195-0.047,0.391-0.092,0.588-0.14c0.756-0.18,1.514-0.358,2.268-0.538c-0.008-2.051-0.018-4.101-0.027-6.15
		c-0.002-0.229,0.094-0.406,0.285-0.532C66.757,249.216,68.134,248.222,69.483,246.997z M62.38,245.074
		c-0.088,0.049-0.193,0.091-0.338,0.118c-0.088,0.025-0.188,0.038-0.291,0.039c-5.064,0.786-11.111-1.683-13.186-6.662
		c-2.217-5.322,0.244-12.283,6.441-13.405c5.121-0.929,11.363,1.548,13.479,6.622C70.849,237.462,68.12,243.189,62.38,245.074z"/>
	<path fill="#1A171B" d="M76.073,198.897c-0.396-2.43-0.795-4.858-1.193-7.287c-0.154-0.951-1.359-2.146-2.309-2.297
		c-2.5-0.399-5-0.799-7.5-1.199c2.623-1.375,5.244-2.75,7.867-4.125c0.572-0.3,0.574-0.74,0.479-1.321
		c-0.396-2.429-0.795-4.857-1.193-7.287c-0.156-0.965-2.008-2.947-3.135-2.304c-7.439,4.245-14.877,8.488-22.314,12.732
		c-0.123,0.071-0.219,0.155-0.299,0.247c-0.029,0.033-0.053,0.076-0.076,0.116c-0.199,0.312-0.211,0.704-0.076,1.115
		c0.309,1.892,0.619,3.783,0.928,5.675c0.16,0.976,1.357,2.108,2.311,2.295c8.402,1.652,16.805,3.304,25.207,4.954
		C75.788,200.41,76.233,199.881,76.073,198.897z M50.067,189.072c6.385-3.645,12.771-7.288,19.156-10.932
		c0.139,0.854,0.279,1.706,0.418,2.56c-3.984,2.088-7.967,4.177-11.951,6.265c-0.57,0.3-0.574,0.742-0.477,1.321
		c0.004,0.032,0.01,0.064,0.016,0.097c0.158,0.95,1.357,2.146,2.309,2.298c4.018,0.64,8.035,1.283,12.053,1.924
		c0.201,1.229,0.402,2.459,0.604,3.688c-7.215-1.417-14.428-2.835-21.639-4.252C50.394,191.051,50.231,190.062,50.067,189.072z"/>
	<path fill="#1A171B" d="M144.015,216.992c0.199-0.311,0.209-0.703,0.076-1.114c-0.311-1.892-0.619-3.783-0.93-5.676
		c-0.16-0.975-1.355-2.109-2.309-2.296c-8.402-1.65-16.805-3.302-25.207-4.953c-1.02-0.2-1.467,0.329-1.307,1.312
		c0.398,2.43,0.795,4.858,1.193,7.289c0.156,0.949,1.361,2.144,2.309,2.295c2.502,0.399,5.002,0.799,7.502,1.198
		c-2.623,1.375-5.246,2.751-7.869,4.126c-0.57,0.3-0.572,0.74-0.479,1.321c0.398,2.429,0.797,4.858,1.193,7.288
		c0.158,0.963,2.01,2.947,3.137,2.304c7.436-4.244,14.875-8.488,22.312-12.733c0.125-0.07,0.219-0.154,0.299-0.247
		C143.966,217.074,143.989,217.033,144.015,216.992z M133.2,214.877c-0.006-0.032-0.012-0.065-0.016-0.097
		c-0.158-0.951-1.357-2.145-2.311-2.296c-4.018-0.643-8.033-1.284-12.051-1.926c-0.203-1.229-0.402-2.459-0.604-3.688
		c7.213,1.418,14.426,2.835,21.639,4.253c0.162,0.989,0.324,1.979,0.486,2.97c-6.385,3.643-12.77,7.286-19.154,10.929
		c-0.141-0.853-0.279-1.705-0.42-2.558c3.984-2.089,7.967-4.177,11.951-6.267C133.292,215.898,133.296,215.457,133.2,214.877z"/>
	<g>
		<path fill="#58585A" d="M132.284,141.369c-0.771,1.24-1.541,2.481-2.309,3.722c-0.58,0.933-0.105,2.027,0.93,2.316
			c1.121,0.312,2.418-0.237,3.021-1.214c0.639-1.031,1.277-2.061,1.918-3.092c3.578,2.815,4.422,7.919,2.926,12.272
			c-6.088-3.547-12.176-7.093-18.262-10.639C123.534,141.499,127.743,140.151,132.284,141.369z M120.556,174.961
			c-1.949-2.933-3.9-5.863-5.852-8.795c0.752-1.289,1.504-2.581,2.256-3.871c1.898,2.854,3.797,5.708,5.697,8.562
			c0.043,0.064,0.119,0.101,0.217,0.119C122.103,172.305,121.329,173.632,120.556,174.961z M111.405,187.3
			c-0.91-1.546-1.82-3.092-2.73-4.638c-0.211-0.36-0.516-0.701-0.879-0.921c0.363-1.968,0.752-4.021,1.439-5.826
			c1.809,2.67,3.617,5.341,5.424,8.011C113.575,185.051,112.491,186.176,111.405,187.3z M116.478,181.963
			c-1.967-2.903-3.934-5.807-5.9-8.711c0.773-1.327,1.547-2.655,2.32-3.982c1.949,2.932,3.898,5.863,5.85,8.794
			C117.991,179.363,117.233,180.663,116.478,181.963z M118.687,159.331c0.807-1.385,1.613-2.77,2.42-4.155
			c1.854,2.785,3.705,5.571,5.559,8.355c0.076,0.115,0.217,0.201,0.393,0.268c-0.84,1.443-1.682,2.883-2.52,4.325
			C122.587,165.193,120.638,162.262,118.687,159.331z M107.144,184.886c0.834,1.414,1.666,2.828,2.498,4.242
			c-1.588,1.646-3.174,3.29-4.762,4.936C105.634,191.004,106.39,187.944,107.144,184.886z M131.341,156.444
			c-0.891,1.528-1.781,3.056-2.67,4.583c-0.078,0.135-0.156,0.27-0.234,0.403c-1.912-2.871-3.82-5.742-5.73-8.613
			c-0.037-0.052-0.086-0.097-0.145-0.14c0.32-0.55,0.639-1.099,0.961-1.647c2.742,1.598,5.488,3.196,8.232,4.795
			C131.661,155.948,131.519,156.138,131.341,156.444z"/>
		<path fill="#1A171B" d="M136.339,137.683c-0.184-0.396-0.543-0.718-1.035-0.855c-0.053-0.015-0.109-0.018-0.166-0.029
			c-6.758-4.478-16.08-1.677-20.334,4.883c-0.734,1.133-0.342,2.764,0.85,3.458c1.373,0.801,2.748,1.601,4.121,2.4
			c-5.01,8.598-10.016,17.195-15.023,25.792c-1.729,2.966-2.029,7.237-2.84,10.529c-1.166,4.721-2.332,9.443-3.494,14.166
			c-0.303,1.222,3.73-0.27,4.18-0.734c2.768-2.869,5.535-5.738,8.303-8.605c0.363-0.095,0.596-0.372,0.678-0.703
			c1.447-1.5,2.895-3.001,4.342-4.501c0.338-0.129,0.611-0.401,0.732-0.759c0.959-0.994,1.918-1.988,2.879-2.983
			c0.061-0.063,0.098-0.118,0.115-0.168c0.016-0.022,0.041-0.044,0.053-0.067c4.643-7.967,9.281-15.934,13.924-23.899
			c1.533,0.894,3.068,1.788,4.604,2.684c0.664,0.386,1.229,0.416,1.664,0.228c0.359-0.129,0.686-0.406,0.93-0.875
			C144.532,150.508,142.376,142.654,136.339,137.683z M131.362,139.527c-0.77,1.24-1.539,2.48-2.309,3.721
			c-0.578,0.934-0.105,2.028,0.93,2.317c1.121,0.312,2.418-0.238,3.023-1.214c0.639-1.031,1.277-2.061,1.916-3.091
			c3.578,2.815,4.422,7.919,2.926,12.272c-6.086-3.547-12.174-7.093-18.262-10.64C122.612,139.658,126.821,138.309,131.362,139.527z
			 M119.634,173.118c-1.949-2.932-3.9-5.862-5.85-8.793c0.752-1.291,1.504-2.582,2.254-3.872c1.9,2.854,3.799,5.708,5.697,8.562
			c0.043,0.064,0.121,0.101,0.219,0.12C121.181,170.464,120.407,171.79,119.634,173.118z M110.483,185.458
			c-0.91-1.546-1.818-3.093-2.729-4.638c-0.211-0.36-0.518-0.701-0.881-0.921c0.363-1.969,0.752-4.021,1.439-5.826
			c1.809,2.669,3.617,5.34,5.426,8.011C112.653,183.208,111.569,184.333,110.483,185.458z M115.556,180.12
			c-1.967-2.902-3.934-5.806-5.9-8.71c0.775-1.328,1.547-2.655,2.32-3.983c1.951,2.933,3.9,5.864,5.85,8.795
			C117.069,177.521,116.312,178.821,115.556,180.12z M117.767,157.489c0.805-1.385,1.611-2.77,2.418-4.154
			c1.854,2.784,3.707,5.569,5.559,8.354c0.076,0.114,0.217,0.2,0.393,0.27c-0.84,1.441-1.68,2.882-2.52,4.323
			C121.665,163.351,119.716,160.42,117.767,157.489z M106.224,183.043c0.832,1.414,1.664,2.829,2.496,4.243
			c-1.586,1.646-3.174,3.29-4.76,4.936C104.714,189.162,105.468,186.103,106.224,183.043z M130.419,154.602
			c-0.891,1.528-1.779,3.057-2.67,4.584c-0.078,0.135-0.156,0.269-0.234,0.403c-1.91-2.871-3.82-5.742-5.73-8.613
			c-0.035-0.052-0.086-0.098-0.143-0.141c0.318-0.549,0.639-1.099,0.959-1.647c2.744,1.598,5.488,3.196,8.232,4.795
			C130.741,154.105,130.599,154.295,130.419,154.602z"/>
	</g>
	<path fill="#1A171B" d="M76.073,198.897c-0.396-2.43-0.795-4.858-1.193-7.287c-0.154-0.951-1.359-2.146-2.309-2.297
		c-2.5-0.399-5-0.799-7.5-1.199c2.623-1.375,5.244-2.75,7.867-4.125c0.572-0.3,0.574-0.74,0.479-1.321
		c-0.396-2.429-0.795-4.857-1.193-7.287c-0.156-0.965-2.008-2.947-3.135-2.304c-7.439,4.245-14.877,8.488-22.314,12.732
		c-0.123,0.071-0.219,0.155-0.299,0.247c-0.029,0.033-0.053,0.076-0.076,0.116c-0.199,0.312-0.211,0.704-0.076,1.115
		c0.309,1.892,0.619,3.783,0.928,5.675c0.16,0.976,1.357,2.108,2.311,2.295c8.402,1.652,16.805,3.304,25.207,4.954
		C75.788,200.41,76.233,199.881,76.073,198.897z M50.067,189.072c6.385-3.645,12.771-7.288,19.156-10.932
		c0.139,0.854,0.279,1.706,0.418,2.56c-3.984,2.088-7.967,4.177-11.951,6.265c-0.57,0.3-0.574,0.742-0.477,1.321
		c0.004,0.032,0.01,0.064,0.016,0.097c0.158,0.95,1.357,2.146,2.309,2.298c4.018,0.64,8.035,1.283,12.053,1.924
		c0.201,1.229,0.402,2.459,0.604,3.688c-7.215-1.417-14.428-2.835-21.639-4.252C50.394,191.051,50.231,190.062,50.067,189.072z"/>
	<path fill="#1A171B" d="M144.015,216.992c0.199-0.311,0.209-0.703,0.076-1.114c-0.311-1.892-0.619-3.783-0.93-5.676
		c-0.16-0.975-1.355-2.109-2.309-2.296c-8.402-1.65-16.805-3.302-25.207-4.953c-1.02-0.2-1.467,0.329-1.307,1.312
		c0.398,2.43,0.795,4.858,1.193,7.289c0.156,0.949,1.361,2.144,2.309,2.295c2.502,0.399,5.002,0.799,7.502,1.198
		c-2.623,1.375-5.246,2.751-7.869,4.126c-0.57,0.3-0.572,0.74-0.479,1.321c0.398,2.429,0.797,4.858,1.193,7.288
		c0.158,0.963,2.01,2.947,3.137,2.304c7.436-4.244,14.875-8.488,22.312-12.733c0.125-0.07,0.219-0.154,0.299-0.247
		C143.966,217.074,143.989,217.033,144.015,216.992z M133.2,214.877c-0.006-0.032-0.012-0.065-0.016-0.097
		c-0.158-0.951-1.357-2.145-2.311-2.296c-4.018-0.643-8.033-1.284-12.051-1.926c-0.203-1.229-0.402-2.459-0.604-3.688
		c7.213,1.418,14.426,2.835,21.639,4.253c0.162,0.989,0.324,1.979,0.486,2.97c-6.385,3.643-12.77,7.286-19.154,10.929
		c-0.141-0.853-0.279-1.705-0.42-2.558c3.984-2.089,7.967-4.177,11.951-6.267C133.292,215.898,133.296,215.457,133.2,214.877z"/>
	<path fill="#1A171B" d="M63.913,130.93c-0.457,0.223-0.697,0.762-0.424,1.729c2.668,9.428,5.338,18.856,8.006,28.285
		c0.289,1.02,2.697,3.273,3.504,1.493c1.174-2.587,2.348-5.172,3.521-7.759c2.961,3.187,5.924,6.373,8.885,9.559
		c0.529,0.57,1.875,1.609,2.66,0.789c1.408-1.469,2.814-2.938,4.223-4.407c0.744-0.778,0.395-2.036-0.273-2.763
		c-2.807-3.069-5.615-6.14-8.424-9.21c1.75-0.895,3.5-1.792,5.25-2.688c1.6-0.819,0.475-3.135-0.803-3.724
		c-8.162-3.76-16.322-7.521-24.484-11.279C64.782,130.599,64.249,130.655,63.913,130.93z M81.485,145.676
		c-1.176,0.603-0.883,2.105-0.1,2.961c2.938,3.213,5.877,6.424,8.814,9.637c-0.697,0.726-1.393,1.453-2.088,2.18
		c-3.104-3.339-6.207-6.677-9.309-10.016c-0.59-0.636-2.324-1.789-2.928-0.463c-0.814,1.795-1.627,3.589-2.443,5.382
		c-1.844-6.519-3.689-13.037-5.533-19.557c5.768,2.658,11.535,5.316,17.303,7.972C83.962,144.406,82.724,145.041,81.485,145.676z"/>
</g>
</svg>
