<?xml version="1.0" encoding="utf-8"?>
<!-- Generator: Adobe Illustrator 16.0.0, SVG Export Plug-In . SVG Version: 6.00 Build 0)  -->
<!DOCTYPE svg PUBLIC "-//W3C//DTD SVG 1.1//EN" "http://www.w3.org/Graphics/SVG/1.1/DTD/svg11.dtd">
<svg version="1.1" id="Layer_1" xmlns="http://www.w3.org/2000/svg" xmlns:xlink="http://www.w3.org/1999/xlink" x="0px" y="0px"
	 width="388.271px" height="333.179px" viewBox="0 0 388.271 333.179" enable-background="new 0 0 388.271 333.179"
	 xml:space="preserve">
<g>
	<g>
		<circle fill="#F9B800" cx="381.543" cy="70.075" r="1.45"/>
		<circle fill="#F9B800" cx="381.543" cy="59.519" r="1.45"/>
		<circle fill="#F9B800" cx="381.543" cy="48.96" r="1.451"/>
		<circle fill="#F9B800" cx="381.543" cy="38.403" r="1.45"/>
		<circle fill="#F9B800" cx="381.543" cy="27.845" r="1.45"/>
		<circle fill="#F9B800" cx="381.543" cy="17.288" r="1.451"/>
		<circle fill="#F9B800" cx="381.543" cy="6.73" r="1.45"/>
		<circle fill="#F9B800" cx="386.822" cy="75.354" r="1.45"/>
		<circle fill="#F9B800" cx="386.822" cy="64.797" r="1.45"/>
		<circle fill="#F9B800" cx="386.822" cy="54.239" r="1.451"/>
		<circle fill="#F9B800" cx="386.822" cy="43.682" r="1.45"/>
		<circle fill="#F9B800" cx="386.822" cy="33.125" r="1.45"/>
		<circle fill="#F9B800" cx="386.822" cy="22.565" r="1.45"/>
		<circle fill="#F9B800" cx="386.822" cy="12.008" r="1.45"/>
		<circle fill="#F9B800" cx="386.822" cy="1.451" r="1.45"/>
		<circle fill="#F9B800" cx="370.985" cy="70.075" r="1.45"/>
		<circle fill="#F9B800" cx="370.985" cy="59.519" r="1.45"/>
		<circle fill="#F9B800" cx="370.985" cy="48.96" r="1.451"/>
		<circle fill="#F9B800" cx="370.985" cy="38.403" r="1.45"/>
		<circle fill="#F9B800" cx="370.985" cy="27.845" r="1.45"/>
		<circle fill="#F9B800" cx="370.985" cy="17.288" r="1.451"/>
		<circle fill="#F9B800" cx="370.985" cy="6.73" r="1.45"/>
		<circle fill="#F9B800" cx="376.264" cy="75.354" r="1.45"/>
		<circle fill="#F9B800" cx="376.264" cy="64.797" r="1.45"/>
		<circle fill="#F9B800" cx="376.264" cy="54.239" r="1.451"/>
		<circle fill="#F9B800" cx="376.264" cy="43.682" r="1.45"/>
		<circle fill="#F9B800" cx="376.264" cy="33.125" r="1.45"/>
		<circle fill="#F9B800" cx="376.264" cy="22.565" r="1.45"/>
		<circle fill="#F9B800" cx="376.264" cy="12.008" r="1.45"/>
		<circle fill="#F9B800" cx="376.264" cy="1.451" r="1.45"/>
		<circle fill="#F9B800" cx="360.428" cy="70.075" r="1.45"/>
		<circle fill="#F9B800" cx="360.428" cy="59.519" r="1.45"/>
		<circle fill="#F9B800" cx="360.428" cy="48.96" r="1.451"/>
		<circle fill="#F9B800" cx="360.428" cy="38.403" r="1.45"/>
		<circle fill="#F9B800" cx="360.428" cy="27.845" r="1.45"/>
		<circle fill="#F9B800" cx="360.428" cy="17.288" r="1.451"/>
		<circle fill="#F9B800" cx="360.428" cy="6.73" r="1.45"/>
		<circle fill="#F9B800" cx="365.705" cy="75.354" r="1.45"/>
		<circle fill="#F9B800" cx="365.705" cy="64.797" r="1.45"/>
		<circle fill="#F9B800" cx="365.705" cy="54.239" r="1.451"/>
		<circle fill="#F9B800" cx="365.705" cy="43.682" r="1.45"/>
		<circle fill="#F9B800" cx="365.705" cy="33.125" r="1.45"/>
		<circle fill="#F9B800" cx="365.705" cy="22.565" r="1.45"/>
		<circle fill="#F9B800" cx="365.705" cy="12.008" r="1.45"/>
		<circle fill="#F9B800" cx="365.705" cy="1.451" r="1.45"/>
		<circle fill="#F9B800" cx="349.869" cy="70.075" r="1.45"/>
		<circle fill="#F9B800" cx="349.869" cy="59.519" r="1.45"/>
		<circle fill="#F9B800" cx="349.869" cy="48.96" r="1.451"/>
		<circle fill="#F9B800" cx="349.869" cy="38.403" r="1.45"/>
		<circle fill="#F9B800" cx="349.869" cy="27.845" r="1.45"/>
		<circle fill="#F9B800" cx="349.869" cy="17.288" r="1.451"/>
		<circle fill="#F9B800" cx="349.869" cy="6.73" r="1.45"/>
		<circle fill="#F9B800" cx="355.148" cy="75.354" r="1.45"/>
		<circle fill="#F9B800" cx="355.148" cy="64.797" r="1.45"/>
		<circle fill="#F9B800" cx="355.148" cy="54.239" r="1.451"/>
		<circle fill="#F9B800" cx="355.148" cy="43.682" r="1.45"/>
		<circle fill="#F9B800" cx="355.148" cy="33.125" r="1.45"/>
		<circle fill="#F9B800" cx="355.148" cy="22.565" r="1.45"/>
		<circle fill="#F9B800" cx="355.148" cy="12.008" r="1.45"/>
		<circle fill="#F9B800" cx="355.148" cy="1.451" r="1.45"/>
		<circle fill="#F9B800" cx="339.311" cy="70.075" r="1.45"/>
		<circle fill="#F9B800" cx="339.311" cy="59.519" r="1.45"/>
		<circle fill="#F9B800" cx="339.311" cy="48.96" r="1.451"/>
		<circle fill="#F9B800" cx="339.311" cy="38.403" r="1.45"/>
		<circle fill="#F9B800" cx="339.311" cy="27.845" r="1.45"/>
		<circle fill="#F9B800" cx="339.311" cy="17.288" r="1.451"/>
		<circle fill="#F9B800" cx="339.311" cy="6.73" r="1.45"/>
		<circle fill="#F9B800" cx="344.59" cy="75.354" r="1.45"/>
		<circle fill="#F9B800" cx="344.59" cy="64.797" r="1.45"/>
		<circle fill="#F9B800" cx="344.59" cy="54.239" r="1.451"/>
		<circle fill="#F9B800" cx="344.59" cy="43.682" r="1.45"/>
		<circle fill="#F9B800" cx="344.59" cy="33.125" r="1.45"/>
		<circle fill="#F9B800" cx="344.59" cy="22.565" r="1.45"/>
		<circle fill="#F9B800" cx="344.59" cy="12.008" r="1.45"/>
		<circle fill="#F9B800" cx="344.59" cy="1.451" r="1.45"/>
		<circle fill="#F9B800" cx="328.752" cy="70.075" r="1.45"/>
		<circle fill="#F9B800" cx="328.752" cy="59.519" r="1.45"/>
		<circle fill="#F9B800" cx="328.752" cy="48.96" r="1.451"/>
		<circle fill="#F9B800" cx="328.752" cy="38.403" r="1.45"/>
		<circle fill="#F9B800" cx="328.752" cy="27.845" r="1.45"/>
		<circle fill="#F9B800" cx="328.752" cy="17.288" r="1.451"/>
		<circle fill="#F9B800" cx="328.752" cy="6.73" r="1.45"/>
		<circle fill="#F9B800" cx="334.031" cy="75.354" r="1.45"/>
		<circle fill="#F9B800" cx="334.031" cy="64.797" r="1.45"/>
		<circle fill="#F9B800" cx="334.031" cy="54.239" r="1.451"/>
		<circle fill="#F9B800" cx="334.031" cy="43.682" r="1.45"/>
		<circle fill="#F9B800" cx="334.031" cy="33.125" r="1.45"/>
		<circle fill="#F9B800" cx="334.031" cy="22.565" r="1.45"/>
		<circle fill="#F9B800" cx="334.031" cy="12.008" r="1.45"/>
		<circle fill="#F9B800" cx="334.031" cy="1.451" r="1.45"/>
		<circle fill="#F9B800" cx="318.195" cy="70.075" r="1.45"/>
		<circle fill="#F9B800" cx="318.195" cy="59.519" r="1.45"/>
		<circle fill="#F9B800" cx="318.195" cy="48.96" r="1.451"/>
		<circle fill="#F9B800" cx="318.195" cy="38.403" r="1.45"/>
		<circle fill="#F9B800" cx="318.195" cy="27.845" r="1.45"/>
		<circle fill="#F9B800" cx="318.195" cy="17.288" r="1.451"/>
		<circle fill="#F9B800" cx="318.195" cy="6.73" r="1.45"/>
		<circle fill="#F9B800" cx="323.474" cy="75.354" r="1.45"/>
		<circle fill="#F9B800" cx="323.474" cy="64.797" r="1.45"/>
		<circle fill="#F9B800" cx="323.474" cy="54.239" r="1.451"/>
		<circle fill="#F9B800" cx="323.474" cy="43.682" r="1.45"/>
		<circle fill="#F9B800" cx="323.474" cy="33.125" r="1.45"/>
		<circle fill="#F9B800" cx="323.474" cy="22.565" r="1.45"/>
		<circle fill="#F9B800" cx="323.474" cy="12.008" r="1.45"/>
		<circle fill="#F9B800" cx="323.474" cy="1.451" r="1.45"/>
		<circle fill="#F9B800" cx="307.637" cy="70.075" r="1.45"/>
		<circle fill="#F9B800" cx="307.637" cy="59.519" r="1.45"/>
		<circle fill="#F9B800" cx="307.637" cy="48.96" r="1.451"/>
		<circle fill="#F9B800" cx="307.637" cy="38.403" r="1.45"/>
		<circle fill="#F9B800" cx="307.637" cy="27.845" r="1.45"/>
		<circle fill="#F9B800" cx="307.637" cy="17.288" r="1.451"/>
		<circle fill="#F9B800" cx="307.637" cy="6.73" r="1.45"/>
		<circle fill="#F9B800" cx="312.916" cy="75.354" r="1.45"/>
		<circle fill="#F9B800" cx="312.916" cy="64.797" r="1.45"/>
		<circle fill="#F9B800" cx="312.916" cy="54.239" r="1.451"/>
		<circle fill="#F9B800" cx="312.916" cy="43.682" r="1.45"/>
		<circle fill="#F9B800" cx="312.916" cy="33.125" r="1.45"/>
		<circle fill="#F9B800" cx="312.916" cy="22.565" r="1.45"/>
		<circle fill="#F9B800" cx="312.916" cy="12.008" r="1.45"/>
		<circle fill="#F9B800" cx="312.916" cy="1.451" r="1.45"/>
		<circle fill="#F9B800" cx="297.078" cy="70.075" r="1.45"/>
		<circle fill="#F9B800" cx="297.078" cy="59.519" r="1.45"/>
		<circle fill="#F9B800" cx="297.078" cy="48.96" r="1.451"/>
		<circle fill="#F9B800" cx="297.078" cy="38.403" r="1.45"/>
		<circle fill="#F9B800" cx="297.078" cy="27.845" r="1.45"/>
		<circle fill="#F9B800" cx="297.078" cy="17.288" r="1.451"/>
		<circle fill="#F9B800" cx="297.078" cy="6.73" r="1.45"/>
		<circle fill="#F9B800" cx="302.357" cy="75.354" r="1.45"/>
		<circle fill="#F9B800" cx="302.357" cy="64.797" r="1.45"/>
		<circle fill="#F9B800" cx="302.357" cy="54.239" r="1.451"/>
		<circle fill="#F9B800" cx="302.357" cy="43.682" r="1.45"/>
		<circle fill="#F9B800" cx="302.357" cy="33.125" r="1.45"/>
		<circle fill="#F9B800" cx="302.357" cy="22.565" r="1.45"/>
		<circle fill="#F9B800" cx="302.357" cy="12.008" r="1.45"/>
		<circle fill="#F9B800" cx="302.357" cy="1.451" r="1.45"/>
		<circle fill="#F9B800" cx="286.52" cy="70.075" r="1.45"/>
		<circle fill="#F9B800" cx="286.52" cy="59.519" r="1.45"/>
		<circle fill="#F9B800" cx="286.52" cy="48.96" r="1.451"/>
		<circle fill="#F9B800" cx="286.52" cy="38.403" r="1.45"/>
		<circle fill="#F9B800" cx="286.52" cy="27.845" r="1.45"/>
		<circle fill="#F9B800" cx="286.52" cy="17.288" r="1.451"/>
		<circle fill="#F9B800" cx="286.52" cy="6.73" r="1.45"/>
		<circle fill="#F9B800" cx="291.799" cy="75.354" r="1.45"/>
		<circle fill="#F9B800" cx="291.799" cy="64.797" r="1.45"/>
		<circle fill="#F9B800" cx="291.799" cy="54.239" r="1.451"/>
		<circle fill="#F9B800" cx="291.799" cy="43.682" r="1.45"/>
		<circle fill="#F9B800" cx="291.799" cy="33.125" r="1.45"/>
		<circle fill="#F9B800" cx="291.799" cy="22.565" r="1.45"/>
		<circle fill="#F9B800" cx="291.799" cy="12.008" r="1.45"/>
		<circle fill="#F9B800" cx="291.799" cy="1.451" r="1.45"/>
		<circle fill="#F9B800" cx="275.963" cy="70.075" r="1.45"/>
		<circle fill="#F9B800" cx="275.963" cy="59.519" r="1.45"/>
		<circle fill="#F9B800" cx="275.963" cy="48.96" r="1.451"/>
		<circle fill="#F9B800" cx="275.963" cy="38.403" r="1.45"/>
		<circle fill="#F9B800" cx="275.963" cy="27.845" r="1.45"/>
		<circle fill="#F9B800" cx="275.963" cy="17.288" r="1.451"/>
		<circle fill="#F9B800" cx="275.963" cy="6.73" r="1.45"/>
		<circle fill="#F9B800" cx="281.24" cy="75.354" r="1.45"/>
		<circle fill="#F9B800" cx="281.24" cy="64.797" r="1.45"/>
		<circle fill="#F9B800" cx="281.24" cy="54.239" r="1.451"/>
		<circle fill="#F9B800" cx="281.24" cy="43.682" r="1.45"/>
		<circle fill="#F9B800" cx="281.24" cy="33.125" r="1.45"/>
		<circle fill="#F9B800" cx="281.24" cy="22.565" r="1.45"/>
		<circle fill="#F9B800" cx="281.24" cy="12.008" r="1.45"/>
		<circle fill="#F9B800" cx="281.24" cy="1.451" r="1.45"/>
		<circle fill="#F9B800" cx="265.404" cy="70.075" r="1.45"/>
		<circle fill="#F9B800" cx="265.404" cy="59.519" r="1.45"/>
		<circle fill="#F9B800" cx="265.404" cy="48.96" r="1.451"/>
		<circle fill="#F9B800" cx="265.404" cy="38.403" r="1.45"/>
		<circle fill="#F9B800" cx="265.404" cy="27.845" r="1.45"/>
		<circle fill="#F9B800" cx="265.404" cy="17.288" r="1.451"/>
		<circle fill="#F9B800" cx="265.404" cy="6.73" r="1.45"/>
		<circle fill="#F9B800" cx="270.684" cy="75.354" r="1.45"/>
		<circle fill="#F9B800" cx="270.684" cy="64.797" r="1.45"/>
		<circle fill="#F9B800" cx="270.684" cy="54.239" r="1.451"/>
		<circle fill="#F9B800" cx="270.684" cy="43.682" r="1.45"/>
		<circle fill="#F9B800" cx="270.684" cy="33.125" r="1.45"/>
		<circle fill="#F9B800" cx="270.684" cy="22.565" r="1.45"/>
		<circle fill="#F9B800" cx="270.684" cy="12.008" r="1.45"/>
		<circle fill="#F9B800" cx="270.684" cy="1.451" r="1.45"/>
		<circle fill="#F9B800" cx="254.846" cy="70.075" r="1.45"/>
		<circle fill="#F9B800" cx="254.846" cy="59.519" r="1.45"/>
		<circle fill="#F9B800" cx="254.846" cy="48.96" r="1.451"/>
		<circle fill="#F9B800" cx="254.846" cy="38.403" r="1.45"/>
		<circle fill="#F9B800" cx="254.846" cy="27.845" r="1.45"/>
		<circle fill="#F9B800" cx="254.846" cy="17.288" r="1.451"/>
		<circle fill="#F9B800" cx="254.846" cy="6.73" r="1.45"/>
		<circle fill="#F9B800" cx="260.125" cy="75.354" r="1.45"/>
		<circle fill="#F9B800" cx="260.125" cy="64.797" r="1.45"/>
		<circle fill="#F9B800" cx="260.125" cy="54.239" r="1.451"/>
		<circle fill="#F9B800" cx="260.125" cy="43.682" r="1.45"/>
		<circle fill="#F9B800" cx="260.125" cy="33.125" r="1.45"/>
		<circle fill="#F9B800" cx="260.125" cy="22.565" r="1.45"/>
		<circle fill="#F9B800" cx="260.125" cy="12.008" r="1.45"/>
		<circle fill="#F9B800" cx="260.125" cy="1.451" r="1.45"/>
		<circle fill="#F9B800" cx="244.288" cy="70.075" r="1.45"/>
		<circle fill="#F9B800" cx="244.288" cy="59.519" r="1.45"/>
		<circle fill="#F9B800" cx="244.288" cy="48.96" r="1.451"/>
		<circle fill="#F9B800" cx="244.288" cy="38.403" r="1.45"/>
		<circle fill="#F9B800" cx="244.288" cy="27.845" r="1.45"/>
		<circle fill="#F9B800" cx="244.288" cy="17.288" r="1.451"/>
		<circle fill="#F9B800" cx="244.288" cy="6.73" r="1.45"/>
		<circle fill="#F9B800" cx="249.566" cy="75.354" r="1.45"/>
		<circle fill="#F9B800" cx="249.566" cy="64.797" r="1.45"/>
		<circle fill="#F9B800" cx="249.566" cy="54.239" r="1.451"/>
		<circle fill="#F9B800" cx="249.566" cy="43.682" r="1.45"/>
		<circle fill="#F9B800" cx="249.566" cy="33.125" r="1.45"/>
		<circle fill="#F9B800" cx="249.566" cy="22.565" r="1.45"/>
		<circle fill="#F9B800" cx="249.566" cy="12.008" r="1.45"/>
		<circle fill="#F9B800" cx="249.566" cy="1.451" r="1.45"/>
		<circle fill="#F9B800" cx="233.729" cy="70.075" r="1.45"/>
		<circle fill="#F9B800" cx="233.729" cy="59.519" r="1.45"/>
		<circle fill="#F9B800" cx="233.729" cy="48.96" r="1.451"/>
		<circle fill="#F9B800" cx="233.729" cy="38.403" r="1.45"/>
		<circle fill="#F9B800" cx="233.729" cy="27.845" r="1.45"/>
		<circle fill="#F9B800" cx="233.729" cy="17.288" r="1.451"/>
		<circle fill="#F9B800" cx="233.729" cy="6.73" r="1.45"/>
		<circle fill="#F9B800" cx="239.008" cy="75.354" r="1.45"/>
		<circle fill="#F9B800" cx="239.008" cy="64.797" r="1.45"/>
		<circle fill="#F9B800" cx="239.008" cy="54.239" r="1.451"/>
		<circle fill="#F9B800" cx="239.008" cy="43.682" r="1.45"/>
		<circle fill="#F9B800" cx="239.008" cy="33.125" r="1.45"/>
		<circle fill="#F9B800" cx="239.008" cy="22.565" r="1.45"/>
		<circle fill="#F9B800" cx="239.008" cy="12.008" r="1.45"/>
		<circle fill="#F9B800" cx="239.008" cy="1.451" r="1.45"/>
		<circle fill="#F9B800" cx="223.172" cy="70.075" r="1.45"/>
		<circle fill="#F9B800" cx="223.172" cy="59.519" r="1.45"/>
		<circle fill="#F9B800" cx="223.172" cy="48.96" r="1.451"/>
		<circle fill="#F9B800" cx="223.172" cy="38.402" r="1.45"/>
		<circle fill="#F9B800" cx="223.172" cy="27.845" r="1.45"/>
		<circle fill="#F9B800" cx="223.172" cy="17.288" r="1.451"/>
		<circle fill="#F9B800" cx="223.172" cy="6.729" r="1.451"/>
		<circle fill="#F9B800" cx="228.451" cy="75.354" r="1.45"/>
		<circle fill="#F9B800" cx="228.451" cy="64.797" r="1.45"/>
		<circle fill="#F9B800" cx="228.451" cy="54.239" r="1.451"/>
		<circle fill="#F9B800" cx="228.451" cy="43.682" r="1.45"/>
		<circle fill="#F9B800" cx="228.451" cy="33.124" r="1.449"/>
		<circle fill="#F9B800" cx="228.451" cy="22.565" r="1.45"/>
		<circle fill="#F9B800" cx="228.451" cy="12.008" r="1.45"/>
		<circle fill="#F9B800" cx="228.451" cy="1.45" r="1.45"/>
		<circle fill="#F9B800" cx="212.613" cy="70.075" r="1.45"/>
		<circle fill="#F9B800" cx="212.613" cy="59.519" r="1.45"/>
		<circle fill="#F9B800" cx="212.613" cy="48.96" r="1.451"/>
		<circle fill="#F9B800" cx="212.613" cy="38.402" r="1.45"/>
		<circle fill="#F9B800" cx="212.613" cy="27.845" r="1.45"/>
		<circle fill="#F9B800" cx="212.613" cy="17.288" r="1.451"/>
		<circle fill="#F9B800" cx="212.613" cy="6.729" r="1.451"/>
		<circle fill="#F9B800" cx="217.893" cy="75.354" r="1.45"/>
		<circle fill="#F9B800" cx="217.893" cy="64.797" r="1.45"/>
		<circle fill="#F9B800" cx="217.893" cy="54.239" r="1.451"/>
		<circle fill="#F9B800" cx="217.893" cy="43.682" r="1.45"/>
		<circle fill="#F9B800" cx="217.893" cy="33.124" r="1.449"/>
		<circle fill="#F9B800" cx="217.893" cy="22.565" r="1.45"/>
		<circle fill="#F9B800" cx="217.893" cy="12.008" r="1.45"/>
		<circle fill="#F9B800" cx="217.893" cy="1.45" r="1.45"/>
		<circle fill="#F9B800" cx="202.057" cy="70.075" r="1.45"/>
		<circle fill="#F9B800" cx="202.057" cy="59.519" r="1.45"/>
		<circle fill="#F9B800" cx="202.057" cy="48.96" r="1.451"/>
		<circle fill="#F9B800" cx="202.057" cy="38.402" r="1.45"/>
		<circle fill="#F9B800" cx="202.057" cy="27.845" r="1.45"/>
		<circle fill="#F9B800" cx="202.057" cy="17.288" r="1.451"/>
		<circle fill="#F9B800" cx="202.057" cy="6.729" r="1.451"/>
		<circle fill="#F9B800" cx="207.334" cy="75.354" r="1.45"/>
		<circle fill="#F9B800" cx="207.334" cy="64.797" r="1.45"/>
		<circle fill="#F9B800" cx="207.334" cy="54.239" r="1.451"/>
		<circle fill="#F9B800" cx="207.334" cy="43.682" r="1.45"/>
		<circle fill="#F9B800" cx="207.334" cy="33.124" r="1.449"/>
		<circle fill="#F9B800" cx="207.334" cy="22.565" r="1.45"/>
		<circle fill="#F9B800" cx="207.334" cy="12.008" r="1.45"/>
		<circle fill="#F9B800" cx="207.334" cy="1.45" r="1.45"/>
		<circle fill="#F9B800" cx="191.497" cy="70.075" r="1.45"/>
		<circle fill="#F9B800" cx="191.497" cy="59.519" r="1.45"/>
		<circle fill="#F9B800" cx="191.497" cy="48.96" r="1.451"/>
		<circle fill="#F9B800" cx="191.497" cy="38.402" r="1.45"/>
		<circle fill="#F9B800" cx="191.497" cy="27.845" r="1.45"/>
		<circle fill="#F9B800" cx="191.497" cy="17.288" r="1.451"/>
		<circle fill="#F9B800" cx="191.497" cy="6.729" r="1.451"/>
		<circle fill="#F9B800" cx="196.775" cy="75.354" r="1.45"/>
		<circle fill="#F9B800" cx="196.775" cy="64.797" r="1.45"/>
		<circle fill="#F9B800" cx="196.775" cy="54.239" r="1.451"/>
		<circle fill="#F9B800" cx="196.775" cy="43.682" r="1.45"/>
		<circle fill="#F9B800" cx="196.775" cy="33.124" r="1.449"/>
		<circle fill="#F9B800" cx="196.775" cy="22.565" r="1.45"/>
		<circle fill="#F9B800" cx="196.775" cy="12.008" r="1.45"/>
		<circle fill="#F9B800" cx="196.775" cy="1.45" r="1.45"/>
		<circle fill="#F9B800" cx="180.939" cy="70.075" r="1.45"/>
		<circle fill="#F9B800" cx="180.939" cy="59.519" r="1.45"/>
		<circle fill="#F9B800" cx="180.939" cy="48.96" r="1.451"/>
		<circle fill="#F9B800" cx="180.939" cy="38.402" r="1.45"/>
		<circle fill="#F9B800" cx="180.939" cy="27.845" r="1.45"/>
		<circle fill="#F9B800" cx="180.939" cy="17.288" r="1.451"/>
		<circle fill="#F9B800" cx="180.939" cy="6.729" r="1.451"/>
		<circle fill="#F9B800" cx="186.219" cy="75.354" r="1.45"/>
		<circle fill="#F9B800" cx="186.219" cy="64.797" r="1.45"/>
		<circle fill="#F9B800" cx="186.219" cy="54.239" r="1.451"/>
		<circle fill="#F9B800" cx="186.219" cy="43.682" r="1.45"/>
		<circle fill="#F9B800" cx="186.219" cy="33.124" r="1.449"/>
		<circle fill="#F9B800" cx="186.219" cy="22.565" r="1.45"/>
		<circle fill="#F9B800" cx="186.219" cy="12.008" r="1.45"/>
		<circle fill="#F9B800" cx="186.219" cy="1.45" r="1.45"/>
		<circle fill="#F9B800" cx="170.381" cy="70.075" r="1.45"/>
		<circle fill="#F9B800" cx="170.381" cy="59.519" r="1.45"/>
		<circle fill="#F9B800" cx="170.381" cy="48.96" r="1.451"/>
		<circle fill="#F9B800" cx="170.381" cy="38.402" r="1.45"/>
		<circle fill="#F9B800" cx="170.381" cy="27.845" r="1.45"/>
		<circle fill="#F9B800" cx="170.381" cy="17.288" r="1.451"/>
		<circle fill="#F9B800" cx="170.381" cy="6.729" r="1.451"/>
		<circle fill="#F9B800" cx="175.66" cy="75.354" r="1.45"/>
		<circle fill="#F9B800" cx="175.66" cy="64.797" r="1.45"/>
		<circle fill="#F9B800" cx="175.66" cy="54.239" r="1.451"/>
		<circle fill="#F9B800" cx="175.66" cy="43.682" r="1.45"/>
		<circle fill="#F9B800" cx="175.66" cy="33.124" r="1.449"/>
		<circle fill="#F9B800" cx="175.66" cy="22.565" r="1.45"/>
		<circle fill="#F9B800" cx="175.66" cy="12.008" r="1.45"/>
		<circle fill="#F9B800" cx="175.66" cy="1.45" r="1.45"/>
		<circle fill="#F9B800" cx="159.823" cy="70.075" r="1.45"/>
		<circle fill="#F9B800" cx="159.823" cy="59.519" r="1.45"/>
		<circle fill="#F9B800" cx="159.823" cy="48.96" r="1.451"/>
		<circle fill="#F9B800" cx="159.823" cy="38.402" r="1.45"/>
		<circle fill="#F9B800" cx="159.823" cy="27.845" r="1.45"/>
		<circle fill="#F9B800" cx="159.823" cy="17.288" r="1.451"/>
		<circle fill="#F9B800" cx="159.823" cy="6.729" r="1.451"/>
		<circle fill="#F9B800" cx="165.102" cy="75.354" r="1.45"/>
		<circle fill="#F9B800" cx="165.102" cy="64.797" r="1.45"/>
		<circle fill="#F9B800" cx="165.102" cy="54.239" r="1.451"/>
		<circle fill="#F9B800" cx="165.102" cy="43.682" r="1.45"/>
		<circle fill="#F9B800" cx="165.102" cy="33.124" r="1.449"/>
		<circle fill="#F9B800" cx="165.102" cy="22.565" r="1.45"/>
		<circle fill="#F9B800" cx="165.102" cy="12.008" r="1.45"/>
		<circle fill="#F9B800" cx="165.102" cy="1.45" r="1.45"/>
		<circle fill="#F9B800" cx="149.264" cy="70.075" r="1.45"/>
		<circle fill="#F9B800" cx="149.264" cy="59.519" r="1.45"/>
		<circle fill="#F9B800" cx="149.264" cy="48.96" r="1.451"/>
		<circle fill="#F9B800" cx="149.264" cy="38.402" r="1.45"/>
		<circle fill="#F9B800" cx="149.264" cy="27.845" r="1.45"/>
		<circle fill="#F9B800" cx="149.264" cy="17.288" r="1.451"/>
		<circle fill="#F9B800" cx="149.264" cy="6.729" r="1.451"/>
		<circle fill="#F9B800" cx="154.544" cy="75.354" r="1.45"/>
		<circle fill="#F9B800" cx="154.544" cy="64.797" r="1.45"/>
		<circle fill="#F9B800" cx="154.544" cy="54.239" r="1.451"/>
		<circle fill="#F9B800" cx="154.544" cy="43.682" r="1.45"/>
		<circle fill="#F9B800" cx="154.544" cy="33.124" r="1.449"/>
		<circle fill="#F9B800" cx="154.544" cy="22.565" r="1.45"/>
		<circle fill="#F9B800" cx="154.544" cy="12.008" r="1.45"/>
		<circle fill="#F9B800" cx="154.544" cy="1.45" r="1.45"/>
		<circle fill="#F9B800" cx="138.707" cy="70.075" r="1.45"/>
		<circle fill="#F9B800" cx="138.707" cy="59.519" r="1.45"/>
		<circle fill="#F9B800" cx="138.707" cy="48.96" r="1.451"/>
		<circle fill="#F9B800" cx="138.707" cy="38.402" r="1.45"/>
		<circle fill="#F9B800" cx="138.707" cy="27.845" r="1.45"/>
		<circle fill="#F9B800" cx="138.707" cy="17.288" r="1.451"/>
		<circle fill="#F9B800" cx="138.707" cy="6.729" r="1.451"/>
		<circle fill="#F9B800" cx="143.986" cy="75.354" r="1.45"/>
		<circle fill="#F9B800" cx="143.986" cy="64.797" r="1.45"/>
		<circle fill="#F9B800" cx="143.986" cy="54.239" r="1.451"/>
		<circle fill="#F9B800" cx="143.986" cy="43.682" r="1.45"/>
		<circle fill="#F9B800" cx="143.986" cy="33.124" r="1.449"/>
		<circle fill="#F9B800" cx="143.986" cy="22.565" r="1.45"/>
		<circle fill="#F9B800" cx="143.986" cy="12.008" r="1.45"/>
		<circle fill="#F9B800" cx="143.986" cy="1.45" r="1.45"/>
		<circle fill="#F9B800" cx="128.148" cy="70.075" r="1.45"/>
		<circle fill="#F9B800" cx="128.148" cy="59.519" r="1.45"/>
		<circle fill="#F9B800" cx="128.148" cy="48.96" r="1.451"/>
		<circle fill="#F9B800" cx="128.148" cy="38.402" r="1.45"/>
		<circle fill="#F9B800" cx="128.148" cy="27.845" r="1.45"/>
		<circle fill="#F9B800" cx="128.148" cy="17.288" r="1.451"/>
		<circle fill="#F9B800" cx="128.148" cy="6.729" r="1.451"/>
		<circle fill="#F9B800" cx="133.428" cy="75.354" r="1.45"/>
		<circle fill="#F9B800" cx="133.428" cy="64.797" r="1.45"/>
		<circle fill="#F9B800" cx="133.428" cy="54.239" r="1.451"/>
		<circle fill="#F9B800" cx="133.428" cy="43.682" r="1.45"/>
		<circle fill="#F9B800" cx="133.428" cy="33.124" r="1.449"/>
		<circle fill="#F9B800" cx="133.428" cy="22.565" r="1.45"/>
		<circle fill="#F9B800" cx="133.428" cy="12.008" r="1.45"/>
		<circle fill="#F9B800" cx="133.428" cy="1.45" r="1.45"/>
		<circle fill="#F9B800" cx="117.59" cy="70.075" r="1.45"/>
		<circle fill="#F9B800" cx="117.59" cy="59.519" r="1.45"/>
		<circle fill="#F9B800" cx="117.59" cy="48.96" r="1.451"/>
		<circle fill="#F9B800" cx="117.59" cy="38.402" r="1.45"/>
		<circle fill="#F9B800" cx="117.59" cy="27.845" r="1.45"/>
		<circle fill="#F9B800" cx="117.59" cy="17.288" r="1.451"/>
		<circle fill="#F9B800" cx="117.59" cy="6.729" r="1.451"/>
		<circle fill="#F9B800" cx="122.869" cy="75.354" r="1.45"/>
		<circle fill="#F9B800" cx="122.869" cy="64.797" r="1.45"/>
		<circle fill="#F9B800" cx="122.869" cy="54.239" r="1.451"/>
		<circle fill="#F9B800" cx="122.869" cy="43.682" r="1.45"/>
		<circle fill="#F9B800" cx="122.869" cy="33.124" r="1.449"/>
		<circle fill="#F9B800" cx="122.869" cy="22.565" r="1.45"/>
		<circle fill="#F9B800" cx="122.869" cy="12.008" r="1.45"/>
		<circle fill="#F9B800" cx="122.869" cy="1.45" r="1.45"/>
		<circle fill="#F9B800" cx="107.033" cy="70.075" r="1.45"/>
		<circle fill="#F9B800" cx="107.033" cy="59.519" r="1.45"/>
		<circle fill="#F9B800" cx="107.033" cy="48.96" r="1.451"/>
		<circle fill="#F9B800" cx="107.033" cy="38.402" r="1.45"/>
		<circle fill="#F9B800" cx="107.033" cy="27.845" r="1.45"/>
		<circle fill="#F9B800" cx="107.033" cy="17.288" r="1.451"/>
		<circle fill="#F9B800" cx="107.033" cy="6.729" r="1.451"/>
		<circle fill="#F9B800" cx="112.311" cy="75.354" r="1.45"/>
		<circle fill="#F9B800" cx="112.311" cy="64.797" r="1.45"/>
		<circle fill="#F9B800" cx="112.311" cy="54.239" r="1.451"/>
		<circle fill="#F9B800" cx="112.311" cy="43.682" r="1.45"/>
		<circle fill="#F9B800" cx="112.311" cy="33.124" r="1.449"/>
		<circle fill="#F9B800" cx="112.311" cy="22.565" r="1.45"/>
		<circle fill="#F9B800" cx="112.311" cy="12.008" r="1.45"/>
		<circle fill="#F9B800" cx="112.311" cy="1.45" r="1.45"/>
		<circle fill="#F9B800" cx="96.475" cy="70.075" r="1.45"/>
		<circle fill="#F9B800" cx="96.475" cy="59.519" r="1.45"/>
		<circle fill="#F9B800" cx="96.475" cy="48.96" r="1.451"/>
		<circle fill="#F9B800" cx="96.475" cy="38.402" r="1.45"/>
		<circle fill="#F9B800" cx="96.475" cy="27.845" r="1.45"/>
		<circle fill="#F9B800" cx="96.475" cy="17.288" r="1.451"/>
		<circle fill="#F9B800" cx="96.475" cy="6.729" r="1.451"/>
		<circle fill="#F9B800" cx="101.754" cy="75.354" r="1.45"/>
		<circle fill="#F9B800" cx="101.754" cy="64.797" r="1.45"/>
		<circle fill="#F9B800" cx="101.754" cy="54.239" r="1.451"/>
		<circle fill="#F9B800" cx="101.754" cy="43.682" r="1.45"/>
		<circle fill="#F9B800" cx="101.754" cy="33.124" r="1.449"/>
		<circle fill="#F9B800" cx="101.754" cy="22.565" r="1.45"/>
		<circle fill="#F9B800" cx="101.754" cy="12.008" r="1.45"/>
		<circle fill="#F9B800" cx="101.754" cy="1.45" r="1.45"/>
		<circle fill="#F9B800" cx="85.916" cy="70.075" r="1.45"/>
		<circle fill="#F9B800" cx="85.916" cy="59.519" r="1.45"/>
		<circle fill="#F9B800" cx="85.916" cy="48.96" r="1.451"/>
		<circle fill="#F9B800" cx="85.916" cy="38.402" r="1.45"/>
		<circle fill="#F9B800" cx="85.916" cy="27.845" r="1.45"/>
		<circle fill="#F9B800" cx="85.916" cy="17.288" r="1.451"/>
		<circle fill="#F9B800" cx="85.916" cy="6.729" r="1.451"/>
		<circle fill="#F9B800" cx="91.195" cy="75.354" r="1.45"/>
		<circle fill="#F9B800" cx="91.195" cy="64.797" r="1.45"/>
		<circle fill="#F9B800" cx="91.195" cy="54.239" r="1.451"/>
		<circle fill="#F9B800" cx="91.195" cy="43.682" r="1.45"/>
		<circle fill="#F9B800" cx="91.195" cy="33.124" r="1.449"/>
		<circle fill="#F9B800" cx="91.195" cy="22.565" r="1.45"/>
		<circle fill="#F9B800" cx="91.195" cy="12.008" r="1.45"/>
		<circle fill="#F9B800" cx="91.195" cy="1.45" r="1.45"/>
		<circle fill="#F9B800" cx="75.358" cy="70.075" r="1.45"/>
		<circle fill="#F9B800" cx="75.358" cy="59.519" r="1.45"/>
		<circle fill="#F9B800" cx="75.358" cy="48.96" r="1.451"/>
		<circle fill="#F9B800" cx="75.358" cy="38.402" r="1.45"/>
		<circle fill="#F9B800" cx="75.358" cy="27.845" r="1.45"/>
		<circle fill="#F9B800" cx="75.358" cy="17.288" r="1.451"/>
		<circle fill="#F9B800" cx="75.358" cy="6.729" r="1.451"/>
		<circle fill="#F9B800" cx="80.637" cy="75.354" r="1.45"/>
		<circle fill="#F9B800" cx="80.637" cy="64.797" r="1.45"/>
		<circle fill="#F9B800" cx="80.637" cy="54.239" r="1.451"/>
		<circle fill="#F9B800" cx="80.637" cy="43.682" r="1.45"/>
		<circle fill="#F9B800" cx="80.637" cy="33.124" r="1.449"/>
		<circle fill="#F9B800" cx="80.637" cy="22.565" r="1.45"/>
		<circle fill="#F9B800" cx="80.637" cy="12.008" r="1.45"/>
		<circle fill="#F9B800" cx="80.637" cy="1.45" r="1.45"/>
		<circle fill="#F9B800" cx="64.801" cy="70.075" r="1.45"/>
		<circle fill="#F9B800" cx="64.801" cy="59.519" r="1.45"/>
		<circle fill="#F9B800" cx="64.801" cy="48.96" r="1.451"/>
		<circle fill="#F9B800" cx="64.801" cy="38.402" r="1.45"/>
		<circle fill="#F9B800" cx="64.801" cy="27.845" r="1.45"/>
		<circle fill="#F9B800" cx="64.801" cy="17.288" r="1.451"/>
		<circle fill="#F9B800" cx="64.801" cy="6.729" r="1.451"/>
		<circle fill="#F9B800" cx="70.078" cy="75.354" r="1.45"/>
		<circle fill="#F9B800" cx="70.078" cy="64.797" r="1.45"/>
		<circle fill="#F9B800" cx="70.078" cy="54.239" r="1.451"/>
		<circle fill="#F9B800" cx="70.078" cy="43.682" r="1.45"/>
		<circle fill="#F9B800" cx="70.078" cy="33.124" r="1.449"/>
		<circle fill="#F9B800" cx="70.078" cy="22.565" r="1.45"/>
		<circle fill="#F9B800" cx="70.078" cy="12.008" r="1.45"/>
		<circle fill="#F9B800" cx="70.078" cy="1.45" r="1.45"/>
		<circle fill="#F9B800" cx="54.242" cy="70.075" r="1.45"/>
		<circle fill="#F9B800" cx="54.242" cy="59.519" r="1.45"/>
		<circle fill="#F9B800" cx="54.242" cy="48.96" r="1.451"/>
		<circle fill="#F9B800" cx="54.242" cy="38.402" r="1.45"/>
		<circle fill="#F9B800" cx="54.242" cy="27.845" r="1.45"/>
		<circle fill="#F9B800" cx="54.242" cy="17.288" r="1.451"/>
		<circle fill="#F9B800" cx="54.242" cy="6.729" r="1.451"/>
		<circle fill="#F9B800" cx="59.521" cy="75.354" r="1.45"/>
		<circle fill="#F9B800" cx="59.521" cy="64.797" r="1.45"/>
		<circle fill="#F9B800" cx="59.521" cy="54.239" r="1.451"/>
		<circle fill="#F9B800" cx="59.521" cy="43.682" r="1.45"/>
		<circle fill="#F9B800" cx="59.521" cy="33.124" r="1.449"/>
		<circle fill="#F9B800" cx="59.521" cy="22.565" r="1.45"/>
		<circle fill="#F9B800" cx="59.521" cy="12.008" r="1.45"/>
		<circle fill="#F9B800" cx="59.521" cy="1.45" r="1.45"/>
		<circle fill="#F9B800" cx="43.684" cy="70.075" r="1.45"/>
		<circle fill="#F9B800" cx="43.684" cy="59.519" r="1.45"/>
		<circle fill="#F9B800" cx="43.684" cy="48.96" r="1.451"/>
		<circle fill="#F9B800" cx="43.684" cy="38.402" r="1.45"/>
		<circle fill="#F9B800" cx="43.684" cy="27.845" r="1.45"/>
		<circle fill="#F9B800" cx="43.684" cy="17.288" r="1.451"/>
		<circle fill="#F9B800" cx="43.684" cy="6.729" r="1.451"/>
		<circle fill="#F9B800" cx="48.963" cy="75.354" r="1.45"/>
		<circle fill="#F9B800" cx="48.963" cy="64.797" r="1.45"/>
		<circle fill="#F9B800" cx="48.963" cy="54.239" r="1.451"/>
		<circle fill="#F9B800" cx="48.963" cy="43.682" r="1.45"/>
		<circle fill="#F9B800" cx="48.963" cy="33.124" r="1.449"/>
		<circle fill="#F9B800" cx="48.963" cy="22.565" r="1.45"/>
		<circle fill="#F9B800" cx="48.963" cy="12.008" r="1.45"/>
		<circle fill="#F9B800" cx="48.963" cy="1.45" r="1.45"/>
		<circle fill="#F9B800" cx="33.125" cy="70.075" r="1.45"/>
		<circle fill="#F9B800" cx="33.125" cy="59.519" r="1.45"/>
		<circle fill="#F9B800" cx="33.125" cy="48.96" r="1.451"/>
		<circle fill="#F9B800" cx="33.125" cy="38.402" r="1.45"/>
		<circle fill="#F9B800" cx="33.125" cy="27.845" r="1.45"/>
		<circle fill="#F9B800" cx="33.125" cy="17.288" r="1.451"/>
		<circle fill="#F9B800" cx="33.125" cy="6.729" r="1.451"/>
		<circle fill="#F9B800" cx="38.405" cy="75.354" r="1.45"/>
		<circle fill="#F9B800" cx="38.405" cy="64.797" r="1.45"/>
		<circle fill="#F9B800" cx="38.405" cy="54.239" r="1.451"/>
		<circle fill="#F9B800" cx="38.405" cy="43.682" r="1.45"/>
		<circle fill="#F9B800" cx="38.405" cy="33.124" r="1.449"/>
		<circle fill="#F9B800" cx="38.405" cy="22.565" r="1.45"/>
		<circle fill="#F9B800" cx="38.405" cy="12.008" r="1.45"/>
		<circle fill="#F9B800" cx="38.405" cy="1.45" r="1.45"/>
		<circle fill="#F9B800" cx="22.568" cy="70.075" r="1.45"/>
		<circle fill="#F9B800" cx="22.568" cy="59.519" r="1.45"/>
		<circle fill="#F9B800" cx="22.568" cy="48.96" r="1.451"/>
		<circle fill="#F9B800" cx="22.568" cy="38.402" r="1.45"/>
		<circle fill="#F9B800" cx="22.568" cy="27.845" r="1.45"/>
		<circle fill="#F9B800" cx="22.568" cy="17.288" r="1.451"/>
		<circle fill="#F9B800" cx="22.568" cy="6.729" r="1.451"/>
		<circle fill="#F9B800" cx="27.846" cy="75.354" r="1.45"/>
		<circle fill="#F9B800" cx="27.846" cy="64.797" r="1.45"/>
		<circle fill="#F9B800" cx="27.846" cy="54.239" r="1.451"/>
		<circle fill="#F9B800" cx="27.846" cy="43.682" r="1.45"/>
		<circle fill="#F9B800" cx="27.846" cy="33.124" r="1.449"/>
		<circle fill="#F9B800" cx="27.846" cy="22.565" r="1.45"/>
		<circle fill="#F9B800" cx="27.846" cy="12.008" r="1.45"/>
		<circle fill="#F9B800" cx="27.846" cy="1.45" r="1.45"/>
		<circle fill="#F9B800" cx="12.01" cy="70.075" r="1.45"/>
		<circle fill="#F9B800" cx="12.01" cy="59.519" r="1.45"/>
		<circle fill="#F9B800" cx="12.01" cy="48.96" r="1.451"/>
		<circle fill="#F9B800" cx="12.01" cy="38.402" r="1.45"/>
		<circle fill="#F9B800" cx="12.01" cy="27.845" r="1.45"/>
		<circle fill="#F9B800" cx="12.01" cy="17.288" r="1.451"/>
		<circle fill="#F9B800" cx="12.01" cy="6.729" r="1.451"/>
		<circle fill="#F9B800" cx="17.289" cy="75.354" r="1.45"/>
		<circle fill="#F9B800" cx="17.289" cy="64.797" r="1.45"/>
		<circle fill="#F9B800" cx="17.289" cy="54.239" r="1.451"/>
		<circle fill="#F9B800" cx="17.289" cy="43.682" r="1.45"/>
		<circle fill="#F9B800" cx="17.289" cy="33.124" r="1.449"/>
		<circle fill="#F9B800" cx="17.289" cy="22.565" r="1.45"/>
		<circle fill="#F9B800" cx="17.289" cy="12.008" r="1.45"/>
		<circle fill="#F9B800" cx="17.289" cy="1.45" r="1.45"/>
		<circle fill="#F9B800" cx="1.451" cy="70.075" r="1.45"/>
		<circle fill="#F9B800" cx="1.451" cy="59.519" r="1.45"/>
		<circle fill="#F9B800" cx="1.451" cy="48.96" r="1.451"/>
		<circle fill="#F9B800" cx="1.451" cy="38.402" r="1.45"/>
		<circle fill="#F9B800" cx="1.451" cy="27.845" r="1.45"/>
		<circle fill="#F9B800" cx="1.451" cy="17.288" r="1.451"/>
		<circle fill="#F9B800" cx="1.451" cy="6.729" r="1.451"/>
		<circle fill="#F9B800" cx="6.73" cy="75.354" r="1.45"/>
		<circle fill="#F9B800" cx="6.73" cy="64.797" r="1.45"/>
		<circle fill="#F9B800" cx="6.73" cy="54.239" r="1.451"/>
		<circle fill="#F9B800" cx="6.73" cy="43.682" r="1.45"/>
		<circle fill="#F9B800" cx="6.73" cy="33.124" r="1.449"/>
		<circle fill="#F9B800" cx="6.73" cy="22.565" r="1.45"/>
		<circle fill="#F9B800" cx="6.73" cy="12.008" r="1.45"/>
		<circle fill="#F9B800" cx="6.73" cy="1.45" r="1.45"/>
	</g>
	<g>
		<circle fill="#F9B800" cx="381.543" cy="143.979" r="1.45"/>
		<circle fill="#F9B800" cx="381.543" cy="133.422" r="1.45"/>
		<circle fill="#F9B800" cx="381.543" cy="122.864" r="1.451"/>
		<circle fill="#F9B800" cx="381.543" cy="112.307" r="1.45"/>
		<circle fill="#F9B800" cx="381.543" cy="101.748" r="1.45"/>
		<circle fill="#F9B800" cx="381.543" cy="91.19" r="1.45"/>
		<circle fill="#F9B800" cx="381.543" cy="80.633" r="1.45"/>
		<circle fill="#F9B800" cx="386.821" cy="149.258" r="1.45"/>
		<circle fill="#F9B800" cx="386.821" cy="138.7" r="1.45"/>
		<circle fill="#F9B800" cx="386.821" cy="128.143" r="1.45"/>
		<circle fill="#F9B800" cx="386.821" cy="117.585" r="1.45"/>
		<circle fill="#F9B800" cx="386.822" cy="107.027" r="1.45"/>
		<circle fill="#F9B800" cx="386.822" cy="96.469" r="1.45"/>
		<circle fill="#F9B800" cx="386.822" cy="85.912" r="1.45"/>
		<circle fill="#F9B800" cx="386.822" cy="75.354" r="1.45"/>
		<circle fill="#F9B800" cx="370.985" cy="143.979" r="1.45"/>
		<circle fill="#F9B800" cx="370.985" cy="133.422" r="1.45"/>
		<circle fill="#F9B800" cx="370.985" cy="122.864" r="1.451"/>
		<circle fill="#F9B800" cx="370.985" cy="112.307" r="1.45"/>
		<circle fill="#F9B800" cx="370.985" cy="101.748" r="1.45"/>
		<circle fill="#F9B800" cx="370.985" cy="91.19" r="1.45"/>
		<circle fill="#F9B800" cx="370.985" cy="80.633" r="1.45"/>
		<circle fill="#F9B800" cx="376.264" cy="149.258" r="1.45"/>
		<circle fill="#F9B800" cx="376.264" cy="138.7" r="1.45"/>
		<circle fill="#F9B800" cx="376.264" cy="128.143" r="1.45"/>
		<circle fill="#F9B800" cx="376.264" cy="117.585" r="1.45"/>
		<circle fill="#F9B800" cx="376.264" cy="107.027" r="1.45"/>
		<circle fill="#F9B800" cx="376.264" cy="96.469" r="1.45"/>
		<circle fill="#F9B800" cx="376.264" cy="85.912" r="1.45"/>
		<circle fill="#F9B800" cx="376.264" cy="75.354" r="1.45"/>
		<circle fill="#F9B800" cx="360.427" cy="143.979" r="1.45"/>
		<circle fill="#F9B800" cx="360.427" cy="133.422" r="1.45"/>
		<circle fill="#F9B800" cx="360.427" cy="122.864" r="1.451"/>
		<circle fill="#F9B800" cx="360.427" cy="112.307" r="1.45"/>
		<circle fill="#F9B800" cx="360.428" cy="101.748" r="1.45"/>
		<circle fill="#F9B800" cx="360.428" cy="91.19" r="1.45"/>
		<circle fill="#F9B800" cx="360.428" cy="80.633" r="1.45"/>
		<circle fill="#F9B800" cx="365.705" cy="149.258" r="1.45"/>
		<circle fill="#F9B800" cx="365.705" cy="138.7" r="1.45"/>
		<circle fill="#F9B800" cx="365.705" cy="128.143" r="1.45"/>
		<circle fill="#F9B800" cx="365.705" cy="117.585" r="1.45"/>
		<circle fill="#F9B800" cx="365.705" cy="107.027" r="1.45"/>
		<circle fill="#F9B800" cx="365.705" cy="96.469" r="1.45"/>
		<circle fill="#F9B800" cx="365.705" cy="85.912" r="1.45"/>
		<circle fill="#F9B800" cx="365.705" cy="75.354" r="1.45"/>
		<circle fill="#F9B800" cx="349.869" cy="143.979" r="1.45"/>
		<circle fill="#F9B800" cx="349.869" cy="133.422" r="1.45"/>
		<circle fill="#F9B800" cx="349.869" cy="122.864" r="1.451"/>
		<circle fill="#F9B800" cx="349.869" cy="112.307" r="1.45"/>
		<circle fill="#F9B800" cx="349.869" cy="101.748" r="1.45"/>
		<circle fill="#F9B800" cx="349.869" cy="91.19" r="1.45"/>
		<circle fill="#F9B800" cx="349.869" cy="80.633" r="1.45"/>
		<circle fill="#F9B800" cx="355.147" cy="149.258" r="1.45"/>
		<circle fill="#F9B800" cx="355.147" cy="138.7" r="1.45"/>
		<circle fill="#F9B800" cx="355.147" cy="128.143" r="1.45"/>
		<circle fill="#F9B800" cx="355.147" cy="117.585" r="1.45"/>
		<circle fill="#F9B800" cx="355.148" cy="107.027" r="1.45"/>
		<circle fill="#F9B800" cx="355.148" cy="96.469" r="1.45"/>
		<circle fill="#F9B800" cx="355.148" cy="85.912" r="1.45"/>
		<circle fill="#F9B800" cx="355.148" cy="75.354" r="1.45"/>
		<circle fill="#F9B800" cx="339.311" cy="143.979" r="1.45"/>
		<circle fill="#F9B800" cx="339.311" cy="133.422" r="1.45"/>
		<circle fill="#F9B800" cx="339.311" cy="122.864" r="1.451"/>
		<circle fill="#F9B800" cx="339.311" cy="112.307" r="1.45"/>
		<circle fill="#F9B800" cx="339.311" cy="101.748" r="1.45"/>
		<circle fill="#F9B800" cx="339.311" cy="91.19" r="1.45"/>
		<circle fill="#F9B800" cx="339.311" cy="80.633" r="1.45"/>
		<circle fill="#F9B800" cx="344.589" cy="149.258" r="1.45"/>
		<circle fill="#F9B800" cx="344.589" cy="138.7" r="1.45"/>
		<circle fill="#F9B800" cx="344.589" cy="128.143" r="1.45"/>
		<circle fill="#F9B800" cx="344.589" cy="117.585" r="1.45"/>
		<circle fill="#F9B800" cx="344.589" cy="107.027" r="1.45"/>
		<circle fill="#F9B800" cx="344.59" cy="96.469" r="1.45"/>
		<circle fill="#F9B800" cx="344.59" cy="85.912" r="1.45"/>
		<circle fill="#F9B800" cx="344.59" cy="75.354" r="1.45"/>
		<circle fill="#F9B800" cx="328.752" cy="143.979" r="1.45"/>
		<circle fill="#F9B800" cx="328.752" cy="133.422" r="1.45"/>
		<circle fill="#F9B800" cx="328.752" cy="122.864" r="1.451"/>
		<circle fill="#F9B800" cx="328.752" cy="112.307" r="1.45"/>
		<circle fill="#F9B800" cx="328.752" cy="101.748" r="1.45"/>
		<circle fill="#F9B800" cx="328.752" cy="91.19" r="1.45"/>
		<circle fill="#F9B800" cx="328.752" cy="80.633" r="1.45"/>
		<circle fill="#F9B800" cx="334.031" cy="149.258" r="1.45"/>
		<circle fill="#F9B800" cx="334.031" cy="138.7" r="1.45"/>
		<circle fill="#F9B800" cx="334.031" cy="128.143" r="1.45"/>
		<circle fill="#F9B800" cx="334.031" cy="117.585" r="1.45"/>
		<circle fill="#F9B800" cx="334.031" cy="107.027" r="1.45"/>
		<circle fill="#F9B800" cx="334.031" cy="96.469" r="1.45"/>
		<circle fill="#F9B800" cx="334.031" cy="85.912" r="1.45"/>
		<circle fill="#F9B800" cx="334.031" cy="75.354" r="1.45"/>
		<circle fill="#F9B800" cx="318.194" cy="143.979" r="1.45"/>
		<circle fill="#F9B800" cx="318.194" cy="133.422" r="1.45"/>
		<circle fill="#F9B800" cx="318.194" cy="122.864" r="1.451"/>
		<circle fill="#F9B800" cx="318.194" cy="112.307" r="1.45"/>
		<circle fill="#F9B800" cx="318.195" cy="101.748" r="1.45"/>
		<circle fill="#F9B800" cx="318.195" cy="91.19" r="1.45"/>
		<circle fill="#F9B800" cx="318.195" cy="80.633" r="1.45"/>
		<circle fill="#F9B800" cx="323.474" cy="149.258" r="1.45"/>
		<circle fill="#F9B800" cx="323.474" cy="138.7" r="1.45"/>
		<circle fill="#F9B800" cx="323.474" cy="128.143" r="1.45"/>
		<circle fill="#F9B800" cx="323.474" cy="117.585" r="1.45"/>
		<circle fill="#F9B800" cx="323.474" cy="107.027" r="1.45"/>
		<circle fill="#F9B800" cx="323.474" cy="96.469" r="1.45"/>
		<circle fill="#F9B800" cx="323.474" cy="85.912" r="1.45"/>
		<circle fill="#F9B800" cx="323.474" cy="75.354" r="1.45"/>
		<circle fill="#F9B800" cx="307.636" cy="143.979" r="1.45"/>
		<circle fill="#F9B800" cx="307.636" cy="133.422" r="1.45"/>
		<circle fill="#F9B800" cx="307.636" cy="122.864" r="1.451"/>
		<circle fill="#F9B800" cx="307.636" cy="112.307" r="1.45"/>
		<circle fill="#F9B800" cx="307.637" cy="101.748" r="1.45"/>
		<circle fill="#F9B800" cx="307.637" cy="91.19" r="1.45"/>
		<circle fill="#F9B800" cx="307.637" cy="80.633" r="1.45"/>
		<circle fill="#F9B800" cx="312.915" cy="149.258" r="1.45"/>
		<circle fill="#F9B800" cx="312.915" cy="138.7" r="1.45"/>
		<circle fill="#F9B800" cx="312.915" cy="128.143" r="1.45"/>
		<circle fill="#F9B800" cx="312.915" cy="117.585" r="1.45"/>
		<circle fill="#F9B800" cx="312.916" cy="107.027" r="1.45"/>
		<circle fill="#F9B800" cx="312.916" cy="96.469" r="1.45"/>
		<circle fill="#F9B800" cx="312.916" cy="85.912" r="1.45"/>
		<circle fill="#F9B800" cx="312.916" cy="75.354" r="1.45"/>
		<circle fill="#F9B800" cx="297.078" cy="143.979" r="1.45"/>
		<circle fill="#F9B800" cx="297.078" cy="133.422" r="1.45"/>
		<circle fill="#F9B800" cx="297.078" cy="122.864" r="1.451"/>
		<circle fill="#F9B800" cx="297.078" cy="112.307" r="1.45"/>
		<circle fill="#F9B800" cx="297.078" cy="101.748" r="1.45"/>
		<circle fill="#F9B800" cx="297.078" cy="91.19" r="1.45"/>
		<circle fill="#F9B800" cx="297.078" cy="80.633" r="1.45"/>
		<circle fill="#F9B800" cx="302.357" cy="149.258" r="1.45"/>
		<circle fill="#F9B800" cx="302.357" cy="138.7" r="1.45"/>
		<circle fill="#F9B800" cx="302.357" cy="128.143" r="1.45"/>
		<circle fill="#F9B800" cx="302.357" cy="117.585" r="1.45"/>
		<circle fill="#F9B800" cx="302.357" cy="107.027" r="1.45"/>
		<circle fill="#F9B800" cx="302.357" cy="96.469" r="1.45"/>
		<circle fill="#F9B800" cx="302.357" cy="85.912" r="1.45"/>
		<circle fill="#F9B800" cx="302.357" cy="75.354" r="1.45"/>
		<circle fill="#F9B800" cx="286.52" cy="143.979" r="1.45"/>
		<circle fill="#F9B800" cx="286.52" cy="133.422" r="1.45"/>
		<circle fill="#F9B800" cx="286.52" cy="122.864" r="1.451"/>
		<circle fill="#F9B800" cx="286.52" cy="112.307" r="1.45"/>
		<circle fill="#F9B800" cx="286.52" cy="101.748" r="1.45"/>
		<circle fill="#F9B800" cx="286.52" cy="91.19" r="1.45"/>
		<circle fill="#F9B800" cx="286.52" cy="80.633" r="1.45"/>
		<circle fill="#F9B800" cx="291.799" cy="149.258" r="1.45"/>
		<circle fill="#F9B800" cx="291.799" cy="138.7" r="1.45"/>
		<circle fill="#F9B800" cx="291.799" cy="128.143" r="1.45"/>
		<circle fill="#F9B800" cx="291.799" cy="117.585" r="1.45"/>
		<circle fill="#F9B800" cx="291.799" cy="107.027" r="1.45"/>
		<circle fill="#F9B800" cx="291.799" cy="96.469" r="1.45"/>
		<circle fill="#F9B800" cx="291.799" cy="85.912" r="1.45"/>
		<circle fill="#F9B800" cx="291.799" cy="75.354" r="1.45"/>
		<circle fill="#F9B800" cx="275.962" cy="143.979" r="1.45"/>
		<circle fill="#F9B800" cx="275.962" cy="133.422" r="1.45"/>
		<circle fill="#F9B800" cx="275.962" cy="122.864" r="1.451"/>
		<circle fill="#F9B800" cx="275.962" cy="112.307" r="1.45"/>
		<circle fill="#F9B800" cx="275.963" cy="101.748" r="1.45"/>
		<circle fill="#F9B800" cx="275.963" cy="91.19" r="1.45"/>
		<circle fill="#F9B800" cx="275.963" cy="80.633" r="1.45"/>
		<circle fill="#F9B800" cx="281.24" cy="149.258" r="1.45"/>
		<circle fill="#F9B800" cx="281.24" cy="138.7" r="1.45"/>
		<circle fill="#F9B800" cx="281.24" cy="128.143" r="1.45"/>
		<circle fill="#F9B800" cx="281.24" cy="117.585" r="1.45"/>
		<circle fill="#F9B800" cx="281.24" cy="107.027" r="1.45"/>
		<circle fill="#F9B800" cx="281.24" cy="96.469" r="1.45"/>
		<circle fill="#F9B800" cx="281.24" cy="85.912" r="1.45"/>
		<circle fill="#F9B800" cx="281.24" cy="75.354" r="1.45"/>
		<circle fill="#F9B800" cx="265.403" cy="143.979" r="1.45"/>
		<circle fill="#F9B800" cx="265.403" cy="133.422" r="1.45"/>
		<circle fill="#F9B800" cx="265.403" cy="122.864" r="1.451"/>
		<circle fill="#F9B800" cx="265.403" cy="112.307" r="1.45"/>
		<circle fill="#F9B800" cx="265.404" cy="101.748" r="1.45"/>
		<circle fill="#F9B800" cx="265.404" cy="91.19" r="1.45"/>
		<circle fill="#F9B800" cx="265.404" cy="80.633" r="1.45"/>
		<circle fill="#F9B800" cx="270.683" cy="149.258" r="1.45"/>
		<circle fill="#F9B800" cx="270.683" cy="138.7" r="1.45"/>
		<circle fill="#F9B800" cx="270.683" cy="128.143" r="1.45"/>
		<circle fill="#F9B800" cx="270.683" cy="117.585" r="1.45"/>
		<circle fill="#F9B800" cx="270.683" cy="107.027" r="1.45"/>
		<circle fill="#F9B800" cx="270.684" cy="96.469" r="1.45"/>
		<circle fill="#F9B800" cx="270.684" cy="85.912" r="1.45"/>
		<circle fill="#F9B800" cx="270.684" cy="75.354" r="1.45"/>
		<circle fill="#F9B800" cx="254.846" cy="143.979" r="1.45"/>
		<circle fill="#F9B800" cx="254.846" cy="133.422" r="1.45"/>
		<circle fill="#F9B800" cx="254.846" cy="122.864" r="1.451"/>
		<circle fill="#F9B800" cx="254.846" cy="112.307" r="1.45"/>
		<circle fill="#F9B800" cx="254.846" cy="101.748" r="1.45"/>
		<circle fill="#F9B800" cx="254.846" cy="91.19" r="1.45"/>
		<circle fill="#F9B800" cx="254.846" cy="80.633" r="1.45"/>
		<circle fill="#F9B800" cx="260.125" cy="149.258" r="1.45"/>
		<circle fill="#F9B800" cx="260.125" cy="138.7" r="1.45"/>
		<circle fill="#F9B800" cx="260.125" cy="128.143" r="1.45"/>
		<circle fill="#F9B800" cx="260.125" cy="117.585" r="1.45"/>
		<circle fill="#F9B800" cx="260.125" cy="107.027" r="1.45"/>
		<circle fill="#F9B800" cx="260.125" cy="96.469" r="1.45"/>
		<circle fill="#F9B800" cx="260.125" cy="85.912" r="1.45"/>
		<circle fill="#F9B800" cx="260.125" cy="75.354" r="1.45"/>
		<circle fill="#F9B800" cx="244.288" cy="143.979" r="1.45"/>
		<circle fill="#F9B800" cx="244.288" cy="133.422" r="1.45"/>
		<circle fill="#F9B800" cx="244.288" cy="122.864" r="1.451"/>
		<circle fill="#F9B800" cx="244.288" cy="112.307" r="1.45"/>
		<circle fill="#F9B800" cx="244.288" cy="101.748" r="1.45"/>
		<circle fill="#F9B800" cx="244.288" cy="91.19" r="1.45"/>
		<circle fill="#F9B800" cx="244.288" cy="80.633" r="1.45"/>
		<circle fill="#F9B800" cx="249.566" cy="149.258" r="1.45"/>
		<circle fill="#F9B800" cx="249.566" cy="138.7" r="1.45"/>
		<circle fill="#F9B800" cx="249.566" cy="128.143" r="1.45"/>
		<circle fill="#F9B800" cx="249.566" cy="117.585" r="1.45"/>
		<circle fill="#F9B800" cx="249.566" cy="107.027" r="1.45"/>
		<circle fill="#F9B800" cx="249.566" cy="96.469" r="1.45"/>
		<circle fill="#F9B800" cx="249.566" cy="85.912" r="1.45"/>
		<circle fill="#F9B800" cx="249.566" cy="75.354" r="1.45"/>
		<circle fill="#F9B800" cx="233.729" cy="143.979" r="1.45"/>
		<circle fill="#F9B800" cx="233.729" cy="133.422" r="1.45"/>
		<circle fill="#F9B800" cx="233.729" cy="122.864" r="1.451"/>
		<circle fill="#F9B800" cx="233.729" cy="112.307" r="1.45"/>
		<circle fill="#F9B800" cx="233.729" cy="101.748" r="1.45"/>
		<circle fill="#F9B800" cx="233.729" cy="91.19" r="1.45"/>
		<circle fill="#F9B800" cx="233.729" cy="80.633" r="1.45"/>
		<circle fill="#F9B800" cx="239.008" cy="149.258" r="1.45"/>
		<circle fill="#F9B800" cx="239.008" cy="138.7" r="1.45"/>
		<circle fill="#F9B800" cx="239.008" cy="128.143" r="1.45"/>
		<circle fill="#F9B800" cx="239.008" cy="117.585" r="1.45"/>
		<circle fill="#F9B800" cx="239.008" cy="107.027" r="1.45"/>
		<circle fill="#F9B800" cx="239.008" cy="96.469" r="1.45"/>
		<circle fill="#F9B800" cx="239.008" cy="85.912" r="1.45"/>
		<circle fill="#F9B800" cx="239.008" cy="75.354" r="1.45"/>
		<circle fill="#F9B800" cx="223.171" cy="143.979" r="1.45"/>
		<circle fill="#F9B800" cx="223.171" cy="133.422" r="1.45"/>
		<circle fill="#F9B800" cx="223.171" cy="122.864" r="1.451"/>
		<circle fill="#F9B800" cx="223.171" cy="112.306" r="1.45"/>
		<circle fill="#F9B800" cx="223.172" cy="101.748" r="1.45"/>
		<circle fill="#F9B800" cx="223.172" cy="91.19" r="1.45"/>
		<circle fill="#F9B800" cx="223.172" cy="80.633" r="1.45"/>
		<circle fill="#F9B800" cx="228.45" cy="149.258" r="1.45"/>
		<circle fill="#F9B800" cx="228.45" cy="138.7" r="1.45"/>
		<circle fill="#F9B800" cx="228.45" cy="128.143" r="1.45"/>
		<circle fill="#F9B800" cx="228.45" cy="117.585" r="1.45"/>
		<circle fill="#F9B800" cx="228.451" cy="107.027" r="1.45"/>
		<circle fill="#F9B800" cx="228.451" cy="96.469" r="1.45"/>
		<circle fill="#F9B800" cx="228.451" cy="85.912" r="1.45"/>
		<circle fill="#F9B800" cx="228.451" cy="75.354" r="1.45"/>
		<circle fill="#F9B800" cx="212.613" cy="143.979" r="1.45"/>
		<circle fill="#F9B800" cx="212.613" cy="133.422" r="1.45"/>
		<circle fill="#F9B800" cx="212.613" cy="122.864" r="1.451"/>
		<circle fill="#F9B800" cx="212.613" cy="112.306" r="1.45"/>
		<circle fill="#F9B800" cx="212.613" cy="101.748" r="1.45"/>
		<circle fill="#F9B800" cx="212.613" cy="91.19" r="1.45"/>
		<circle fill="#F9B800" cx="212.613" cy="80.633" r="1.45"/>
		<circle fill="#F9B800" cx="217.893" cy="149.258" r="1.45"/>
		<circle fill="#F9B800" cx="217.893" cy="138.7" r="1.45"/>
		<circle fill="#F9B800" cx="217.893" cy="128.143" r="1.45"/>
		<circle fill="#F9B800" cx="217.893" cy="117.585" r="1.45"/>
		<circle fill="#F9B800" cx="217.893" cy="107.027" r="1.45"/>
		<circle fill="#F9B800" cx="217.893" cy="96.469" r="1.45"/>
		<circle fill="#F9B800" cx="217.893" cy="85.912" r="1.45"/>
		<circle fill="#F9B800" cx="217.893" cy="75.354" r="1.45"/>
		<circle fill="#F9B800" cx="202.056" cy="143.979" r="1.45"/>
		<circle fill="#F9B800" cx="202.056" cy="133.422" r="1.45"/>
		<circle fill="#F9B800" cx="202.056" cy="122.864" r="1.451"/>
		<circle fill="#F9B800" cx="202.056" cy="112.306" r="1.45"/>
		<circle fill="#F9B800" cx="202.057" cy="101.748" r="1.45"/>
		<circle fill="#F9B800" cx="202.057" cy="91.19" r="1.45"/>
		<circle fill="#F9B800" cx="202.057" cy="80.633" r="1.45"/>
		<circle fill="#F9B800" cx="207.334" cy="149.258" r="1.45"/>
		<circle fill="#F9B800" cx="207.334" cy="138.7" r="1.45"/>
		<circle fill="#F9B800" cx="207.334" cy="128.143" r="1.45"/>
		<circle fill="#F9B800" cx="207.334" cy="117.585" r="1.45"/>
		<circle fill="#F9B800" cx="207.334" cy="107.027" r="1.45"/>
		<circle fill="#F9B800" cx="207.334" cy="96.469" r="1.45"/>
		<circle fill="#F9B800" cx="207.334" cy="85.912" r="1.45"/>
		<circle fill="#F9B800" cx="207.334" cy="75.354" r="1.45"/>
		<circle fill="#F9B800" cx="191.497" cy="143.979" r="1.45"/>
		<circle fill="#F9B800" cx="191.497" cy="133.422" r="1.45"/>
		<circle fill="#F9B800" cx="191.497" cy="122.864" r="1.451"/>
		<circle fill="#F9B800" cx="191.497" cy="112.306" r="1.45"/>
		<circle fill="#F9B800" cx="191.497" cy="101.748" r="1.45"/>
		<circle fill="#F9B800" cx="191.497" cy="91.19" r="1.45"/>
		<circle fill="#F9B800" cx="191.497" cy="80.633" r="1.45"/>
		<circle fill="#F9B800" cx="196.775" cy="149.258" r="1.45"/>
		<circle fill="#F9B800" cx="196.775" cy="138.7" r="1.45"/>
		<circle fill="#F9B800" cx="196.775" cy="128.143" r="1.45"/>
		<circle fill="#F9B800" cx="196.775" cy="117.585" r="1.45"/>
		<circle fill="#F9B800" cx="196.775" cy="107.027" r="1.45"/>
		<circle fill="#F9B800" cx="196.775" cy="96.469" r="1.45"/>
		<circle fill="#F9B800" cx="196.775" cy="85.912" r="1.45"/>
		<circle fill="#F9B800" cx="196.775" cy="75.354" r="1.45"/>
		<circle fill="#F9B800" cx="180.938" cy="143.979" r="1.45"/>
		<circle fill="#F9B800" cx="180.938" cy="133.422" r="1.45"/>
		<circle fill="#F9B800" cx="180.938" cy="122.864" r="1.451"/>
		<circle fill="#F9B800" cx="180.938" cy="112.306" r="1.45"/>
		<circle fill="#F9B800" cx="180.939" cy="101.748" r="1.45"/>
		<circle fill="#F9B800" cx="180.939" cy="91.19" r="1.45"/>
		<circle fill="#F9B800" cx="180.939" cy="80.633" r="1.45"/>
		<circle fill="#F9B800" cx="186.218" cy="149.258" r="1.45"/>
		<circle fill="#F9B800" cx="186.218" cy="138.7" r="1.45"/>
		<circle fill="#F9B800" cx="186.218" cy="128.143" r="1.45"/>
		<circle fill="#F9B800" cx="186.218" cy="117.585" r="1.45"/>
		<circle fill="#F9B800" cx="186.218" cy="107.027" r="1.45"/>
		<circle fill="#F9B800" cx="186.219" cy="96.469" r="1.45"/>
		<circle fill="#F9B800" cx="186.219" cy="85.912" r="1.45"/>
		<circle fill="#F9B800" cx="186.219" cy="75.354" r="1.45"/>
		<circle fill="#F9B800" cx="170.381" cy="143.979" r="1.45"/>
		<circle fill="#F9B800" cx="170.381" cy="133.422" r="1.45"/>
		<circle fill="#F9B800" cx="170.381" cy="122.864" r="1.451"/>
		<circle fill="#F9B800" cx="170.381" cy="112.306" r="1.45"/>
		<circle fill="#F9B800" cx="170.381" cy="101.748" r="1.45"/>
		<circle fill="#F9B800" cx="170.381" cy="91.19" r="1.45"/>
		<circle fill="#F9B800" cx="170.381" cy="80.633" r="1.45"/>
		<circle fill="#F9B800" cx="175.66" cy="149.258" r="1.45"/>
		<circle fill="#F9B800" cx="175.66" cy="138.7" r="1.45"/>
		<circle fill="#F9B800" cx="175.66" cy="128.143" r="1.45"/>
		<circle fill="#F9B800" cx="175.66" cy="117.585" r="1.45"/>
		<circle fill="#F9B800" cx="175.66" cy="107.027" r="1.45"/>
		<circle fill="#F9B800" cx="175.66" cy="96.469" r="1.45"/>
		<circle fill="#F9B800" cx="175.66" cy="85.912" r="1.45"/>
		<circle fill="#F9B800" cx="175.66" cy="75.354" r="1.45"/>
		<circle fill="#F9B800" cx="159.823" cy="143.979" r="1.45"/>
		<circle fill="#F9B800" cx="159.823" cy="133.422" r="1.45"/>
		<circle fill="#F9B800" cx="159.823" cy="122.864" r="1.451"/>
		<circle fill="#F9B800" cx="159.823" cy="112.306" r="1.45"/>
		<circle fill="#F9B800" cx="159.823" cy="101.748" r="1.45"/>
		<circle fill="#F9B800" cx="159.823" cy="91.19" r="1.45"/>
		<circle fill="#F9B800" cx="159.823" cy="80.633" r="1.45"/>
		<circle fill="#F9B800" cx="165.102" cy="149.258" r="1.45"/>
		<circle fill="#F9B800" cx="165.102" cy="138.7" r="1.45"/>
		<circle fill="#F9B800" cx="165.102" cy="128.143" r="1.45"/>
		<circle fill="#F9B800" cx="165.102" cy="117.585" r="1.45"/>
		<circle fill="#F9B800" cx="165.102" cy="107.027" r="1.45"/>
		<circle fill="#F9B800" cx="165.102" cy="96.469" r="1.45"/>
		<circle fill="#F9B800" cx="165.102" cy="85.912" r="1.45"/>
		<circle fill="#F9B800" cx="165.102" cy="75.354" r="1.45"/>
		<circle fill="#F9B800" cx="149.264" cy="143.979" r="1.45"/>
		<circle fill="#F9B800" cx="149.264" cy="133.422" r="1.45"/>
		<circle fill="#F9B800" cx="149.264" cy="122.864" r="1.451"/>
		<circle fill="#F9B800" cx="149.264" cy="112.306" r="1.45"/>
		<circle fill="#F9B800" cx="149.264" cy="101.748" r="1.45"/>
		<circle fill="#F9B800" cx="149.264" cy="91.19" r="1.45"/>
		<circle fill="#F9B800" cx="149.264" cy="80.633" r="1.45"/>
		<circle fill="#F9B800" cx="154.544" cy="149.258" r="1.45"/>
		<circle fill="#F9B800" cx="154.544" cy="138.7" r="1.45"/>
		<circle fill="#F9B800" cx="154.544" cy="128.143" r="1.45"/>
		<circle fill="#F9B800" cx="154.544" cy="117.585" r="1.45"/>
		<circle fill="#F9B800" cx="154.544" cy="107.027" r="1.45"/>
		<circle fill="#F9B800" cx="154.544" cy="96.469" r="1.45"/>
		<circle fill="#F9B800" cx="154.544" cy="85.912" r="1.45"/>
		<circle fill="#F9B800" cx="154.544" cy="75.354" r="1.45"/>
		<circle fill="#F9B800" cx="138.706" cy="143.979" r="1.45"/>
		<circle fill="#F9B800" cx="138.706" cy="133.422" r="1.45"/>
		<circle fill="#F9B800" cx="138.706" cy="122.864" r="1.451"/>
		<circle fill="#F9B800" cx="138.706" cy="112.306" r="1.45"/>
		<circle fill="#F9B800" cx="138.707" cy="101.748" r="1.45"/>
		<circle fill="#F9B800" cx="138.707" cy="91.19" r="1.45"/>
		<circle fill="#F9B800" cx="138.707" cy="80.633" r="1.45"/>
		<circle fill="#F9B800" cx="143.985" cy="149.258" r="1.45"/>
		<circle fill="#F9B800" cx="143.985" cy="138.7" r="1.45"/>
		<circle fill="#F9B800" cx="143.985" cy="128.143" r="1.45"/>
		<circle fill="#F9B800" cx="143.985" cy="117.585" r="1.45"/>
		<circle fill="#F9B800" cx="143.986" cy="107.027" r="1.45"/>
		<circle fill="#F9B800" cx="143.986" cy="96.469" r="1.45"/>
		<circle fill="#F9B800" cx="143.986" cy="85.912" r="1.45"/>
		<circle fill="#F9B800" cx="143.986" cy="75.354" r="1.45"/>
		<circle fill="#F9B800" cx="128.148" cy="143.979" r="1.45"/>
		<circle fill="#F9B800" cx="128.148" cy="133.422" r="1.45"/>
		<circle fill="#F9B800" cx="128.148" cy="122.864" r="1.451"/>
		<circle fill="#F9B800" cx="128.148" cy="112.306" r="1.45"/>
		<circle fill="#F9B800" cx="128.148" cy="101.748" r="1.45"/>
		<circle fill="#F9B800" cx="128.148" cy="91.19" r="1.45"/>
		<circle fill="#F9B800" cx="128.148" cy="80.633" r="1.45"/>
		<circle fill="#F9B800" cx="133.428" cy="149.258" r="1.45"/>
		<circle fill="#F9B800" cx="133.428" cy="138.7" r="1.45"/>
		<circle fill="#F9B800" cx="133.428" cy="128.143" r="1.45"/>
		<circle fill="#F9B800" cx="133.428" cy="117.585" r="1.45"/>
		<circle fill="#F9B800" cx="133.428" cy="107.027" r="1.45"/>
		<circle fill="#F9B800" cx="133.428" cy="96.469" r="1.45"/>
		<circle fill="#F9B800" cx="133.428" cy="85.912" r="1.45"/>
		<circle fill="#F9B800" cx="133.428" cy="75.354" r="1.45"/>
		<circle fill="#F9B800" cx="117.59" cy="143.979" r="1.45"/>
		<circle fill="#F9B800" cx="117.59" cy="133.422" r="1.45"/>
		<circle fill="#F9B800" cx="117.59" cy="122.864" r="1.451"/>
		<circle fill="#F9B800" cx="117.59" cy="112.306" r="1.45"/>
		<circle fill="#F9B800" cx="117.59" cy="101.748" r="1.45"/>
		<circle fill="#F9B800" cx="117.59" cy="91.19" r="1.45"/>
		<circle fill="#F9B800" cx="117.59" cy="80.633" r="1.45"/>
		<circle fill="#F9B800" cx="122.869" cy="149.258" r="1.45"/>
		<circle fill="#F9B800" cx="122.869" cy="138.7" r="1.45"/>
		<circle fill="#F9B800" cx="122.869" cy="128.143" r="1.45"/>
		<circle fill="#F9B800" cx="122.869" cy="117.585" r="1.45"/>
		<circle fill="#F9B800" cx="122.869" cy="107.027" r="1.45"/>
		<circle fill="#F9B800" cx="122.869" cy="96.469" r="1.45"/>
		<circle fill="#F9B800" cx="122.869" cy="85.912" r="1.45"/>
		<circle fill="#F9B800" cx="122.869" cy="75.354" r="1.45"/>
		<circle fill="#F9B800" cx="107.032" cy="143.979" r="1.45"/>
		<circle fill="#F9B800" cx="107.032" cy="133.422" r="1.45"/>
		<circle fill="#F9B800" cx="107.032" cy="122.864" r="1.451"/>
		<circle fill="#F9B800" cx="107.032" cy="112.306" r="1.45"/>
		<circle fill="#F9B800" cx="107.033" cy="101.748" r="1.45"/>
		<circle fill="#F9B800" cx="107.033" cy="91.19" r="1.45"/>
		<circle fill="#F9B800" cx="107.033" cy="80.633" r="1.45"/>
		<circle fill="#F9B800" cx="112.311" cy="149.258" r="1.45"/>
		<circle fill="#F9B800" cx="112.311" cy="138.7" r="1.45"/>
		<circle fill="#F9B800" cx="112.311" cy="128.143" r="1.45"/>
		<circle fill="#F9B800" cx="112.311" cy="117.585" r="1.45"/>
		<circle fill="#F9B800" cx="112.311" cy="107.027" r="1.45"/>
		<circle fill="#F9B800" cx="112.311" cy="96.469" r="1.45"/>
		<circle fill="#F9B800" cx="112.311" cy="85.912" r="1.45"/>
		<circle fill="#F9B800" cx="112.311" cy="75.354" r="1.45"/>
		<circle fill="#F9B800" cx="96.474" cy="143.979" r="1.45"/>
		<circle fill="#F9B800" cx="96.474" cy="133.422" r="1.45"/>
		<circle fill="#F9B800" cx="96.474" cy="122.864" r="1.451"/>
		<circle fill="#F9B800" cx="96.474" cy="112.306" r="1.45"/>
		<circle fill="#F9B800" cx="96.475" cy="101.748" r="1.45"/>
		<circle fill="#F9B800" cx="96.475" cy="91.19" r="1.45"/>
		<circle fill="#F9B800" cx="96.475" cy="80.633" r="1.45"/>
		<circle fill="#F9B800" cx="101.753" cy="149.258" r="1.45"/>
		<circle fill="#F9B800" cx="101.753" cy="138.7" r="1.45"/>
		<circle fill="#F9B800" cx="101.753" cy="128.143" r="1.45"/>
		<circle fill="#F9B800" cx="101.753" cy="117.585" r="1.45"/>
		<circle fill="#F9B800" cx="101.753" cy="107.027" r="1.45"/>
		<circle fill="#F9B800" cx="101.754" cy="96.469" r="1.45"/>
		<circle fill="#F9B800" cx="101.754" cy="85.912" r="1.45"/>
		<circle fill="#F9B800" cx="101.754" cy="75.354" r="1.45"/>
		<circle fill="#F9B800" cx="85.916" cy="143.979" r="1.45"/>
		<circle fill="#F9B800" cx="85.916" cy="133.422" r="1.45"/>
		<circle fill="#F9B800" cx="85.916" cy="122.864" r="1.451"/>
		<circle fill="#F9B800" cx="85.916" cy="112.306" r="1.45"/>
		<circle fill="#F9B800" cx="85.916" cy="101.748" r="1.45"/>
		<circle fill="#F9B800" cx="85.916" cy="91.19" r="1.45"/>
		<circle fill="#F9B800" cx="85.916" cy="80.633" r="1.45"/>
		<circle fill="#F9B800" cx="91.194" cy="149.258" r="1.45"/>
		<circle fill="#F9B800" cx="91.194" cy="138.7" r="1.45"/>
		<circle fill="#F9B800" cx="91.194" cy="128.143" r="1.45"/>
		<circle fill="#F9B800" cx="91.194" cy="117.585" r="1.45"/>
		<circle fill="#F9B800" cx="91.195" cy="107.027" r="1.45"/>
		<circle fill="#F9B800" cx="91.195" cy="96.469" r="1.45"/>
		<circle fill="#F9B800" cx="91.195" cy="85.912" r="1.45"/>
		<circle fill="#F9B800" cx="91.195" cy="75.354" r="1.45"/>
		<circle fill="#F9B800" cx="75.358" cy="143.979" r="1.45"/>
		<circle fill="#F9B800" cx="75.358" cy="133.422" r="1.45"/>
		<circle fill="#F9B800" cx="75.358" cy="122.864" r="1.451"/>
		<circle fill="#F9B800" cx="75.358" cy="112.306" r="1.45"/>
		<circle fill="#F9B800" cx="75.358" cy="101.748" r="1.45"/>
		<circle fill="#F9B800" cx="75.358" cy="91.19" r="1.45"/>
		<circle fill="#F9B800" cx="75.358" cy="80.633" r="1.45"/>
		<circle fill="#F9B800" cx="80.637" cy="149.258" r="1.45"/>
		<circle fill="#F9B800" cx="80.637" cy="138.7" r="1.45"/>
		<circle fill="#F9B800" cx="80.637" cy="128.143" r="1.45"/>
		<circle fill="#F9B800" cx="80.637" cy="117.585" r="1.45"/>
		<circle fill="#F9B800" cx="80.637" cy="107.027" r="1.45"/>
		<circle fill="#F9B800" cx="80.637" cy="96.469" r="1.45"/>
		<circle fill="#F9B800" cx="80.637" cy="85.912" r="1.45"/>
		<circle fill="#F9B800" cx="80.637" cy="75.354" r="1.45"/>
		<circle fill="#F9B800" cx="64.8" cy="143.979" r="1.45"/>
		<circle fill="#F9B800" cx="64.8" cy="133.422" r="1.45"/>
		<circle fill="#F9B800" cx="64.8" cy="122.864" r="1.451"/>
		<circle fill="#F9B800" cx="64.8" cy="112.306" r="1.45"/>
		<circle fill="#F9B800" cx="64.801" cy="101.748" r="1.45"/>
		<circle fill="#F9B800" cx="64.801" cy="91.19" r="1.45"/>
		<circle fill="#F9B800" cx="64.801" cy="80.633" r="1.45"/>
		<circle fill="#F9B800" cx="70.078" cy="149.258" r="1.45"/>
		<circle fill="#F9B800" cx="70.078" cy="138.7" r="1.45"/>
		<circle fill="#F9B800" cx="70.078" cy="128.143" r="1.45"/>
		<circle fill="#F9B800" cx="70.078" cy="117.585" r="1.45"/>
		<circle fill="#F9B800" cx="70.078" cy="107.027" r="1.45"/>
		<circle fill="#F9B800" cx="70.078" cy="96.469" r="1.45"/>
		<circle fill="#F9B800" cx="70.078" cy="85.912" r="1.45"/>
		<circle fill="#F9B800" cx="70.078" cy="75.354" r="1.45"/>
		<circle fill="#F9B800" cx="54.241" cy="143.979" r="1.45"/>
		<circle fill="#F9B800" cx="54.241" cy="133.422" r="1.45"/>
		<circle fill="#F9B800" cx="54.241" cy="122.864" r="1.451"/>
		<circle fill="#F9B800" cx="54.241" cy="112.306" r="1.45"/>
		<circle fill="#F9B800" cx="54.242" cy="101.748" r="1.45"/>
		<circle fill="#F9B800" cx="54.242" cy="91.19" r="1.45"/>
		<circle fill="#F9B800" cx="54.242" cy="80.633" r="1.45"/>
		<circle fill="#F9B800" cx="59.521" cy="149.258" r="1.45"/>
		<circle fill="#F9B800" cx="59.521" cy="138.7" r="1.45"/>
		<circle fill="#F9B800" cx="59.521" cy="128.143" r="1.45"/>
		<circle fill="#F9B800" cx="59.521" cy="117.585" r="1.45"/>
		<circle fill="#F9B800" cx="59.521" cy="107.027" r="1.45"/>
		<circle fill="#F9B800" cx="59.521" cy="96.469" r="1.45"/>
		<circle fill="#F9B800" cx="59.521" cy="85.912" r="1.45"/>
		<circle fill="#F9B800" cx="59.521" cy="75.354" r="1.45"/>
		<circle fill="#F9B800" cx="43.684" cy="143.979" r="1.45"/>
		<circle fill="#F9B800" cx="43.684" cy="133.422" r="1.45"/>
		<circle fill="#F9B800" cx="43.684" cy="122.864" r="1.451"/>
		<circle fill="#F9B800" cx="43.684" cy="112.306" r="1.45"/>
		<circle fill="#F9B800" cx="43.684" cy="101.748" r="1.45"/>
		<circle fill="#F9B800" cx="43.684" cy="91.19" r="1.45"/>
		<circle fill="#F9B800" cx="43.684" cy="80.633" r="1.45"/>
		<circle fill="#F9B800" cx="48.962" cy="149.258" r="1.45"/>
		<circle fill="#F9B800" cx="48.962" cy="138.7" r="1.45"/>
		<circle fill="#F9B800" cx="48.962" cy="128.143" r="1.45"/>
		<circle fill="#F9B800" cx="48.962" cy="117.585" r="1.45"/>
		<circle fill="#F9B800" cx="48.962" cy="107.027" r="1.45"/>
		<circle fill="#F9B800" cx="48.963" cy="96.469" r="1.45"/>
		<circle fill="#F9B800" cx="48.963" cy="85.912" r="1.45"/>
		<circle fill="#F9B800" cx="48.963" cy="75.354" r="1.45"/>
		<circle fill="#F9B800" cx="33.125" cy="143.979" r="1.45"/>
		<circle fill="#F9B800" cx="33.125" cy="133.422" r="1.45"/>
		<circle fill="#F9B800" cx="33.125" cy="122.864" r="1.451"/>
		<circle fill="#F9B800" cx="33.125" cy="112.306" r="1.45"/>
		<circle fill="#F9B800" cx="33.125" cy="101.748" r="1.45"/>
		<circle fill="#F9B800" cx="33.125" cy="91.19" r="1.45"/>
		<circle fill="#F9B800" cx="33.125" cy="80.633" r="1.45"/>
		<circle fill="#F9B800" cx="38.405" cy="149.258" r="1.45"/>
		<circle fill="#F9B800" cx="38.405" cy="138.7" r="1.45"/>
		<circle fill="#F9B800" cx="38.405" cy="128.143" r="1.45"/>
		<circle fill="#F9B800" cx="38.405" cy="117.585" r="1.45"/>
		<circle fill="#F9B800" cx="38.405" cy="107.027" r="1.45"/>
		<circle fill="#F9B800" cx="38.405" cy="96.469" r="1.45"/>
		<circle fill="#F9B800" cx="38.405" cy="85.912" r="1.45"/>
		<circle fill="#F9B800" cx="38.405" cy="75.354" r="1.45"/>
		<circle fill="#F9B800" cx="22.567" cy="143.979" r="1.45"/>
		<circle fill="#F9B800" cx="22.567" cy="133.422" r="1.45"/>
		<circle fill="#F9B800" cx="22.567" cy="122.864" r="1.451"/>
		<circle fill="#F9B800" cx="22.567" cy="112.306" r="1.45"/>
		<circle fill="#F9B800" cx="22.568" cy="101.748" r="1.45"/>
		<circle fill="#F9B800" cx="22.568" cy="91.19" r="1.45"/>
		<circle fill="#F9B800" cx="22.568" cy="80.633" r="1.45"/>
		<circle fill="#F9B800" cx="27.846" cy="149.258" r="1.45"/>
		<circle fill="#F9B800" cx="27.846" cy="138.7" r="1.45"/>
		<circle fill="#F9B800" cx="27.846" cy="128.143" r="1.45"/>
		<circle fill="#F9B800" cx="27.846" cy="117.585" r="1.45"/>
		<circle fill="#F9B800" cx="27.846" cy="107.027" r="1.45"/>
		<circle fill="#F9B800" cx="27.846" cy="96.469" r="1.45"/>
		<circle fill="#F9B800" cx="27.846" cy="85.912" r="1.45"/>
		<circle fill="#F9B800" cx="27.846" cy="75.354" r="1.45"/>
		<circle fill="#F9B800" cx="12.009" cy="143.979" r="1.45"/>
		<circle fill="#F9B800" cx="12.009" cy="133.422" r="1.45"/>
		<circle fill="#F9B800" cx="12.009" cy="122.864" r="1.451"/>
		<circle fill="#F9B800" cx="12.009" cy="112.306" r="1.45"/>
		<circle fill="#F9B800" cx="12.01" cy="101.748" r="1.45"/>
		<circle fill="#F9B800" cx="12.01" cy="91.19" r="1.45"/>
		<circle fill="#F9B800" cx="12.01" cy="80.633" r="1.45"/>
		<circle fill="#F9B800" cx="17.288" cy="149.258" r="1.45"/>
		<circle fill="#F9B800" cx="17.288" cy="138.7" r="1.45"/>
		<circle fill="#F9B800" cx="17.288" cy="128.143" r="1.45"/>
		<circle fill="#F9B800" cx="17.288" cy="117.585" r="1.45"/>
		<circle fill="#F9B800" cx="17.289" cy="107.027" r="1.45"/>
		<circle fill="#F9B800" cx="17.289" cy="96.469" r="1.45"/>
		<circle fill="#F9B800" cx="17.289" cy="85.912" r="1.45"/>
		<circle fill="#F9B800" cx="17.289" cy="75.354" r="1.45"/>
		<circle fill="#F9B800" cx="1.451" cy="143.979" r="1.45"/>
		<circle fill="#F9B800" cx="1.451" cy="133.422" r="1.45"/>
		<circle fill="#F9B800" cx="1.451" cy="122.864" r="1.451"/>
		<circle fill="#F9B800" cx="1.451" cy="112.306" r="1.45"/>
		<circle fill="#F9B800" cx="1.451" cy="101.748" r="1.45"/>
		<circle fill="#F9B800" cx="1.451" cy="91.19" r="1.45"/>
		<circle fill="#F9B800" cx="1.451" cy="80.633" r="1.45"/>
		<circle fill="#F9B800" cx="6.729" cy="149.258" r="1.45"/>
		<circle fill="#F9B800" cx="6.729" cy="138.7" r="1.45"/>
		<circle fill="#F9B800" cx="6.729" cy="128.143" r="1.45"/>
		<circle fill="#F9B800" cx="6.729" cy="117.585" r="1.45"/>
		<circle fill="#F9B800" cx="6.73" cy="107.027" r="1.45"/>
		<circle fill="#F9B800" cx="6.73" cy="96.469" r="1.45"/>
		<circle fill="#F9B800" cx="6.73" cy="85.912" r="1.45"/>
		<circle fill="#F9B800" cx="6.73" cy="75.354" r="1.45"/>
	</g>
</g>
<g>
	<g>
		<path fill="#EB7206" d="M177.936,186.456C178.131,186.242,178.299,186.205,177.936,186.456L177.936,186.456z"/>
		<g>
			<path fill="#EB7206" d="M163.281,176.748c0.162-0.094,0.326-0.188,0.486-0.287c-0.586-2.123-1.169-4.245-1.754-6.369
				c-1.099-3.988-2.196-7.976-3.294-11.964c-0.597,0.019-1.178,0.136-1.696,0.428c0.001,0.021-0.001,0.035-0.001,0.061
				c-0.001,0.676-0.003,1.35-0.006,2.026c-0.006,2.422-0.014,4.843-0.021,7.266c-0.01,3.305-0.02,6.609-0.028,9.915
				C159.134,178.094,161.317,177.901,163.281,176.748z M175.681,177.533c-2.194-0.32-4.521-0.465-6.908-0.442
				c0.011,0.038,0.021,0.077,0.031,0.116c0.122,0.443-0.113,0.75-0.442,1.007c-3.928,3.05-9.523,3.069-14.106,1.922
				c-0.485-0.104-0.954-0.281-1.336-0.523c-2.484,0.784-4.862,1.743-7.04,2.878C155.911,183.841,166.676,182.042,175.681,177.533z
				 M164.047,193.673c1.377-0.213,2.784-0.464,4.197-0.762c2.726-0.658,5.397-1.527,7.966-2.683c1.134-0.511,2.26-1.049,3.339-1.67
				c0.119-0.068,0.221-0.13,0.312-0.185l-1.015-7.334c-8.827,4.322-19.294,6.086-29.162,5.043c-0.115-0.008-0.229-0.021-0.346-0.03
				c-0.007-0.001-0.015-0.001-0.023-0.003c-1.999-0.146-3.956-0.416-5.854-0.803l0.904,6.539c0.06,0.436,0.168,0.736,0.209,0.925
				C150.736,194.697,157.749,194.443,164.047,193.673z M200.1,257.547c-0.965-3.286-1.928-6.57-2.893-9.856
				c-1.637-5.587-3.276-11.174-4.915-16.762c-3.912-13.335-7.823-26.672-11.735-40.008c-7.855,4.159-17.485,6.375-26.73,6.232
				c-3.172,0.053-6.355-0.163-9.44-0.764c-0.22,20.764-0.44,41.529-0.661,62.294c-0.044,4.241-0.09,8.483-0.135,12.725
				c-0.03,2.728-0.175,4.989,1.106,7.44c1.794,3.44,4.057,6.628,6.47,9.661c3.02,3.8,12.475,4.104,17.01,4.013
				c6.785-0.134,13.571-1.274,19.945-3.653c3.762-1.403,7.503-3.01,10.916-5.146c0.213-0.133,0.787-1.256,1.145-2.164
				c1.416-3.613,3.477-8.05,3.24-12.03C203.188,265.607,201.205,261.318,200.1,257.547z"/>
			<g>
				<path fill="#E64C14" d="M197.207,247.691c-1.637-5.587-3.276-11.174-4.915-16.762c-3.912-13.335-7.823-26.672-11.735-40.008
					c-2.787,1.477-5.807,2.695-8.945,3.662c3.689,10.913,21.025,62.996,20.531,76.744c-0.552,15.383-2.274,16.769-2.274,16.769
					l-0.003,0.095c3.167-1.246,6.287-2.662,9.172-4.467c0.213-0.133,0.787-1.256,1.145-2.164c1.416-3.613,3.477-8.05,3.24-12.03
					c-0.234-3.923-2.217-8.212-3.322-11.982C199.135,254.261,198.172,250.977,197.207,247.691z"/>
				<path fill="#E64C14" d="M168.361,178.213c-0.643,0.499-1.335,0.909-2.055,1.255c0.547,0.359,0.961,0.792,1.129,1.293
					c2.855-0.842,5.626-1.916,8.245-3.229c-2.194-0.32-4.521-0.465-6.908-0.442c0.011,0.038,0.021,0.077,0.031,0.116
					C168.926,177.65,168.69,177.957,168.361,178.213z"/>
				<path fill="#E64C14" d="M158.72,158.127c-0.292,0.009-0.577,0.042-0.855,0.107l4.037,19.153c0.47-0.169,0.931-0.376,1.38-0.641
					c0.162-0.094,0.326-0.188,0.486-0.287c-0.586-2.123-1.169-4.245-1.754-6.369C160.915,166.103,159.817,162.116,158.72,158.127z"
					/>
				<path fill="#E64C14" d="M176.21,190.229c1.134-0.511,2.26-1.049,3.339-1.67c0.119-0.068,0.221-0.13,0.312-0.185l-1.015-7.334
					c-3.124,1.53-6.456,2.732-9.892,3.609c1.015,1.988,2.106,4.809,1.984,7.523C172.731,191.634,174.495,191.001,176.21,190.229z"/>
			</g>
		</g>
		<path fill="#1A171B" d="M204.383,260.696c-2.664-9.082-5.326-18.165-7.992-27.246c-3.297-11.241-6.593-22.481-9.89-33.721
			c-1.322-4.51-2.646-9.018-3.968-13.527c0.002-0.044,0.013-0.088,0.006-0.134c-0.496-3.585-0.99-7.168-1.486-10.753
			c0.002-0.026-0.003-0.052-0.011-0.077c-0.01-0.073-0.021-0.148-0.03-0.222c-0.095-0.683-1.158-0.833-2.266-0.64
			c-0.534-0.328-1.077-0.533-1.507-0.516c-3.602-1.123-7.573-1.734-11.659-1.883c-1.53-5.561-3.062-11.122-4.595-16.683
			c-0.237-0.868-1.401-1.306-2.182-1.444c-2.407-0.425-7.016-0.948-8.794,1.423c-0.768,1.023-0.167,4.131-0.171,5.303
			c-0.013,4.377-0.025,8.756-0.038,13.134c-4.86,1.272-9.417,3.21-13.199,5.813c-0.483,0.332-0.462,0.765-0.186,1.209
			c-0.336,0.27-0.527,0.619-0.467,1.062c0.509,3.685,1.018,7.368,1.527,11.053c0.035,0.102,0.093,0.183,0.157,0.257
			c-0.153,14.378-0.306,28.755-0.459,43.134c-0.139,13.095-1.389,26.704-0.365,39.746c0.272,3.474,3.194,7.021,5.121,9.744
			c2.438,3.448,3.497,4.747,7.604,6.09c10.574,3.46,22.742,2.067,33.15-1.305c5.195-1.684,10.247-3.822,14.95-6.612
			c3.4-2.017,3.885-3.204,5.249-6.785C205.131,271.22,206.171,266.79,204.383,260.696z M177.936,186.456
			C178.131,186.242,178.299,186.205,177.936,186.456L177.936,186.456z M154.74,166.201c0.008-2.423,0.015-4.844,0.021-7.266
			c0.003-0.676,0.004-1.352,0.006-2.027c0-0.025,0.001-0.039,0.002-0.061c0.517-0.292,1.098-0.409,1.695-0.428
			c1.097,3.989,2.195,7.977,3.294,11.965c0.584,2.123,1.169,4.246,1.754,6.369c-0.161,0.098-0.324,0.193-0.485,0.287
			c-1.964,1.153-4.149,1.346-6.315,1.074C154.722,172.81,154.73,169.505,154.74,166.201z M150.664,177.905
			c0.383,0.242,0.851,0.418,1.336,0.522c4.582,1.148,10.179,1.129,14.106-1.922c0.329-0.256,0.565-0.562,0.442-1.006
			c-0.01-0.039-0.021-0.078-0.032-0.117c2.388-0.022,4.714,0.123,6.909,0.443c-9.004,4.51-19.77,6.309-29.802,4.957
			C145.803,179.648,148.181,178.689,150.664,177.905z M141.627,186.587c-0.141-1.016-0.281-2.031-0.421-3.047
			c1.897,0.387,3.855,0.656,5.854,0.803c0.008,0.001,0.016,0.002,0.022,0.002c0.117,0.01,0.231,0.023,0.347,0.031
			c9.869,1.042,20.336-0.721,29.163-5.043c0.337,2.444,0.676,4.889,1.014,7.334c-0.092,0.055-0.193,0.115-0.312,0.184
			c-1.079,0.622-2.204,1.16-3.34,1.671c-2.566,1.155-5.238,2.024-7.966,2.683c-1.411,0.298-2.82,0.549-4.197,0.761
			c-6.297,0.771-13.31,1.024-19.472-0.962c-0.042-0.188-0.149-0.489-0.21-0.924C141.949,188.916,141.788,187.751,141.627,186.587z
			 M201.166,267.823c0.237,3.98-1.824,8.417-3.239,12.028c-0.358,0.91-0.933,2.033-1.145,2.165
			c-3.413,2.137-7.154,3.743-10.916,5.146c-6.375,2.379-13.161,3.52-19.946,3.653c-4.534,0.09-13.99-0.213-17.009-4.013
			c-2.413-3.033-4.675-6.221-6.47-9.661c-1.28-2.451-1.136-4.713-1.107-7.441c0.045-4.241,0.092-8.482,0.137-12.725
			c0.22-20.764,0.44-41.529,0.661-62.293c3.083,0.6,6.269,0.816,9.438,0.762c9.245,0.145,18.876-2.072,26.73-6.23
			c3.913,13.336,7.824,26.673,11.735,40.008c1.639,5.588,3.279,11.174,4.917,16.762c0.964,3.285,1.928,6.57,2.891,9.855
			C198.95,259.611,200.933,263.9,201.166,267.823z"/>
	</g>
	<g>
		<path fill="#EB7206" d="M290.801,236.271C291.07,236.165,291.238,236.206,290.801,236.271L290.801,236.271z"/>
		<g>
			<path fill="#F9B800" d="M281.89,221.122c0.187-0.015,0.374-0.027,0.562-0.045c0.404-2.165,0.812-4.329,1.217-6.494
				c0.763-4.065,1.524-8.131,2.286-12.196c-0.545-0.245-1.118-0.395-1.711-0.359c-0.009,0.02-0.017,0.031-0.027,0.054
				c-0.299,0.606-0.596,1.212-0.894,1.818c-1.069,2.174-2.137,4.347-3.205,6.521c-1.458,2.967-2.917,5.932-4.374,8.898
				C277.569,220.511,279.618,221.296,281.89,221.122z M292.688,227.264c-1.832-1.251-3.858-2.401-6.014-3.428
				c-0.008,0.039-0.015,0.079-0.022,0.118c-0.085,0.453-0.432,0.625-0.841,0.711c-4.867,1.019-9.904-1.418-13.52-4.459
				c-0.39-0.307-0.733-0.67-0.971-1.056c-2.577-0.384-5.135-0.565-7.59-0.5C272.154,224.265,282.617,227.368,292.688,227.264z
				 M275.153,236.667c1.331,0.412,2.707,0.805,4.106,1.156c2.739,0.604,5.521,0.995,8.336,1.082
				c1.244,0.039,2.491,0.049,3.734-0.035c0.137-0.01,0.254-0.02,0.359-0.029l2.306-7.037c-9.828,0.016-20.009-2.991-28.419-8.256
				c-0.102-0.058-0.198-0.12-0.299-0.179c-0.007-0.004-0.014-0.009-0.02-0.013c-1.731-1.008-3.373-2.109-4.909-3.288l-2.056,6.272
				c-0.137,0.418-0.172,0.734-0.217,0.922C262.743,231.751,269.157,234.598,275.153,236.667z M279.545,309.882
				c0.574-3.375,1.149-6.75,1.724-10.125c0.978-5.74,1.954-11.48,2.933-17.221c2.332-13.699,4.665-27.4,6.997-41.102
				c-8.883,0.293-18.51-1.939-26.756-6.122c-2.874-1.343-5.641-2.933-8.148-4.825c-9.305,18.564-18.608,37.131-27.913,55.694
				c-1.9,3.792-3.8,7.584-5.701,11.376c-1.223,2.439-2.344,4.408-2.269,7.173c0.104,3.879,0.739,7.735,1.577,11.52
				c1.049,4.739,9.413,9.159,13.528,11.066c6.157,2.854,12.755,4.806,19.527,5.464c3.996,0.389,8.062,0.584,12.067,0.161
				c0.248-0.026,1.258-0.783,1.977-1.443c2.857-2.626,6.655-5.709,8.188-9.39C278.786,318.481,278.885,313.755,279.545,309.882z"/>
			<g>
				<path fill="#F29500" d="M281.269,299.757c0.978-5.74,1.954-11.48,2.933-17.221c2.332-13.699,4.665-27.4,6.997-41.102
					c-3.153,0.104-6.399-0.125-9.646-0.632c-1.47,11.425-8.729,65.836-15.202,77.975c-7.242,13.583-9.397,14.073-9.397,14.073
					l-0.045,0.083c3.394,0.271,6.819,0.366,10.203,0.008c0.248-0.026,1.258-0.783,1.977-1.443c2.857-2.626,6.655-5.709,8.188-9.39
					c1.51-3.628,1.608-8.354,2.269-12.227C280.119,306.507,280.694,303.132,281.269,299.757z"/>
				<path fill="#F29500" d="M285.811,224.666c-0.796,0.166-1.597,0.232-2.396,0.227c0.333,0.563,0.517,1.133,0.447,1.658
					c2.936,0.495,5.897,0.744,8.826,0.714c-1.832-1.251-3.858-2.401-6.014-3.428c-0.008,0.039-0.015,0.079-0.022,0.118
					C286.566,224.408,286.22,224.58,285.811,224.666z"/>
				<path fill="#F29500" d="M285.954,202.386c-0.265-0.119-0.538-0.215-0.815-0.279l-4.771,18.984
					c0.496,0.055,1.001,0.07,1.521,0.03c0.187-0.015,0.374-0.027,0.562-0.045c0.404-2.165,0.812-4.329,1.217-6.494
					C284.431,210.517,285.192,206.452,285.954,202.386z"/>
				<path fill="#F29500" d="M287.596,238.906c1.244,0.039,2.491,0.049,3.734-0.035c0.137-0.01,0.254-0.02,0.359-0.029l2.306-7.037
					c-3.479,0.006-7.001-0.375-10.474-1.093c0.041,2.231-0.216,5.245-1.516,7.631C283.854,238.644,285.717,238.848,287.596,238.906z
					"/>
			</g>
		</g>
		<path fill="#1A171B" d="M282.014,314.591c1.589-9.331,3.178-18.662,4.767-27.992c1.966-11.548,3.932-23.096,5.898-34.643
			c0.788-4.633,1.577-9.265,2.366-13.896c0.021-0.039,0.05-0.073,0.064-0.117c1.126-3.439,2.253-6.877,3.38-10.316
			c0.013-0.023,0.019-0.049,0.023-0.074c0.023-0.07,0.047-0.142,0.07-0.213c0.214-0.654-0.677-1.256-1.757-1.568
			c-0.336-0.528-0.734-0.951-1.127-1.123c-2.744-2.589-6.046-4.88-9.652-6.805c1.062-5.67,2.124-11.34,3.188-17.009
			c0.165-0.885-0.688-1.789-1.329-2.255c-1.978-1.438-5.889-3.929-8.528-2.577c-1.137,0.583-1.961,3.64-2.478,4.69
			c-1.932,3.93-3.862,7.859-5.795,11.787c-4.925-0.986-9.871-1.244-14.412-0.563c-0.579,0.087-0.751,0.485-0.696,1.005
			c-0.42,0.096-0.746,0.325-0.886,0.75c-1.158,3.534-2.315,7.068-3.474,10.603c-0.013,0.107,0.002,0.205,0.029,0.3
			c-6.443,12.855-12.886,25.709-19.327,38.564c-5.869,11.707-12.96,23.391-17.76,35.561c-1.277,3.241-0.208,7.71,0.329,11.002
			c0.68,4.169,1.062,5.801,4.164,8.809c7.985,7.746,19.531,11.83,30.363,13.363c5.408,0.766,10.886,1.06,16.336,0.614
			c3.94-0.321,4.896-1.177,7.694-3.796C278.07,324.376,280.947,320.851,282.014,314.591z M290.801,236.271
			C291.07,236.165,291.238,236.206,290.801,236.271L290.801,236.271z M278.839,207.896c1.068-2.174,2.136-4.347,3.205-6.52
			c0.298-0.607,0.596-1.213,0.894-1.818c0.011-0.023,0.019-0.035,0.028-0.055c0.592-0.035,1.166,0.114,1.71,0.359
			c-0.762,4.065-1.523,8.131-2.285,12.196c-0.405,2.165-0.812,4.329-1.218,6.494c-0.187,0.018-0.375,0.03-0.562,0.045
			c-2.271,0.175-4.319-0.61-6.146-1.804C275.922,213.828,277.381,210.863,278.839,207.896z M270.042,216.628
			c0.238,0.385,0.581,0.748,0.971,1.055c3.616,3.041,8.652,5.478,13.521,4.459c0.408-0.086,0.756-0.258,0.84-0.711
			c0.008-0.039,0.015-0.078,0.022-0.118c2.155,1.027,4.183,2.177,6.014,3.428c-10.069,0.104-20.532-2.999-28.956-8.613
			C264.908,216.062,267.466,216.244,270.042,216.628z M258.113,220.468c0.319-0.975,0.639-1.948,0.957-2.923
			c1.537,1.179,3.178,2.28,4.91,3.288c0.006,0.005,0.013,0.009,0.02,0.013c0.1,0.059,0.196,0.122,0.298,0.179
			c8.411,5.265,18.591,8.271,28.419,8.256c-0.768,2.346-1.537,4.691-2.305,7.037c-0.106,0.01-0.224,0.02-0.36,0.029
			c-1.242,0.084-2.489,0.074-3.734,0.036c-2.814-0.088-5.597-0.479-8.336-1.083c-1.399-0.352-2.775-0.743-4.105-1.156
			c-5.997-2.069-12.41-4.916-17.077-9.403c0.045-0.188,0.08-0.505,0.217-0.923C257.381,222.702,257.747,221.585,258.113,220.468z
			 M275.998,319.585c-1.533,3.681-5.331,6.764-8.188,9.39c-0.719,0.661-1.729,1.417-1.977,1.443
			c-4.006,0.423-8.071,0.228-12.068-0.161c-6.772-0.658-13.37-2.609-19.527-5.464c-4.114-1.907-12.479-6.326-13.527-11.065
			c-0.838-3.785-1.474-7.642-1.578-11.521c-0.074-2.765,1.047-4.733,2.27-7.173c1.9-3.791,3.801-7.584,5.701-11.376
			c9.305-18.563,18.608-37.13,27.912-55.694c2.509,1.893,5.274,3.482,8.148,4.825c8.247,4.183,17.873,6.415,26.756,6.122
			c-2.331,13.701-4.664,27.402-6.997,41.102c-0.979,5.74-1.955,11.48-2.933,17.221c-0.574,3.375-1.149,6.75-1.723,10.125
			C277.606,311.233,277.509,315.958,275.998,319.585z"/>
	</g>
	<g>
		<g>
			<path fill="#F9B800" d="M289.199,192.938c5.82-9.764,10.754-20.223,14.572-30.92c3.936-11.029,9.372-29.459-2.836-37.406
				c-9.554-6.218-24.117-3.473-34.728-2.684c-13.074,0.973-29.672,3.117-41.143-4.795c-14.852-10.244-10.913-35.632-5.395-49.779
				c6.507-16.68,20.757-28.707,37.384-34.601c14.016-4.969,31.095-5.83,44.67,0.948c14.65,7.314,19.835,32.655,5.623,43.246
				c-4.367,3.254-8.615,0.933-13.039-0.711c-6.352-2.36-12.847-3.511-19.623-3.294c-10.899,0.348-21.571,6.226-23.641,17.557
				c-0.376,2.06,4.259,3.808,4.701,1.384c2.229-12.212,15.082-15.923,25.976-15.16c6.106,0.428,11.325,2.819,16.973,4.867
				c3.068,1.112,6.445,0.992,9.5-0.039c6.497-2.192,9.765-9.523,11.211-15.645c1.881-7.961,0.421-16.67-3.598-23.732
				c-7.246-12.735-23.922-16.833-37.511-16.935c-15.737-0.117-31.431,5.103-43.946,14.627
				c-14.782,11.248-22.638,28.628-23.851,46.901c-0.978,14.732,3.296,29.506,17.699,35.826c12.637,5.545,27.63,3.933,40.99,2.939
				c9.066-0.674,28.805-4.818,33.27,6.343c4.447,11.116-2.161,26.154-6.44,36.329c-3.242,7.709-7.002,15.3-11.286,22.488
				C283.605,192.583,288.042,194.879,289.199,192.938L289.199,192.938z"/>
		</g>
	</g>
	<g>
		<g>
			<path fill="#EB7206" d="M156.261,148.575c-5.98-12.351-9.943-36.204,6.184-42.786c7.188-2.933,16.155-1.551,23.64-1.008
				c9.105,0.66,18.255,1.211,27.297-0.394c21.243-3.773,35.903-24.514,33.512-45.795c-1.753-15.594-15.88-32.772-32.717-31.67
				c-7.706,0.504-14.588,6.844-19.66,12.131c-5.818,6.064-10.049,13.507-12.46,21.539c-6.889,22.952,5.115,46.219,18.912,63.891
				c1.284,1.645,4.276,2.357,2.174-0.336c-14.811-18.971-25.296-43.613-14.873-67.108c5.945-13.403,21.631-31.106,37.866-25.106
				c10.723,3.963,16.394,15.76,17.228,26.521c0.948,12.229-4.969,24.505-13.672,32.818c-14.694,14.036-36.452,10.175-54.766,9.293
				c-5.447-0.262-11.174-0.285-16.301,1.807c-5.679,2.318-8.918,8.196-10.455,13.842c-2.683,9.855,0.296,21.821,4.657,30.827
				C153.333,148.085,157.361,150.846,156.261,148.575L156.261,148.575z"/>
		</g>
	</g>
</g>
</svg>
