<?xml version="1.0" encoding="utf-8"?>
<!-- Generator: Adobe Illustrator 16.0.0, SVG Export Plug-In . SVG Version: 6.00 Build 0)  -->
<!DOCTYPE svg PUBLIC "-//W3C//DTD SVG 1.1//EN" "http://www.w3.org/Graphics/SVG/1.1/DTD/svg11.dtd">
<svg version="1.1" id="Layer_1" xmlns="http://www.w3.org/2000/svg" xmlns:xlink="http://www.w3.org/1999/xlink" x="0px" y="0px"
	 width="651.762px" height="129.104px" viewBox="0 0 651.762 129.104" enable-background="new 0 0 651.762 129.104"
	 xml:space="preserve">
<g>
	<g>
		<path fill="#C9CACB" d="M547.428,31.859c3.871,0,7.742,0,11.613,0c4.773,0,7.984,2.221,11.869,4.595
			c6.916,4.226,16.77,2.207,24.471,1.919c12.639-0.475,25.277-0.947,37.916-1.421c3.539-0.135,7.08-0.267,10.621-0.398
			c4.244-0.16,7.186,5.88,2.639,8.203c-0.896,0.457-2.305,0.209-3.266,0.175c-18.637-0.687-37.273-1.371-55.91-2.057
			c-2.332-0.085-4.662-0.171-6.992-0.257c-5.23-0.191-8.799,2.74-13.123,5.114c-4.584,2.519-10.393,1.779-15.438,1.779
			c-2.914,0-5.828,0-8.742,0c-1.043,0-2.084,0-3.127,0c-1.85,0-3.68-3.147-1.109-3.423c0.148-0.017,0.287-0.052,0.42-0.101
			c0.449,0.004,0.904-0.005,1.354-0.005c3.73,0,7.459,0,11.188,0c1.732,0,3.721-3.477,1.51-3.477c-4.006,0-8.014,0-12.02,0
			c-0.488,0-0.945,0.016-1.373-0.011c-0.189-0.074-0.422-0.105-0.686-0.098c-0.588-0.148-1.078-0.487-1.439-1.25
			c-0.439-0.928-0.396-1.936,0.436-2.229c0.146,0.012,0.293,0.021,0.439,0.025c0.289,0.021,0.576,0.032,0.855,0.032
			c4.154,0,8.309,0,12.463,0c2.039,0,3.533-3.711,1.137-3.711c-2.482,0-4.967,0-7.451,0c-0.514,0-1.188,0.058-1.922,0.117
			c-0.566,0-1.135,0-1.703,0c-0.881,0-1.873,0.145-2.723-0.064c-0.031-0.008-0.061-0.015-0.092-0.021
			c-0.502-0.143-0.951-0.415-1.285-0.938c-0.291-0.451-0.398-0.833-0.381-1.153c0.414-0.806,1.904-1.35,2.936-1.35
			C542.819,31.859,545.124,31.859,547.428,31.859z"/>
		<g>
			<path fill="#9B9C9E" d="M550.37,42.236c1.639,0,2.92-2.394,2.119-3.335c-0.16,0.046-0.322,0.079-0.492,0.079
				c-4.154,0-8.309,0-12.463,0c-0.279,0-0.566-0.012-0.855-0.031c-0.146-0.007-0.295-0.016-0.439-0.026
				c-0.832,0.293-0.875,1.301-0.436,2.229c0.268,0.562,0.604,0.892,0.996,1.086C542.657,42.236,546.512,42.236,550.37,42.236z"/>
			<path fill="#9B9C9E" d="M537.577,33.208c-0.02,0.32,0.09,0.702,0.381,1.153c0.23,0.36,0.518,0.598,0.84,0.76
				c0.029-0.001,0.061-0.006,0.088-0.006c2.307,0,4.611,0,6.918,0c3.869,0,7.74,0,11.611,0c4.775,0,7.984,2.219,11.869,4.593
				c6.916,4.226,16.771,2.207,24.471,1.919c12.639-0.475,25.277-0.947,37.916-1.421c3.539-0.133,7.08-0.266,10.621-0.397
				c2.652-0.1,4.793,2.22,4.92,4.54c3.564-2.548,0.727-7.946-3.293-7.796c-3.539,0.133-7.08,0.265-10.621,0.398
				c-12.639,0.474-25.275,0.946-37.916,1.421c-7.699,0.288-17.555,2.307-24.471-1.919c-3.885-2.374-7.094-4.595-11.867-4.595
				c-3.871,0-7.742,0-11.613,0c-2.307,0-4.611,0-6.918,0C539.481,31.859,537.991,32.403,537.577,33.208z"/>
			<path fill="#9B9C9E" d="M538.997,49.24c3.729,0,7.457,0,11.188,0c1.533,0,3.262-2.722,2.104-3.346
				c-0.158,0.053-0.318,0.09-0.477,0.09c-3.729,0-7.457,0-11.188,0c-0.449,0-0.902,0.009-1.354,0.006
				c-0.133,0.048-0.271,0.084-0.42,0.1c-2.107,0.226-1.254,2.383,0.145,3.15H538.997z"/>
		</g>
	</g>
	<g>
		<path fill="#1A171B" d="M548.848,29.776c-3.736,0-7.621-0.306-11.342,0.093c-2.506,0.268-3.805,2.338-4.109,4.584
			c-0.189,0.961-0.137,1.967,0.154,2.899c0.078,0.315,0.172,0.624,0.291,0.91c0.168,0.402,0.404,0.724,0.67,1.003
			c-1.377,1.828-1.736,4.432-0.41,6.52c0.115,0.18,0.238,0.336,0.367,0.481c-2.004,2.704-1.812,7.03,1.963,8.395
			c2.256,0.813,5.662,0.189,8.014,0.189c3.656,0,7.312,0,10.971,0c2.279,0,4.523,0.027,6.787-0.334
			c3.635-0.582,6.68-2.722,9.729-4.619c3.475-2.163,6.801-1.93,10.617-1.789c20.279,0.746,40.559,1.491,60.836,2.236
			c6.361,0.234,11.271-8.547,6.414-13.404c-2.76-2.759-5.842-2.471-9.34-2.339c-11.426,0.428-22.854,0.856-34.279,1.284
			c-9.037,0.339-18.074,0.678-27.111,1.016c-2.977,0.111-5.613-1.4-8-2.982c-3.295-2.187-6.457-3.718-10.445-4.104
			C556.764,29.442,552.721,29.776,548.848,29.776z M546.616,33.487c3.871,0,7.742,0,11.613,0c4.773,0,7.982,2.22,11.867,4.594
			c6.916,4.227,16.771,2.207,24.473,1.92c12.637-0.475,25.275-0.947,37.914-1.421c3.541-0.135,7.082-0.267,10.623-0.398
			c4.242-0.16,7.184,5.88,2.639,8.202c-0.896,0.458-2.305,0.21-3.266,0.175c-18.639-0.686-37.273-1.37-55.912-2.056
			c-2.33-0.086-4.66-0.171-6.99-0.257c-5.23-0.192-8.801,2.74-13.123,5.114c-4.584,2.519-10.395,1.778-15.439,1.778
			c-2.912,0-5.826,0-8.74,0c-1.041,0-2.084,0-3.125,0c-1.852,0-3.682-3.146-1.109-3.422c0.146-0.016,0.285-0.053,0.418-0.1
			c0.451,0.003,0.904-0.006,1.355-0.006c3.729,0,7.457,0,11.186,0c1.732,0,3.719-3.477,1.51-3.477c-4.008,0-8.014,0-12.02,0
			c-0.488,0-0.945,0.015-1.373-0.011c-0.189-0.074-0.42-0.105-0.688-0.098c-0.586-0.148-1.076-0.488-1.438-1.25
			c-0.439-0.928-0.396-1.937,0.436-2.229c0.146,0.012,0.293,0.021,0.439,0.026c0.289,0.021,0.576,0.031,0.855,0.031
			c4.154,0,8.311,0,12.463,0c2.039,0,3.533-3.712,1.137-3.712c-2.482,0-4.967,0-7.451,0c-0.514,0-1.188,0.059-1.92,0.118
			c-0.568,0-1.137,0-1.705,0c-0.881,0-1.873,0.146-2.723-0.065c-0.029-0.007-0.062-0.014-0.092-0.021
			c-0.502-0.142-0.949-0.415-1.285-0.938c-0.291-0.451-0.398-0.834-0.381-1.153c0.414-0.806,1.904-1.35,2.938-1.35
			C542.004,33.487,544.309,33.487,546.616,33.487z"/>
	</g>
</g>
<g>
	<path fill="#C9CACB" d="M7.328,45.291c15.388-0.384,30.777-0.768,46.166-1.151c4.321-0.106,8.557,2.225,12.797,3.103
		c8.014,1.664,16.289,1.646,24.366,0.504c5.99-0.85,11.893-2.533,17.416-5.002c1.155-0.518,2.293-1.092,3.382-1.742
		c-19.28-0.413-38.568-1.444-57.834-2.185c-11.844-0.453-23.687-0.914-35.53-1.373c-3.047-0.119-6.094-0.236-9.14-0.355
		c-0.398-0.016-0.797-0.032-1.194-0.047C1.974,36.816,1.526,45.436,7.328,45.291z"/>
	<path fill="#9B9C9E" d="M8.951,37.089c3.046,0.12,6.093,0.237,9.14,0.355c11.844,0.459,23.687,0.918,35.53,1.373
		c19.266,0.74,38.554,1.771,57.834,2.185c-1.089,0.65-2.227,1.225-3.382,1.742c-1.078,0.48-2.174,0.925-3.277,1.346
		c-17.077-0.48-34.159-1.361-51.224-2.017c-11.844-0.454-23.686-0.912-35.529-1.372c-3.047-0.119-6.095-0.237-9.141-0.357
		c-0.398-0.015-0.797-0.032-1.195-0.046c-2.202-0.085-3.628,1.113-4.231,2.62c-0.955-2.488,0.552-6.021,4.281-5.875
		C8.154,37.058,8.552,37.073,8.951,37.089z"/>
	<path fill="#1A171B" d="M19.955,35.439c-5.254-0.204-13.716-2.157-17.914,1.917c-5.033,4.885,0.065,13.48,6.396,13.321
		c3.458-0.084,6.915-0.171,10.374-0.257c11.724-0.292,23.447-0.585,35.172-0.876c1.233-0.031,2.13-0.087,3.203,0.275
		c4.997,1.693,10.132,3.02,15.388,3.593c9.248,1.011,18.61,0.495,27.628-1.854c5.542-1.443,11.78-3.315,16.356-6.938
		c2.144-1.697,2.82-5.391-0.914-5.603c-0.085-0.004-0.157,0.005-0.236,0.008c-0.073-0.011-0.146-0.026-0.223-0.027
		c-19.788-0.33-39.587-1.413-59.362-2.172C43.866,36.366,31.911,35.904,19.955,35.439z M8.545,38.682
		c0.397,0.015,0.796,0.031,1.194,0.046c3.047,0.12,6.093,0.237,9.141,0.356c11.843,0.46,23.687,0.918,35.529,1.373
		c19.266,0.739,38.554,1.771,57.834,2.184c-1.088,0.65-2.227,1.226-3.383,1.742c-5.521,2.47-11.424,4.153-17.415,5.001
		c-8.077,1.145-16.353,1.161-24.366-0.501c-4.24-0.88-8.476-3.211-12.797-3.104c-15.389,0.386-30.777,0.769-46.166,1.151
		C2.316,47.075,2.763,38.456,8.545,38.682z"/>
</g>
</svg>
