<?xml version="1.0" encoding="utf-8"?>
<!-- Generator: Adobe Illustrator 16.0.0, SVG Export Plug-In . SVG Version: 6.00 Build 0)  -->
<!DOCTYPE svg PUBLIC "-//W3C//DTD SVG 1.1//EN" "http://www.w3.org/Graphics/SVG/1.1/DTD/svg11.dtd">
<svg version="1.1" id="Layer_1" xmlns="http://www.w3.org/2000/svg" xmlns:xlink="http://www.w3.org/1999/xlink" x="0px" y="0px"
	 width="651.763px" height="129.104px" viewBox="0 0 651.763 129.104" enable-background="new 0 0 651.763 129.104"
	 xml:space="preserve">
<g>
	<g>
		<path fill="#1A171B" d="M572.838,0c-29.461,0-58.922,0-88.382,0C421.888,0,359.32,0,296.752,0c-56.954,0-113.907,0-170.86,0
			c-15.795,0-31.589,0-47.384,0c-1.57,0-0.872,2.2,0.379,2.2c29.46,0,58.921,0,88.382,0c62.568,0,125.136,0,187.704,0
			c56.953,0,113.906,0,170.86,0c15.794,0,31.589,0,47.384,0C574.788,2.2,574.089,0,572.838,0L572.838,0z"/>
	</g>
</g>
<g>
	<g>
		<polygon fill="#009797" points="269.832,1.1 262.91,1.1 357.702,95.894 361.164,92.433 		"/>
		<polygon fill="#009797" points="319.649,1.1 312.727,1.1 382.611,70.984 386.072,67.523 		"/>
		<polygon fill="#009797" points="286.437,1.1 279.515,1.1 366.005,87.591 369.466,84.13 		"/>
		<polygon fill="#009797" points="303.042,1.1 296.121,1.1 374.308,79.288 377.769,75.827 		"/>
		<polygon fill="#009797" points="327.952,125.644 203.408,1.1 196.486,1.1 324.491,129.104 		"/>
		<polygon fill="#009797" points="220.014,1.1 213.092,1.1 332.793,120.802 336.254,117.341 		"/>
		<polygon fill="#009797" points="236.62,1.1 229.698,1.1 341.096,112.499 344.557,109.038 		"/>
		<polygon fill="#009797" points="253.225,1.1 246.304,1.1 349.399,104.196 352.86,100.735 		"/>
		<polygon fill="#009797" points="336.254,1.1 329.333,1.1 390.914,62.682 394.374,59.221 		"/>
		<polygon fill="#009797" points="402.676,1.1 395.755,1.1 424.125,29.47 427.586,26.01 		"/>
		<polygon fill="#009797" points="419.284,1.1 412.362,1.1 432.428,21.167 435.889,17.706 		"/>
		<polygon fill="#009797" points="452.494,1.1 445.573,1.1 449.034,4.562 452.495,1.101 		"/>
		<polygon fill="#009797" points="435.889,1.1 428.967,1.1 440.731,12.864 444.192,9.403 		"/>
		<polygon fill="#009797" points="352.86,1.1 345.938,1.1 399.216,54.379 402.677,50.918 		"/>
		<polygon fill="#009797" points="386.072,1.1 379.15,1.1 415.823,37.773 419.284,34.312 		"/>
		<polygon fill="#009797" points="369.464,1.1 362.544,1.1 407.52,46.076 410.98,42.616 		"/>
	</g>
	<g>
		<g>
			<polygon fill="#EB7108" points="286.438,1.1 279.515,1.1 238,42.616 241.461,46.076 			"/>
			<polygon fill="#EB7108" points="269.832,1.1 262.91,1.1 229.698,34.312 233.159,37.773 			"/>
			<polygon fill="#EB7108" points="303.043,1.1 296.122,1.1 246.303,50.918 249.764,54.379 			"/>
			<polygon fill="#EB7108" points="253.226,1.1 246.304,1.1 221.395,26.01 224.856,29.47 			"/>
			<polygon fill="#EB7108" points="319.649,1.1 312.727,1.1 254.606,59.221 258.067,62.682 			"/>
			<polygon fill="#EB7108" points="199.947,4.562 203.409,1.1 196.488,1.1 196.486,1.101 			"/>
			<polygon fill="#EB7108" points="236.62,1.1 229.699,1.1 213.092,17.707 216.552,21.167 			"/>
			<polygon fill="#EB7108" points="220.014,1.1 213.092,1.1 204.789,9.403 208.25,12.864 			"/>
			<polygon fill="#EB7108" points="435.889,1.1 428.967,1.1 312.727,117.341 316.187,120.802 			"/>
			<polygon fill="#EB7108" points="336.254,1.1 329.333,1.1 262.909,67.524 266.37,70.984 			"/>
			<polygon fill="#EB7108" points="419.284,1.1 412.362,1.1 304.423,109.038 307.884,112.499 			"/>
			<polygon fill="#EB7108" points="445.574,1.1 321.03,125.644 324.491,129.104 452.496,1.1 			"/>
			<polygon fill="#EB7108" points="402.678,1.1 395.756,1.1 296.121,100.735 299.582,104.196 			"/>
			<polygon fill="#EB7108" points="352.861,1.1 345.94,1.1 271.212,75.827 274.673,79.288 			"/>
			<polygon fill="#EB7108" points="386.072,1.1 379.15,1.1 287.818,92.433 291.279,95.894 			"/>
			<polygon fill="#EB7108" points="369.466,1.1 362.544,1.1 279.515,84.13 282.976,87.591 			"/>
		</g>
	</g>
</g>
<g>
	<g>
		<path fill="#C9CACB" d="M547.429,31.859c3.871,0,7.742,0,11.613,0c4.773,0,7.983,2.22,11.868,4.594
			c6.916,4.226,16.771,2.207,24.471,1.919c12.639-0.474,25.277-0.947,37.916-1.421c3.54-0.134,7.081-0.266,10.621-0.398
			c4.245-0.16,7.186,5.88,2.64,8.203c-0.897,0.457-2.305,0.209-3.266,0.175c-18.637-0.687-37.273-1.371-55.911-2.057
			c-2.331-0.085-4.661-0.171-6.992-0.257c-5.23-0.191-8.799,2.741-13.123,5.115c-4.583,2.518-10.393,1.779-15.438,1.779
			c-2.914,0-5.828,0-8.742,0c-1.042,0-2.084,0-3.126,0c-1.851,0-3.68-3.147-1.109-3.423c0.147-0.016,0.286-0.052,0.419-0.1
			c0.45,0.003,0.904-0.005,1.354-0.005c3.729,0,7.458,0,11.187,0c1.733,0,3.72-3.477,1.509-3.477c-4.006,0-8.013,0-12.019,0
			c-0.488,0-0.946,0.016-1.373-0.011c-0.19-0.074-0.421-0.105-0.686-0.097c-0.587-0.149-1.078-0.488-1.439-1.25
			c-0.439-0.928-0.397-1.936,0.436-2.229c0.146,0.012,0.292,0.021,0.439,0.026c0.289,0.021,0.576,0.032,0.856,0.032
			c4.154,0,8.309,0,12.463,0c2.039,0,3.533-3.711,1.136-3.711c-2.483,0-4.967,0-7.451,0c-0.513,0-1.187,0.057-1.921,0.117
			c-0.567,0-1.136,0-1.704,0c-0.881,0-1.873,0.145-2.723-0.064c-0.03-0.008-0.061-0.015-0.091-0.022
			c-0.503-0.142-0.951-0.415-1.286-0.938c-0.291-0.452-0.398-0.833-0.381-1.154c0.415-0.805,1.905-1.349,2.937-1.349
			C542.818,31.859,545.124,31.859,547.429,31.859z"/>
		<g>
			<path fill="#9B9C9E" d="M550.369,42.236c1.639,0,2.921-2.394,2.12-3.335c-0.16,0.046-0.323,0.079-0.492,0.079
				c-4.154,0-8.309,0-12.463,0c-0.28,0-0.567-0.012-0.856-0.032c-0.147-0.006-0.294-0.015-0.439-0.026
				c-0.833,0.293-0.875,1.301-0.436,2.229c0.267,0.562,0.604,0.891,0.997,1.086C542.657,42.236,546.513,42.236,550.369,42.236z"/>
			<path fill="#9B9C9E" d="M537.576,33.208c-0.018,0.321,0.09,0.702,0.381,1.154c0.231,0.36,0.519,0.597,0.84,0.759
				c0.029-0.001,0.061-0.006,0.089-0.006c2.305,0,4.61,0,6.917,0c3.87,0,7.741,0,11.612,0c4.774,0,7.983,2.219,11.869,4.593
				c6.915,4.226,16.771,2.207,24.471,1.919c12.638-0.474,25.276-0.947,37.915-1.421c3.54-0.133,7.081-0.265,10.622-0.397
				c2.651-0.1,4.793,2.22,4.92,4.54c3.564-2.548,0.726-7.946-3.293-7.796c-3.54,0.133-7.081,0.265-10.621,0.398
				c-12.639,0.474-25.277,0.947-37.916,1.421c-7.699,0.288-17.555,2.307-24.471-1.919c-3.885-2.374-7.095-4.594-11.868-4.594
				c-3.871,0-7.742,0-11.613,0c-2.306,0-4.611,0-6.917,0C539.481,31.859,537.991,32.403,537.576,33.208z"/>
			<path fill="#9B9C9E" d="M538.997,49.239c3.729,0,7.457,0,11.187,0c1.534,0,3.261-2.721,2.103-3.345
				c-0.158,0.053-0.317,0.09-0.476,0.09c-3.729,0-7.457,0-11.187,0c-0.449,0-0.903,0.008-1.354,0.005
				c-0.133,0.048-0.271,0.084-0.419,0.1c-2.109,0.226-1.255,2.383,0.143,3.15H538.997z"/>
		</g>
	</g>
	<g>
		<path fill="#1A171B" d="M548.849,29.776c-3.737,0-7.622-0.306-11.343,0.092c-2.506,0.268-3.804,2.338-4.109,4.584
			c-0.19,0.961-0.137,1.967,0.154,2.9c0.079,0.315,0.172,0.624,0.291,0.91c0.169,0.402,0.404,0.724,0.67,1.003
			c-1.377,1.828-1.737,4.432-0.41,6.519c0.115,0.18,0.239,0.336,0.367,0.482c-2.004,2.704-1.812,7.03,1.964,8.394
			c2.255,0.814,5.661,0.19,8.013,0.19c3.656,0,7.313,0,10.97,0c2.28,0,4.524,0.027,6.788-0.334c3.634-0.582,6.679-2.722,9.728-4.619
			c3.475-2.163,6.801-1.93,10.617-1.789c20.279,0.746,40.559,1.491,60.837,2.236c6.36,0.234,11.27-8.547,6.413-13.404
			c-2.759-2.759-5.841-2.471-9.34-2.339c-11.426,0.428-22.853,0.856-34.278,1.284c-9.038,0.339-18.075,0.678-27.113,1.016
			c-2.975,0.111-5.612-1.401-7.999-2.983c-3.296-2.186-6.457-3.718-10.445-4.104C556.764,29.442,552.721,29.776,548.849,29.776z
			 M546.616,33.487c3.871,0,7.742,0,11.612,0c4.774,0,7.983,2.219,11.869,4.593c6.915,4.227,16.771,2.207,24.471,1.92
			c12.638-0.474,25.277-0.947,37.915-1.421c3.541-0.134,7.081-0.266,10.622-0.398c4.244-0.16,7.185,5.88,2.639,8.202
			c-0.896,0.458-2.304,0.21-3.265,0.175c-18.638-0.686-37.274-1.37-55.912-2.056c-2.33-0.086-4.661-0.171-6.991-0.257
			c-5.23-0.192-8.8,2.741-13.123,5.115c-4.583,2.518-10.394,1.778-15.438,1.778c-2.913,0-5.828,0-8.741,0c-1.042,0-2.084,0-3.126,0
			c-1.851,0-3.681-3.146-1.109-3.422c0.147-0.016,0.286-0.053,0.419-0.1c0.45,0.003,0.903-0.005,1.354-0.005
			c3.729,0,7.458,0,11.187,0c1.732,0,3.719-3.477,1.509-3.477c-4.007,0-8.013,0-12.019,0c-0.488,0-0.946,0.015-1.373-0.011
			c-0.19-0.074-0.421-0.105-0.687-0.097c-0.586-0.149-1.077-0.489-1.438-1.25c-0.439-0.928-0.397-1.937,0.436-2.229
			c0.146,0.012,0.292,0.021,0.439,0.026c0.289,0.021,0.576,0.032,0.856,0.032c4.154,0,8.309,0,12.462,0
			c2.039,0,3.534-3.712,1.137-3.712c-2.483,0-4.968,0-7.452,0c-0.513,0-1.186,0.058-1.92,0.118c-0.568,0-1.137,0-1.705,0
			c-0.88,0-1.873,0.145-2.722-0.065c-0.03-0.007-0.062-0.014-0.091-0.021c-0.503-0.142-0.951-0.415-1.286-0.938
			c-0.291-0.452-0.398-0.834-0.381-1.154c0.415-0.805,1.905-1.349,2.937-1.349C542.004,33.487,544.31,33.487,546.616,33.487z"/>
	</g>
</g>
<g>
	<path fill="#C9CACB" d="M7.328,45.291c15.388-0.384,30.777-0.767,46.166-1.151c4.321-0.107,8.557,2.224,12.797,3.102
		c8.014,1.664,16.289,1.647,24.366,0.504c5.99-0.849,11.893-2.533,17.416-5.002c1.155-0.517,2.293-1.091,3.382-1.742
		c-19.28-0.413-38.568-1.444-57.834-2.184c-11.844-0.454-23.687-0.914-35.53-1.373c-3.047-0.12-6.094-0.237-9.14-0.356
		c-0.398-0.016-0.797-0.032-1.194-0.047C1.974,36.816,1.526,45.436,7.328,45.291z"/>
	<path fill="#9B9C9E" d="M8.951,37.089c3.046,0.12,6.093,0.237,9.14,0.356c11.844,0.459,23.687,0.918,35.53,1.373
		c19.266,0.74,38.554,1.771,57.834,2.184c-1.089,0.651-2.227,1.225-3.382,1.742c-1.078,0.481-2.174,0.925-3.277,1.346
		c-17.077-0.48-34.159-1.361-51.224-2.017c-11.844-0.454-23.686-0.912-35.529-1.372c-3.047-0.119-6.095-0.237-9.141-0.357
		c-0.398-0.015-0.797-0.032-1.195-0.046c-2.202-0.085-3.628,1.113-4.231,2.62c-0.955-2.488,0.552-6.021,4.281-5.875
		C8.154,37.058,8.552,37.073,8.951,37.089z"/>
	<path fill="#1A171B" d="M19.955,35.439c-5.254-0.204-13.716-2.158-17.914,1.917c-5.033,4.884,0.065,13.48,6.396,13.321
		c3.458-0.084,6.915-0.171,10.374-0.257c11.724-0.292,23.447-0.585,35.172-0.876c1.233-0.031,2.13-0.087,3.203,0.276
		c4.997,1.693,10.132,3.019,15.388,3.592c9.248,1.011,18.61,0.495,27.628-1.854c5.542-1.444,11.78-3.316,16.356-6.939
		c2.144-1.697,2.82-5.39-0.914-5.602c-0.085-0.004-0.157,0.005-0.236,0.008c-0.073-0.011-0.146-0.027-0.223-0.028
		c-19.788-0.33-39.587-1.413-59.362-2.172C43.866,36.366,31.911,35.904,19.955,35.439z M8.545,38.682
		c0.397,0.015,0.796,0.031,1.194,0.046c3.047,0.12,6.093,0.237,9.141,0.356c11.843,0.46,23.687,0.918,35.529,1.373
		c19.266,0.74,38.554,1.771,57.834,2.184c-1.088,0.65-2.227,1.225-3.383,1.742c-5.521,2.47-11.424,4.153-17.415,5.001
		c-8.077,1.145-16.353,1.161-24.366-0.501c-4.24-0.88-8.476-3.211-12.797-3.104c-15.389,0.385-30.777,0.768-46.166,1.151
		C2.316,47.075,2.763,38.456,8.545,38.682z"/>
</g>
</svg>
