<?xml version="1.0" encoding="utf-8"?>
<!-- Generator: Adobe Illustrator 16.0.0, SVG Export Plug-In . SVG Version: 6.00 Build 0)  -->
<!DOCTYPE svg PUBLIC "-//W3C//DTD SVG 1.1//EN" "http://www.w3.org/Graphics/SVG/1.1/DTD/svg11.dtd">
<svg version="1.1" id="Layer_1" xmlns="http://www.w3.org/2000/svg" xmlns:xlink="http://www.w3.org/1999/xlink" x="0px" y="0px"
	 width="430.729px" height="302.856px" viewBox="0 0 430.729 302.856" enable-background="new 0 0 430.729 302.856"
	 xml:space="preserve">
<g>
	<g>
		<path fill="#009797" d="M265.933,152.358c7.524,4.954,10.341,14.566,9.002,23.111c-1.524,9.717-8.455,18.027-15.526,24.39
			c-7.098,6.386-15.682,11.72-24.95,15.698c-1.877-10.175-9.124-19.129-18.943-22.742c8.187-2.796,14.642-9.249,15.062-18.899
			c0.036-0.834-4.913-1.298-4.937-0.803c-0.424,9.798-7.85,17.586-17.227,19.56c-23.853,5.022-36.274-19.422-43.312-37.854
			c-2.071-5.426-3.795-11.004-5.175-16.662c0.257-0.252,0.621-0.448,1.127-0.571c2.243-0.544,4.438-0.467,6.683-0.068
			c0.852,0.152,1.834,0.468,2.818,0.878c0.201,0.271,0.397,0.546,0.601,0.816c1.323,1.76,13.618,16.026,26.229,18.401
			c12.943,2.436,27.092-3.266,27.448-3.411C236.793,149.34,254.418,144.778,265.933,152.358z"/>
		<path fill="#008484" d="M265.933,152.358c-11.515-7.58-29.14-3.019-41.1,1.844c-0.356,0.146-14.505,5.847-27.448,3.411
			c-12.611-2.375-24.906-16.642-26.229-18.401c-0.203-0.271-0.399-0.545-0.601-0.816c-0.984-0.41-1.967-0.727-2.818-0.878
			c-2.244-0.399-4.439-0.476-6.683,0.068c-0.506,0.124-0.87,0.319-1.127,0.571c1.38,5.658,3.104,11.236,5.175,16.662
			c2.068,5.418,4.607,11.352,7.759,16.907c0.577,0.909,1.148,1.754,1.714,2.511c9.542,12.791,56.633-31.363,70.39-3.471
			c4.158,8.43-1.414,26.977-16.239,31.941c0.345,0.453,0.676,0.916,0.996,1.388c0.02,0.032,0.043,0.063,0.063,0.095
			c0.299,0.444,0.586,0.896,0.86,1.355c0.043,0.072,0.086,0.145,0.128,0.218c0.251,0.428,0.494,0.86,0.725,1.3
			c0.062,0.119,0.12,0.237,0.181,0.355c0.205,0.405,0.405,0.812,0.593,1.227c0.079,0.171,0.149,0.346,0.225,0.519
			c0.161,0.372,0.32,0.745,0.467,1.125c0.091,0.237,0.171,0.478,0.257,0.716c0.117,0.328,0.236,0.654,0.342,0.985
			s0.194,0.666,0.288,1.001c0.07,0.253,0.149,0.503,0.213,0.757c0.15,0.6,0.283,1.202,0.396,1.811
			c9.269-3.979,17.853-9.312,24.95-15.698c7.071-6.362,14.002-14.673,15.526-24.39C276.273,166.925,273.457,157.312,265.933,152.358
			z"/>
		<path fill="#EB7108" d="M175.805,17.094c7.53-12.265,30.571-15.962,39.458-3.163c0.618,0.891,1.611,1.002,2.595,0.742
			c4.919-1.302,10.147-2.318,15.013-0.315c2.592,1.067,4.659,3.099,7.049,4.517c7.126,4.229,15.782-0.009,22.397,5.394
			c7.073,5.777,6.34,17.956,5.604,26.003c-0.821,8.97-2.563,17.71-6.486,25.742c-2.229-0.106-4.457-0.213-6.687-0.321
			c1.589-5.339,2.603-11.067,2.516-16.622c-0.003-1.029-0.032-2.056-0.107-3.074c-0.175-2.334-0.724-4.655-1.753-6.703
			c-0.773-1.686-1.825-3.236-3.291-4.549c-4.751-4.256-11.862-2.805-17.52-2.082c-3.094,0.397-6.366,0.902-9.42,0.003
			c-3.822-1.124-6.812-4.583-9.417-7.389c-4.666-5.027-11.861-6.405-18.371-5.013c-10.317,2.208-17.262,11.815-15.812,21.268
			C172.239,42.733,168.514,28.967,175.805,17.094z"/>
		<path fill="#F7C3B6" d="M172.289,48.013c0.477,0.669,0.968,1.325,1.484,1.966c3.3,4.458,7.625,8.244,12.589,10.838
			c1.646,0.86,4.917-1.538,3.448-3.299c-1.159-1.389-2.093-2.936-2.741-4.565l-0.006-0.013c-0.002-0.004-0.002-0.008-0.003-0.011
			c-1.583-4.505-0.742-9.175,1.606-12.848c4.174-5.517,12.137-7.271,18.487-4.913c5.487,2.037,8.589,8.044,13.775,10.834
			c4.416,2.375,9.89,1.441,14.604,0.837c4.762-0.609,10.542-1.806,14.087,2.382c0.963,1.138,1.607,2.48,2.042,3.911
			c0.66,2.341,0.812,4.899,0.828,7.17c-0.001,0.202,0.002,0.409-0.003,0.608c-0.098,5.545-1.252,11.25-3.012,16.505
			c-0.077,0.23-0.102,0.473-0.093,0.712c-0.009,0.024-0.016,0.051-0.023,0.077c-0.064,0.191-0.01,0.333,0.101,0.439
			c0.196,0.668,0.729,1.216,1.519,1.254c3.662,0.177,7.326,0.353,10.988,0.528c0.102,0.005,0.199-0.008,0.298-0.016
			c0.913,0.104,1.927-0.265,2.46-1.279c0.971-1.844,1.946-3.599,2.774-5.428c9.524,2.086,15.425,11.421,14.112,21.286
			c-0.725,5.451-4.378,10.51-9.296,12.914c-2.647,1.294-5.329,0.855-8.149,0.761c-1.079-0.036-3.47,0.374-3.87,1.633
			c-3.38,10.638-8.39,20.477-16.061,28.667c-3.073,3.281-6.666,6.088-10.466,8.474c-4.122,2.59-21.133,10.166-35.469,7.345
			c-6.648-1.309-17.025-11.269-17.106-11.391c-2.305-3.479-5.686-6.084-8.089-9.572c-2.748-3.988-4.976-8.313-6.93-12.735
			c-1.188-2.686-6.196-12.713-3.991-15.366c2.261-2.72,5.311-4.788,8.077-7.084c1.97,0.133,3.768,0.233,5.618-0.188
			c-2.845,1.304-4.816,3.651-4.099,7.511c0.761,4.086,4.75,6.854,8.382,8.197c4.946,1.825,10.31,0.852,14.3-2.533
			c1.479-1.253-1.161-4.146-2.652-2.882c-2.888,2.45-6.219,3.226-9.919,2.569c-2.902-0.515-7.08-2.73-6.84-6.188
			c0.304-4.363,6.908-4.835,10.159-4.509c0.608,0.061,1.037-0.064,1.384-0.588c4.903-7.405,6.14-17.199,3.946-25.774
			c-0.503-1.969-3.822-2.232-3.188,0.245c1.866,7.294,0.598,16.031-3.477,22.615c-1.826-0.089-3.879,0.068-5.775,0.557
			c3.388-1.666,5.098-5.589,5.95-9.021c0.428-1.72,0.486-3.546,0.237-5.34c-0.248-2.295-0.994-4.522-2.247-6.186
			c-0.016-0.021-0.032-0.04-0.049-0.061c-0.304-0.466-0.63-0.912-0.985-1.333c-2.007-2.382-4.875-2.767-7.728-3.242
			c-0.727-0.987-1.488-1.911-2.361-2.825c-0.904-0.945-2.573-1.725-3.844-2.621c5.203-2.78,11.346-1.691,16.173,1.561
			c2.414,1.626,4.763-2.213,2.365-3.829c-6.129-4.128-14.403-5.35-20.984-1.522C164.656,59.413,169.1,52.499,172.289,48.013z"/>
		<path fill="#CECFD1" d="M176.575,80.615c-0.206-1.092-0.492-2.112-0.826-3.108c1.562,1.155,2.654,2.833,3.341,5.391
			c0.082,0.338,0.153,0.667,0.214,0.974c0.646,3.276-0.299,6.962-2.247,9.615c-0.798,1.084-1.757,1.472-2.801,1.574
			C176.938,90.748,177.259,85.922,176.575,80.615z"/>
		<path fill="#CECFD1" d="M142.775,71.044c1.141,7.592,3.35,16.28-3.891,21.424c-11.02-0.728-22.039-1.456-33.056-2.184
			c0.249-0.408,0.493-0.824,0.724-1.256c1.684-3.154,2.462-7.31,2.344-11.605c-0.002-0.118-0.002-0.235-0.006-0.354
			c-0.003-0.077-0.008-0.153-0.012-0.231c-0.033-0.796-0.1-1.591-0.2-2.383c-0.017-0.126-0.035-0.253-0.053-0.38
			c-0.029-0.215-0.06-0.431-0.096-0.646c-0.511-3.253-1.529-6.434-3.074-9.166C117.896,66.522,130.336,68.783,142.775,71.044z"/>
		<path fill="#7E7F80" d="M108.781,75.682c0.031,0.385,0.081,0.77,0.098,1.156c0.004,0.078,0.009,0.154,0.012,0.231
			c0.004,0.119,0.004,0.236,0.006,0.354c0.118,4.295-0.66,8.451-2.344,11.605c-0.23,0.432-0.475,0.849-0.724,1.256
			c11.017,0.729,22.036,1.456,33.056,2.184c5.106-3.628,5.508-9.02,4.903-14.546L108.781,75.682z"/>
		<path fill="#009797" d="M20.104,89.455c-0.021,0.021-0.025,0.05-0.042,0.073C10.032,91.883,5.294,78.293,5.292,70.206
			C5.7,61.863,8.908,52.718,17.097,49.143c2.46-1.074,4.64-1.232,6.551-0.741c0.153,0.146,0.294,0.251,0.418,0.294
			c1.212,0.42,2.295,0.997,3.281,1.679c4.531,3.858,6.716,11.87,6.716,17.354c0.001,2.032-0.237,4.13-0.712,6.191
			C31.437,81.327,26.796,87.838,20.104,89.455z"/>
		<path fill="#CECFD1" d="M52.369,90.267c-1.762,1.758-6.101,0.634-8.685,0.512c-4.72-0.226-9.44-0.449-14.159-0.674
			c1.824-1.612,3.163-3.735,4.339-5.835c2.543-4.537,3.348-9.902,3.198-15.086c0-0.008-0.001-0.015,0-0.022
			c-0.009-0.276-0.018-0.552-0.031-0.827c-0.004-0.083-0.009-0.167-0.014-0.252c-0.034-0.608-0.075-1.216-0.133-1.816
			c-0.212-2.219-0.726-4.535-1.511-6.802c-1.153-3.577-2.9-7.023-5.236-9.744c21.992,3.518,43.983,7.036,65.976,10.553
			c2.126,0.182,3.863,0.859,5.271,1.881c0.221,0.457,0.426,0.814,0.51,0.908c2.785,3.125,4.07,7.187,4.149,11.353
			c-0.322,7.576-4.277,15.826-10.162,18.23c-2.638,1.078-6.476,0.308-9.211,0.178l-2.843-0.135c1.181-1.408,2.439-2.809,3.247-4.327
			c1.863-3.498,2.539-7.519,2.718-11.428c0.254-5.526-1.305-10.532-5.261-14.437c-4.041-3.994-10.265-2.411-13.2,2.072
			c-2.676,4.086-0.688,9.665-2.25,14.107c-1.206,3.432-5.34,4.115-8.255,5.304C57.58,85.301,54.819,87.822,52.369,90.267z"/>
		<g>
			<path fill="#7E7F80" d="M89.656,73.097c0.152,1.244,0.198,2.524,0.137,3.836c-0.179,3.909-0.854,7.93-2.718,11.428
				c-0.808,1.519-2.066,2.919-3.247,4.327l2.843,0.135c2.735,0.13,6.573,0.9,9.211-0.178c2.284-0.934,4.271-2.753,5.874-5.065
				l1.887-13.588L89.656,73.097z"/>
			<path fill="#7E7F80" d="M52.369,90.267c2.45-2.444,5.211-4.965,8.458-6.288c2.915-1.188,7.049-1.872,8.255-5.304
				c0.746-2.12,0.684-4.498,0.704-6.85L37.064,69.73c0.08,5.014-0.746,10.161-3.2,14.539c-1.176,2.1-2.515,4.223-4.339,5.835
				c4.719,0.225,9.439,0.449,14.159,0.674C46.269,90.9,50.607,92.024,52.369,90.267z"/>
		</g>
		<path fill="#F2A090" d="M79.386,135.198c-9.555-10.985-16.503-24.431-20.855-38.285c-0.86-2.743-1.161-3.862-0.427-5.153
			c0.215-0.203,0.437-0.409,0.676-0.618c3.639-3.161,10.776-3.429,12.984-7.928c0.082-0.167,0.15-0.337,0.221-0.505
			c2.172-1.334,3.863-3.267,4.426-6.913c0.139-0.914-0.028-6.845,0.528-9.915c0.529-0.349,1.087-0.661,1.653-0.952
			c0.293-0.149,0.571-0.267,0.843-0.368c3.679,2.007,4.142,8.977,4.201,12.257c0.124,6.835-3.295,14.382-8.675,18.697
			c-0.018,0.041-0.035,0.082-0.052,0.122c1.209,7.57,6.099,14.707,11.174,20.185c5.345,5.768,12.111,9.998,19.204,13.271
			c8.201,3.783,16.949,7.36,25.797,9.341c0.858,9.07,2.247,18.08,4.42,26.819C114.106,160.992,93.938,151.928,79.386,135.198z"/>
		<path fill="#F7C3B6" d="M163.322,210.179c-0.161-0.383-0.575-0.703-1.094-0.936c-5.157-5.213-9.271-11.522-12.682-17.978
			c-11.472-21.724-13.77-54.452-13.77-54.453c0.097-0.04,0.174-0.063,0.216-0.053c-0.075-0.016-0.15-0.036-0.224-0.051
			c-1.122-13.495-1.123-27.083-0.821-40.07c1.864,0.123,3.731,0.245,5.596,0.369c0.196,0.075,0.38,0.081,0.533-0.026
			c0.104-0.072,0.196-0.149,0.296-0.222h0.021c4.217,0.153,7.198-4.283,8.258-7.797c1.366-4.535,0.822-10.14-0.013-14.718
			c-0.357-1.964-0.817-3.874-0.721-5.882c0.063-1.301,0.63-2.11,1.485-2.572c3.919,7.323,5.482,16.514,1.974,24.213
			c-0.678,1.484,4.192,2.219,4.744,1.007c3.716-8.149,2.231-17.751-1.992-25.494c1.255,0.236,2.496,0.617,3.522,1.008
			c0.026,0.129,0.075,0.266,0.174,0.42c4.412,6.825,4.287,15.878,0.884,23.021c-0.854,1.795,3.975,2.856,4.648,1.439
			c2.843-5.967,3.569-12.771,1.698-18.989c4.324,6.246,4.993,15.474,0.934,21.654c-4.38,6.668-13.861,8.996-15.221,17.68
			c-1.316,8.399,1.448,18.46,3.46,26.53c2.552,10.236,6.258,20.233,11.106,29.604c4.009,7.749,9.114,15.377,16.23,20.593
			c6.35,4.655,14.907,5.731,22.563,5.913c1.917,0.045,3.832-0.091,5.705-0.398c0.1,0.139,0.303,0.274,0.668,0.4
			c9.627,3.305,16.558,12.299,18.108,22.181c0.048,0.306,0.256,0.54,0.559,0.712c-13.228,4.969-27.564,7.184-40.854,5.76
			c-10.156-1.088-18.825-5.889-25.884-12.619C163.396,210.34,163.357,210.26,163.322,210.179z"/>
		<path fill="#009797" d="M402.119,272.417l-17.506,14.026c-1.766,1.413-3.53,2.827-5.295,4.241
			c-0.494,0.396-2.084,1.442-1.555,1.222c-9.853,4.103-20.733,6.226-31.236,7.758c-24.898,3.631-50.452,1.498-74.6-5.398
			c-27.785-7.936-54.938-22.78-76.781-41.709c-12.004-10.401-22.365-22.841-29.398-37.1c5.127,3.389,10.85,5.915,17.1,7.331
			c21.121,4.784,43.953-0.056,63.031-9.654c12.27-6.174,24.301-15.402,30.803-27.78c10.896,52.727,83.342,65.477,129.248,68.116
			c6.34,0.364,12.723,0.631,19.091,0.599C417.387,260.186,409.753,266.301,402.119,272.417z"/>
		<path fill="#008484" d="M381.888,261.374l-0.423-10.169c-43.647-5.665-95.683-21.814-104.783-65.852
			c-6.502,12.378-18.533,21.606-30.803,27.78c-0.708,0.356-1.432,0.691-2.15,1.035l-0.011,0.022
			C243.718,214.191,298.995,272.106,381.888,261.374z"/>
		<path fill="#F2A090" d="M267.499,73.704c-0.828,1.829-1.804,3.583-2.774,5.428c-0.533,1.015-1.547,1.383-2.46,1.279
			c-0.099,0.008-0.196,0.021-0.298,0.016c-3.662-0.176-7.326-0.352-10.988-0.528c-0.789-0.038-1.322-0.586-1.519-1.254
			c-0.11-0.106-0.165-0.248-0.101-0.439c0.008-0.026,0.015-0.052,0.023-0.077c-0.009-0.24,0.016-0.482,0.093-0.712
			c1.76-5.256,2.914-10.96,3.012-16.505c0.005-0.199,0.002-0.406,0.003-0.608c-0.017-2.271-0.168-4.829-0.828-7.17
			c-0.435-1.431-1.079-2.773-2.042-3.911c-2.243-2.651-5.383-3.142-8.593-2.993c4.402,5.479,7.092,12.371,5.858,20.078
			c-2.735,17.085,0.621,28.023-11.096,58.141c-7.417,19.068-29.782,24.894-45.196,26.603c2.627,1.773,5.394,3.278,7.707,3.733
			c14.336,2.821,31.347-4.755,35.469-7.345c3.8-2.386,7.393-5.193,10.466-8.474c7.671-8.19,12.681-18.029,16.061-28.667
			c0.4-1.259,2.791-1.669,3.87-1.633c2.82,0.095,5.502,0.534,8.149-0.761c4.918-2.404,8.571-7.463,9.296-12.914
			C282.924,85.125,277.023,75.79,267.499,73.704z"/>
		<path fill="#F2A090" d="M188.125,150.615c0,0,2.996,2.112,17.992,3.004c14.997,0.894,19.959-1.885,19.959-1.885l4.626-1.937
			c0,0-4.784,19.496-23.491,16.548c-18.708-2.948-19.522-12.426-21.935-17.801"/>
		<path fill="#1A171B" d="M188.438,150.937c0,0,4.092,10.485,19.102,11.106s18.865-10.675,18.865-10.675l4.59-2.02
			c0,0-4.43,19.579-23.188,16.971c-18.76-2.608-19.746-12.069-22.256-17.401"/>
		<g>
			<path fill="#F2A090" d="M164.357,91.402c-0.674,1.417-5.503,0.355-4.648-1.439c1.215-2.547,2.002-5.339,2.324-8.185
				c-0.913,1.167-1.978,2.207-3.112,3.18c-0.328,2.07-0.911,4.103-1.8,6.051c-0.51,1.121-4.701,0.575-4.798-0.686
				c-2.333,2.141-4.222,4.608-4.771,8.122c-1.315,8.398,1.448,18.46,3.46,26.529c1.28,5.134,2.852,10.208,4.71,15.172
				c-0.164-0.623-0.337-1.244-0.493-1.869c-2.012-8.07-4.776-18.131-3.46-26.53c1.359-8.684,10.841-11.012,15.221-17.68
				c4.06-6.181,3.391-15.408-0.934-21.654C167.927,78.632,167.2,85.436,164.357,91.402z"/>
			<path fill="#F2A090" d="M229.61,216.569c-0.683-4.351-2.41-8.528-4.951-12.124c-12.865,4.634-26.701,6.67-39.56,5.293
				c-10.156-1.088-18.825-5.889-25.884-12.619c-0.035-0.082-0.074-0.161-0.109-0.243c-0.161-0.383-0.576-0.703-1.094-0.937
				c-5.158-5.213-9.272-11.521-12.682-17.977c-1.538-2.913-2.907-6.027-4.133-9.231c2.011,7.69,4.719,15.662,8.349,22.534
				c3.41,6.455,7.524,12.765,12.682,17.978c0.519,0.232,0.933,0.553,1.094,0.936c0.035,0.081,0.074,0.161,0.109,0.243
				c7.059,6.73,15.728,11.531,25.884,12.619c13.289,1.424,27.626-0.791,40.854-5.76C229.866,217.109,229.658,216.875,229.61,216.569
				z"/>
		</g>
	</g>
	<path fill="#1A171B" d="M248.729,104.27c3.928,1.083,8.966-0.448,12.711-1.406c0.802-0.205-2.225-3.689-3.468-3.371
		c-3.5,0.896-8.428,2.478-12.105,1.462c-1.074-0.296-0.17,1.06,0.063,1.329C246.646,103.114,247.65,103.972,248.729,104.27z
		 M249.438,97.889c3.902,1.147,8.978-0.304,12.732-1.197c0.783-0.186-2.21-3.671-3.468-3.371c-3.521,0.837-8.461,2.332-12.127,1.254
		c-1.075-0.317-0.16,1.071,0.063,1.329C247.364,96.744,248.356,97.57,249.438,97.889z M249.737,91.155
		c4.047,1.419,9.141,0.323,13.175-0.422c0.726-0.134-2.168-3.61-3.468-3.371c-2.999,0.553-6.016,0.979-9.069,0.974
		c-0.774,0-1.548-0.052-2.312-0.173c-0.209-0.033-1.202-0.327-0.398-0.045c-0.817-0.287-1.197-0.023-0.647,0.781
		C247.626,89.792,248.7,90.792,249.737,91.155z M250.96,84.999c3.858,1.264,8.993-0.041,12.764-0.817
		c0.751-0.154-2.183-3.636-3.467-3.371c-3.557,0.732-8.519,2.066-12.158,0.875c-1.078-0.352-0.144,1.09,0.062,1.33
		C248.901,83.872,249.874,84.644,250.96,84.999z M221.213,114.391c-11.621-4.726-12.354,11.27-32.466,10.716
		C216.69,142.632,232.832,119.117,221.213,114.391z M427.25,249.389c-16.627,0.666-33.491-0.635-49.951-2.862
		c-28.467-3.854-60.05-11.52-81.346-32.057c-11.698-11.282-17.777-26.374-18.132-42.529c-0.002-0.061-0.021-0.118-0.035-0.178
		c0.401-7.821-2.615-15.581-9.373-20.489c-9.181-6.669-22.22-6.923-34.192-4.598c0.366-0.202,0.739-0.391,1.098-0.616
		c3.686-2.316,7.01-5.103,10.117-8.14c8.005-7.821,13.25-18.037,16.775-28.558c8.517-0.375,15.895-3.506,20.235-11.835
		c6.532-12.531-3.21-26.682-16.21-28.097c0.153-0.458,0.297-0.923,0.423-1.401c1.711-6.512,2.999-13.148,3.712-19.845
		c1.014-9.537,0.845-20.985-6.162-28.365c-6.931-7.299-17.1-1.921-24.656-7.036c-2.805-1.899-5.328-3.881-8.638-4.843
		c-4.771-1.387-9.822-0.575-14.579,0.601c-11.229-14.088-35.556-9.224-45.693,3.565c-7.607,9.598-7.36,21.281-2.425,31.026
		c-4.817,6.319-8.527,13.204-11.243,20.663c-0.514-0.141-1.029-0.272-1.556-0.376c-1.054-0.209-2.181-0.435-3.338-0.616
		c-0.889-0.647-3.012-0.723-4.035-0.357c-1.701,0.003-3.358,0.249-4.835,0.944c-0.934,0.439-1.402,1.307-1.598,2.387
		c-0.283-0.281-0.603-0.485-0.958-0.551c-13.843-2.515-27.686-5.03-41.528-7.546c-2.12-1.797-4.688-2.983-7.712-3.241
		c-23.619-3.778-47.237-7.556-70.857-11.333c-0.118-0.038-0.234-0.08-0.354-0.114C7.026,39.295,0.513,54.839,0,65.331
		c0.001,9.414,4.064,23.435,14.521,26.365c1.967,0.551,3.78,0.666,5.452,0.441c0.146,0.067,0.29,0.11,0.429,0.116
		c6.234,0.298,12.468,0.594,18.7,0.891l10.487,0.499c0.346,0.017,0.66,0.005,0.958-0.021c1,3.877,2.353,7.673,3.824,11.39
		c5.39,13.627,13.398,26.288,23.94,36.506c14.828,14.369,35.544,21.581,55.584,24.834c2.55,9.465,6.054,18.583,10.844,27.081
		c3.152,5.589,7.066,10.601,11.631,14.839c0.012,0.136,0.041,0.284,0.111,0.451c17.141,40.658,59.934,67.539,99.66,82.317
		c37.332,13.887,80.922,16.247,118.917,3.25c8.587-2.938,15.359-10.438,22.325-16.02c11.002-8.813,22.002-17.626,33.002-26.439
		C431.909,250.612,427.897,249.363,427.25,249.389z M263.616,150.734c7.525,4.954,10.342,14.566,9.003,23.11
		c-1.525,9.718-8.455,18.028-15.527,24.391c-7.096,6.385-15.68,11.72-24.95,15.697c-1.876-10.174-9.123-19.128-18.942-22.742
		c8.187-2.796,14.643-9.248,15.061-18.898c0.037-0.835-4.913-1.298-4.935-0.804c-0.425,9.799-8.179,15.716-17.556,17.69
		c-23.853,5.022-35.945-17.553-42.983-35.984c-2.071-5.427-3.796-11.004-5.175-16.662c0.256-0.252,0.621-0.449,1.126-0.571
		c2.244-0.545,4.44-0.468,6.685-0.068c0.852,0.152,1.833,0.469,2.816,0.879c0.201,0.271,0.398,0.546,0.602,0.816
		c1.324,1.759,13.618,16.026,26.229,18.4c12.942,2.436,27.092-3.266,27.447-3.411C234.478,147.715,252.102,143.154,263.616,150.734z
		 M156.682,132.456c-0.616-2.914-1.149-5.843-1.573-8.784c-0.558-3.88-0.851-7.802-0.79-11.723c0.015-0.945,0.16-1.828,0.4-2.666
		c0.622,3.062,2.367,6.539,3.094,8.515c1.883,5.116,4.443,9.961,7.342,14.566c0.402,0.64,0.838,1.257,1.268,1.879
		C163.435,132.878,160.189,132.217,156.682,132.456z M173.488,15.471c7.532-12.265,30.572-15.963,39.459-3.163
		c0.618,0.891,1.611,1.001,2.595,0.741c4.919-1.302,10.148-2.317,15.012-0.314c2.592,1.067,4.659,3.098,7.05,4.516
		c7.126,4.229,15.782-0.008,22.396,5.395c7.073,5.777,6.342,17.956,5.605,26.002c-0.821,8.97-2.564,17.711-6.487,25.743
		c-2.229-0.107-4.456-0.214-6.685-0.321c1.588-5.338,2.602-11.067,2.515-16.621c-0.003-1.029-0.032-2.056-0.108-3.074
		c-0.174-2.334-0.724-4.655-1.751-6.703c-0.774-1.686-1.827-3.237-3.292-4.549c-4.751-4.257-11.862-2.807-17.52-2.082
		c-3.095,0.397-6.366,0.901-9.421,0.003c-3.82-1.124-6.812-4.583-9.416-7.389c-4.666-5.028-11.861-6.405-18.37-5.014
		c-10.318,2.208-17.263,11.816-15.812,21.269C169.924,41.108,166.199,27.343,173.488,15.471z M169.974,46.389
		c0.476,0.668,0.968,1.324,1.484,1.966c3.3,4.458,7.624,8.244,12.589,10.838c1.646,0.86,4.917-1.539,3.448-3.299
		c-1.159-1.389-2.093-2.936-2.741-4.564l-0.006-0.014c-0.002-0.004-0.003-0.008-0.003-0.011c-1.582-4.505-0.742-9.175,1.606-12.848
		c4.174-5.517,12.136-7.271,18.488-4.913c5.486,2.037,8.588,8.045,13.774,10.834c4.415,2.375,9.891,1.441,14.604,0.836
		c4.761-0.609,10.542-1.805,14.087,2.383c0.963,1.138,1.607,2.479,2.042,3.911c0.661,2.341,0.811,4.899,0.828,7.169
		c-0.001,0.203,0.001,0.41-0.002,0.609c-0.1,5.544-1.253,11.249-3.013,16.505c-0.076,0.23-0.102,0.473-0.093,0.712
		c-0.008,0.024-0.017,0.051-0.024,0.076c-0.063,0.191-0.01,0.334,0.101,0.439c0.198,0.668,0.73,1.217,1.519,1.255
		c3.663,0.176,7.327,0.352,10.99,0.528c0.101,0.005,0.197-0.008,0.297-0.016c0.912,0.104,1.928-0.264,2.461-1.278
		c0.971-1.845,1.945-3.6,2.773-5.429c9.524,2.086,15.426,11.421,14.113,21.287c-0.725,5.451-4.379,10.51-9.296,12.913
		c-2.648,1.295-5.329,0.857-8.151,0.761c-1.078-0.036-3.469,0.375-3.869,1.633c-3.38,10.639-8.39,20.477-16.061,28.668
		c-3.074,3.281-6.666,6.087-10.467,8.474c-4.121,2.589-21.131,10.166-35.467,7.345c-6.649-1.309-17.026-11.269-17.107-11.391
		c-2.305-3.479-5.686-6.084-8.089-9.573c-2.748-3.988-4.976-8.312-6.93-12.734c-1.188-2.686-6.196-12.713-3.99-15.366
		c2.26-2.72,5.31-4.789,8.075-7.083c1.971,0.132,3.769,0.233,5.619-0.188c-2.845,1.305-4.816,3.652-4.099,7.512
		c0.76,4.086,4.749,6.854,8.382,8.196c4.945,1.826,10.31,0.852,14.3-2.532c1.479-1.253-1.161-4.146-2.652-2.882
		c-2.888,2.449-6.22,3.226-9.918,2.569c-2.903-0.516-7.081-2.73-6.841-6.188c0.303-4.363,6.907-4.835,10.159-4.509
		c0.608,0.061,1.036-0.064,1.384-0.589c4.902-7.404,6.14-17.198,3.946-25.774c-0.503-1.968-3.822-2.231-3.188,0.246
		c1.865,7.294,0.598,16.031-3.477,22.614c-1.826-0.089-3.879,0.069-5.776,0.558c3.388-1.667,5.099-5.589,5.951-9.021
		c0.429-1.721,0.485-3.546,0.237-5.34c-0.248-2.295-0.993-4.522-2.247-6.186c-0.016-0.022-0.033-0.04-0.048-0.061
		c-0.305-0.466-0.632-0.913-0.986-1.334c-2.007-2.382-4.875-2.767-7.728-3.243c-0.727-0.987-1.488-1.91-2.361-2.824
		c-0.905-0.945-2.573-1.726-3.844-2.622c5.203-2.781,11.347-1.691,16.173,1.561c2.414,1.626,4.764-2.213,2.365-3.83
		c-6.129-4.128-14.404-5.349-20.984-1.522C162.342,57.788,166.784,50.875,169.974,46.389z M174.26,78.99
		c-0.206-1.091-0.491-2.112-0.825-3.107c1.561,1.155,2.653,2.832,3.341,5.392c0.081,0.338,0.152,0.666,0.213,0.974
		c0.646,3.276-0.299,6.961-2.247,9.614c-0.798,1.085-1.757,1.472-2.801,1.574C174.623,89.124,174.943,84.298,174.26,78.99z
		 M140.46,69.42c1.141,7.591,3.35,16.28-3.891,21.424c-11.02-0.728-22.038-1.455-33.056-2.184c0.249-0.408,0.492-0.824,0.724-1.257
		c1.683-3.153,2.461-7.31,2.345-11.605c-0.004-0.117-0.003-0.235-0.007-0.353c-0.004-0.077-0.009-0.154-0.012-0.231
		c-0.034-0.797-0.1-1.592-0.201-2.384c-0.017-0.125-0.034-0.253-0.051-0.379c-0.03-0.215-0.062-0.431-0.097-0.646
		c-0.51-3.253-1.529-6.434-3.073-9.167C115.581,64.898,128.02,67.159,140.46,69.42z M128.508,133.863
		c-10.543-2.861-21.362-7.477-30.285-13.209c-7.568-4.861-13.86-11.714-17.905-19.748c-0.577-1.146-2.227-4.201-2.737-6.487
		c0.381,0.353,0.76,0.592,1.061,0.605c4.338,0.208,8.676,0.413,13.012,0.62c3.386,0.161,6.126-0.904,8.359-2.787
		c9.227,0.61,18.452,1.219,27.676,1.83C127.402,107.396,127.424,120.668,128.508,133.863z M17.789,87.831
		c-0.021,0.021-0.026,0.05-0.042,0.073C7.717,90.259,2.979,76.669,2.977,68.581c0.408-8.342,3.617-17.488,11.805-21.062
		c2.459-1.074,4.641-1.232,6.552-0.742c0.152,0.147,0.294,0.252,0.417,0.294c1.212,0.42,2.295,0.997,3.281,1.679
		c4.531,3.857,6.715,11.869,6.717,17.354c0,2.032-0.239,4.13-0.712,6.192C29.121,79.702,24.479,86.214,17.789,87.831z
		 M50.054,88.642c-1.761,1.758-6.102,0.634-8.686,0.511c-4.72-0.225-9.438-0.449-14.158-0.674c1.823-1.611,3.163-3.735,4.34-5.835
		c2.542-4.537,3.347-9.902,3.197-15.086c0.001-0.008-0.001-0.015,0-0.022c-0.009-0.275-0.017-0.551-0.03-0.826
		c-0.004-0.083-0.011-0.167-0.015-0.252c-0.034-0.609-0.075-1.216-0.133-1.817c-0.212-2.219-0.727-4.535-1.51-6.802
		c-1.154-3.576-2.9-7.022-5.237-9.743c21.992,3.518,43.983,7.036,65.976,10.553c2.126,0.181,3.862,0.859,5.271,1.881
		c0.22,0.457,0.425,0.814,0.509,0.908c2.786,3.123,4.07,7.186,4.151,11.352c-0.323,7.577-4.278,15.827-10.163,18.23
		c-2.639,1.079-6.475,0.308-9.211,0.179l-2.842-0.136c1.179-1.407,2.438-2.808,3.246-4.326c1.863-3.498,2.539-7.519,2.719-11.428
		c0.253-5.526-1.306-10.531-5.262-14.437c-4.041-3.994-10.264-2.41-13.201,2.073c-2.675,4.085-0.688,9.665-2.249,14.107
		c-1.206,3.431-5.34,4.114-8.256,5.303C55.266,83.677,52.504,86.197,50.054,88.642z M77.071,133.573
		c-9.556-10.985-16.505-24.431-20.855-38.284c-0.861-2.743-1.162-3.862-0.427-5.153c0.213-0.203,0.436-0.409,0.676-0.617
		c3.638-3.161,10.775-3.43,12.982-7.928c0.082-0.168,0.152-0.337,0.221-0.506c2.173-1.333,3.863-3.267,4.426-6.912
		c0.141-0.914-0.028-6.845,0.529-9.915c0.528-0.349,1.088-0.662,1.654-0.953c0.292-0.148,0.569-0.266,0.843-0.368
		c3.679,2.008,4.142,8.978,4.2,12.258c0.124,6.835-3.295,14.382-8.676,18.697c-0.017,0.04-0.034,0.082-0.051,0.122
		c1.209,7.57,6.1,14.708,11.174,20.185c5.346,5.768,12.112,9.997,19.204,13.271c8.2,3.783,16.949,7.359,25.797,9.34
		c0.859,9.071,2.247,18.08,4.42,26.82C111.791,159.368,91.622,150.303,77.071,133.573z M159.914,207.618
		c-6.025-4.181-9.272-11.521-12.682-17.977c-11.473-21.724-13.77-54.452-13.771-54.454c0.098-0.041,0.174-0.062,0.217-0.053
		c-0.076-0.016-0.15-0.035-0.225-0.052c-1.121-13.494-1.122-27.083-0.821-40.07c1.865,0.124,3.731,0.246,5.597,0.37
		c0.196,0.075,0.381,0.081,0.534-0.026c0.103-0.072,0.195-0.149,0.294-0.223l0.021,0.001c4.217,0.152,7.198-4.283,8.257-7.798
		c1.367-4.534,0.824-10.14-0.013-14.717c-0.357-1.965-0.815-3.874-0.72-5.882c0.063-1.302,0.631-2.11,1.485-2.572
		c3.918,7.323,5.483,16.514,1.974,24.212c-0.678,1.485,4.192,2.219,4.744,1.007c3.716-8.149,2.231-17.751-1.992-25.494
		c1.255,0.236,2.495,0.617,3.521,1.008c0.026,0.129,0.076,0.266,0.176,0.42c4.41,6.824,4.285,15.878,0.884,23.021
		c-0.855,1.794,3.975,2.856,4.648,1.439c2.842-5.967,3.568-12.771,1.697-18.989c4.325,6.245,4.992,15.474,0.934,21.653
		c-4.379,6.668-13.861,8.997-15.222,17.681c-1.314,8.398,1.449,18.46,3.46,26.53c2.553,10.236,6.259,20.234,11.107,29.603
		c4.008,7.75,9.115,15.378,16.23,20.594c6.35,4.654,14.908,5.731,22.562,5.913c1.918,0.045,3.834-0.091,5.706-0.399
		c0.1,0.139,0.303,0.275,0.668,0.4c9.627,3.306,16.558,12.3,18.108,22.182c0.048,0.306,0.256,0.539,0.56,0.712
		c-13.229,4.968-27.911,5.212-41.199,3.789C176.498,218.359,160.379,207.942,159.914,207.618z M399.804,270.793l-17.506,14.025
		c-1.765,1.414-3.529,2.828-5.294,4.241c-0.495,0.396-2.085,1.443-1.557,1.223c-9.852,4.102-20.732,6.226-31.235,7.757
		c-24.898,3.631-50.451,1.498-74.599-5.397c-27.786-7.937-54.938-22.78-76.783-41.709c-12.003-10.401-22.364-22.841-29.397-37.1
		c5.127,3.389,10.851,5.914,17.101,7.331c21.119,4.785,43.952-0.057,63.03-9.655c12.271-6.173,24.301-15.402,30.804-27.779
		c10.895,52.727,83.342,65.476,129.246,68.116c6.34,0.364,12.724,0.631,19.093,0.599
		C415.071,258.562,407.438,264.678,399.804,270.793z M224.377,104.241c-1.088,0.059-2.396,0.195-3.33,0.818
		c-0.898,0.6,0.692,0.732,1.035,0.714c0.508-0.028,0.465-0.021,1.325,0.072c1.308,0.143,2.602,0.563,3.781,1.131
		c4.315,2.069,5.96,6.565,6.203,11.079c0.042,0.787,4.982,0.228,4.925-0.863c-0.264-4.9-2.201-9.354-6.788-11.555
		C229.371,104.604,226.771,104.112,224.377,104.241z M205.421,90.14c0.026-0.002,0.05-0.006,0.075-0.01
		c0.072-0.01,0.141-0.01,0.216-0.027c5.333-1.223,11.347,0.453,14.527,5.046c1.633,2.36,5.593,0.215,3.938-2.176
		c-2.678-3.866-6.621-6.346-10.986-7.298c2.584-0.917,5.352-1.249,8.002-0.724c2.824,0.56,4.145-3.746,1.303-4.31
		c-6.642-1.315-13.526,0.947-18.583,5.392c-0.268,0.166-0.476,0.377-0.626,0.619c-0.015,0.021-0.027,0.044-0.043,0.065
		c-0.019,0.032-0.038,0.063-0.055,0.097c-0.48,0.784-0.325,1.666,0.168,2.327C203.769,89.8,204.487,90.245,205.421,90.14z
		 M209.79,68.93c5.434-3.645,12.157-2.643,17.354,0.858c2.414,1.626,4.764-2.214,2.365-3.829c-6.414-4.321-15.184-5.471-21.896-0.97
		C205.226,66.593,207.374,70.55,209.79,68.93z"/>
</g>
</svg>
