<?xml version="1.0" encoding="utf-8"?>
<!-- Generator: Adobe Illustrator 16.0.0, SVG Export Plug-In . SVG Version: 6.00 Build 0)  -->
<!DOCTYPE svg PUBLIC "-//W3C//DTD SVG 1.1//EN" "http://www.w3.org/Graphics/SVG/1.1/DTD/svg11.dtd">
<svg version="1.1" id="Layer_1" xmlns="http://www.w3.org/2000/svg" xmlns:xlink="http://www.w3.org/1999/xlink" x="0px" y="0px"
	 width="355.083px" height="314.149px" viewBox="0 0 355.083 314.149" enable-background="new 0 0 355.083 314.149"
	 xml:space="preserve">
<g>
	<path fill="#FFFFFF" d="M186.987,277.258c-23.899,9.047-47.797,18.096-71.695,27.143c-18.928-49.992-37.854-99.984-56.78-149.979
		c-8.518-22.497-17.035-44.993-25.552-67.489c-0.23-0.611-0.462-1.223-0.693-1.834c-0.008-0.022-0.021-0.033-0.031-0.049
		c0.043-0.011,0.084-0.021,0.144-0.043c2.065-0.782,4.132-1.565,6.197-2.346c10.194-3.859,20.388-7.719,30.583-11.578
		C129.358,48.291,189.56,25.499,249.76,2.708L256.914,0c18.926,49.992,37.853,99.985,56.779,149.979
		c8.754,23.122,17.507,46.244,26.261,69.366C288.964,238.649,237.976,257.953,186.987,277.258z"/>
	<path fill="#FFFFFF" d="M162.805,72.912c-18.934-13.225-44.016-15.339-65.295-6.85c-8.28,3.303-15.702,8.435-22.06,14.644
		c-22.077,22.618-25.202,57.745-7.031,83.633c-20.881,20.799-44.017,39.191-64.921,59.932c-0.104,0.103-0.186,0.212-0.255,0.322
		c-3.206,3.953-3.896,9.415-2.682,14.27c1.504,6.021,6.915,8.833,12.621,9.703c10.638,1.621,16.413-5.002,22.794-11.997
		c16.789-18.403,33.071-37.29,50.574-55.024c18.757,11.752,41.953,14.002,62.803,5.96c22.488-8.673,38.178-29.499,41.344-53.188
		C193.889,110.431,182.329,86.55,162.805,72.912z"/>
	<path fill="#E2E3E4" d="M201.527,284.527c-23.899,9.048-47.798,18.096-71.695,27.144c-18.928-49.993-37.854-99.985-56.78-149.979
		c-8.518-22.496-17.035-44.993-25.551-67.488c-0.231-0.612-0.463-1.223-0.694-1.835c-0.008-0.022-0.021-0.033-0.031-0.048
		c0.043-0.011,0.084-0.021,0.144-0.044c2.065-0.781,4.131-1.564,6.197-2.347C63.31,86.07,73.504,82.211,83.7,78.353
		C143.899,55.561,204.1,32.77,264.3,9.979l7.153-2.709c18.926,49.993,37.853,99.985,56.779,149.979
		c8.754,23.122,17.507,46.244,26.262,69.367C303.504,245.92,252.516,265.224,201.527,284.527z"/>
	<g>
		<path fill="#BBBCBE" d="M78.337,175.652c2.168,5.728,4.336,11.455,6.505,17.183c1.848-1.934,3.703-3.861,5.575-5.772
			c7.54,19.917,15.08,39.834,22.621,59.75c4.003,10.575,8.007,21.15,12.011,31.726c1.068,2.822,2.06,5.46,3.754,8.015
			c4.839,7.291,15.455,10.38,23.504,7.332c11.68-4.422,23.361-8.845,35.043-13.267c1.121,0.138,2.197-0.17,2.541-0.962
			c31.915-12.083,63.831-24.166,95.748-36.248c0.628,0.3,1.072,0.287,0.963-0.365c7.765-2.941,15.53-5.88,23.296-8.82
			c3.578-1.354,7.155-2.708,10.731-4.062c9.598-3.634,14.036-13.345,10.864-23.015c-19.68-51.981-39.359-103.961-59.039-155.942
			c-2.68-7.079-4.852-16.694-11.228-21.405c-9.574-7.072-18.46-3.747-28.139-0.083c-29.645,11.224-59.289,22.447-88.934,33.67
			l-6.125,2.319c0.008,0.001,0.016,0.003,0.024,0.003c-7.824-0.982-15.816-0.63-23.571,0.991
			c-6.704,2.537-13.408,5.076-20.111,7.613c-4.989,2.922-9.586,6.504-13.728,10.549c-1.231,1.261-2.395,2.567-3.507,3.903
			c0.002-0.003,0.004-0.006,0.006-0.009c-1.273,0.482-2.546,0.964-3.818,1.446c-7.301,2.765-11.748,8.983-12.044,16.774
			c-0.121,3.17,1.138,6.179,2.256,9.092c0.003-0.01,0.005-0.02,0.009-0.031c-1.229,5.252-1.795,10.632-1.715,16.014
			c3.74,9.881,7.48,19.761,11.221,29.641c1.479,3.91,2.961,7.819,4.44,11.729c1.278-1.247,2.549-2.502,3.81-3.766
			c0.396-0.397,0.738-1.175,0.351-1.71c-0.014-0.019-0.026-0.039-0.04-0.058l2.178,2.158c-0.097,0.252-0.248,0.483-0.411,0.647
			C81.712,172.363,80.03,174.012,78.337,175.652z M66.896,105.654l0.004-0.008c0.542-2.879,1.865-5.567,3.843-7.742
			C69.285,100.416,68,103.004,66.896,105.654z M89.042,151.35c-0.052-0.385-0.083-0.782-0.085-1.195
			c-0.001-0.283-0.015-0.555-0.036-0.816c-0.008-0.093-0.023-0.177-0.033-0.267c-0.02-0.163-0.037-0.329-0.065-0.484
			c-0.019-0.105-0.046-0.203-0.067-0.305c-0.028-0.128-0.056-0.26-0.09-0.382c-0.031-0.11-0.07-0.211-0.106-0.316
			c-0.036-0.103-0.068-0.209-0.108-0.306c-0.045-0.11-0.098-0.21-0.146-0.314c-0.016-0.032-0.029-0.065-0.045-0.096
			c1.732,0.902,2.763,2.605,2.775,5.363c0.006,1.377,0.293,2.611,0.84,3.618C90.272,155.02,89.313,153.395,89.042,151.35z
			 M125.644,135.867c-0.542-0.392-1.014-0.853-1.452-1.345c-0.954-0.779-1.84-1.719-2.027-2.977c-0.3-2.02,0.15-3.25,0.982-4.152
			c0.541-1.277,1.273-2.48,1.889-3.072c0.691-0.669,2.381-2.635,2.545-4.174c4.52,0.511,0.736,5.051-0.394,6.143
			c-0.614,0.592-1.347,1.795-1.889,3.072c-0.831,0.902-1.282,2.132-0.981,4.151c0.187,1.259,1.073,2.198,2.027,2.978
			c0.438,0.492,0.91,0.953,1.451,1.345c2.546,2.185,0.388,5.149-2.594,5.164c-1.953,0.009-5.83,1.387-6.979,3.087
			c-0.696,1.032-0.908,1.522-1.265,2.752c-0.07,0.615-0.12,1.231-0.153,1.849c0.21,2.704-3.045,4.751-5.116,2.604
			c-1.389-1.438-4.61-2.648-6.627-2.659c-1.153-0.006-2.524,0.517-3.401,1.248c-0.513,0.389-1,0.807-1.463,1.253
			c-1.654,1.926-4.968,1.548-5.56-0.808c1.165,0.236,2.524-0.131,3.408-1.16c0.461-0.448,0.949-0.865,1.462-1.254
			c0.877-0.731,2.248-1.253,3.4-1.248c2.019,0.011,5.239,1.22,6.628,2.659c2.072,2.146,5.325,0.1,5.116-2.604
			c0.032-0.618,0.084-1.234,0.153-1.85c0.356-1.23,0.568-1.721,1.266-2.752c1.147-1.7,5.023-3.078,6.978-3.087
			C126.032,141.017,128.19,138.052,125.644,135.867z M131.48,151.601c-0.092-0.054-0.188-0.098-0.274-0.162
			c-0.18-0.133-0.329-0.264-0.484-0.395c-0.21-0.178-0.399-0.354-0.566-0.53c-0.002,0-0.002-0.001-0.003-0.003
			c-1.633-1.708-1.34-3.31-0.83-5.164c1.229-0.52,2.247-1.346,2.931-2.552c-0.021,0.426-0.052,0.848-0.093,1.248
			C131.846,147.104,130.195,149.317,131.48,151.601z M132.06,135.498c-0.128-0.048-0.254-0.098-0.382-0.147
			c-0.702-0.085-1.268-0.249-1.712-0.485c-0.453-0.54-0.794-1.068-1.045-1.602c0.196,0.043,0.382,0.092,0.604,0.119
			c0.128,0.048,0.254,0.098,0.382,0.147c0.582,0.239,1.114,0.555,1.596,0.947c0.533,0.446,1.065,0.894,1.429,1.464
			C132.656,135.773,132.366,135.624,132.06,135.498z M100.623,136.599c-0.514-0.401-0.902-0.858-1.203-1.346
			c5.952,3.335,13.797-3.468,10.323-9.352c0.522,0.273,1.019,0.598,1.467,0.985C116.528,133.266,106.959,141.557,100.623,136.599z
			 M97.76,123.17c-4.508,4.155-3.573,11.538,0.104,15.848c-0.659-0.463-1.287-0.999-1.864-1.625
			c-3.92-4.251-5.019-11.926-0.392-16.191c4.438-4.093,10.691-3.939,15.107,0.134c0.129,0.118,0.25,0.251,0.366,0.393
			c0.027,0.027,0.053,0.046,0.079,0.075c0.127,0.139,0.244,0.29,0.365,0.436C107.248,119.252,101.766,119.476,97.76,123.17z
			 M93.956,180.344c0.299-0.039,0.6-0.068,0.902-0.09c19.018,12.367,44.121,13.193,63.396,0.544
			c19.209-12.608,30.485-35.321,27.93-58.326c-1.038-9.343-4.199-18.409-9.085-26.385c0,0,0.001,0.001,0.001,0.001
			c-0.007-0.009-0.013-0.018-0.019-0.028c-0.408-0.665-0.828-1.32-1.261-1.97c-0.079-0.119-0.16-0.237-0.241-0.356
			c-0.368-0.547-0.746-1.088-1.131-1.623c-0.101-0.14-0.203-0.28-0.306-0.418c-0.383-0.524-0.775-1.042-1.177-1.554
			c-0.096-0.124-0.192-0.248-0.289-0.372c-0.458-0.576-0.924-1.142-1.4-1.701c-0.039-0.045-0.077-0.093-0.116-0.139
			c-0.698-0.813-1.422-1.605-2.161-2.382c10.68,10.161,17.621,24.238,19.262,39.004c2.556,23.004-8.721,45.718-27.93,58.325
			c-20.118,13.202-46.594,11.732-65.863-2.228C94.311,180.534,94.131,180.44,93.956,180.344z M155.665,121.21
			c0.13,0.03,0.251,0.069,0.354,0.12c0.154,0.059,0.277,0.134,0.385,0.216c1.352,0.737,2.499,1.68,3.407,2.766
			c-0.398-0.284-0.812-0.555-1.254-0.797c-0.108-0.082-0.232-0.157-0.386-0.216c-0.103-0.052-0.223-0.09-0.354-0.12
			c-5.082-1.779-11.856-0.875-14.957,4.014c-2.574,4.058-1.991,8.542,0.722,11.768c-4.444-3.146-6.03-8.763-2.875-13.736
			C143.807,120.336,150.582,119.433,155.665,121.21z M154.173,107.869c0.796-0.076,1.541,0.419,2.122,1.896
			c0.392,0.989,1.113,2.252,2.017,3.36C156.473,112.003,154.861,109.561,154.173,107.869z M171.037,126.428
			c0.073,0.331,0.216,0.609,0.382,0.872c-0.251-0.152-0.493-0.318-0.722-0.505c-0.775-0.65-1.58-1.283-1.812-2.336
			c-0.554-2.505-0.479-5.245,0.628-7.582c0.399-0.843,0.602-1.518,0.653-2.06c1.896,0.098,2.932,1.003,1.499,4.028
			C170.558,121.183,170.483,123.923,171.037,126.428z M168.442,111.229c-3.895,0.584-6.459,1.521-8.293-1.816
			c1.596,0.679,3.606,0.13,6.216-0.261c1.456-0.219,3.481-0.497,4.779,0.465c0.887,0.656,1.448,1.289,1.8,1.914
			C171.648,110.781,169.801,111.024,168.442,111.229z M164.72,148.926c1.874,1.198,3.259,0.086,4.155-3.335l-0.671-1.394
			c-0.182-0.591-0.351-1.185-0.51-1.783c-0.08-0.889-0.285-2.144,0.257-2.97c1.537-2.343,3.503-4.385,6.144-5.427
			c1.068-1.693,1.539-3.036,1.427-4.035c2.521,0.572,2.844,2.441,0.969,5.6c-0.142,0.078-0.282,0.16-0.426,0.239
			c-0.026,0.015-0.051,0.03-0.078,0.044c-0.184,0.103-0.367,0.206-0.551,0.315c-0.253,0.149-0.504,0.311-0.752,0.478
			c-0.072,0.049-0.143,0.099-0.213,0.149c-0.272,0.192-0.54,0.395-0.796,0.622c-0.034,0.03-0.062,0.061-0.095,0.092
			c-1.37,1.062-2.509,2.417-3.477,3.892c-0.542,0.827-0.337,2.082-0.258,2.97c0.16,0.597,0.33,1.191,0.511,1.783l0.671,1.394
			c-0.896,3.421-2.281,4.533-4.155,3.334c-2.104-0.967-5.007-0.704-7.203-0.221c-0.708,0.154-1.583,0.694-2.036,1.236
			c-0.798,0.953-5.252,9.048-7.425,3.537c-0.01-0.024-0.022-0.052-0.031-0.076c2.175-0.207,4.72-4.731,5.303-5.43
			c0.455-0.542,1.33-1.081,2.037-1.236C159.714,148.221,162.617,147.958,164.72,148.926z M174.431,125.133
			c0.944,0.241,2.002,0.265,2.784,0.842c0.09,0.065,0.18,0.135,0.271,0.202c0.779,0.585,1.59,1.26,2.11,2.103
			c-0.102-0.076-0.204-0.153-0.304-0.228C177.745,126.908,175.115,127.935,174.431,125.133z M155.391,125.809
			c2.736,1.743,3.973,4.704,3.767,7.971c-0.256,4.064-4.286,7.592-8.262,6.082c-1.308-0.497-2.3-1.342-3.014-2.378
			c0.271,0.152,0.556,0.293,0.861,0.409c3.976,1.51,8.007-2.018,8.262-6.081C157.147,129.572,156.618,127.472,155.391,125.809z
			 M147.809,158.648c-1.347-0.872-2.413-2.323-2.982-3.763c-0.176-0.443-0.36-0.82-0.551-1.166c1.033,0.439,1.896,1.389,2.628,3.243
			C147.13,157.536,147.439,158.108,147.809,158.648z M142.641,147.618c1.224,0.277,2.419,1.295,3.398,2.498
			c-0.406-0.248-0.824-0.435-1.246-0.529c-2.711-0.615-10.987,2.868-10.607-1.163C136.745,148.556,140.875,147.217,142.641,147.618z
			 M223.439,73.771c-1.669-4.409-3.338-8.817-5.007-13.224c16.303-4.712,33.13,4.808,40.278,19.554
			c-3.897,1.476-7.794,2.952-11.69,4.426c-1.056,0.401,3.053,3.569,4.575,2.993c2.909-1.101,5.816-2.202,8.726-3.304
			c4.754,16.06-1.946,33.564-16.891,41.102c-1.852-4.888-3.701-9.775-5.551-14.663c-0.851-2.243-6.421-1.594-5.445,0.982
			c1.985,5.243,3.97,10.486,5.956,15.729c-16.532,5.181-33.748-4.422-40.975-19.407c5.702-2.159,11.406-4.318,17.109-6.478
			c0.295-0.112-3.375-3.303-4.666-2.814c-4.692,1.777-9.384,3.553-14.076,5.329c-5.513-16.356,2.835-34.857,18.384-41.869
			l3.945,10.424C218.67,74.024,223.833,74.812,223.439,73.771z M194.251,114.347c0.001,0.005,0.003,0.01,0.005,0.015
			c8.994,15.048,28.644,21.693,45.323,16.151c2.89,7.629,5.777,15.259,8.666,22.889c-18.302,7.03-27.53,28.677-20.901,47.379
			c0.022,0.063,0.048,0.124,0.071,0.186c-8.625,3.267-17.248,6.531-25.873,9.797c-7.023-14.769-21.766-24.13-37.644-23.635
			c17.428-10.264,29.285-28.412,31.992-48.658C196.984,130.291,196.344,122.113,194.251,114.347z M261.989,174.34
			c-2.363-6.243-4.727-12.485-7.091-18.728c16.259-5.413,34.089,2.628,40.806,19.288c0.203,0.576,0.39,1.153,0.565,1.732
			c-3.856,1.459-7.712,2.919-11.567,4.379c-0.876,0.332,1.606,5.316,2.957,4.807c3.277-1.242,6.555-2.482,9.83-3.723
			c2.146,14.45-4.274,28.891-17.188,36.865c-0.753,0.465-1.517,0.884-2.284,1.282l-2.784-7.354
			c-0.483-1.277-4.854-4.601-3.826-1.887l3.967,10.481c-16.831,6.983-36.031-1.015-43.061-18.449
			c-0.026-0.062-0.045-0.125-0.07-0.187c5.938-2.248,11.875-4.496,17.812-6.744c2.938-1.111-2.216-2.869-3.861-2.247
			c-5.019,1.9-10.037,3.801-15.056,5.7c-4.321-15.431,3.012-32.205,16.579-40.583c0.718-0.443,1.445-0.845,2.175-1.227
			c2.22,5.857,4.438,11.716,6.654,17.574C257.395,177.565,262.963,176.917,261.989,174.34z M173.244,249.021
			c1.159,3.063,2.32,6.126,3.479,9.189c-15.562,5.474-33.036-1.39-40.834-15.706c4.136-1.565,8.273-3.132,12.41-4.698
			c3.444-1.305,1.146-4.818-1.809-3.699c-4.114,1.558-8.229,3.114-12.342,4.673c-6.773-17.247,3.041-36.726,19.314-44.107
			c0.536-0.243,1.073-0.47,1.615-0.682c2.316,6.12,4.633,12.241,6.951,18.362c0.092,0.24,5.029-2.205,4.659-3.184
			c-2.113-5.583-4.228-11.166-6.341-16.749c15.368-3.235,31.57,4.787,37.971,19.562c-5.271,1.996-10.541,3.991-15.811,5.986
			c-2.938,1.111,2.216,2.87,3.861,2.247c4.354-1.648,8.71-3.298,13.063-4.946c4.429,16.165-3.2,33.045-17.979,40.863
			c-0.946-2.506-1.896-5.012-2.845-7.517C177.609,245.975,172.065,245.908,173.244,249.021z M95.532,187.905
			c14.101,7.657,30.324,10.219,46.036,7.386c-12.259,10.094-16.766,27.848-11.271,43.35c0.168,0.472,0.351,0.934,0.536,1.395
			c-4.539,1.719-9.077,3.437-13.614,5.154C109.991,226.095,102.762,207,95.532,187.905z M170.881,281.945
			c-7.389,2.797-14.777,5.594-22.167,8.391c-13.507,5.114-17.338-7.754-20.886-17.123c-3.052-8.062-6.105-16.127-9.158-24.189
			c4.631-1.753,9.262-3.506,13.893-5.259c8.631,16.177,28.286,24.479,46.038,19.404c1.75,4.622,3.499,9.243,5.249,13.866
			C179.528,278.672,175.204,280.309,170.881,281.945z M268.26,245.078c-26.527,10.043-53.055,20.086-79.583,30.13
			c-1.741-4.601-3.484-9.201-5.226-13.801c17.794-7.975,25.467-29.145,19.418-47.438c8.628-3.267,17.256-6.533,25.885-9.8
			c7.701,16.071,27.177,25.154,44.467,22.175c1.258-0.218,2.479-0.507,3.67-0.848c1.802,4.756,3.604,9.513,5.403,14.269
			C277.616,241.537,272.939,243.308,268.26,245.078z M325.97,205.227c0.153,0.405,0.307,0.81,0.46,1.215
			c2.876,8.763-1.534,17.194-10.007,20.402c-3.053,1.156-6.106,2.312-9.16,3.469c-7.415,2.807-14.831,5.614-22.246,8.422
			c-1.787-4.718-3.573-9.438-5.36-14.156c17.29-6.57,26.514-26.163,22.016-44.066c4.355-1.648,8.712-3.298,13.067-4.947
			C318.484,185.452,322.227,195.34,325.97,205.227z M312.778,170.382c-4.309,1.631-8.617,3.263-12.926,4.895
			c-7.808-16.829-26.648-26.856-45.057-23.685c-0.445,0.076-0.879,0.175-1.317,0.268c-2.956-7.809-5.912-15.618-8.868-23.426
			c17.21-8.476,26.271-27.586,20.93-46.193c4.042-1.531,8.087-3.062,12.13-4.593C289.372,108.56,301.076,139.471,312.778,170.382z
			 M218.46,40.161c8.657-3.277,17.313-6.554,25.969-9.832c7.37-2.789,15.113-0.564,18.09,7.303c0.835,2.204,1.671,4.407,2.505,6.612
			c3.694,9.757,7.388,19.514,11.082,29.271c-4.03,1.524-8.06,3.052-12.09,4.576c-8.142-17.593-28.299-26.531-46.776-20.699
			c-1.678-4.433-3.356-8.866-5.035-13.3c-0.159-0.414-0.686-0.772-1.347-1.053L218.46,40.161z M146.672,67.34
			c20.253-7.667,40.506-15.335,60.76-23.003c1.85,4.892,3.702,9.782,5.553,14.672c-17.109,7.636-26.721,25.55-23.157,43.6
			l0.009,0.021c-4.951-10.123-12.475-19.022-21.839-25.562c-6.633-4.633-14.021-7.896-21.734-9.825
			C146.399,67.276,146.537,67.305,146.672,67.34z M121.542,114.382L121.542,114.382c1.095,0.463,2.426,0.652,3.941,0.609
			c1.667-0.048,3.099,0.983,4.28,2.006c0.162,0.141,0.295,0.284,0.424,0.427c-0.434-2.417-1.109-4.947,0.702-7.392
			c1.843-2.487,5.692-1.912,8.04-0.83c4.116,1.896,5.954-0.385,7.415-3.988c0.628-1.547,2.288-2.513,3.699-3.183
			c2.647-1.258,5.115,0.322,6.573,2.451c-1.301-0.844-2.865-1.149-4.496-0.374c-1.411,0.669-3.072,1.635-3.699,3.182
			c-1.462,3.604-3.299,5.884-7.415,3.988c-2.347-1.082-6.197-1.657-8.04,0.83c-1.812,2.445-1.136,4.975-0.702,7.392
			c-0.129-0.144-0.262-0.288-0.424-0.427c-1.182-1.023-2.613-2.055-4.28-2.007c-3.03,0.086-5.337-0.743-6.43-2.881
			C121.264,114.258,121.401,114.322,121.542,114.382z M117.731,117.069c-2.017-1.362-2.947-5.113-2.958-7.372
			c0.009-0.314-0.032-0.598-0.098-0.863c1.261,0.256,2.297,1.215,2.25,2.832c0.007,1.668,0.521,4.146,1.601,5.878
			C118.261,117.404,117.997,117.25,117.731,117.069z M81.569,135.34c-1.335,1.951-4.284,4.885-2.926,7.503
			c-0.386-0.272-0.753-0.566-1.096-0.864c-3.325-2.877,0.397-6.457,1.944-8.716c2.572-3.755,1.414-5.826-1.661-8.729
			c-0.968-0.913-1.73-3.086-1.423-4.434c0.825-3.619,3.76-5.059,7.276-5.074c1.283-0.006,5.104-0.801,5.285-2.825
			c0.097-1.098-0.296-3.034-0.024-4.235c0.335-1.483,0.884-3.341,2.279-4.218c3.095-1.947,6.144-1.46,8.677,1.165
			c3.114,3.227,5.537,2.5,8.436-0.568c0.889-0.941,2.566-1.714,3.853-1.807c2.521-0.182,4.393,0.895,5.38,2.706
			c-0.916-0.485-2.025-0.722-3.303-0.629c-1.286,0.092-2.964,0.866-3.852,1.806c-2.899,3.069-5.322,3.796-8.438,0.57
			c-2.533-2.626-5.581-3.113-8.676-1.166c-1.396,0.877-1.943,2.734-2.279,4.218c-0.272,1.202,0.121,3.138,0.024,4.235
			c-0.182,2.024-4.002,2.819-5.284,2.825c-3.518,0.016-6.452,1.455-7.277,5.074c-0.308,1.348,0.455,3.521,1.423,4.434
			C82.983,129.515,84.141,131.586,81.569,135.34z M81.731,141.016c0.516,0.059,1.132,0.067,1.88,0.01
			c1.001-0.163,2.002-0.159,3.001,0.011c1.109,0.1,1.93,0.488,2.82,1.09c0.517,0.349,0.966,0.875,1.353,1.491
			c-0.614-0.325-1.247-0.542-2.021-0.612c-0.999-0.17-2-0.174-3.002-0.011C82.478,143.247,81.597,142.273,81.731,141.016z"/>
		<path fill="#BBBCBE" d="M328.233,157.249c-18.927-49.994-37.854-99.986-56.779-149.979l-1.817,0.688
			c18.84,49.765,37.68,99.527,56.52,149.292c8.754,23.122,17.508,46.244,26.261,69.367
			c-50.988,19.304-101.978,38.607-152.967,57.911c-23.294,8.818-46.586,17.638-69.879,26.456c0.088,0.229,0.174,0.458,0.261,0.688
			c23.897-9.048,47.796-18.096,71.695-27.144c50.989-19.304,101.978-38.607,152.968-57.911
			C345.74,203.493,336.987,180.371,328.233,157.249z"/>
	</g>
	<circle fill="#797A7C" cx="225.89" cy="92.119" r="21.464"/>
	<circle fill="#797A7C" cx="260.971" cy="187.84" r="21.464"/>
	<circle fill="#797A7C" cx="163.704" cy="225.932" r="21.464"/>
	<g>
		<path fill="#1A171B" d="M355.082,227.55c-19.458-51.396-38.914-102.789-58.372-154.184c-8.777-23.186-17.557-46.372-26.333-69.558
			c-0.386-1.017-3.258-3.573-4.46-3.118c-51.083,19.34-102.166,38.68-153.25,58.019c-24.855,9.409-49.708,18.819-74.562,28.229
			c-0.181,0.022-0.25,0.122-0.21,0.298c10.416,27.513,20.833,55.027,31.249,82.541c0.793-0.778,1.604-1.539,2.393-2.323
			c-6.697-9.542-10.492-20.339-11.521-31.301c-5.556-14.676-11.113-29.353-16.669-44.027c-0.23-0.611-0.462-1.224-0.693-1.834
			c-0.009-0.023-0.021-0.034-0.032-0.049c0.043-0.011,0.085-0.021,0.144-0.044c2.066-0.781,4.132-1.564,6.198-2.347
			c10.194-3.859,20.389-7.718,30.583-11.577c60.2-22.792,120.401-45.583,180.601-68.375c2.385-0.902,4.77-1.805,7.153-2.708
			c18.927,49.993,37.854,99.985,56.78,149.979c8.754,23.122,17.508,46.244,26.262,69.367
			c-50.989,19.304-101.979,38.608-152.968,57.911c-23.899,9.048-47.797,18.096-71.695,27.144
			c-14.708-38.847-29.414-77.693-44.12-116.54c-0.86,0.904-1.717,1.813-2.572,2.722c5.76,15.215,11.521,30.43,17.28,45.645
			c8.778,23.186,17.558,46.372,26.335,69.559c0.384,1.016,3.256,3.572,4.458,3.117c51.085-19.34,102.167-38.68,153.251-58.02
			c24.854-9.408,49.709-18.818,74.562-28.229c0.102-0.038,0.098-0.158,0.027-0.322C355.02,227.559,355.089,227.569,355.082,227.55z"
			/>
		<g>
			<path fill="#1A171B" d="M329.417,205.068c-19.68-51.981-39.359-103.961-59.039-155.941c-2.68-7.08-4.852-16.695-11.229-21.405
				c-9.574-7.073-18.459-3.749-28.138-0.084c-29.645,11.223-59.289,22.447-88.934,33.67c-2.042,0.773-4.084,1.546-6.125,2.319
				c2.913,0.364,5.801,0.907,8.643,1.636c20.254-7.667,40.506-15.335,60.76-23.003c1.85,4.891,3.702,9.782,5.553,14.672
				c-17.108,7.636-26.722,25.55-23.157,43.6c1.844,3.769,3.336,7.703,4.428,11.753c8.995,15.047,28.645,21.693,45.324,16.151
				c2.89,7.63,5.777,15.26,8.667,22.89c-18.303,7.03-27.532,28.676-20.903,47.378c0.023,0.063,0.05,0.123,0.072,0.186
				c-8.625,3.266-17.248,6.531-25.873,9.797c-7.023-14.769-21.766-24.13-37.645-23.635c-2.963,1.744-6.083,3.27-9.351,4.529
				c-4.248,1.638-8.593,2.842-12.979,3.633c-12.26,10.093-16.767,27.848-11.271,43.351c0.168,0.472,0.351,0.934,0.536,1.396
				c-4.539,1.718-9.076,3.436-13.613,5.153c-7.229-19.095-14.458-38.19-21.688-57.283c-1.281-0.696-2.545-1.431-3.788-2.209
				c-0.446,0.451-0.883,0.912-1.326,1.365c7.539,19.917,15.08,39.833,22.621,59.75c4.004,10.575,8.007,21.151,12.011,31.726
				c1.067,2.822,2.06,5.46,3.754,8.014c4.839,7.292,15.455,10.38,23.504,7.334c11.68-4.423,23.362-8.846,35.043-13.268
				c1.121,0.138,2.197-0.17,2.54-0.961c31.916-12.084,63.832-24.167,95.749-36.249c0.628,0.3,1.072,0.286,0.963-0.365
				c7.765-2.94,15.53-5.88,23.296-8.82c3.578-1.354,7.155-2.708,10.73-4.062C328.15,224.449,332.589,214.738,329.417,205.068z
				 M210.127,42.017c-0.159-0.416-0.686-0.773-1.347-1.054l7.604-2.878c8.656-3.278,17.312-6.554,25.968-9.833
				c7.37-2.789,15.114-0.564,18.09,7.303c0.835,2.204,1.672,4.408,2.505,6.612c3.694,9.757,7.388,19.514,11.082,29.271
				c-4.03,1.525-8.06,3.051-12.089,4.576c-8.143-17.593-28.301-26.53-46.777-20.698C213.485,50.883,211.806,46.449,210.127,42.017z
				 M235.802,108.577c-0.851-2.242-6.421-1.594-5.445,0.982c1.985,5.243,3.97,10.486,5.956,15.729
				c-16.532,5.181-33.748-4.422-40.975-19.407c5.702-2.16,11.406-4.32,17.109-6.479c0.295-0.112-3.374-3.302-4.666-2.813
				c-4.692,1.776-9.383,3.552-14.076,5.328c-5.513-16.356,2.835-34.857,18.383-41.868l3.946,10.424
				c0.558,1.473,5.721,2.261,5.327,1.219c-1.669-4.409-3.338-8.817-5.006-13.225c16.303-4.712,33.13,4.809,40.277,19.554
				c-3.897,1.476-7.794,2.952-11.69,4.427c-1.056,0.4,3.053,3.568,4.575,2.992c2.909-1.101,5.816-2.202,8.725-3.304
				c4.755,16.059-1.945,33.563-16.89,41.102C239.501,118.353,237.651,113.465,235.802,108.577z M242.532,126.356
				c17.211-8.477,26.271-27.586,20.93-46.193c4.043-1.531,8.088-3.062,12.131-4.593c11.703,30.912,23.406,61.823,35.108,92.734
				c-4.309,1.631-8.617,3.263-12.926,4.895c-7.808-16.829-26.648-26.856-45.057-23.685c-0.446,0.076-0.88,0.175-1.317,0.269
				C248.446,141.975,245.489,134.164,242.532,126.356z M245.638,156.897c0.718-0.443,1.444-0.845,2.175-1.228
				c2.219,5.858,4.438,11.717,6.654,17.575c0.85,2.243,6.42,1.595,5.444-0.982c-2.364-6.243-4.728-12.485-7.091-18.728
				c16.259-5.414,34.088,2.627,40.806,19.288c0.203,0.576,0.391,1.153,0.565,1.732c-3.856,1.46-7.713,2.919-11.568,4.38
				c-0.875,0.331,1.607,5.316,2.958,4.805c3.277-1.241,6.555-2.481,9.831-3.723c2.145,14.451-4.275,28.892-17.189,36.866
				c-0.753,0.466-1.517,0.884-2.284,1.283l-2.784-7.354c-0.483-1.277-4.854-4.601-3.826-1.887l3.968,10.48
				c-16.832,6.985-36.032-1.014-43.062-18.448c-0.025-0.062-0.045-0.125-0.07-0.187c5.938-2.248,11.875-4.496,17.812-6.743
				c2.938-1.112-2.217-2.87-3.862-2.248c-5.018,1.9-10.038,3.801-15.056,5.7C224.738,182.05,232.071,165.275,245.638,156.897z
				 M151.387,192.596c0.535-0.243,1.073-0.47,1.613-0.682c2.317,6.12,4.634,12.241,6.952,18.361
				c0.092,0.241,5.028-2.205,4.659-3.183c-2.113-5.583-4.228-11.167-6.341-16.749c15.368-3.234,31.57,4.787,37.971,19.562
				c-5.271,1.994-10.541,3.99-15.812,5.985c-2.937,1.112,2.217,2.87,3.861,2.247c4.354-1.648,8.711-3.298,13.064-4.946
				c4.429,16.165-3.199,33.045-17.979,40.863c-0.947-2.506-1.897-5.012-2.846-7.517c-1-2.643-6.544-2.707-5.365,0.405
				c1.159,3.063,2.32,6.126,3.479,9.189c-15.562,5.474-33.036-1.39-40.834-15.706c4.137-1.565,8.273-3.132,12.411-4.697
				c3.443-1.306,1.145-4.819-1.811-3.7c-4.113,1.558-8.227,3.114-12.341,4.673C125.297,219.455,135.113,199.978,151.387,192.596z
				 M168.804,279.867c-7.388,2.798-14.777,5.595-22.167,8.393c-13.507,5.113-17.338-7.756-20.886-17.125
				c-3.052-8.062-6.105-16.125-9.158-24.188c4.631-1.753,9.262-3.506,13.893-5.259c8.631,16.177,28.286,24.479,46.038,19.404
				c1.75,4.622,3.499,9.244,5.25,13.865C177.451,276.595,173.126,278.231,168.804,279.867z M266.182,243.001
				c-26.526,10.043-53.054,20.086-79.582,30.13c-1.742-4.601-3.484-9.201-5.226-13.801c17.794-7.975,25.467-29.145,19.418-47.438
				c8.628-3.267,17.256-6.533,25.885-9.8c7.7,16.071,27.177,25.154,44.467,22.175c1.259-0.218,2.478-0.507,3.67-0.849
				c1.803,4.757,3.603,9.514,5.403,14.27C275.54,239.459,270.862,241.23,266.182,243.001z M314.346,224.767
				c-3.053,1.155-6.107,2.312-9.16,3.469c-7.415,2.807-14.831,5.614-22.246,8.422c-1.787-4.718-3.573-9.438-5.36-14.156
				c17.29-6.57,26.515-26.163,22.017-44.065c4.354-1.649,8.711-3.299,13.067-4.948c3.743,9.888,7.485,19.774,11.229,29.661
				c0.153,0.406,0.307,0.811,0.46,1.216C327.229,213.127,322.819,221.559,314.346,224.767z"/>
			<path fill="#1A171B" d="M64.823,103.569c0.542-2.879,1.865-5.567,3.843-7.742c1.853-3.189,3.985-6.252,6.4-9.148
				c-1.273,0.481-2.546,0.963-3.819,1.445c-7.3,2.764-11.747,8.983-12.043,16.774c-0.121,3.17,1.138,6.179,2.256,9.093
				C62.288,110.445,63.408,106.959,64.823,103.569z"/>
		</g>
	</g>
	<g>
		<g>
			<path fill="#6F7072" d="M184.106,120.395c-2.53-22.765-17.648-43.908-39.669-51.555c-21.646-7.518-44.816-2.045-61.168,13.927
				c-21.511,22.036-23.798,56.142-5.771,81.024l12.814,12.702c19.271,13.961,45.745,15.43,65.863,2.228
				C175.385,166.113,186.662,143.399,184.106,120.395z M171.599,135.351c-4.407,3.911,1.253,8.909-2.218,13.593
				c-1.844,2.488-5.691,1.912-8.041,0.831c-4.113-1.894-5.953,0.383-7.413,3.986c-0.626,1.548-2.288,2.514-3.698,3.184
				c-3.321,1.579-6.359-1.303-7.479-4.136c-1.863-4.719-4.545-3.627-8.842-2.982c-1.456,0.219-3.48,0.497-4.779-0.465
				c-4.117-3.048-1.523-5.57-1.124-9.473c0.042-0.401,0.072-0.822,0.094-1.249c-1.278,2.26-3.713,3.22-6.549,3.233
				c-1.282,0.006-5.103,0.803-5.283,2.827c-0.099,1.097,0.297,3.033,0.023,4.235c-0.336,1.482-0.886,3.339-2.281,4.217
				c-3.095,1.947-6.143,1.46-8.676-1.166c-3.112-3.226-5.538-2.501-8.435,0.568c-0.913,0.967-2.527,1.712-3.852,1.807
				c-4.005,0.29-6.149-2.465-6.167-6.284c-0.021-4.609-2.865-6.291-7.13-6.168c-1.666,0.047-3.098-0.983-4.28-2.007
				c-3.324-2.877,0.399-6.457,1.945-8.716c2.572-3.755,1.414-5.826-1.661-8.729c-0.968-0.913-1.73-3.086-1.423-4.434
				c0.824-3.619,3.76-5.059,7.277-5.074c1.281-0.006,5.103-0.801,5.284-2.825c0.097-1.099-0.296-3.033-0.024-4.235
				c0.335-1.483,0.884-3.341,2.279-4.218c3.095-1.947,6.143-1.46,8.677,1.166c3.114,3.226,5.537,2.5,8.437-0.569
				c0.888-0.94,2.565-1.713,3.852-1.806c3.91-0.281,6.274,2.455,6.164,6.287c0.022,4.61,2.866,6.288,7.131,6.166
				c1.667-0.047,3.099,0.984,4.28,2.007c0.162,0.141,0.294,0.284,0.424,0.427c-0.434-2.417-1.109-4.946,0.702-7.392
				c1.843-2.487,5.692-1.912,8.04-0.831c4.116,1.896,5.954-0.384,7.415-3.988c0.628-1.546,2.288-2.513,3.699-3.183
				c3.32-1.577,6.361,1.303,7.478,4.138c1.865,4.718,4.545,3.625,8.843,2.981c1.456-0.218,3.48-0.497,4.779,0.465
				c4.115,3.049,1.523,5.57,1.124,9.473c-0.127,1.229-0.213,2.641,0.06,3.875c0.646,2.924,3.322,1.854,4.888,3.011
				c1.224,0.904,2.649,2.005,2.894,3.643C178.811,132.782,174.563,132.719,171.599,135.351z"/>
			<g>
				<path fill="#58585A" d="M174.26,114.809c-0.938-0.694-2.252-0.74-3.459-0.63c-0.247,0.872-0.505,1.804-0.61,2.833
					c-0.127,1.229-0.213,2.641,0.06,3.875c0.646,2.924,3.322,1.854,4.888,3.011c0.089,0.065,0.179,0.135,0.271,0.202
					C175.869,120.302,178.311,117.81,174.26,114.809z"/>
				<path fill="#58585A" d="M183.224,134.811c-0.243-1.638-1.67-2.738-2.894-3.643c-0.7-0.519-1.625-0.591-2.488-0.774
					c-0.919,2.492-3.958,2.928-6.243,4.957c-4.407,3.911,1.253,8.909-2.218,13.593c-1.844,2.488-5.691,1.912-8.041,0.831
					c-4.113-1.894-5.953,0.383-7.413,3.986c-0.626,1.548-2.288,2.514-3.698,3.184c-3.321,1.579-6.359-1.303-7.479-4.136
					c-1.863-4.719-4.545-3.627-8.842-2.982c-0.406,0.061-0.855,0.124-1.32,0.166c-0.689,2.435-1.297,4.396,1.734,6.64
					c1.299,0.961,3.322,0.684,4.778,0.465c4.297-0.646,6.979-1.737,8.843,2.981c1.119,2.834,4.158,5.715,7.479,4.137
					c1.411-0.671,3.072-1.636,3.699-3.185c1.461-3.603,3.299-5.88,7.413-3.985c2.349,1.08,6.196,1.656,8.041-0.831
					c3.47-4.685-2.188-9.683,2.217-13.593C179.756,139.989,184.003,140.052,183.224,134.811z"/>
				<path fill="#58585A" d="M128.004,139.889c0.042-0.401,0.072-0.822,0.094-1.249c-1.278,2.26-3.713,3.22-6.549,3.233
					c-1.282,0.006-5.103,0.803-5.283,2.827c-0.099,1.097,0.297,3.033,0.023,4.235c-0.336,1.482-0.886,3.339-2.281,4.217
					c-3.095,1.947-6.143,1.46-8.676-1.166c-3.112-3.226-5.538-2.501-8.435,0.568c-0.913,0.967-2.527,1.712-3.852,1.807
					c-0.361,0.026-0.702,0.02-1.032-0.003c0.034,0.315,0.057,0.641,0.059,0.989c0.017,3.819,2.162,6.573,6.166,6.284
					c1.324-0.096,2.939-0.84,3.853-1.807c2.896-3.069,5.321-3.794,8.434-0.569c2.534,2.626,5.582,3.113,8.677,1.166
					c1.396-0.877,1.945-2.734,2.28-4.217c0.273-1.202-0.121-3.138-0.023-4.235c0.181-2.023,4.001-2.82,5.284-2.826
					c0.659-0.003,1.296-0.063,1.904-0.173C125.249,146.094,127.623,143.622,128.004,139.889z"/>
				<path fill="#58585A" d="M121.415,112.815c-0.333-2.858-2.184-4.875-5.08-5.079C116.668,110.903,118.565,112.432,121.415,112.815
					z"/>
				<path fill="#58585A" d="M175.022,94.012c-7.02-11.459-17.6-20.662-30.585-25.172c-21.646-7.518-44.816-2.045-61.168,13.927
					c-21.511,22.036-23.798,56.142-5.771,81.024l1.441,1.43c-13.802-24.171-10.352-54.825,9.521-75.184
					c16.352-15.971,39.523-21.444,61.169-13.927C159.732,79.617,168.374,85.971,175.022,94.012z"/>
				<path fill="#58585A" d="M80.162,141.907c-0.991,1.732-1.407,3.614,0.501,5.266c1.183,1.022,2.613,2.054,4.28,2.006
					c0.718-0.021,1.392,0.015,2.021,0.102c-0.052-0.388-0.082-0.787-0.085-1.203C86.859,143.62,84.194,141.905,80.162,141.907z"/>
			</g>
			<g>
				<path fill="#FFFFFF" d="M123.567,133.79c-0.542-0.391-1.014-0.852-1.452-1.345c-0.954-0.779-1.84-1.718-2.027-2.976
					c-0.3-2.021,0.15-3.25,0.982-4.152c0.541-1.277,1.273-2.48,1.888-3.072c1.259-1.215,5.818-6.716-1.485-6.152
					c-1.001,0.163-2.003,0.159-3.001-0.012c-1.107-0.099-1.93-0.486-2.818-1.088c-2.016-1.362-2.946-5.114-2.957-7.372
					c0.089-3.111-3.817-3.813-5.657-1.671c-0.463,0.447-0.95,0.865-1.463,1.255c-0.877,0.73-2.247,1.253-3.401,1.248
					c-2.018-0.011-5.238-1.22-6.628-2.659c-2.072-2.147-5.325-0.099-5.117,2.605c-0.03,0.618-0.081,1.234-0.152,1.849
					c-0.355,1.231-0.567,1.721-1.266,2.753c-1.148,1.699-5.021,3.076-6.977,3.086c-2.981,0.013-5.141,2.979-2.595,5.164
					c0.824,0.595,1.529,1.308,2.115,2.137c0.71,0.854,0.914,1.727,1.115,2.766c0.342,1.77-1.383,5.447-2.621,6.644
					c-1.258,1.214-5.822,6.714,1.484,6.151c1.001-0.163,2.002-0.159,3.001,0.011c1.108,0.1,1.929,0.488,2.819,1.089
					c1.972,1.333,3.019,5.142,2.955,7.372c-0.086,3.112,3.82,3.812,5.66,1.67c0.461-0.447,0.949-0.865,1.463-1.254
					c0.876-0.731,2.247-1.252,3.4-1.248c2.018,0.011,5.238,1.22,6.627,2.659c2.072,2.146,5.325,0.1,5.117-2.604
					c0.032-0.618,0.083-1.234,0.152-1.85c0.356-1.229,0.568-1.721,1.266-2.752c1.148-1.7,5.023-3.078,6.978-3.088
					C123.954,138.939,126.113,135.975,123.567,133.79z M109.475,135.917c-4.539,4.186-11.316,3.992-15.553-0.602
					c-3.92-4.251-5.019-11.926-0.392-16.191c4.438-4.093,10.691-3.939,15.108,0.134c0.127,0.119,0.249,0.251,0.365,0.393
					c0.027,0.027,0.053,0.046,0.079,0.074C113.004,123.977,114.1,131.651,109.475,135.917z"/>
				<path fill="#FCC600" d="M96.393,132.552c-3.156-2.47-2.053-6.885,0.29-9.427c2.728-2.958,7.416-2.775,10.296-0.284
					C112.298,129.22,102.73,137.511,96.393,132.552z"/>
				<path fill="#FFFFFF" d="M170.596,125.813c-0.126-0.05-0.254-0.099-0.38-0.147c-0.582-0.24-1.114-0.556-1.597-0.948
					c-0.775-0.65-1.58-1.284-1.812-2.336c-0.554-2.504-0.479-5.246,0.629-7.582c3.365-7.108-6.878-2.525-9.955-3.223
					c-2.352-0.532-4.6-3.795-5.414-5.858c-2.173-5.517-6.629,2.583-7.426,3.535c-0.454,0.542-1.33,1.081-2.035,1.237
					c-2.197,0.484-5.103,0.747-7.203-0.221c-1.875-1.198-3.26-0.086-4.155,3.335c0.224,0.464,0.446,0.93,0.67,1.395
					c0.183,0.591,0.353,1.185,0.511,1.782c0.08,0.89,0.285,2.144-0.258,2.971c-1.535,2.343-3.503,4.385-6.143,5.424
					c-0.999,1.583-1.478,2.86-1.445,3.837c0.252,0.604,0.644,1.196,1.154,1.806c0.444,0.236,1.01,0.401,1.712,0.485
					c0.128,0.049,0.254,0.099,0.382,0.147c0.582,0.239,1.113,0.556,1.596,0.947c0.777,0.65,1.58,1.283,1.812,2.337
					c0.552,2.502,0.479,5.247-0.626,7.581c-3.37,7.11,6.876,2.526,9.952,3.224c2.353,0.532,4.601,3.795,5.415,5.859
					c2.174,5.511,6.627-2.583,7.424-3.537c0.455-0.542,1.33-1.082,2.037-1.236c2.197-0.483,5.1-0.746,7.203,0.222
					c1.874,1.197,3.258,0.086,4.155-3.335l-0.67-1.393c-0.182-0.592-0.352-1.186-0.511-1.783c-0.08-0.889-0.285-2.144,0.257-2.971
					c1.537-2.343,3.503-4.385,6.145-5.427C174.345,128.25,173.871,126.208,170.596,125.813z M158.431,133.971
					c-2.952,4.654-10.464,6.323-15.312,3.895c-5.649-2.83-8.004-9.179-4.49-14.718c3.102-4.889,9.876-5.793,14.958-4.014
					c0.131,0.03,0.252,0.067,0.354,0.119c0.154,0.059,0.278,0.134,0.385,0.216C159.69,122.393,161.861,128.562,158.431,133.971z"/>
				<path fill="#FCC600" d="M154.929,129.735c-0.257,4.063-4.287,7.591-8.263,6.081c-7.695-2.923-4.652-17.699,3.727-14.515
					C153.683,122.95,155.154,126.168,154.929,129.735z"/>
			</g>
			<path fill="#2D2C2F" d="M89.275,175.455l-7.559-7.491c-0.098,0.253-0.251,0.486-0.415,0.653
				c-21.111,21.166-44.614,39.782-65.817,60.815c-0.005,0.006-0.008,0.011-0.013,0.016c-3.262,3.778-3.885,12.252,0.163,15.771
				c3.835,3.334,9.124,2.665,12.482-0.842c5.676-5.925,11.11-12.085,16.591-18.188c14.1-15.697,28.098-31.505,43.036-46.416
				c0.972-0.971,3.375-1.556,5.591-1.633C91.951,177.303,90.594,176.411,89.275,175.455z"/>
			<path fill="#1A171B" d="M165.92,74.989c-18.934-13.224-44.016-15.338-65.295-6.849c-8.28,3.302-15.701,8.435-22.059,14.644
				c-22.078,22.617-25.202,57.744-7.031,83.633c-20.881,20.799-44.018,39.19-64.92,59.931c-0.105,0.104-0.186,0.212-0.257,0.322
				c-3.205,3.953-3.895,9.415-2.681,14.27c1.504,6.021,6.915,8.834,12.621,9.704c10.637,1.621,16.412-5.003,22.794-11.997
				c16.79-18.403,33.071-37.29,50.573-55.025c18.757,11.752,41.953,14.003,62.804,5.961c22.487-8.674,38.177-29.5,41.343-53.188
				C197.005,112.508,185.445,88.627,165.92,74.989z M158.253,180.798C138.135,194,111.661,192.531,92.39,178.57
				c-1.813-1.313-5.026-1.528-6.724,0.165c-14.938,14.911-28.937,30.72-43.036,46.417c-5.481,6.103-10.915,12.262-16.591,18.187
				c-3.359,3.508-8.647,4.177-12.481,0.843c-4.049-3.52-3.425-11.994-0.164-15.772c0.005-0.005,0.009-0.01,0.013-0.015
				c21.203-21.033,44.706-39.65,65.817-60.816c0.396-0.397,0.739-1.176,0.352-1.71c-18.027-24.882-15.739-58.988,5.771-81.024
				c16.352-15.972,39.522-21.444,61.168-13.927c22.021,7.647,37.139,28.791,39.669,51.555
				C188.739,145.477,177.462,168.189,158.253,180.798z"/>
			<path fill="#1A171B" d="M140.997,154.919C140.775,154.805,140.878,154.826,140.997,154.919L140.997,154.919z"/>
			<path fill="#1A171B" d="M111.157,121.619c-0.116-0.141-0.237-0.274-0.365-0.392c-4.418-4.074-10.67-4.227-15.108-0.134
				c-4.627,4.265-3.528,11.94,0.392,16.191c4.235,4.593,11.014,4.787,15.552,0.601c4.626-4.266,3.53-11.94-0.392-16.191
				C111.209,121.665,111.183,121.646,111.157,121.619z M98.545,134.521c-3.156-2.471-2.053-6.885,0.29-9.427
				c2.729-2.958,7.416-2.775,10.297-0.284C114.451,131.188,104.882,139.479,98.545,134.521z M156.479,121.438
				c-0.108-0.082-0.232-0.157-0.386-0.216c-0.103-0.052-0.224-0.089-0.354-0.12c-5.082-1.777-11.856-0.874-14.957,4.015
				c-3.515,5.539-1.16,11.887,4.489,14.718c4.85,2.429,12.359,0.759,15.312-3.895C164.013,130.53,161.841,124.361,156.479,121.438z
				 M157.081,131.704c-0.255,4.063-4.285,7.591-8.262,6.08c-7.694-2.922-4.652-17.698,3.727-14.514
				C155.835,124.918,157.306,128.137,157.081,131.704z M180.109,129.617c-0.245-1.638-1.67-2.738-2.894-3.643
				c-1.565-1.157-4.242-0.087-4.888-3.011c-0.272-1.234-0.187-2.646-0.06-3.875c0.399-3.902,2.992-6.424-1.124-9.473
				c-1.298-0.962-3.323-0.684-4.779-0.465c-4.298,0.645-6.978,1.737-8.843-2.981c-1.116-2.835-4.157-5.715-7.478-4.138
				c-1.411,0.67-3.071,1.636-3.699,3.183c-1.461,3.604-3.299,5.884-7.415,3.988c-2.348-1.082-6.197-1.657-8.04,0.83
				c-1.812,2.445-1.136,4.975-0.702,7.392c-0.129-0.144-0.262-0.286-0.424-0.427c-1.182-1.023-2.613-2.054-4.28-2.006
				c-4.265,0.122-7.108-1.558-7.13-6.167c0.109-3.833-2.254-6.568-6.165-6.287c-1.286,0.093-2.964,0.866-3.853,1.807
				c-2.898,3.068-5.321,3.795-8.436,0.568c-2.533-2.625-5.582-3.112-8.677-1.165c-1.396,0.877-1.944,2.734-2.279,4.218
				c-0.271,1.202,0.121,3.137,0.024,4.235c-0.182,2.024-4.002,2.819-5.285,2.825c-3.517,0.016-6.451,1.455-7.276,5.074
				c-0.308,1.348,0.455,3.521,1.423,4.434c3.075,2.903,4.233,4.975,1.661,8.729c-1.547,2.259-5.27,5.839-1.944,8.716
				c1.182,1.023,2.613,2.055,4.279,2.006c4.264-0.123,7.107,1.559,7.13,6.168c0.018,3.82,2.163,6.573,6.166,6.284
				c1.325-0.096,2.94-0.839,3.853-1.807c2.896-3.07,5.321-3.793,8.435-0.568c2.534,2.626,5.581,3.113,8.676,1.166
				c1.396-0.878,1.945-2.735,2.281-4.218c0.272-1.201-0.122-3.137-0.023-4.234c0.181-2.024,4.001-2.82,5.283-2.827
				c2.835-0.013,5.271-0.974,6.549-3.233c-0.021,0.427-0.052,0.849-0.093,1.249c-0.4,3.902-2.994,6.425,1.123,9.473
				c1.299,0.962,3.323,0.684,4.779,0.465c4.297-0.645,6.979-1.736,8.842,2.982c1.12,2.833,4.158,5.715,7.479,4.136
				c1.411-0.67,3.073-1.635,3.699-3.184c1.461-3.603,3.3-5.88,7.414-3.986c2.349,1.081,6.196,1.657,8.04-0.831
				c3.471-4.685-2.188-9.682,2.217-13.592C176.64,134.796,180.888,134.859,180.109,129.617z M123.125,140.922
				c-1.954,0.01-5.83,1.388-6.979,3.087c-0.696,1.032-0.908,1.523-1.265,2.752c-0.069,0.615-0.12,1.231-0.153,1.85
				c0.21,2.704-3.045,4.751-5.116,2.604c-1.389-1.439-4.61-2.648-6.627-2.659c-1.153-0.006-2.525,0.517-3.401,1.248
				c-0.513,0.389-1.001,0.807-1.462,1.254c-1.84,2.143-5.747,1.442-5.659-1.67c0.062-2.23-0.984-6.039-2.956-7.372
				c-0.891-0.601-1.711-0.99-2.819-1.089c-0.999-0.17-2-0.173-3.002-0.011c-7.306,0.562-2.741-4.938-1.482-6.151
				c1.238-1.197,2.962-4.874,2.62-6.644c-0.201-1.039-0.404-1.913-1.115-2.766c-0.585-0.83-1.291-1.542-2.115-2.137
				c-2.547-2.186-0.388-5.151,2.595-5.165c1.954-0.009,5.827-1.387,6.977-3.085c0.698-1.032,0.909-1.522,1.267-2.754
				c0.07-0.614,0.121-1.231,0.151-1.849c-0.208-2.704,3.045-4.753,5.117-2.605c1.389,1.438,4.61,2.648,6.628,2.659
				c1.154,0.006,2.523-0.518,3.401-1.249c0.513-0.389,1-0.807,1.462-1.254c1.84-2.144,5.748-1.44,5.658,1.671
				c0.01,2.258,0.941,6.01,2.958,7.372c0.888,0.601,1.71,0.989,2.817,1.088c0.999,0.171,2,0.174,3.001,0.011
				c7.303-0.563,2.744,4.938,1.485,6.152c-0.614,0.592-1.347,1.795-1.889,3.073c-0.831,0.902-1.282,2.132-0.981,4.152
				c0.187,1.259,1.073,2.198,2.027,2.977c0.438,0.493,0.91,0.954,1.451,1.345C128.264,137.943,126.106,140.907,123.125,140.922z
				 M174.17,133.908c-2.642,1.042-4.606,3.084-6.145,5.427c-0.541,0.827-0.336,2.082-0.256,2.971
				c0.159,0.598,0.328,1.191,0.51,1.783l0.671,1.393c-0.896,3.421-2.281,4.533-4.155,3.335c-2.104-0.968-5.007-0.706-7.203-0.222
				c-0.707,0.155-1.582,0.694-2.037,1.236c-0.797,0.953-5.251,9.048-7.424,3.536c-0.814-2.063-3.063-5.326-5.416-5.859
				c-3.075-0.697-13.322,3.887-9.952-3.224c1.107-2.334,1.179-5.078,0.627-7.58c-0.232-1.054-1.034-1.687-1.812-2.338
				c-0.482-0.392-1.015-0.707-1.596-0.946c-0.129-0.049-0.254-0.099-0.381-0.147c-0.702-0.084-1.269-0.25-1.713-0.485
				c-0.512-0.609-0.903-1.202-1.154-1.806c-0.032-0.976,0.446-2.253,1.444-3.836c2.642-1.04,4.607-3.082,6.144-5.424
				c0.542-0.828,0.338-2.082,0.258-2.972c-0.159-0.598-0.328-1.191-0.511-1.783c-0.223-0.464-0.446-0.929-0.671-1.394
				c0.896-3.422,2.281-4.533,4.156-3.336c2.102,0.969,5.006,0.706,7.202,0.222c0.706-0.156,1.581-0.694,2.036-1.236
				c0.796-0.953,5.253-9.052,7.426-3.535c0.815,2.062,3.062,5.326,5.414,5.858c3.076,0.696,13.32-3.887,9.954,3.223
				c-1.106,2.336-1.182,5.078-0.628,7.582c0.232,1.053,1.036,1.686,1.812,2.336c0.481,0.393,1.014,0.708,1.596,0.948
				c0.128,0.048,0.254,0.098,0.381,0.147C176.023,128.176,176.498,130.219,174.17,133.908z"/>
		</g>
	</g>
</g>
</svg>
