<?xml version="1.0" encoding="utf-8"?>
<!-- Generator: Adobe Illustrator 16.0.0, SVG Export Plug-In . SVG Version: 6.00 Build 0)  -->
<!DOCTYPE svg PUBLIC "-//W3C//DTD SVG 1.1//EN" "http://www.w3.org/Graphics/SVG/1.1/DTD/svg11.dtd">
<svg version="1.1" id="Layer_1" xmlns="http://www.w3.org/2000/svg" xmlns:xlink="http://www.w3.org/1999/xlink" x="0px" y="0px"
	 width="70.98px" height="54.604px" viewBox="0 0 70.98 54.604" enable-background="new 0 0 70.98 54.604" xml:space="preserve">
<g>
	<g>
		<path fill="#FFFFFF" d="M69.52,31.722c-6.949,0.095-14.059,1.122-20.945,3.054c-0.283,1.363-0.506,2.465-0.676,3.347
			c5.846-1.426,11.863-2.167,17.91-2.25C67.275,35.852,69.697,31.719,69.52,31.722z"/>
		<path fill="#FFFFFF" d="M40.762,37.414c-8.73,3.452-16.82,8.449-23.381,14.985c-2.344,2.335-1.535,3.139,0.807,0.805
			c0.006-0.006,0.004-0.005,0.004-0.006c0.059-0.053,0.164-0.146,0.365-0.329c0.705-0.635,1.445-1.227,2.189-1.814
			c2.996-2.362,6.258-4.381,9.605-6.201c3.189-1.734,6.496-3.201,9.887-4.423C40.35,39.699,40.531,38.666,40.762,37.414z"/>
	</g>
	<g>
		<g>
			<g>
				<path fill="#FFFFFF" d="M24.203,3.229c0.387-0.092,0.771-0.208,1.113-0.358c0.432-0.174,0.643-0.782,0.65-1.317
					c0.006-0.513-0.168-0.936-0.553-0.843c-0.588,0.139-1.271,0.442-1.973,0.612c-1.133,0.271-2.354,0.471-3.533,0.755
					c-0.678,0.161-1.336,0.343-1.947,0.582c-0.5,0.189-1.102,1.217-1.107,1.752c-0.004,0.212,0.105,0.346,0.379,0.281
					c0.611-0.146,1.225-0.388,1.857-0.539c0.68-0.163,1.361-0.303,2.039-0.396c-0.414,0.284-0.709,0.658-0.83,1.081
					c-1.547,5.853-2.633,12.499-2.645,13.243c-0.006,0.583,0.486,0.792,0.939,0.682c0.34-0.083,0.684-0.351,0.779-0.793
					c0.654-3.196,1.428-6.864,3.15-13.968c0.047-0.152,0.049-0.359-0.016-0.461C23.096,3.448,23.684,3.353,24.203,3.229z"/>
				<path fill="#FFFFFF" d="M40,8.474c-0.113,0.027-0.229,0.148-0.365,0.412c-0.604,1.097-1.791,3.892-3.947,4.408
					c-1.402,0.337-1.469-1.413-1.453-2.438c0.291,0.022,0.586-0.001,0.859-0.065c2.398-0.577,4.072-4.114,4.104-6.351
					c0.016-1.142-0.4-1.924-1.35-1.812c-0.268-0.17-0.787-0.206-1.287-0.086c-2.188,0.524-4.057,4.762-4.381,8.138
					c-0.977,2.114-1.75,4.084-2.494,4.262c-0.295,0.07-0.406-0.111-0.402-0.483c0.021-1.516,1.959-5.996,1.996-8.583
					c0.01-0.861-0.311-1.875-1.65-1.555c-1.041,0.249-2.057,1.841-2.896,3.875c1.18-5.252,1.83-6.707,1.84-7.453
					c0.01-0.607-0.572-0.836-1.117-0.707c-0.408,0.097-0.771,0.369-0.893,0.816c-1.613,5.707-3.314,14.358-3.336,15.871
					c-0.01,0.701,0.414,0.923,0.846,0.819c0.906-0.217,0.852-1.087,1.408-3.729C26.516,9.247,28.342,6.067,29,5.91
					c0.227-0.053,0.312,0.135,0.309,0.482c-0.021,1.538-1.873,6.28-1.9,8.307c-0.018,1.397,0.834,1.843,1.738,1.625
					c1.414-0.337,2.416-2.554,2.998-4.122c0.121,1.865,0.916,3.137,2.664,2.718c2.605-0.625,4.219-3.057,5.275-5.911
					c0.047-0.126,0.072-0.249,0.072-0.341C40.158,8.528,40.092,8.452,40,8.474z M37.432,3.238c0.34-0.081,0.381,0.304,0.377,0.676
					c-0.025,1.818-2.004,5.96-3.338,6.281c-0.07,0.017-0.115,0.027-0.182,0.022C34.6,7.354,36.143,3.549,37.432,3.238z"/>
			</g>
			<g>
				<path fill="#FFFFFF" d="M1.922,25.864C1.084,26.065-0.018,25.004,0,23.782c0.023-1.545,3.357-5.892,7.967-6.998
					c4.508-1.08,8.051,2.046,7.988,6.468c-0.055,3.988-2.559,8.779-7.771,10.459c1.607,2.085,1.629,5.771,2.885,5.469
					c1.189-0.284,3.012-3.693,4.02-6.015c0.145-0.356,0.354-0.55,0.529-0.594c0.139-0.032,0.279,0.042,0.271,0.294
					c0,0.144-0.037,0.295-0.107,0.493c-1.088,2.982-3.07,7.936-5.797,8.589c-2.652,0.638-2.643-2.805-3.98-6.531
					c-0.809,2.989-1.471,5.51-1.664,6.738c-0.111,0.673-0.676,1.129-1.232,1.264c-0.666,0.159-1.395-0.131-1.379-1.103
					c0.01-0.86,0.799-4.848,1.354-7.273c-0.312-0.139-0.445-0.431-0.443-0.752c0.008-0.468,0.332-1.012,0.998-1.388
					c0.846-3.318,1.941-7.02,3.184-11.473c0.225-0.771,0.891-1.251,1.555-1.411c0.803-0.193,1.6,0.046,1.592,0.728
					c-0.002,0.072-0.002,0.181-0.039,0.261c-0.918,3.551-2.127,7.781-3.154,11.611c0.207,0.057,0.416,0.187,0.588,0.287
					c3.576-1.896,5.727-6.353,5.785-10.413c0.02-1.475-0.238-2.952-0.848-4.203c-0.834-0.23-1.74-0.191-2.611,0.017
					c-2.762,0.664-5.545,3.229-7.025,6.844C2.482,25.587,2.238,25.788,1.922,25.864z"/>
				<path fill="#FFFFFF" d="M25.908,23.549c-0.047,3.45-2.629,8.907-6.332,9.794c-0.422,0.1-0.873,0.138-1.326,0.103
					c-0.021,1.581,0.08,4.279,2.244,3.761c3.32-0.796,5.156-5.104,6.084-6.798c0.215-0.408,0.395-0.593,0.568-0.636
					c0.139-0.033,0.24,0.084,0.238,0.301c-0.002,0.144-0.041,0.332-0.111,0.528c-1.627,4.403-4.119,8.152-8.137,9.115
					c-3,0.72-4.188-1.79-4.141-5.204c0.076-5.355,3.178-13.012,6.844-13.892c0.77-0.185,1.568-0.126,1.984,0.134
					C25.289,20.582,25.934,21.789,25.908,23.549z M18.613,32.428c2.062-0.495,5.109-6.885,5.146-9.688
					c0.01-0.574-0.051-1.168-0.576-1.043c-1.992,0.478-4.371,6.349-4.852,10.764C18.438,32.471,18.506,32.453,18.613,32.428z"/>
				<path fill="#FFFFFF" d="M34.643,18.983c-1.957,0.468-4.672,7.893-4.734,12.347c-0.033,2.409,0.645,3.713,2.498,3.27
					c2.758-0.664,5.324-4.822,6.33-7.106c0.18-0.438,0.393-0.632,0.566-0.672c0.141-0.035,0.242,0.048,0.24,0.301
					c-0.002,0.142-0.041,0.334-0.113,0.564c-1.264,3.385-4.154,8.267-8.17,9.23c-3.496,0.837-4.816-1.782-4.766-5.449
					c0.076-5.356,3.172-12.723,6.91-13.618c0.77-0.186,1.463-0.03,1.875,0.229c1.568-0.09,2.139,1.637,2.109,3.576
					c-0.035,2.59-0.766,4.985-2.65,5.438c-0.805,0.193-1.566-0.09-1.557-0.737c0.02-1.438,2.238-3.188,2.279-6.17
					C35.471,19.429,34.992,18.901,34.643,18.983z"/>
				<path fill="#FFFFFF" d="M41.23,30.837c-0.01,0.754,0.158,1.144,0.613,1.034c1.295-0.309,3.275-5.118,3.67-6.002
					c0.213-0.446,0.428-0.713,0.602-0.753c0.139-0.035,0.242,0.083,0.24,0.301c-0.002,0.179-0.039,0.368-0.148,0.644
					c-0.508,1.377-2.615,7.755-5.549,8.459c-1.363,0.327-2.502-0.404-2.465-3.099c0.031-2.155,1.449-9.125,2.918-14.742
					c0.188-0.651,0.748-1.109,1.412-1.269c0.877-0.209,1.811,0.174,1.793,1.397C44.289,18.711,41.27,28.068,41.23,30.837z
					 M41.557,12.275c0.023-1.545,1.271-3.852,3.195-4.312c1.434-0.344,2.051,0.367,2.035,1.374c-0.021,1.511-1.48,3.759-3.682,4.286
					C42.025,13.882,41.545,13.209,41.557,12.275z"/>
				<path fill="#FFFFFF" d="M46.99,32.356c-0.969,4.494-1.754,8.443-1.877,9.762c-0.082,0.882-0.68,1.239-1.307,1.39
					c-0.736,0.176-1.5-0.034-1.482-1.186c0.018-1.187,3.795-20.183,5.227-25.574c0.262-0.959,0.965-1.521,1.631-1.68
					c0.768-0.186,1.494,0.143,1.482,1.004c-0.004,0.145-0.004,0.255-0.301,1.505c1.045-2.508,2.324-4.389,3.828-4.751
					c2.129-0.51,2.975,1.402,2.938,3.989c-0.059,4.243-2.342,10.664-5.273,13.836c3.186-1.479,5.102-3.979,6.83-7.94
					c0.178-0.437,0.389-0.667,0.566-0.708c0.137-0.035,0.24,0.085,0.238,0.335c-0.004,0.181-0.041,0.332-0.113,0.563
					c-1.848,4.958-4.225,8.286-9.324,9.51C48.445,32.795,47.506,32.662,46.99,32.356z M47.469,30.307
					c0.385-0.092,0.836,0.015,1.316,0.507c2.385-1,4.902-9.413,4.955-13.26c0.02-1.294-0.248-1.979-0.879-1.829
					c-1.363,0.328-2.951,4.218-4.166,9.093L47.469,30.307z"/>
				<path fill="#FFFFFF" d="M69.506,13.093c-0.047,3.452-2.633,8.907-6.336,9.795c-0.418,0.1-0.869,0.138-1.322,0.101
					c-0.021,1.584,0.078,4.282,2.244,3.764c3.318-0.799,5.156-5.106,6.086-6.799c0.213-0.409,0.391-0.595,0.562-0.638
					c0.141-0.033,0.246,0.087,0.24,0.302c0,0.146-0.039,0.33-0.109,0.529c-1.627,4.402-4.119,8.15-8.135,9.113
					c-3.006,0.719-4.189-1.79-4.143-5.202c0.074-5.354,3.178-13.014,6.844-13.891c0.77-0.187,1.568-0.127,1.984,0.132
					C68.887,10.126,69.529,11.333,69.506,13.093z M62.209,21.972c2.064-0.495,5.109-6.886,5.148-9.688
					c0.01-0.575-0.053-1.167-0.576-1.043c-1.992,0.477-4.371,6.35-4.85,10.762C62.033,22.015,62.104,21.997,62.209,21.972z"/>
			</g>
		</g>
	</g>
</g>
</svg>
