<?xml version="1.0" encoding="utf-8"?>
<!-- Generator: Adobe Illustrator 16.0.0, SVG Export Plug-In . SVG Version: 6.00 Build 0)  -->
<!DOCTYPE svg PUBLIC "-//W3C//DTD SVG 1.1//EN" "http://www.w3.org/Graphics/SVG/1.1/DTD/svg11.dtd">
<svg version="1.1" id="Layer_1" xmlns="http://www.w3.org/2000/svg" xmlns:xlink="http://www.w3.org/1999/xlink" x="0px" y="0px"
	 width="113.783px" height="129.554px" viewBox="0 0 113.783 129.554" enable-background="new 0 0 113.783 129.554"
	 xml:space="preserve">
<g>
	<g>
		<polygon fill="#1A171B" points="53.845,22.911 60.212,17.239 67.208,22.112 75.015,18.686 80.165,25.482 88.647,24.637 
			91.444,32.691 99.774,34.508 99.944,43.032 107.305,47.334 104.833,55.495 110.504,61.86 105.631,68.857 109.057,76.664 
			102.261,81.812 103.107,90.296 95.054,93.092 93.235,101.421 84.711,101.593 80.41,108.953 72.25,106.482 65.882,112.152 
			58.887,107.281 51.079,110.706 45.931,103.91 37.448,104.755 34.652,96.701 26.323,94.883 26.151,86.36 18.791,82.057 
			21.261,73.898 15.591,67.531 20.463,60.535 17.04,52.728 23.834,47.58 22.988,39.096 31.042,36.299 32.859,27.97 41.383,27.799 
			45.685,20.438 		"/>
		
			<text transform="matrix(0.9766 -0.2151 0.2151 0.9766 46.603 95.8804)" fill="#FFFFFF" font-family="'FuturaStd-Bold'" font-size="18.0179" letter-spacing="9">TIP</text>
		<g>
			<text transform="matrix(0.9766 -0.2151 0.2151 0.9766 41.5747 56.4155)"><tspan x="0" y="0" fill="#FFFFFF" font-family="'FuturaStd-Bold'" font-size="18.0179">TOP</tspan><tspan x="-11.594" y="20.556" fill="#F9B800" font-family="'Mission-Script'" font-size="30.4894">Recipe</tspan></text>
		</g>
	</g>
</g>
<g>
	<g>
		<path fill="#C9CACB" d="M111.562,14.222c0,3.871,0,7.742,0,11.613c0,4.774-2.22,7.983-4.594,11.869
			c-4.226,6.916-2.207,16.771-1.919,24.471c0.474,12.638,0.947,25.277,1.421,37.915c0.134,3.541,0.266,7.082,0.398,10.622
			c0.16,4.245-5.88,7.185-8.203,2.64c-0.457-0.897-0.209-2.305-0.175-3.266c0.687-18.637,1.371-37.273,2.057-55.912
			c0.085-2.331,0.171-4.661,0.257-6.992c0.191-5.23-2.741-8.799-5.115-13.123c-2.518-4.583-1.779-10.393-1.779-15.438
			c0-2.914,0-5.828,0-8.742c0-1.042,0-2.084,0-3.126c0-1.851,3.147-3.68,3.423-1.109c0.016,0.147,0.052,0.286,0.1,0.419
			c-0.003,0.45,0.005,0.904,0.005,1.354c0,3.729,0,7.458,0,11.187c0,1.733,3.477,3.719,3.477,1.509c0-4.006,0-8.013,0-12.019
			c0-0.488-0.016-0.946,0.011-1.373c0.074-0.19,0.105-0.421,0.097-0.686c0.149-0.586,0.488-1.078,1.25-1.439
			c0.928-0.439,1.936-0.397,2.229,0.436c-0.012,0.146-0.021,0.292-0.026,0.439c-0.021,0.289-0.032,0.576-0.032,0.856
			c0,4.154,0,8.309,0,12.462c0,2.039,3.711,3.534,3.711,1.136c0-2.484,0-4.967,0-7.452c0-0.513-0.057-1.186-0.117-1.92
			c0-0.567,0-1.136,0-1.705c0-0.88-0.145-1.873,0.064-2.722c0.008-0.03,0.015-0.061,0.022-0.091
			c0.142-0.503,0.415-0.951,0.938-1.286c0.452-0.291,0.833-0.398,1.154-0.381c0.805,0.415,1.349,1.905,1.349,2.937
			C111.562,9.611,111.562,11.917,111.562,14.222z"/>
		<g>
			<path fill="#9B9C9E" d="M101.185,17.162c0,1.638,2.394,2.92,3.335,2.12c-0.046-0.16-0.079-0.324-0.079-0.493
				c0-4.154,0-8.308,0-12.462c0-0.28,0.012-0.567,0.032-0.856c0.006-0.147,0.015-0.294,0.026-0.439
				c-0.293-0.833-1.301-0.875-2.229-0.436c-0.562,0.266-0.891,0.604-1.086,0.997C101.185,9.449,101.185,13.306,101.185,17.162z"/>
			<path fill="#9B9C9E" d="M110.213,4.369c-0.321-0.018-0.702,0.09-1.154,0.381c-0.36,0.231-0.597,0.519-0.759,0.839
				c0.001,0.029,0.006,0.061,0.006,0.089c0,2.305,0,4.611,0,6.917c0,3.871,0,7.742,0,11.613c0,4.774-2.219,7.983-4.593,11.869
				c-4.226,6.915-2.207,16.771-1.919,24.471c0.474,12.638,0.947,25.277,1.421,37.916c0.133,3.54,0.265,7.081,0.397,10.621
				c0.1,2.652-2.22,4.793-4.54,4.921c2.548,3.564,7.946,0.726,7.796-3.293c-0.133-3.54-0.265-7.081-0.398-10.622
				c-0.474-12.638-0.947-25.277-1.421-37.915c-0.288-7.699-2.307-17.555,1.919-24.471c2.374-3.885,4.594-7.095,4.594-11.869
				c0-3.871,0-7.742,0-11.613c0-2.306,0-4.611,0-6.917C111.562,6.274,111.018,4.784,110.213,4.369z"/>
			<path fill="#9B9C9E" d="M94.182,5.789c0,3.729,0,7.458,0,11.187c0,1.534,2.721,3.261,3.345,2.103
				c-0.053-0.158-0.09-0.318-0.09-0.476c0-3.729,0-7.458,0-11.187c0-0.45-0.008-0.903-0.005-1.354
				c-0.048-0.133-0.084-0.271-0.1-0.419c-0.226-2.11-2.383-1.255-3.15,0.142C94.182,5.786,94.182,5.788,94.182,5.789z"/>
		</g>
	</g>
	<g>
		<path fill="#1A171B" d="M113.645,15.642c0-3.737,0.306-7.622-0.092-11.342c-0.268-2.506-2.338-3.804-4.584-4.109
			c-0.961-0.191-1.967-0.137-2.9,0.154c-0.315,0.079-0.624,0.172-0.91,0.291c-0.402,0.169-0.724,0.404-1.003,0.67
			c-1.828-1.377-4.432-1.738-6.519-0.41c-0.18,0.115-0.336,0.239-0.482,0.367c-2.704-2.004-7.03-1.813-8.394,1.964
			c-0.814,2.254-0.19,5.661-0.19,8.012c0,3.657,0,7.313,0,10.97c0,2.28-0.027,4.524,0.334,6.788
			c0.582,3.634,2.722,6.679,4.619,9.728c2.163,3.474,1.93,6.8,1.789,10.617c-0.746,20.279-1.491,40.559-2.236,60.837
			c-0.234,6.36,8.547,11.269,13.404,6.413c2.759-2.759,2.471-5.841,2.339-9.34c-0.428-11.426-0.856-22.853-1.284-34.279
			c-0.339-9.037-0.678-18.075-1.016-27.112c-0.111-2.975,1.401-5.613,2.983-8c2.186-3.296,3.718-6.457,4.104-10.445
			C113.979,23.557,113.645,19.514,113.645,15.642z M109.934,13.409c0,3.871,0,7.742,0,11.612c0,4.774-2.219,7.983-4.593,11.869
			c-4.227,6.915-2.207,16.771-1.92,24.47c0.474,12.638,0.947,25.278,1.421,37.916c0.134,3.54,0.266,7.081,0.398,10.622
			c0.16,4.244-5.88,7.185-8.202,2.639c-0.458-0.896-0.21-2.305-0.175-3.266c0.686-18.637,1.37-37.273,2.056-55.911
			c0.086-2.33,0.171-4.661,0.257-6.992c0.192-5.23-2.741-8.799-5.115-13.123c-2.518-4.583-1.778-10.393-1.778-15.438
			c0-2.914,0-5.828,0-8.741c0-1.042,0-2.084,0-3.126c0-1.851,3.146-3.68,3.422-1.109c0.016,0.148,0.053,0.287,0.1,0.419
			c-0.003,0.45,0.005,0.903,0.005,1.353c0,3.729,0,7.458,0,11.187c0,1.732,3.477,3.719,3.477,1.508c0-4.006,0-8.012,0-12.019
			c0-0.488-0.015-0.946,0.011-1.373c0.074-0.19,0.105-0.42,0.097-0.686c0.149-0.586,0.489-1.077,1.25-1.439
			c0.928-0.439,1.937-0.397,2.229,0.436c-0.012,0.146-0.021,0.292-0.026,0.439c-0.021,0.289-0.032,0.576-0.032,0.857
			c0,4.154,0,8.309,0,12.462c0,2.039,3.712,3.534,3.712,1.137c0-2.484,0-4.968,0-7.452c0-0.513-0.058-1.186-0.118-1.92
			c0-0.568,0-1.137,0-1.705c0-0.88-0.145-1.873,0.065-2.722c0.007-0.03,0.014-0.061,0.021-0.091
			c0.142-0.503,0.415-0.951,0.938-1.286c0.452-0.291,0.834-0.398,1.154-0.381c0.805,0.416,1.349,1.905,1.349,2.937
			C109.934,8.797,109.934,11.103,109.934,13.409z"/>
	</g>
</g>
<g>
	<path fill="#C9CACB" d="M38.155,123.296c-4.911-14.589-9.825-29.178-14.736-43.767c-1.38-4.097-5.021-7.276-7.299-10.959
		c-4.309-6.958-7.128-14.739-8.822-22.719C6.042,39.933,5.602,33.811,6.03,27.776c0.09-1.263,0.239-2.528,0.478-3.774
		c6.994,17.972,14.571,35.739,21.867,53.585c4.484,10.971,8.974,21.939,13.463,32.909c1.156,2.821,2.311,5.644,3.467,8.465
		c0.151,0.368,0.303,0.737,0.453,1.106C47.951,125.421,40.006,128.796,38.155,123.296z"/>
	<path fill="#9B9C9E" d="M45.304,118.961c-1.156-2.821-2.311-5.644-3.467-8.465c-4.489-10.97-8.979-21.938-13.463-32.909
		C21.079,59.742,13.501,41.974,6.507,24.002c-0.238,1.246-0.388,2.511-0.478,3.774c-0.083,1.178-0.124,2.358-0.142,3.54
		c6.302,15.879,12.982,31.625,19.445,47.432c4.484,10.971,8.973,21.939,13.463,32.909c1.155,2.821,2.311,5.644,3.467,8.465
		c0.15,0.368,0.303,0.737,0.453,1.105c0.835,2.041,0.197,3.791-1.012,4.875c2.665,0.043,5.468-2.582,4.053-6.035
		C45.607,119.699,45.456,119.33,45.304,118.961z"/>
	<path fill="#1A171B" d="M29.493,74.835c-7.488-18.318-15.29-36.548-22.38-55.025c-0.026-0.071-0.067-0.134-0.103-0.199
		c-0.024-0.075-0.04-0.146-0.073-0.225c-1.479-3.436-4.716-1.535-5.576,1.061C-0.475,25.988-0.096,32.49,0.446,38.19
		C1.33,47.467,4.052,56.44,8.17,64.782c2.34,4.741,5.345,9.11,8.647,13.226c0.709,0.884,0.963,1.745,1.356,2.914
		c3.743,11.115,7.484,22.229,11.228,33.344c1.104,3.279,2.207,6.557,3.312,9.834c2.02,6.002,11.842,7.848,14.706,1.445
		c2.391-5.34-2.345-12.62-4.336-17.486C38.551,96.985,34.021,85.912,29.493,74.835z M36.344,123.117
		c-4.912-14.589-9.825-29.178-14.736-43.767c-1.38-4.097-5.021-7.276-7.301-10.959C10,61.432,7.18,53.652,5.488,45.672
		c-1.256-5.919-1.697-12.041-1.269-18.075c0.09-1.263,0.239-2.529,0.478-3.774c6.993,17.972,14.571,35.739,21.867,53.585
		c4.484,10.971,8.973,21.939,13.463,32.908c1.156,2.822,2.311,5.645,3.467,8.466c0.15,0.368,0.303,0.737,0.453,1.106
		C46.14,125.242,38.196,128.616,36.344,123.117z"/>
</g>
</svg>
